<svg class="main-svg" xmlns="http://www.w3.org/2000/svg" xmlns:xlink="http://www.w3.org/1999/xlink" width="700" height="500" style="" viewBox="0 0 700 500"><rect x="0" y="0" width="700" height="500" style="fill: rgb(255, 255, 255); fill-opacity: 1;"/><defs id="defs-7b30e8"><g class="clips"><clipPath id="clip7b30e8xyplot" class="plotclip"><rect width="540" height="320"/></clipPath><clipPath class="axesclip" id="clip7b30e8x"><rect x="80" y="0" width="540" height="500"/></clipPath><clipPath class="axesclip" id="clip7b30e8y"><rect x="0" y="100" width="700" height="320"/></clipPath><clipPath class="axesclip" id="clip7b30e8xy"><rect x="80" y="100" width="540" height="320"/></clipPath></g><g class="gradients"/><g class="patterns"/></defs><g class="bglayer"><rect class="bg" x="80" y="100" width="540" height="320" style="fill: rgb(229, 236, 246); fill-opacity: 1; stroke-width: 0;"/></g><g class="layer-below"><g class="imagelayer"/><g class="shapelayer"/></g><g class="cartesianlayer"><g class="subplot xy"><g class="layer-subplot"><g class="shapelayer"/><g class="imagelayer"/></g><g class="minor-gridlayer"><g class="x"/><g class="y"/></g><g class="gridlayer"><g class="x"/><g class="y"><path class="ygrid crisp" transform="translate(0,383.03)" d="M80,0h540" style="stroke: rgb(255, 255, 255); stroke-opacity: 1; stroke-width: 1px;"/><path class="ygrid crisp" transform="translate(0,346.07)" d="M80,0h540" style="stroke: rgb(255, 255, 255); stroke-opacity: 1; stroke-width: 1px;"/><path class="ygrid crisp" transform="translate(0,309.1)" d="M80,0h540" style="stroke: rgb(255, 255, 255); stroke-opacity: 1; stroke-width: 1px;"/><path class="ygrid crisp" transform="translate(0,272.13)" d="M80,0h540" style="stroke: rgb(255, 255, 255); stroke-opacity: 1; stroke-width: 1px;"/><path class="ygrid crisp" transform="translate(0,235.17)" d="M80,0h540" style="stroke: rgb(255, 255, 255); stroke-opacity: 1; stroke-width: 1px;"/><path class="ygrid crisp" transform="translate(0,198.2)" d="M80,0h540" style="stroke: rgb(255, 255, 255); stroke-opacity: 1; stroke-width: 1px;"/><path class="ygrid crisp" transform="translate(0,161.24)" d="M80,0h540" style="stroke: rgb(255, 255, 255); stroke-opacity: 1; stroke-width: 1px;"/><path class="ygrid crisp" transform="translate(0,124.27)" d="M80,0h540" style="stroke: rgb(255, 255, 255); stroke-opacity: 1; stroke-width: 1px;"/></g></g><g class="zerolinelayer"><path class="yzl zl crisp" transform="translate(0,420)" d="M80,0h540" style="stroke: rgb(255, 255, 255); stroke-opacity: 1; stroke-width: 2px;"/></g><path class="xlines-below"/><path class="ylines-below"/><g class="overlines-below"/><g class="xaxislayer-below"/><g class="yaxislayer-below"/><g class="overaxes-below"/><g class="plot" transform="translate(80,100)" clip-path="url(#clip7b30e8xyplot)"><g class="barlayer mlayer"><g class="trace bars" shape-rendering="crispEdges" style="opacity: 1;"><g class="points"><g class="point"><path d="M0,320V316.4H10.38V320Z" style="vector-effect: none; opacity: 1; stroke-width: 0px; fill: rgb(0, 75, 147); fill-opacity: 0.5;"/></g><g class="point"><path d="M10.38,320V314.15H20.77V320Z" style="vector-effect: none; opacity: 1; stroke-width: 0px; fill: rgb(0, 75, 147); fill-opacity: 0.5;"/></g><g class="point"><path d="M20.77,320V306.04H31.15V320Z" style="vector-effect: none; opacity: 1; stroke-width: 0px; fill: rgb(0, 75, 147); fill-opacity: 0.5;"/></g><g class="point"><path d="M31.15,320V301.99H41.53V320Z" style="vector-effect: none; opacity: 1; stroke-width: 0px; fill: rgb(0, 75, 147); fill-opacity: 0.5;"/></g><g class="point"><path d="M41.53,320V291.63H51.91V320Z" style="vector-effect: none; opacity: 1; stroke-width: 0px; fill: rgb(0, 75, 147); fill-opacity: 0.5;"/></g><g class="point"><path d="M51.91,320V268.21H62.3V320Z" style="vector-effect: none; opacity: 1; stroke-width: 0px; fill: rgb(0, 75, 147); fill-opacity: 0.5;"/></g><g class="point"><path d="M62.3,320V248.39H72.68V320Z" style="vector-effect: none; opacity: 1; stroke-width: 0px; fill: rgb(0, 75, 147); fill-opacity: 0.5;"/></g><g class="point"><path d="M72.68,320V228.12H83.06V320Z" style="vector-effect: none; opacity: 1; stroke-width: 0px; fill: rgb(0, 75, 147); fill-opacity: 0.5;"/></g><g class="point"><path d="M83.06,320V202.45H93.44V320Z" style="vector-effect: none; opacity: 1; stroke-width: 0px; fill: rgb(0, 75, 147); fill-opacity: 0.5;"/></g><g class="point"><path d="M93.44,320V165.52H103.83V320Z" style="vector-effect: none; opacity: 1; stroke-width: 0px; fill: rgb(0, 75, 147); fill-opacity: 0.5;"/></g><g class="point"><path d="M103.83,320V137.6H114.21V320Z" style="vector-effect: none; opacity: 1; stroke-width: 0px; fill: rgb(0, 75, 147); fill-opacity: 0.5;"/></g><g class="point"><path d="M114.21,320V115.98H124.59V320Z" style="vector-effect: none; opacity: 1; stroke-width: 0px; fill: rgb(0, 75, 147); fill-opacity: 0.5;"/></g><g class="point"><path d="M124.59,320V72.3H134.97V320Z" style="vector-effect: none; opacity: 1; stroke-width: 0px; fill: rgb(0, 75, 147); fill-opacity: 0.5;"/></g><g class="point"><path d="M134.97,320V66.89H145.36V320Z" style="vector-effect: none; opacity: 1; stroke-width: 0px; fill: rgb(0, 75, 147); fill-opacity: 0.5;"/></g><g class="point"><path d="M145.36,320V43.92H155.74V320Z" style="vector-effect: none; opacity: 1; stroke-width: 0px; fill: rgb(0, 75, 147); fill-opacity: 0.5;"/></g><g class="point"><path d="M155.74,320V43.47H166.12V320Z" style="vector-effect: none; opacity: 1; stroke-width: 0px; fill: rgb(0, 75, 147); fill-opacity: 0.5;"/></g><g class="point"><path d="M166.12,320V16H176.5V320Z" style="vector-effect: none; opacity: 1; stroke-width: 0px; fill: rgb(0, 75, 147); fill-opacity: 0.5;"/></g><g class="point"><path d="M176.5,320V31.31H186.89V320Z" style="vector-effect: none; opacity: 1; stroke-width: 0px; fill: rgb(0, 75, 147); fill-opacity: 0.5;"/></g><g class="point"><path d="M186.89,320V41.22H197.27V320Z" style="vector-effect: none; opacity: 1; stroke-width: 0px; fill: rgb(0, 75, 147); fill-opacity: 0.5;"/></g><g class="point"><path d="M197.27,320V32.21H207.65V320Z" style="vector-effect: none; opacity: 1; stroke-width: 0px; fill: rgb(0, 75, 147); fill-opacity: 0.5;"/></g><g class="point"><path d="M207.65,320V73.2H218.03V320Z" style="vector-effect: none; opacity: 1; stroke-width: 0px; fill: rgb(0, 75, 147); fill-opacity: 0.5;"/></g><g class="point"><path d="M218.03,320V52.93H228.42V320Z" style="vector-effect: none; opacity: 1; stroke-width: 0px; fill: rgb(0, 75, 147); fill-opacity: 0.5;"/></g><g class="point"><path d="M228.42,320V69.59H238.8V320Z" style="vector-effect: none; opacity: 1; stroke-width: 0px; fill: rgb(0, 75, 147); fill-opacity: 0.5;"/></g><g class="point"><path d="M238.8,320V89.86H249.18V320Z" style="vector-effect: none; opacity: 1; stroke-width: 0px; fill: rgb(0, 75, 147); fill-opacity: 0.5;"/></g><g class="point"><path d="M249.18,320V93.01H259.57V320Z" style="vector-effect: none; opacity: 1; stroke-width: 0px; fill: rgb(0, 75, 147); fill-opacity: 0.5;"/></g><g class="point"><path d="M259.57,320V110.13H269.95V320Z" style="vector-effect: none; opacity: 1; stroke-width: 0px; fill: rgb(0, 75, 147); fill-opacity: 0.5;"/></g><g class="point"><path d="M269.95,320V111.93H280.33V320Z" style="vector-effect: none; opacity: 1; stroke-width: 0px; fill: rgb(0, 75, 147); fill-opacity: 0.5;"/></g><g class="point"><path d="M280.33,320V113.28H290.71V320Z" style="vector-effect: none; opacity: 1; stroke-width: 0px; fill: rgb(0, 75, 147); fill-opacity: 0.5;"/></g><g class="point"><path d="M290.71,320V151.56H301.1V320Z" style="vector-effect: none; opacity: 1; stroke-width: 0px; fill: rgb(0, 75, 147); fill-opacity: 0.5;"/></g><g class="point"><path d="M301.1,320V150.66H311.48V320Z" style="vector-effect: none; opacity: 1; stroke-width: 0px; fill: rgb(0, 75, 147); fill-opacity: 0.5;"/></g><g class="point"><path d="M311.48,320V165.97H321.86V320Z" style="vector-effect: none; opacity: 1; stroke-width: 0px; fill: rgb(0, 75, 147); fill-opacity: 0.5;"/></g><g class="point"><path d="M321.86,320V161.92H332.24V320Z" style="vector-effect: none; opacity: 1; stroke-width: 0px; fill: rgb(0, 75, 147); fill-opacity: 0.5;"/></g><g class="point"><path d="M332.24,320V168.23H342.63V320Z" style="vector-effect: none; opacity: 1; stroke-width: 0px; fill: rgb(0, 75, 147); fill-opacity: 0.5;"/></g><g class="point"><path d="M342.63,320V189.39H353.01V320Z" style="vector-effect: none; opacity: 1; stroke-width: 0px; fill: rgb(0, 75, 147); fill-opacity: 0.5;"/></g><g class="point"><path d="M353.01,320V178.13H363.39V320Z" style="vector-effect: none; opacity: 1; stroke-width: 0px; fill: rgb(0, 75, 147); fill-opacity: 0.5;"/></g><g class="point"><path d="M363.39,320V201.1H373.77V320Z" style="vector-effect: none; opacity: 1; stroke-width: 0px; fill: rgb(0, 75, 147); fill-opacity: 0.5;"/></g><g class="point"><path d="M373.77,320V203.35H384.16V320Z" style="vector-effect: none; opacity: 1; stroke-width: 0px; fill: rgb(0, 75, 147); fill-opacity: 0.5;"/></g><g class="point"><path d="M384.16,320V187.59H394.54V320Z" style="vector-effect: none; opacity: 1; stroke-width: 0px; fill: rgb(0, 75, 147); fill-opacity: 0.5;"/></g><g class="point"><path d="M394.54,320V220.02H404.92V320Z" style="vector-effect: none; opacity: 1; stroke-width: 0px; fill: rgb(0, 75, 147); fill-opacity: 0.5;"/></g><g class="point"><path d="M404.92,320V225.87H415.3V320Z" style="vector-effect: none; opacity: 1; stroke-width: 0px; fill: rgb(0, 75, 147); fill-opacity: 0.5;"/></g><g class="point"><path d="M415.3,320V229.48H425.69V320Z" style="vector-effect: none; opacity: 1; stroke-width: 0px; fill: rgb(0, 75, 147); fill-opacity: 0.5;"/></g><g class="point"><path d="M425.69,320V232.63H436.07V320Z" style="vector-effect: none; opacity: 1; stroke-width: 0px; fill: rgb(0, 75, 147); fill-opacity: 0.5;"/></g><g class="point"><path d="M436.07,320V238.93H446.45V320Z" style="vector-effect: none; opacity: 1; stroke-width: 0px; fill: rgb(0, 75, 147); fill-opacity: 0.5;"/></g><g class="point"><path d="M446.45,320V247.49H456.84V320Z" style="vector-effect: none; opacity: 1; stroke-width: 0px; fill: rgb(0, 75, 147); fill-opacity: 0.5;"/></g><g class="point"><path d="M456.84,320V254.7H467.22V320Z" style="vector-effect: none; opacity: 1; stroke-width: 0px; fill: rgb(0, 75, 147); fill-opacity: 0.5;"/></g><g class="point"><path d="M467.22,320V245.24H477.6V320Z" style="vector-effect: none; opacity: 1; stroke-width: 0px; fill: rgb(0, 75, 147); fill-opacity: 0.5;"/></g><g class="point"><path d="M477.6,320V252.89H487.98V320Z" style="vector-effect: none; opacity: 1; stroke-width: 0px; fill: rgb(0, 75, 147); fill-opacity: 0.5;"/></g><g class="point"><path d="M487.98,320V280.37H498.37V320Z" style="vector-effect: none; opacity: 1; stroke-width: 0px; fill: rgb(0, 75, 147); fill-opacity: 0.5;"/></g><g class="point"><path d="M498.37,320V272.71H508.75V320Z" style="vector-effect: none; opacity: 1; stroke-width: 0px; fill: rgb(0, 75, 147); fill-opacity: 0.5;"/></g><g class="point"><path d="M508.75,320V264.6H519.13V320Z" style="vector-effect: none; opacity: 1; stroke-width: 0px; fill: rgb(0, 75, 147); fill-opacity: 0.5;"/></g><g class="point"><path d="M519.13,320V271.81H529.51V320Z" style="vector-effect: none; opacity: 1; stroke-width: 0px; fill: rgb(0, 75, 147); fill-opacity: 0.5;"/></g><g class="point"><path d="M529.51,320V294.33H539.9V320Z" style="vector-effect: none; opacity: 1; stroke-width: 0px; fill: rgb(0, 75, 147); fill-opacity: 0.5;"/></g></g></g><g class="trace bars" shape-rendering="crispEdges" style="opacity: 1;"><g class="points"><g class="point"><path d="M0.1,320V317.85H10.49V320Z" style="vector-effect: none; opacity: 1; stroke-width: 0px; fill: rgb(230, 51, 41); fill-opacity: 0.5;"/></g><g class="point"><path d="M10.49,320V317.13H20.87V320Z" style="vector-effect: none; opacity: 1; stroke-width: 0px; fill: rgb(230, 51, 41); fill-opacity: 0.5;"/></g><g class="point"><path d="M20.87,320V311.04H31.25V320Z" style="vector-effect: none; opacity: 1; stroke-width: 0px; fill: rgb(230, 51, 41); fill-opacity: 0.5;"/></g><g class="point"><path d="M31.25,320V314.27H41.63V320Z" style="vector-effect: none; opacity: 1; stroke-width: 0px; fill: rgb(230, 51, 41); fill-opacity: 0.5;"/></g><g class="point"><path d="M41.63,320V298.49H52.02V320Z" style="vector-effect: none; opacity: 1; stroke-width: 0px; fill: rgb(230, 51, 41); fill-opacity: 0.5;"/></g><g class="point"><path d="M52.02,320V283.44H62.4V320Z" style="vector-effect: none; opacity: 1; stroke-width: 0px; fill: rgb(230, 51, 41); fill-opacity: 0.5;"/></g><g class="point"><path d="M62.4,320V262.65H72.78V320Z" style="vector-effect: none; opacity: 1; stroke-width: 0px; fill: rgb(230, 51, 41); fill-opacity: 0.5;"/></g><g class="point"><path d="M72.78,320V244.01H83.16V320Z" style="vector-effect: none; opacity: 1; stroke-width: 0px; fill: rgb(230, 51, 41); fill-opacity: 0.5;"/></g><g class="point"><path d="M83.16,320V218.57H93.55V320Z" style="vector-effect: none; opacity: 1; stroke-width: 0px; fill: rgb(230, 51, 41); fill-opacity: 0.5;"/></g><g class="point"><path d="M93.55,320V180.57H103.93V320Z" style="vector-effect: none; opacity: 1; stroke-width: 0px; fill: rgb(230, 51, 41); fill-opacity: 0.5;"/></g><g class="point"><path d="M103.93,320V140.07H114.31V320Z" style="vector-effect: none; opacity: 1; stroke-width: 0px; fill: rgb(230, 51, 41); fill-opacity: 0.5;"/></g><g class="point"><path d="M114.31,320V98.49H124.7V320Z" style="vector-effect: none; opacity: 1; stroke-width: 0px; fill: rgb(230, 51, 41); fill-opacity: 0.5;"/></g><g class="point"><path d="M124.7,320V57.99H135.08V320Z" style="vector-effect: none; opacity: 1; stroke-width: 0px; fill: rgb(230, 51, 41); fill-opacity: 0.5;"/></g><g class="point"><path d="M135.08,320V40.43H145.46V320Z" style="vector-effect: none; opacity: 1; stroke-width: 0px; fill: rgb(230, 51, 41); fill-opacity: 0.5;"/></g><g class="point"><path d="M145.46,320V17.85H155.84V320Z" style="vector-effect: none; opacity: 1; stroke-width: 0px; fill: rgb(230, 51, 41); fill-opacity: 0.5;"/></g><g class="point"><path d="M155.84,320V17.13H166.23V320Z" style="vector-effect: none; opacity: 1; stroke-width: 0px; fill: rgb(230, 51, 41); fill-opacity: 0.5;"/></g><g class="point"><path d="M166.23,320V16.05H176.61V320Z" style="vector-effect: none; opacity: 1; stroke-width: 0px; fill: rgb(230, 51, 41); fill-opacity: 0.5;"/></g><g class="point"><path d="M176.61,320V18.92H186.99V320Z" style="vector-effect: none; opacity: 1; stroke-width: 0px; fill: rgb(230, 51, 41); fill-opacity: 0.5;"/></g><g class="point"><path d="M186.99,320V35.77H197.37V320Z" style="vector-effect: none; opacity: 1; stroke-width: 0px; fill: rgb(230, 51, 41); fill-opacity: 0.5;"/></g><g class="point"><path d="M197.37,320V26.45H207.76V320Z" style="vector-effect: none; opacity: 1; stroke-width: 0px; fill: rgb(230, 51, 41); fill-opacity: 0.5;"/></g><g class="point"><path d="M207.76,320V55.12H218.14V320Z" style="vector-effect: none; opacity: 1; stroke-width: 0px; fill: rgb(230, 51, 41); fill-opacity: 0.5;"/></g><g class="point"><path d="M218.14,320V59.06H228.52V320Z" style="vector-effect: none; opacity: 1; stroke-width: 0px; fill: rgb(230, 51, 41); fill-opacity: 0.5;"/></g><g class="point"><path d="M228.52,320V58.35H238.9V320Z" style="vector-effect: none; opacity: 1; stroke-width: 0px; fill: rgb(230, 51, 41); fill-opacity: 0.5;"/></g><g class="point"><path d="M238.9,320V87.02H249.29V320Z" style="vector-effect: none; opacity: 1; stroke-width: 0px; fill: rgb(230, 51, 41); fill-opacity: 0.5;"/></g><g class="point"><path d="M249.29,320V84.15H259.67V320Z" style="vector-effect: none; opacity: 1; stroke-width: 0px; fill: rgb(230, 51, 41); fill-opacity: 0.5;"/></g><g class="point"><path d="M259.67,320V113.9H270.05V320Z" style="vector-effect: none; opacity: 1; stroke-width: 0px; fill: rgb(230, 51, 41); fill-opacity: 0.5;"/></g><g class="point"><path d="M270.05,320V104.94H280.43V320Z" style="vector-effect: none; opacity: 1; stroke-width: 0px; fill: rgb(230, 51, 41); fill-opacity: 0.5;"/></g><g class="point"><path d="M280.43,320V118.92H290.82V320Z" style="vector-effect: none; opacity: 1; stroke-width: 0px; fill: rgb(230, 51, 41); fill-opacity: 0.5;"/></g><g class="point"><path d="M290.82,320V147.24H301.2V320Z" style="vector-effect: none; opacity: 1; stroke-width: 0px; fill: rgb(230, 51, 41); fill-opacity: 0.5;"/></g><g class="point"><path d="M301.2,320V153.33H311.58V320Z" style="vector-effect: none; opacity: 1; stroke-width: 0px; fill: rgb(230, 51, 41); fill-opacity: 0.5;"/></g><g class="point"><path d="M311.58,320V146.88H321.97V320Z" style="vector-effect: none; opacity: 1; stroke-width: 0px; fill: rgb(230, 51, 41); fill-opacity: 0.5;"/></g><g class="point"><path d="M321.97,320V165.52H332.35V320Z" style="vector-effect: none; opacity: 1; stroke-width: 0px; fill: rgb(230, 51, 41); fill-opacity: 0.5;"/></g><g class="point"><path d="M332.35,320V172.69H342.73V320Z" style="vector-effect: none; opacity: 1; stroke-width: 0px; fill: rgb(230, 51, 41); fill-opacity: 0.5;"/></g><g class="point"><path d="M342.73,320V197.06H353.11V320Z" style="vector-effect: none; opacity: 1; stroke-width: 0px; fill: rgb(230, 51, 41); fill-opacity: 0.5;"/></g><g class="point"><path d="M353.11,320V195.98H363.5V320Z" style="vector-effect: none; opacity: 1; stroke-width: 0px; fill: rgb(230, 51, 41); fill-opacity: 0.5;"/></g><g class="point"><path d="M363.5,320V200.29H373.88V320Z" style="vector-effect: none; opacity: 1; stroke-width: 0px; fill: rgb(230, 51, 41); fill-opacity: 0.5;"/></g><g class="point"><path d="M373.88,320V216.06H384.26V320Z" style="vector-effect: none; opacity: 1; stroke-width: 0px; fill: rgb(230, 51, 41); fill-opacity: 0.5;"/></g><g class="point"><path d="M384.26,320V192.76H394.64V320Z" style="vector-effect: none; opacity: 1; stroke-width: 0px; fill: rgb(230, 51, 41); fill-opacity: 0.5;"/></g><g class="point"><path d="M394.64,320V206.38H405.03V320Z" style="vector-effect: none; opacity: 1; stroke-width: 0px; fill: rgb(230, 51, 41); fill-opacity: 0.5;"/></g><g class="point"><path d="M405.03,320V220H415.41V320Z" style="vector-effect: none; opacity: 1; stroke-width: 0px; fill: rgb(230, 51, 41); fill-opacity: 0.5;"/></g><g class="point"><path d="M415.41,320V230.75H425.79V320Z" style="vector-effect: none; opacity: 1; stroke-width: 0px; fill: rgb(230, 51, 41); fill-opacity: 0.5;"/></g><g class="point"><path d="M425.79,320V237.2H436.17V320Z" style="vector-effect: none; opacity: 1; stroke-width: 0px; fill: rgb(230, 51, 41); fill-opacity: 0.5;"/></g><g class="point"><path d="M436.17,320V246.88H446.56V320Z" style="vector-effect: none; opacity: 1; stroke-width: 0px; fill: rgb(230, 51, 41); fill-opacity: 0.5;"/></g><g class="point"><path d="M446.56,320V254.41H456.94V320Z" style="vector-effect: none; opacity: 1; stroke-width: 0px; fill: rgb(230, 51, 41); fill-opacity: 0.5;"/></g><g class="point"><path d="M456.94,320V254.41H467.32V320Z" style="vector-effect: none; opacity: 1; stroke-width: 0px; fill: rgb(230, 51, 41); fill-opacity: 0.5;"/></g><g class="point"><path d="M467.32,320V260.86H477.7V320Z" style="vector-effect: none; opacity: 1; stroke-width: 0px; fill: rgb(230, 51, 41); fill-opacity: 0.5;"/></g><g class="point"><path d="M477.7,320V261.58H488.09V320Z" style="vector-effect: none; opacity: 1; stroke-width: 0px; fill: rgb(230, 51, 41); fill-opacity: 0.5;"/></g><g class="point"><path d="M488.09,320V270.54H498.47V320Z" style="vector-effect: none; opacity: 1; stroke-width: 0px; fill: rgb(230, 51, 41); fill-opacity: 0.5;"/></g><g class="point"><path d="M498.47,320V269.46H508.85V320Z" style="vector-effect: none; opacity: 1; stroke-width: 0px; fill: rgb(230, 51, 41); fill-opacity: 0.5;"/></g><g class="point"><path d="M508.85,320V267.31H519.23V320Z" style="vector-effect: none; opacity: 1; stroke-width: 0px; fill: rgb(230, 51, 41); fill-opacity: 0.5;"/></g><g class="point"><path d="M519.23,320V277.35H529.62V320Z" style="vector-effect: none; opacity: 1; stroke-width: 0px; fill: rgb(230, 51, 41); fill-opacity: 0.5;"/></g><g class="point"><path d="M529.62,320V303.15H540V320Z" style="vector-effect: none; opacity: 1; stroke-width: 0px; fill: rgb(230, 51, 41); fill-opacity: 0.5;"/></g></g></g></g></g><g class="overplot"/><path class="xlines-above crisp" d="M0,0" style="fill: none;"/><path class="ylines-above crisp" d="M0,0" style="fill: none;"/><g class="overlines-above"/><g class="xaxislayer-above"><g class="xtick"><text text-anchor="middle" x="0" y="433" transform="translate(142.4,0)" style="font-family: 'Open Sans', verdana, arial, sans-serif; font-size: 12px; fill: rgb(42, 63, 95); fill-opacity: 1; white-space: pre; opacity: 1;">1000</text></g><g class="xtick"><text text-anchor="middle" x="0" y="433" style="font-family: 'Open Sans', verdana, arial, sans-serif; font-size: 12px; fill: rgb(42, 63, 95); fill-opacity: 1; white-space: pre; opacity: 1;" transform="translate(246.23,0)">1500</text></g><g class="xtick"><text text-anchor="middle" x="0" y="433" style="font-family: 'Open Sans', verdana, arial, sans-serif; font-size: 12px; fill: rgb(42, 63, 95); fill-opacity: 1; white-space: pre; opacity: 1;" transform="translate(350.05,0)">2000</text></g><g class="xtick"><text text-anchor="middle" x="0" y="433" style="font-family: 'Open Sans', verdana, arial, sans-serif; font-size: 12px; fill: rgb(42, 63, 95); fill-opacity: 1; white-space: pre; opacity: 1;" transform="translate(453.88,0)">2500</text></g><g class="xtick"><text text-anchor="middle" x="0" y="433" style="font-family: 'Open Sans', verdana, arial, sans-serif; font-size: 12px; fill: rgb(42, 63, 95); fill-opacity: 1; white-space: pre; opacity: 1;" transform="translate(557.7,0)">3000</text></g></g><g class="yaxislayer-above"><g class="ytick"><text text-anchor="end" x="79" y="4.199999999999999" transform="translate(0,420)" style="font-family: 'Open Sans', verdana, arial, sans-serif; font-size: 12px; fill: rgb(42, 63, 95); fill-opacity: 1; white-space: pre; opacity: 1;">0</text></g><g class="ytick"><text text-anchor="end" x="79" y="4.199999999999999" style="font-family: 'Open Sans', verdana, arial, sans-serif; font-size: 12px; fill: rgb(42, 63, 95); fill-opacity: 1; white-space: pre; opacity: 1;" transform="translate(0,383.03)">0.5</text></g><g class="ytick"><text text-anchor="end" x="79" y="4.199999999999999" style="font-family: 'Open Sans', verdana, arial, sans-serif; font-size: 12px; fill: rgb(42, 63, 95); fill-opacity: 1; white-space: pre; opacity: 1;" transform="translate(0,346.07)">1</text></g><g class="ytick"><text text-anchor="end" x="79" y="4.199999999999999" style="font-family: 'Open Sans', verdana, arial, sans-serif; font-size: 12px; fill: rgb(42, 63, 95); fill-opacity: 1; white-space: pre; opacity: 1;" transform="translate(0,309.1)">1.5</text></g><g class="ytick"><text text-anchor="end" x="79" y="4.199999999999999" style="font-family: 'Open Sans', verdana, arial, sans-serif; font-size: 12px; fill: rgb(42, 63, 95); fill-opacity: 1; white-space: pre; opacity: 1;" transform="translate(0,272.13)">2</text></g><g class="ytick"><text text-anchor="end" x="79" y="4.199999999999999" style="font-family: 'Open Sans', verdana, arial, sans-serif; font-size: 12px; fill: rgb(42, 63, 95); fill-opacity: 1; white-space: pre; opacity: 1;" transform="translate(0,235.17)">2.5</text></g><g class="ytick"><text text-anchor="end" x="79" y="4.199999999999999" style="font-family: 'Open Sans', verdana, arial, sans-serif; font-size: 12px; fill: rgb(42, 63, 95); fill-opacity: 1; white-space: pre; opacity: 1;" transform="translate(0,198.2)">3</text></g><g class="ytick"><text text-anchor="end" x="79" y="4.199999999999999" style="font-family: 'Open Sans', verdana, arial, sans-serif; font-size: 12px; fill: rgb(42, 63, 95); fill-opacity: 1; white-space: pre; opacity: 1;" transform="translate(0,161.24)">3.5</text></g><g class="ytick"><text text-anchor="end" x="79" y="4.199999999999999" style="font-family: 'Open Sans', verdana, arial, sans-serif; font-size: 12px; fill: rgb(42, 63, 95); fill-opacity: 1; white-space: pre; opacity: 1;" transform="translate(0,124.27)">4</text></g></g><g class="overaxes-above"/></g></g><g class="polarlayer"/><g class="smithlayer"/><g class="ternarylayer"/><g class="geolayer"/><g class="funnelarealayer"/><g class="pielayer"/><g class="iciclelayer"/><g class="treemaplayer"/><g class="sunburstlayer"/><g class="glimages"/><defs id="topdefs-7b30e8"><g class="clips"/><clipPath id="legend7b30e8"><rect width="150" height="29" x="0" y="0"/></clipPath></defs><g class="layer-above"><g class="imagelayer"/><g class="shapelayer"/></g><g class="infolayer"><g class="legend" pointer-events="all" transform="translate(470,64.6)"><rect class="bg" shape-rendering="crispEdges" width="150" height="29" x="0" y="0" style="stroke: rgb(68, 68, 68); stroke-opacity: 1; fill: rgb(255, 255, 255); fill-opacity: 1; stroke-width: 0px;"/><g class="scrollbox" transform="" clip-path="url(#legend7b30e8)"><g class="groups"><g class="traces" transform="translate(0,14.5)" style="opacity: 1;"><text class="legendtext" text-anchor="start" x="40" y="4.680000000000001" style="font-family: 'Open Sans', verdana, arial, sans-serif; font-size: 12px; fill: rgb(42, 63, 95); fill-opacity: 1; white-space: pre;">Real</text><g class="layers" style="opacity: 1;"><g class="legendfill"/><g class="legendlines"/><g class="legendsymbols"><g class="legendpoints"><path class="legendundefined" d="M6,6H-6V-6H6Z" transform="translate(20,0)" style="stroke-width: 0px; fill: rgb(0, 75, 147); fill-opacity: 0.5;"/></g></g></g><rect class="legendtoggle" x="0" y="-9.5" width="67.1875" height="19" style="fill: rgb(0, 0, 0); fill-opacity: 0;"/></g><g class="traces" transform="translate(69.6875,14.5)" style="opacity: 1;"><text class="legendtext" text-anchor="start" x="40" y="4.680000000000001" style="font-family: 'Open Sans', verdana, arial, sans-serif; font-size: 12px; fill: rgb(42, 63, 95); fill-opacity: 1; white-space: pre;">Smote</text><g class="layers" style="opacity: 1;"><g class="legendfill"/><g class="legendlines"/><g class="legendsymbols"><g class="legendpoints"><path class="legendundefined" d="M6,6H-6V-6H6Z" transform="translate(20,0)" style="stroke-width: 0px; fill: rgb(230, 51, 41); fill-opacity: 0.5;"/></g></g></g><rect class="legendtoggle" x="0" y="-9.5" width="77.515625" height="19" style="fill: rgb(0, 0, 0); fill-opacity: 0;"/></g></g></g><rect class="scrollbar" rx="20" ry="3" width="0" height="0" x="0" y="0" style="fill: rgb(128, 139, 164); fill-opacity: 1;"/></g><g class="g-gtitle"><text class="gtitle" x="35" y="50" text-anchor="start" dy="0em" style="font-family: 'Open Sans', verdana, arial, sans-serif; font-size: 17px; fill: rgb(42, 63, 95); opacity: 1; font-weight: normal; white-space: pre;">Distribución Variable Sqft Living15</text></g><g class="g-xtitle"><text class="xtitle" x="350" y="460.3" text-anchor="middle" style="font-family: 'Open Sans', verdana, arial, sans-serif; font-size: 14px; fill: rgb(42, 63, 95); opacity: 1; font-weight: normal; white-space: pre;">Total &#60;Sqft Living15></text></g><g class="g-ytitle"><text class="ytitle" transform="rotate(-90,38.0125,260)" x="38.0125" y="260" text-anchor="middle" style="font-family: 'Open Sans', verdana, arial, sans-serif; font-size: 14px; fill: rgb(42, 63, 95); opacity: 1; font-weight: normal; white-space: pre;">Frequency Percentage</text></g></g></svg>