<svg class="main-svg" xmlns="http://www.w3.org/2000/svg" xmlns:xlink="http://www.w3.org/1999/xlink" width="700" height="500" style="" viewBox="0 0 700 500"><rect x="0" y="0" width="700" height="500" style="fill: rgb(255, 255, 255); fill-opacity: 1;"/><defs id="defs-eb5777"><g class="clips"><clipPath id="clipeb5777xyplot" class="plotclip"><rect width="485" height="320"/></clipPath><clipPath class="axesclip" id="clipeb5777x"><rect x="80" y="0" width="485" height="500"/></clipPath><clipPath class="axesclip" id="clipeb5777y"><rect x="0" y="100" width="700" height="320"/></clipPath><clipPath class="axesclip" id="clipeb5777xy"><rect x="80" y="100" width="485" height="320"/></clipPath></g><g class="gradients"/><g class="patterns"/></defs><g class="bglayer"><rect class="bg" x="80" y="100" width="485" height="320" style="fill: rgb(229, 236, 246); fill-opacity: 1; stroke-width: 0;"/></g><g class="layer-below"><g class="imagelayer"/><g class="shapelayer"/></g><g class="cartesianlayer"><g class="subplot xy"><g class="layer-subplot"><g class="shapelayer"/><g class="imagelayer"/></g><g class="minor-gridlayer"><g class="x"/><g class="y"/></g><g class="gridlayer"><g class="x"/><g class="y"><path class="ygrid crisp" transform="translate(0,354.01)" d="M80,0h485" style="stroke: rgb(255, 255, 255); stroke-opacity: 1; stroke-width: 1px;"/><path class="ygrid crisp" transform="translate(0,288.03)" d="M80,0h485" style="stroke: rgb(255, 255, 255); stroke-opacity: 1; stroke-width: 1px;"/><path class="ygrid crisp" transform="translate(0,222.04000000000002)" d="M80,0h485" style="stroke: rgb(255, 255, 255); stroke-opacity: 1; stroke-width: 1px;"/><path class="ygrid crisp" transform="translate(0,156.05)" d="M80,0h485" style="stroke: rgb(255, 255, 255); stroke-opacity: 1; stroke-width: 1px;"/></g></g><g class="zerolinelayer"><path class="yzl zl crisp" transform="translate(0,420)" d="M80,0h485" style="stroke: rgb(255, 255, 255); stroke-opacity: 1; stroke-width: 2px;"/></g><path class="xlines-below"/><path class="ylines-below"/><g class="overlines-below"/><g class="xaxislayer-below"/><g class="yaxislayer-below"/><g class="overaxes-below"/><g class="plot" transform="translate(80,100)" clip-path="url(#clipeb5777xyplot)"><g class="barlayer mlayer"><g class="trace bars" shape-rendering="crispEdges" style="opacity: 1;"><g class="points"><g class="point"><path d="M0,320V317.19H8.36V320Z" style="vector-effect: none; opacity: 1; stroke-width: 0px; fill: rgb(0, 75, 147); fill-opacity: 0.5;"/></g><g class="point"><path d="M8.36,320V307.13H16.72V320Z" style="vector-effect: none; opacity: 1; stroke-width: 0px; fill: rgb(0, 75, 147); fill-opacity: 0.5;"/></g><g class="point"><path d="M16.72,320V303.92H25.08V320Z" style="vector-effect: none; opacity: 1; stroke-width: 0px; fill: rgb(0, 75, 147); fill-opacity: 0.5;"/></g><g class="point"><path d="M25.08,320V296.28H33.44V320Z" style="vector-effect: none; opacity: 1; stroke-width: 0px; fill: rgb(0, 75, 147); fill-opacity: 0.5;"/></g><g class="point"><path d="M33.44,320V244.8H41.8V320Z" style="vector-effect: none; opacity: 1; stroke-width: 0px; fill: rgb(0, 75, 147); fill-opacity: 0.5;"/></g><g class="point"><path d="M41.8,320V229.12H50.16V320Z" style="vector-effect: none; opacity: 1; stroke-width: 0px; fill: rgb(0, 75, 147); fill-opacity: 0.5;"/></g><g class="point"><path d="M50.16,320V210.22H58.52V320Z" style="vector-effect: none; opacity: 1; stroke-width: 0px; fill: rgb(0, 75, 147); fill-opacity: 0.5;"/></g><g class="point"><path d="M58.52,320V187.7H66.89V320Z" style="vector-effect: none; opacity: 1; stroke-width: 0px; fill: rgb(0, 75, 147); fill-opacity: 0.5;"/></g><g class="point"><path d="M66.89,320V172.42H75.25V320Z" style="vector-effect: none; opacity: 1; stroke-width: 0px; fill: rgb(0, 75, 147); fill-opacity: 0.5;"/></g><g class="point"><path d="M75.25,320V147.49H83.61V320Z" style="vector-effect: none; opacity: 1; stroke-width: 0px; fill: rgb(0, 75, 147); fill-opacity: 0.5;"/></g><g class="point"><path d="M83.61,320V73.5H91.97V320Z" style="vector-effect: none; opacity: 1; stroke-width: 0px; fill: rgb(0, 75, 147); fill-opacity: 0.5;"/></g><g class="point"><path d="M91.97,320V89.59H100.33V320Z" style="vector-effect: none; opacity: 1; stroke-width: 0px; fill: rgb(0, 75, 147); fill-opacity: 0.5;"/></g><g class="point"><path d="M100.33,320V89.59H108.69V320Z" style="vector-effect: none; opacity: 1; stroke-width: 0px; fill: rgb(0, 75, 147); fill-opacity: 0.5;"/></g><g class="point"><path d="M108.69,320V86.77H117.05V320Z" style="vector-effect: none; opacity: 1; stroke-width: 0px; fill: rgb(0, 75, 147); fill-opacity: 0.5;"/></g><g class="point"><path d="M117.05,320V51.39H125.41V320Z" style="vector-effect: none; opacity: 1; stroke-width: 0px; fill: rgb(0, 75, 147); fill-opacity: 0.5;"/></g><g class="point"><path d="M125.41,320V69.48H133.77V320Z" style="vector-effect: none; opacity: 1; stroke-width: 0px; fill: rgb(0, 75, 147); fill-opacity: 0.5;"/></g><g class="point"><path d="M133.77,320V51.79H142.13V320Z" style="vector-effect: none; opacity: 1; stroke-width: 0px; fill: rgb(0, 75, 147); fill-opacity: 0.5;"/></g><g class="point"><path d="M142.13,320V99.64H150.49V320Z" style="vector-effect: none; opacity: 1; stroke-width: 0px; fill: rgb(0, 75, 147); fill-opacity: 0.5;"/></g><g class="point"><path d="M150.49,320V82.35H158.85V320Z" style="vector-effect: none; opacity: 1; stroke-width: 0px; fill: rgb(0, 75, 147); fill-opacity: 0.5;"/></g><g class="point"><path d="M158.85,320V100.85H167.21V320Z" style="vector-effect: none; opacity: 1; stroke-width: 0px; fill: rgb(0, 75, 147); fill-opacity: 0.5;"/></g><g class="point"><path d="M167.21,320V116.53H175.57V320Z" style="vector-effect: none; opacity: 1; stroke-width: 0px; fill: rgb(0, 75, 147); fill-opacity: 0.5;"/></g><g class="point"><path d="M175.57,320V135.03H183.93V320Z" style="vector-effect: none; opacity: 1; stroke-width: 0px; fill: rgb(0, 75, 147); fill-opacity: 0.5;"/></g><g class="point"><path d="M183.93,320V136.23H192.29V320Z" style="vector-effect: none; opacity: 1; stroke-width: 0px; fill: rgb(0, 75, 147); fill-opacity: 0.5;"/></g><g class="point"><path d="M192.29,320V125.78H200.66V320Z" style="vector-effect: none; opacity: 1; stroke-width: 0px; fill: rgb(0, 75, 147); fill-opacity: 0.5;"/></g><g class="point"><path d="M200.66,320V163.98H209.02V320Z" style="vector-effect: none; opacity: 1; stroke-width: 0px; fill: rgb(0, 75, 147); fill-opacity: 0.5;"/></g><g class="point"><path d="M209.02,320V168H217.38V320Z" style="vector-effect: none; opacity: 1; stroke-width: 0px; fill: rgb(0, 75, 147); fill-opacity: 0.5;"/></g><g class="point"><path d="M217.38,320V179.26H225.74V320Z" style="vector-effect: none; opacity: 1; stroke-width: 0px; fill: rgb(0, 75, 147); fill-opacity: 0.5;"/></g><g class="point"><path d="M225.74,320V185.29H234.1V320Z" style="vector-effect: none; opacity: 1; stroke-width: 0px; fill: rgb(0, 75, 147); fill-opacity: 0.5;"/></g><g class="point"><path d="M234.1,320V197.76H242.46V320Z" style="vector-effect: none; opacity: 1; stroke-width: 0px; fill: rgb(0, 75, 147); fill-opacity: 0.5;"/></g><g class="point"><path d="M242.46,320V202.18H250.82V320Z" style="vector-effect: none; opacity: 1; stroke-width: 0px; fill: rgb(0, 75, 147); fill-opacity: 0.5;"/></g><g class="point"><path d="M250.82,320V215.45H259.18V320Z" style="vector-effect: none; opacity: 1; stroke-width: 0px; fill: rgb(0, 75, 147); fill-opacity: 0.5;"/></g><g class="point"><path d="M259.18,320V216.66H267.54V320Z" style="vector-effect: none; opacity: 1; stroke-width: 0px; fill: rgb(0, 75, 147); fill-opacity: 0.5;"/></g><g class="point"><path d="M267.54,320V213.04H275.9V320Z" style="vector-effect: none; opacity: 1; stroke-width: 0px; fill: rgb(0, 75, 147); fill-opacity: 0.5;"/></g><g class="point"><path d="M275.9,320V211.43H284.26V320Z" style="vector-effect: none; opacity: 1; stroke-width: 0px; fill: rgb(0, 75, 147); fill-opacity: 0.5;"/></g><g class="point"><path d="M284.26,320V227.92H292.62V320Z" style="vector-effect: none; opacity: 1; stroke-width: 0px; fill: rgb(0, 75, 147); fill-opacity: 0.5;"/></g><g class="point"><path d="M292.62,320V240.38H300.98V320Z" style="vector-effect: none; opacity: 1; stroke-width: 0px; fill: rgb(0, 75, 147); fill-opacity: 0.5;"/></g><g class="point"><path d="M300.98,320V237.57H309.34V320Z" style="vector-effect: none; opacity: 1; stroke-width: 0px; fill: rgb(0, 75, 147); fill-opacity: 0.5;"/></g><g class="point"><path d="M309.34,320V237.57H317.7V320Z" style="vector-effect: none; opacity: 1; stroke-width: 0px; fill: rgb(0, 75, 147); fill-opacity: 0.5;"/></g><g class="point"><path d="M317.7,320V232.74H326.06V320Z" style="vector-effect: none; opacity: 1; stroke-width: 0px; fill: rgb(0, 75, 147); fill-opacity: 0.5;"/></g><g class="point"><path d="M326.06,320V248.02H334.43V320Z" style="vector-effect: none; opacity: 1; stroke-width: 0px; fill: rgb(0, 75, 147); fill-opacity: 0.5;"/></g><g class="point"><path d="M334.43,320V245.21H342.79V320Z" style="vector-effect: none; opacity: 1; stroke-width: 0px; fill: rgb(0, 75, 147); fill-opacity: 0.5;"/></g><g class="point"><path d="M342.79,320V242.79H351.15V320Z" style="vector-effect: none; opacity: 1; stroke-width: 0px; fill: rgb(0, 75, 147); fill-opacity: 0.5;"/></g><g class="point"><path d="M351.15,320V249.23H359.51V320Z" style="vector-effect: none; opacity: 1; stroke-width: 0px; fill: rgb(0, 75, 147); fill-opacity: 0.5;"/></g><g class="point"><path d="M359.51,320V253.65H367.87V320Z" style="vector-effect: none; opacity: 1; stroke-width: 0px; fill: rgb(0, 75, 147); fill-opacity: 0.5;"/></g><g class="point"><path d="M367.87,320V255.26H376.23V320Z" style="vector-effect: none; opacity: 1; stroke-width: 0px; fill: rgb(0, 75, 147); fill-opacity: 0.5;"/></g><g class="point"><path d="M376.23,320V263.3H384.59V320Z" style="vector-effect: none; opacity: 1; stroke-width: 0px; fill: rgb(0, 75, 147); fill-opacity: 0.5;"/></g><g class="point"><path d="M384.59,320V262.9H392.95V320Z" style="vector-effect: none; opacity: 1; stroke-width: 0px; fill: rgb(0, 75, 147); fill-opacity: 0.5;"/></g><g class="point"><path d="M392.95,320V276.57H401.31V320Z" style="vector-effect: none; opacity: 1; stroke-width: 0px; fill: rgb(0, 75, 147); fill-opacity: 0.5;"/></g><g class="point"><path d="M401.31,320V274.56H409.67V320Z" style="vector-effect: none; opacity: 1; stroke-width: 0px; fill: rgb(0, 75, 147); fill-opacity: 0.5;"/></g><g class="point"><path d="M409.67,320V276.57H418.03V320Z" style="vector-effect: none; opacity: 1; stroke-width: 0px; fill: rgb(0, 75, 147); fill-opacity: 0.5;"/></g><g class="point"><path d="M418.03,320V266.52H426.39V320Z" style="vector-effect: none; opacity: 1; stroke-width: 0px; fill: rgb(0, 75, 147); fill-opacity: 0.5;"/></g><g class="point"><path d="M426.39,320V282.6H434.75V320Z" style="vector-effect: none; opacity: 1; stroke-width: 0px; fill: rgb(0, 75, 147); fill-opacity: 0.5;"/></g><g class="point"><path d="M434.75,320V278.98H443.11V320Z" style="vector-effect: none; opacity: 1; stroke-width: 0px; fill: rgb(0, 75, 147); fill-opacity: 0.5;"/></g><g class="point"><path d="M443.11,320V270.94H451.47V320Z" style="vector-effect: none; opacity: 1; stroke-width: 0px; fill: rgb(0, 75, 147); fill-opacity: 0.5;"/></g><g class="point"><path d="M451.47,320V280.59H459.83V320Z" style="vector-effect: none; opacity: 1; stroke-width: 0px; fill: rgb(0, 75, 147); fill-opacity: 0.5;"/></g><g class="point"><path d="M459.83,320V283.01H468.2V320Z" style="vector-effect: none; opacity: 1; stroke-width: 0px; fill: rgb(0, 75, 147); fill-opacity: 0.5;"/></g><g class="point"><path d="M468.2,320V294.26H476.56V320Z" style="vector-effect: none; opacity: 1; stroke-width: 0px; fill: rgb(0, 75, 147); fill-opacity: 0.5;"/></g><g class="point"><path d="M476.56,320V302.31H484.92V320Z" style="vector-effect: none; opacity: 1; stroke-width: 0px; fill: rgb(0, 75, 147); fill-opacity: 0.5;"/></g></g></g><g class="trace bars" shape-rendering="crispEdges" style="opacity: 1;"><g class="points"><g class="point"><path d="M0.08,320V318.72H8.44V320Z" style="vector-effect: none; opacity: 1; stroke-width: 0px; fill: rgb(230, 51, 41); fill-opacity: 0.5;"/></g><g class="point"><path d="M8.44,320V314.58H16.8V320Z" style="vector-effect: none; opacity: 1; stroke-width: 0px; fill: rgb(230, 51, 41); fill-opacity: 0.5;"/></g><g class="point"><path d="M16.8,320V311.39H25.17V320Z" style="vector-effect: none; opacity: 1; stroke-width: 0px; fill: rgb(230, 51, 41); fill-opacity: 0.5;"/></g><g class="point"><path d="M25.17,320V302.77H33.53V320Z" style="vector-effect: none; opacity: 1; stroke-width: 0px; fill: rgb(230, 51, 41); fill-opacity: 0.5;"/></g><g class="point"><path d="M33.53,320V252.37H41.89V320Z" style="vector-effect: none; opacity: 1; stroke-width: 0px; fill: rgb(230, 51, 41); fill-opacity: 0.5;"/></g><g class="point"><path d="M41.89,320V245.67H50.25V320Z" style="vector-effect: none; opacity: 1; stroke-width: 0px; fill: rgb(230, 51, 41); fill-opacity: 0.5;"/></g><g class="point"><path d="M50.25,320V210.27H58.61V320Z" style="vector-effect: none; opacity: 1; stroke-width: 0px; fill: rgb(230, 51, 41); fill-opacity: 0.5;"/></g><g class="point"><path d="M58.61,320V202.29H66.97V320Z" style="vector-effect: none; opacity: 1; stroke-width: 0px; fill: rgb(230, 51, 41); fill-opacity: 0.5;"/></g><g class="point"><path d="M66.97,320V165.61H75.33V320Z" style="vector-effect: none; opacity: 1; stroke-width: 0px; fill: rgb(230, 51, 41); fill-opacity: 0.5;"/></g><g class="point"><path d="M75.33,320V169.12H83.69V320Z" style="vector-effect: none; opacity: 1; stroke-width: 0px; fill: rgb(230, 51, 41); fill-opacity: 0.5;"/></g><g class="point"><path d="M83.69,320V86.82H92.05V320Z" style="vector-effect: none; opacity: 1; stroke-width: 0px; fill: rgb(230, 51, 41); fill-opacity: 0.5;"/></g><g class="point"><path d="M92.05,320V78.84H100.41V320Z" style="vector-effect: none; opacity: 1; stroke-width: 0px; fill: rgb(230, 51, 41); fill-opacity: 0.5;"/></g><g class="point"><path d="M100.41,320V81.39H108.77V320Z" style="vector-effect: none; opacity: 1; stroke-width: 0px; fill: rgb(230, 51, 41); fill-opacity: 0.5;"/></g><g class="point"><path d="M108.77,320V51.73H117.13V320Z" style="vector-effect: none; opacity: 1; stroke-width: 0px; fill: rgb(230, 51, 41); fill-opacity: 0.5;"/></g><g class="point"><path d="M117.13,320V34.82H125.49V320Z" style="vector-effect: none; opacity: 1; stroke-width: 0px; fill: rgb(230, 51, 41); fill-opacity: 0.5;"/></g><g class="point"><path d="M125.49,320V48.54H133.85V320Z" style="vector-effect: none; opacity: 1; stroke-width: 0px; fill: rgb(230, 51, 41); fill-opacity: 0.5;"/></g><g class="point"><path d="M133.85,320V16H142.21V320Z" style="vector-effect: none; opacity: 1; stroke-width: 0px; fill: rgb(230, 51, 41); fill-opacity: 0.5;"/></g><g class="point"><path d="M142.21,320V86.5H150.57V320Z" style="vector-effect: none; opacity: 1; stroke-width: 0px; fill: rgb(230, 51, 41); fill-opacity: 0.5;"/></g><g class="point"><path d="M150.57,320V75.01H158.94V320Z" style="vector-effect: none; opacity: 1; stroke-width: 0px; fill: rgb(230, 51, 41); fill-opacity: 0.5;"/></g><g class="point"><path d="M158.94,320V122.86H167.3V320Z" style="vector-effect: none; opacity: 1; stroke-width: 0px; fill: rgb(230, 51, 41); fill-opacity: 0.5;"/></g><g class="point"><path d="M167.3,320V92.24H175.66V320Z" style="vector-effect: none; opacity: 1; stroke-width: 0px; fill: rgb(230, 51, 41); fill-opacity: 0.5;"/></g><g class="point"><path d="M175.66,320V120.95H184.02V320Z" style="vector-effect: none; opacity: 1; stroke-width: 0px; fill: rgb(230, 51, 41); fill-opacity: 0.5;"/></g><g class="point"><path d="M184.02,320V130.52H192.38V320Z" style="vector-effect: none; opacity: 1; stroke-width: 0px; fill: rgb(230, 51, 41); fill-opacity: 0.5;"/></g><g class="point"><path d="M192.38,320V133.71H200.74V320Z" style="vector-effect: none; opacity: 1; stroke-width: 0px; fill: rgb(230, 51, 41); fill-opacity: 0.5;"/></g><g class="point"><path d="M200.74,320V164.33H209.1V320Z" style="vector-effect: none; opacity: 1; stroke-width: 0px; fill: rgb(230, 51, 41); fill-opacity: 0.5;"/></g><g class="point"><path d="M209.1,320V169.75H217.46V320Z" style="vector-effect: none; opacity: 1; stroke-width: 0px; fill: rgb(230, 51, 41); fill-opacity: 0.5;"/></g><g class="point"><path d="M217.46,320V186.66H225.82V320Z" style="vector-effect: none; opacity: 1; stroke-width: 0px; fill: rgb(230, 51, 41); fill-opacity: 0.5;"/></g><g class="point"><path d="M225.82,320V189.53H234.18V320Z" style="vector-effect: none; opacity: 1; stroke-width: 0px; fill: rgb(230, 51, 41); fill-opacity: 0.5;"/></g><g class="point"><path d="M234.18,320V205.8H242.54V320Z" style="vector-effect: none; opacity: 1; stroke-width: 0px; fill: rgb(230, 51, 41); fill-opacity: 0.5;"/></g><g class="point"><path d="M242.54,320V200.06H250.9V320Z" style="vector-effect: none; opacity: 1; stroke-width: 0px; fill: rgb(230, 51, 41); fill-opacity: 0.5;"/></g><g class="point"><path d="M250.9,320V222.07H259.26V320Z" style="vector-effect: none; opacity: 1; stroke-width: 0px; fill: rgb(230, 51, 41); fill-opacity: 0.5;"/></g><g class="point"><path d="M259.26,320V222.07H267.62V320Z" style="vector-effect: none; opacity: 1; stroke-width: 0px; fill: rgb(230, 51, 41); fill-opacity: 0.5;"/></g><g class="point"><path d="M267.62,320V222.07H275.98V320Z" style="vector-effect: none; opacity: 1; stroke-width: 0px; fill: rgb(230, 51, 41); fill-opacity: 0.5;"/></g><g class="point"><path d="M275.98,320V222.39H284.34V320Z" style="vector-effect: none; opacity: 1; stroke-width: 0px; fill: rgb(230, 51, 41); fill-opacity: 0.5;"/></g><g class="point"><path d="M284.34,320V238.02H292.71V320Z" style="vector-effect: none; opacity: 1; stroke-width: 0px; fill: rgb(230, 51, 41); fill-opacity: 0.5;"/></g><g class="point"><path d="M292.71,320V230.04H301.07V320Z" style="vector-effect: none; opacity: 1; stroke-width: 0px; fill: rgb(230, 51, 41); fill-opacity: 0.5;"/></g><g class="point"><path d="M301.07,320V228.13H309.43V320Z" style="vector-effect: none; opacity: 1; stroke-width: 0px; fill: rgb(230, 51, 41); fill-opacity: 0.5;"/></g><g class="point"><path d="M309.43,320V226.22H317.79V320Z" style="vector-effect: none; opacity: 1; stroke-width: 0px; fill: rgb(230, 51, 41); fill-opacity: 0.5;"/></g><g class="point"><path d="M317.79,320V236.1H326.15V320Z" style="vector-effect: none; opacity: 1; stroke-width: 0px; fill: rgb(230, 51, 41); fill-opacity: 0.5;"/></g><g class="point"><path d="M326.15,320V244.72H334.51V320Z" style="vector-effect: none; opacity: 1; stroke-width: 0px; fill: rgb(230, 51, 41); fill-opacity: 0.5;"/></g><g class="point"><path d="M334.51,320V246.95H342.87V320Z" style="vector-effect: none; opacity: 1; stroke-width: 0px; fill: rgb(230, 51, 41); fill-opacity: 0.5;"/></g><g class="point"><path d="M342.87,320V245.67H351.23V320Z" style="vector-effect: none; opacity: 1; stroke-width: 0px; fill: rgb(230, 51, 41); fill-opacity: 0.5;"/></g><g class="point"><path d="M351.23,320V246.31H359.59V320Z" style="vector-effect: none; opacity: 1; stroke-width: 0px; fill: rgb(230, 51, 41); fill-opacity: 0.5;"/></g><g class="point"><path d="M359.59,320V247.91H367.95V320Z" style="vector-effect: none; opacity: 1; stroke-width: 0px; fill: rgb(230, 51, 41); fill-opacity: 0.5;"/></g><g class="point"><path d="M367.95,320V256.2H376.31V320Z" style="vector-effect: none; opacity: 1; stroke-width: 0px; fill: rgb(230, 51, 41); fill-opacity: 0.5;"/></g><g class="point"><path d="M376.31,320V264.5H384.67V320Z" style="vector-effect: none; opacity: 1; stroke-width: 0px; fill: rgb(230, 51, 41); fill-opacity: 0.5;"/></g><g class="point"><path d="M384.67,320V271.51H393.03V320Z" style="vector-effect: none; opacity: 1; stroke-width: 0px; fill: rgb(230, 51, 41); fill-opacity: 0.5;"/></g><g class="point"><path d="M393.03,320V275.34H401.39V320Z" style="vector-effect: none; opacity: 1; stroke-width: 0px; fill: rgb(230, 51, 41); fill-opacity: 0.5;"/></g><g class="point"><path d="M401.39,320V283.63H409.75V320Z" style="vector-effect: none; opacity: 1; stroke-width: 0px; fill: rgb(230, 51, 41); fill-opacity: 0.5;"/></g><g class="point"><path d="M409.75,320V270.56H418.11V320Z" style="vector-effect: none; opacity: 1; stroke-width: 0px; fill: rgb(230, 51, 41); fill-opacity: 0.5;"/></g><g class="point"><path d="M418.11,320V278.85H426.48V320Z" style="vector-effect: none; opacity: 1; stroke-width: 0px; fill: rgb(230, 51, 41); fill-opacity: 0.5;"/></g><g class="point"><path d="M426.48,320V281.4H434.84V320Z" style="vector-effect: none; opacity: 1; stroke-width: 0px; fill: rgb(230, 51, 41); fill-opacity: 0.5;"/></g><g class="point"><path d="M434.84,320V278.21H443.2V320Z" style="vector-effect: none; opacity: 1; stroke-width: 0px; fill: rgb(230, 51, 41); fill-opacity: 0.5;"/></g><g class="point"><path d="M443.2,320V278.53H451.56V320Z" style="vector-effect: none; opacity: 1; stroke-width: 0px; fill: rgb(230, 51, 41); fill-opacity: 0.5;"/></g><g class="point"><path d="M451.56,320V283.63H459.92V320Z" style="vector-effect: none; opacity: 1; stroke-width: 0px; fill: rgb(230, 51, 41); fill-opacity: 0.5;"/></g><g class="point"><path d="M459.92,320V287.46H468.28V320Z" style="vector-effect: none; opacity: 1; stroke-width: 0px; fill: rgb(230, 51, 41); fill-opacity: 0.5;"/></g><g class="point"><path d="M468.28,320V298.63H476.64V320Z" style="vector-effect: none; opacity: 1; stroke-width: 0px; fill: rgb(230, 51, 41); fill-opacity: 0.5;"/></g><g class="point"><path d="M476.64,320V305.33H485V320Z" style="vector-effect: none; opacity: 1; stroke-width: 0px; fill: rgb(230, 51, 41); fill-opacity: 0.5;"/></g></g></g><g class="trace bars" shape-rendering="crispEdges" style="opacity: 1;"><g class="points"><g class="point"><path d="M0.08,320V319.04H8.44V320Z" style="vector-effect: none; opacity: 1; stroke-width: 0px; fill: rgb(254, 207, 68); fill-opacity: 0.5;"/></g><g class="point"><path d="M8.44,320V317.12H16.8V320Z" style="vector-effect: none; opacity: 1; stroke-width: 0px; fill: rgb(254, 207, 68); fill-opacity: 0.5;"/></g><g class="point"><path d="M16.8,320V309.78H25.17V320Z" style="vector-effect: none; opacity: 1; stroke-width: 0px; fill: rgb(254, 207, 68); fill-opacity: 0.5;"/></g><g class="point"><path d="M25.17,320V306.9H33.53V320Z" style="vector-effect: none; opacity: 1; stroke-width: 0px; fill: rgb(254, 207, 68); fill-opacity: 0.5;"/></g><g class="point"><path d="M33.53,320V271.12H41.89V320Z" style="vector-effect: none; opacity: 1; stroke-width: 0px; fill: rgb(254, 207, 68); fill-opacity: 0.5;"/></g><g class="point"><path d="M41.89,320V246.51H50.25V320Z" style="vector-effect: none; opacity: 1; stroke-width: 0px; fill: rgb(254, 207, 68); fill-opacity: 0.5;"/></g><g class="point"><path d="M50.25,320V233.41H58.61V320Z" style="vector-effect: none; opacity: 1; stroke-width: 0px; fill: rgb(254, 207, 68); fill-opacity: 0.5;"/></g><g class="point"><path d="M58.61,320V203.38H66.97V320Z" style="vector-effect: none; opacity: 1; stroke-width: 0px; fill: rgb(254, 207, 68); fill-opacity: 0.5;"/></g><g class="point"><path d="M66.97,320V181.66H75.33V320Z" style="vector-effect: none; opacity: 1; stroke-width: 0px; fill: rgb(254, 207, 68); fill-opacity: 0.5;"/></g><g class="point"><path d="M75.33,320V139.8H83.69V320Z" style="vector-effect: none; opacity: 1; stroke-width: 0px; fill: rgb(254, 207, 68); fill-opacity: 0.5;"/></g><g class="point"><path d="M83.69,320V102.74H92.05V320Z" style="vector-effect: none; opacity: 1; stroke-width: 0px; fill: rgb(254, 207, 68); fill-opacity: 0.5;"/></g><g class="point"><path d="M92.05,320V66.95H100.41V320Z" style="vector-effect: none; opacity: 1; stroke-width: 0px; fill: rgb(254, 207, 68); fill-opacity: 0.5;"/></g><g class="point"><path d="M100.41,320V60.56H108.77V320Z" style="vector-effect: none; opacity: 1; stroke-width: 0px; fill: rgb(254, 207, 68); fill-opacity: 0.5;"/></g><g class="point"><path d="M108.77,320V35.96H117.13V320Z" style="vector-effect: none; opacity: 1; stroke-width: 0px; fill: rgb(254, 207, 68); fill-opacity: 0.5;"/></g><g class="point"><path d="M117.13,320V48.74H125.49V320Z" style="vector-effect: none; opacity: 1; stroke-width: 0px; fill: rgb(254, 207, 68); fill-opacity: 0.5;"/></g><g class="point"><path d="M125.49,320V30.21H133.85V320Z" style="vector-effect: none; opacity: 1; stroke-width: 0px; fill: rgb(254, 207, 68); fill-opacity: 0.5;"/></g><g class="point"><path d="M133.85,320V33.09H142.21V320Z" style="vector-effect: none; opacity: 1; stroke-width: 0px; fill: rgb(254, 207, 68); fill-opacity: 0.5;"/></g><g class="point"><path d="M142.21,320V51.94H150.57V320Z" style="vector-effect: none; opacity: 1; stroke-width: 0px; fill: rgb(254, 207, 68); fill-opacity: 0.5;"/></g><g class="point"><path d="M150.57,320V64.08H158.94V320Z" style="vector-effect: none; opacity: 1; stroke-width: 0px; fill: rgb(254, 207, 68); fill-opacity: 0.5;"/></g><g class="point"><path d="M158.94,320V104.02H167.3V320Z" style="vector-effect: none; opacity: 1; stroke-width: 0px; fill: rgb(254, 207, 68); fill-opacity: 0.5;"/></g><g class="point"><path d="M167.3,320V116.16H175.66V320Z" style="vector-effect: none; opacity: 1; stroke-width: 0px; fill: rgb(254, 207, 68); fill-opacity: 0.5;"/></g><g class="point"><path d="M175.66,320V143.63H184.02V320Z" style="vector-effect: none; opacity: 1; stroke-width: 0px; fill: rgb(254, 207, 68); fill-opacity: 0.5;"/></g><g class="point"><path d="M184.02,320V133.41H192.38V320Z" style="vector-effect: none; opacity: 1; stroke-width: 0px; fill: rgb(254, 207, 68); fill-opacity: 0.5;"/></g><g class="point"><path d="M192.38,320V129.26H200.74V320Z" style="vector-effect: none; opacity: 1; stroke-width: 0px; fill: rgb(254, 207, 68); fill-opacity: 0.5;"/></g><g class="point"><path d="M200.74,320V153.86H209.1V320Z" style="vector-effect: none; opacity: 1; stroke-width: 0px; fill: rgb(254, 207, 68); fill-opacity: 0.5;"/></g><g class="point"><path d="M209.1,320V180.38H217.46V320Z" style="vector-effect: none; opacity: 1; stroke-width: 0px; fill: rgb(254, 207, 68); fill-opacity: 0.5;"/></g><g class="point"><path d="M217.46,320V188.68H225.82V320Z" style="vector-effect: none; opacity: 1; stroke-width: 0px; fill: rgb(254, 207, 68); fill-opacity: 0.5;"/></g><g class="point"><path d="M225.82,320V194.76H234.18V320Z" style="vector-effect: none; opacity: 1; stroke-width: 0px; fill: rgb(254, 207, 68); fill-opacity: 0.5;"/></g><g class="point"><path d="M234.18,320V202.1H242.54V320Z" style="vector-effect: none; opacity: 1; stroke-width: 0px; fill: rgb(254, 207, 68); fill-opacity: 0.5;"/></g><g class="point"><path d="M242.54,320V212.65H250.9V320Z" style="vector-effect: none; opacity: 1; stroke-width: 0px; fill: rgb(254, 207, 68); fill-opacity: 0.5;"/></g><g class="point"><path d="M250.9,320V219.04H259.26V320Z" style="vector-effect: none; opacity: 1; stroke-width: 0px; fill: rgb(254, 207, 68); fill-opacity: 0.5;"/></g><g class="point"><path d="M259.26,320V217.76H267.62V320Z" style="vector-effect: none; opacity: 1; stroke-width: 0px; fill: rgb(254, 207, 68); fill-opacity: 0.5;"/></g><g class="point"><path d="M267.62,320V229.58H275.98V320Z" style="vector-effect: none; opacity: 1; stroke-width: 0px; fill: rgb(254, 207, 68); fill-opacity: 0.5;"/></g><g class="point"><path d="M275.98,320V224.79H284.34V320Z" style="vector-effect: none; opacity: 1; stroke-width: 0px; fill: rgb(254, 207, 68); fill-opacity: 0.5;"/></g><g class="point"><path d="M284.34,320V225.43H292.71V320Z" style="vector-effect: none; opacity: 1; stroke-width: 0px; fill: rgb(254, 207, 68); fill-opacity: 0.5;"/></g><g class="point"><path d="M292.71,320V230.54H301.07V320Z" style="vector-effect: none; opacity: 1; stroke-width: 0px; fill: rgb(254, 207, 68); fill-opacity: 0.5;"/></g><g class="point"><path d="M301.07,320V238.53H309.43V320Z" style="vector-effect: none; opacity: 1; stroke-width: 0px; fill: rgb(254, 207, 68); fill-opacity: 0.5;"/></g><g class="point"><path d="M309.43,320V231.5H317.79V320Z" style="vector-effect: none; opacity: 1; stroke-width: 0px; fill: rgb(254, 207, 68); fill-opacity: 0.5;"/></g><g class="point"><path d="M317.79,320V237.25H326.15V320Z" style="vector-effect: none; opacity: 1; stroke-width: 0px; fill: rgb(254, 207, 68); fill-opacity: 0.5;"/></g><g class="point"><path d="M326.15,320V240.76H334.51V320Z" style="vector-effect: none; opacity: 1; stroke-width: 0px; fill: rgb(254, 207, 68); fill-opacity: 0.5;"/></g><g class="point"><path d="M334.51,320V240.44H342.87V320Z" style="vector-effect: none; opacity: 1; stroke-width: 0px; fill: rgb(254, 207, 68); fill-opacity: 0.5;"/></g><g class="point"><path d="M342.87,320V258.34H351.23V320Z" style="vector-effect: none; opacity: 1; stroke-width: 0px; fill: rgb(254, 207, 68); fill-opacity: 0.5;"/></g><g class="point"><path d="M351.23,320V244.92H359.59V320Z" style="vector-effect: none; opacity: 1; stroke-width: 0px; fill: rgb(254, 207, 68); fill-opacity: 0.5;"/></g><g class="point"><path d="M359.59,320V255.14H367.95V320Z" style="vector-effect: none; opacity: 1; stroke-width: 0px; fill: rgb(254, 207, 68); fill-opacity: 0.5;"/></g><g class="point"><path d="M367.95,320V250.35H376.31V320Z" style="vector-effect: none; opacity: 1; stroke-width: 0px; fill: rgb(254, 207, 68); fill-opacity: 0.5;"/></g><g class="point"><path d="M376.31,320V265.05H384.67V320Z" style="vector-effect: none; opacity: 1; stroke-width: 0px; fill: rgb(254, 207, 68); fill-opacity: 0.5;"/></g><g class="point"><path d="M384.67,320V263.77H393.03V320Z" style="vector-effect: none; opacity: 1; stroke-width: 0px; fill: rgb(254, 207, 68); fill-opacity: 0.5;"/></g><g class="point"><path d="M393.03,320V272.39H401.39V320Z" style="vector-effect: none; opacity: 1; stroke-width: 0px; fill: rgb(254, 207, 68); fill-opacity: 0.5;"/></g><g class="point"><path d="M401.39,320V276.55H409.75V320Z" style="vector-effect: none; opacity: 1; stroke-width: 0px; fill: rgb(254, 207, 68); fill-opacity: 0.5;"/></g><g class="point"><path d="M409.75,320V283.58H418.11V320Z" style="vector-effect: none; opacity: 1; stroke-width: 0px; fill: rgb(254, 207, 68); fill-opacity: 0.5;"/></g><g class="point"><path d="M418.11,320V280.06H426.48V320Z" style="vector-effect: none; opacity: 1; stroke-width: 0px; fill: rgb(254, 207, 68); fill-opacity: 0.5;"/></g><g class="point"><path d="M426.48,320V269.2H434.84V320Z" style="vector-effect: none; opacity: 1; stroke-width: 0px; fill: rgb(254, 207, 68); fill-opacity: 0.5;"/></g><g class="point"><path d="M434.84,320V280.7H443.2V320Z" style="vector-effect: none; opacity: 1; stroke-width: 0px; fill: rgb(254, 207, 68); fill-opacity: 0.5;"/></g><g class="point"><path d="M443.2,320V273.03H451.56V320Z" style="vector-effect: none; opacity: 1; stroke-width: 0px; fill: rgb(254, 207, 68); fill-opacity: 0.5;"/></g><g class="point"><path d="M451.56,320V283.26H459.92V320Z" style="vector-effect: none; opacity: 1; stroke-width: 0px; fill: rgb(254, 207, 68); fill-opacity: 0.5;"/></g><g class="point"><path d="M459.92,320V287.73H468.28V320Z" style="vector-effect: none; opacity: 1; stroke-width: 0px; fill: rgb(254, 207, 68); fill-opacity: 0.5;"/></g><g class="point"><path d="M468.28,320V291.56H476.64V320Z" style="vector-effect: none; opacity: 1; stroke-width: 0px; fill: rgb(254, 207, 68); fill-opacity: 0.5;"/></g><g class="point"><path d="M476.64,320V308.18H485V320Z" style="vector-effect: none; opacity: 1; stroke-width: 0px; fill: rgb(254, 207, 68); fill-opacity: 0.5;"/></g></g></g><g class="trace bars" shape-rendering="crispEdges" style="opacity: 1;"><g class="points"><g class="point"><path d="M0,320V261.6H8.36V320Z" style="vector-effect: none; opacity: 1; stroke-width: 0px; fill: rgb(0, 126, 72); fill-opacity: 0.5;"/></g><g class="point"><path d="M8.36,320V214.87H16.72V320Z" style="vector-effect: none; opacity: 1; stroke-width: 0px; fill: rgb(0, 126, 72); fill-opacity: 0.5;"/></g><g class="point"><path d="M16.72,320V218.66H25.08V320Z" style="vector-effect: none; opacity: 1; stroke-width: 0px; fill: rgb(0, 126, 72); fill-opacity: 0.5;"/></g><g class="point"><path d="M25.08,320V155.52H33.44V320Z" style="vector-effect: none; opacity: 1; stroke-width: 0px; fill: rgb(0, 126, 72); fill-opacity: 0.5;"/></g><g class="point"><path d="M33.44,320V135.63H41.8V320Z" style="vector-effect: none; opacity: 1; stroke-width: 0px; fill: rgb(0, 126, 72); fill-opacity: 0.5;"/></g><g class="point"><path d="M41.8,320V148.89H50.16V320Z" style="vector-effect: none; opacity: 1; stroke-width: 0px; fill: rgb(0, 126, 72); fill-opacity: 0.5;"/></g><g class="point"><path d="M50.16,320V75.97H58.52V320Z" style="vector-effect: none; opacity: 1; stroke-width: 0px; fill: rgb(0, 126, 72); fill-opacity: 0.5;"/></g><g class="point"><path d="M58.52,320V23.56H66.89V320Z" style="vector-effect: none; opacity: 1; stroke-width: 0px; fill: rgb(0, 126, 72); fill-opacity: 0.5;"/></g><g class="point"><path d="M66.89,320V47.24H75.25V320Z" style="vector-effect: none; opacity: 1; stroke-width: 0px; fill: rgb(0, 126, 72); fill-opacity: 0.5;"/></g><g class="point"><path d="M75.25,320V37.45H83.61V320Z" style="vector-effect: none; opacity: 1; stroke-width: 0px; fill: rgb(0, 126, 72); fill-opacity: 0.5;"/></g><g class="point"><path d="M83.61,320V42.19H91.97V320Z" style="vector-effect: none; opacity: 1; stroke-width: 0px; fill: rgb(0, 126, 72); fill-opacity: 0.5;"/></g><g class="point"><path d="M91.97,320V81.33H100.33V320Z" style="vector-effect: none; opacity: 1; stroke-width: 0px; fill: rgb(0, 126, 72); fill-opacity: 0.5;"/></g><g class="point"><path d="M100.33,320V98.07H108.69V320Z" style="vector-effect: none; opacity: 1; stroke-width: 0px; fill: rgb(0, 126, 72); fill-opacity: 0.5;"/></g><g class="point"><path d="M108.69,320V88.28H117.05V320Z" style="vector-effect: none; opacity: 1; stroke-width: 0px; fill: rgb(0, 126, 72); fill-opacity: 0.5;"/></g><g class="point"><path d="M117.05,320V81.97H125.41V320Z" style="vector-effect: none; opacity: 1; stroke-width: 0px; fill: rgb(0, 126, 72); fill-opacity: 0.5;"/></g><g class="point"><path d="M125.41,320V111.64H133.77V320Z" style="vector-effect: none; opacity: 1; stroke-width: 0px; fill: rgb(0, 126, 72); fill-opacity: 0.5;"/></g><g class="point"><path d="M133.77,320V105.01H142.13V320Z" style="vector-effect: none; opacity: 1; stroke-width: 0px; fill: rgb(0, 126, 72); fill-opacity: 0.5;"/></g><g class="point"><path d="M142.13,320V89.86H150.49V320Z" style="vector-effect: none; opacity: 1; stroke-width: 0px; fill: rgb(0, 126, 72); fill-opacity: 0.5;"/></g><g class="point"><path d="M150.49,320V95.86H158.85V320Z" style="vector-effect: none; opacity: 1; stroke-width: 0px; fill: rgb(0, 126, 72); fill-opacity: 0.5;"/></g><g class="point"><path d="M158.85,320V109.75H167.21V320Z" style="vector-effect: none; opacity: 1; stroke-width: 0px; fill: rgb(0, 126, 72); fill-opacity: 0.5;"/></g><g class="point"><path d="M167.21,320V121.11H175.57V320Z" style="vector-effect: none; opacity: 1; stroke-width: 0px; fill: rgb(0, 126, 72); fill-opacity: 0.5;"/></g><g class="point"><path d="M175.57,320V113.22H183.93V320Z" style="vector-effect: none; opacity: 1; stroke-width: 0px; fill: rgb(0, 126, 72); fill-opacity: 0.5;"/></g><g class="point"><path d="M183.93,320V126.48H192.29V320Z" style="vector-effect: none; opacity: 1; stroke-width: 0px; fill: rgb(0, 126, 72); fill-opacity: 0.5;"/></g><g class="point"><path d="M192.29,320V137.84H200.66V320Z" style="vector-effect: none; opacity: 1; stroke-width: 0px; fill: rgb(0, 126, 72); fill-opacity: 0.5;"/></g><g class="point"><path d="M200.66,320V157.73H209.02V320Z" style="vector-effect: none; opacity: 1; stroke-width: 0px; fill: rgb(0, 126, 72); fill-opacity: 0.5;"/></g><g class="point"><path d="M209.02,320V173.52H217.38V320Z" style="vector-effect: none; opacity: 1; stroke-width: 0px; fill: rgb(0, 126, 72); fill-opacity: 0.5;"/></g><g class="point"><path d="M217.38,320V187.41H225.74V320Z" style="vector-effect: none; opacity: 1; stroke-width: 0px; fill: rgb(0, 126, 72); fill-opacity: 0.5;"/></g><g class="point"><path d="M225.74,320V191.2H234.1V320Z" style="vector-effect: none; opacity: 1; stroke-width: 0px; fill: rgb(0, 126, 72); fill-opacity: 0.5;"/></g><g class="point"><path d="M234.1,320V215.82H242.46V320Z" style="vector-effect: none; opacity: 1; stroke-width: 0px; fill: rgb(0, 126, 72); fill-opacity: 0.5;"/></g><g class="point"><path d="M242.46,320V221.82H250.82V320Z" style="vector-effect: none; opacity: 1; stroke-width: 0px; fill: rgb(0, 126, 72); fill-opacity: 0.5;"/></g><g class="point"><path d="M250.82,320V230.34H259.18V320Z" style="vector-effect: none; opacity: 1; stroke-width: 0px; fill: rgb(0, 126, 72); fill-opacity: 0.5;"/></g><g class="point"><path d="M259.18,320V233.18H267.54V320Z" style="vector-effect: none; opacity: 1; stroke-width: 0px; fill: rgb(0, 126, 72); fill-opacity: 0.5;"/></g><g class="point"><path d="M267.54,320V259.39H275.9V320Z" style="vector-effect: none; opacity: 1; stroke-width: 0px; fill: rgb(0, 126, 72); fill-opacity: 0.5;"/></g><g class="point"><path d="M275.9,320V249.28H284.26V320Z" style="vector-effect: none; opacity: 1; stroke-width: 0px; fill: rgb(0, 126, 72); fill-opacity: 0.5;"/></g><g class="point"><path d="M284.26,320V262.54H292.62V320Z" style="vector-effect: none; opacity: 1; stroke-width: 0px; fill: rgb(0, 126, 72); fill-opacity: 0.5;"/></g><g class="point"><path d="M292.62,320V269.49H300.98V320Z" style="vector-effect: none; opacity: 1; stroke-width: 0px; fill: rgb(0, 126, 72); fill-opacity: 0.5;"/></g><g class="point"><path d="M300.98,320V268.23H309.34V320Z" style="vector-effect: none; opacity: 1; stroke-width: 0px; fill: rgb(0, 126, 72); fill-opacity: 0.5;"/></g><g class="point"><path d="M309.34,320V277.38H317.7V320Z" style="vector-effect: none; opacity: 1; stroke-width: 0px; fill: rgb(0, 126, 72); fill-opacity: 0.5;"/></g><g class="point"><path d="M317.7,320V279.59H326.06V320Z" style="vector-effect: none; opacity: 1; stroke-width: 0px; fill: rgb(0, 126, 72); fill-opacity: 0.5;"/></g><g class="point"><path d="M326.06,320V285.59H334.43V320Z" style="vector-effect: none; opacity: 1; stroke-width: 0px; fill: rgb(0, 126, 72); fill-opacity: 0.5;"/></g><g class="point"><path d="M334.43,320V287.48H342.79V320Z" style="vector-effect: none; opacity: 1; stroke-width: 0px; fill: rgb(0, 126, 72); fill-opacity: 0.5;"/></g><g class="point"><path d="M342.79,320V290.96H351.15V320Z" style="vector-effect: none; opacity: 1; stroke-width: 0px; fill: rgb(0, 126, 72); fill-opacity: 0.5;"/></g><g class="point"><path d="M351.15,320V295.38H359.51V320Z" style="vector-effect: none; opacity: 1; stroke-width: 0px; fill: rgb(0, 126, 72); fill-opacity: 0.5;"/></g><g class="point"><path d="M359.51,320V296.64H367.87V320Z" style="vector-effect: none; opacity: 1; stroke-width: 0px; fill: rgb(0, 126, 72); fill-opacity: 0.5;"/></g><g class="point"><path d="M367.87,320V299.16H376.23V320Z" style="vector-effect: none; opacity: 1; stroke-width: 0px; fill: rgb(0, 126, 72); fill-opacity: 0.5;"/></g><g class="point"><path d="M376.23,320V300.11H384.59V320Z" style="vector-effect: none; opacity: 1; stroke-width: 0px; fill: rgb(0, 126, 72); fill-opacity: 0.5;"/></g><g class="point"><path d="M384.59,320V301.37H392.95V320Z" style="vector-effect: none; opacity: 1; stroke-width: 0px; fill: rgb(0, 126, 72); fill-opacity: 0.5;"/></g><g class="point"><path d="M392.95,320V302.95H401.31V320Z" style="vector-effect: none; opacity: 1; stroke-width: 0px; fill: rgb(0, 126, 72); fill-opacity: 0.5;"/></g><g class="point"><path d="M401.31,320V307.06H409.67V320Z" style="vector-effect: none; opacity: 1; stroke-width: 0px; fill: rgb(0, 126, 72); fill-opacity: 0.5;"/></g><g class="point"><path d="M409.67,320V307.69H418.03V320Z" style="vector-effect: none; opacity: 1; stroke-width: 0px; fill: rgb(0, 126, 72); fill-opacity: 0.5;"/></g><g class="point"><path d="M418.03,320V306.11H426.39V320Z" style="vector-effect: none; opacity: 1; stroke-width: 0px; fill: rgb(0, 126, 72); fill-opacity: 0.5;"/></g><g class="point"><path d="M426.39,320V309.9H434.75V320Z" style="vector-effect: none; opacity: 1; stroke-width: 0px; fill: rgb(0, 126, 72); fill-opacity: 0.5;"/></g><g class="point"><path d="M434.75,320V308.63H443.11V320Z" style="vector-effect: none; opacity: 1; stroke-width: 0px; fill: rgb(0, 126, 72); fill-opacity: 0.5;"/></g><g class="point"><path d="M443.11,320V309.9H451.47V320Z" style="vector-effect: none; opacity: 1; stroke-width: 0px; fill: rgb(0, 126, 72); fill-opacity: 0.5;"/></g><g class="point"><path d="M451.47,320V310.53H459.83V320Z" style="vector-effect: none; opacity: 1; stroke-width: 0px; fill: rgb(0, 126, 72); fill-opacity: 0.5;"/></g><g class="point"><path d="M459.83,320V313.05H468.2V320Z" style="vector-effect: none; opacity: 1; stroke-width: 0px; fill: rgb(0, 126, 72); fill-opacity: 0.5;"/></g><g class="point"><path d="M468.2,320V314.63H476.56V320Z" style="vector-effect: none; opacity: 1; stroke-width: 0px; fill: rgb(0, 126, 72); fill-opacity: 0.5;"/></g><g class="point"><path d="M476.56,320V315.26H484.92V320Z" style="vector-effect: none; opacity: 1; stroke-width: 0px; fill: rgb(0, 126, 72); fill-opacity: 0.5;"/></g></g></g></g></g><g class="overplot"/><path class="xlines-above crisp" d="M0,0" style="fill: none;"/><path class="ylines-above crisp" d="M0,0" style="fill: none;"/><g class="overlines-above"/><g class="xaxislayer-above"><g class="xtick"><text text-anchor="middle" x="0" y="433" transform="translate(80.08,0)" style="font-family: 'Open Sans', verdana, arial, sans-serif; font-size: 12px; fill: rgb(42, 63, 95); fill-opacity: 1; white-space: pre; opacity: 1;">500</text></g><g class="xtick"><text text-anchor="middle" x="0" y="433" style="font-family: 'Open Sans', verdana, arial, sans-serif; font-size: 12px; fill: rgb(42, 63, 95); fill-opacity: 1; white-space: pre; opacity: 1;" transform="translate(163.69,0)">1000</text></g><g class="xtick"><text text-anchor="middle" x="0" y="433" style="font-family: 'Open Sans', verdana, arial, sans-serif; font-size: 12px; fill: rgb(42, 63, 95); fill-opacity: 1; white-space: pre; opacity: 1;" transform="translate(247.3,0)">1500</text></g><g class="xtick"><text text-anchor="middle" x="0" y="433" style="font-family: 'Open Sans', verdana, arial, sans-serif; font-size: 12px; fill: rgb(42, 63, 95); fill-opacity: 1; white-space: pre; opacity: 1;" transform="translate(330.9,0)">2000</text></g><g class="xtick"><text text-anchor="middle" x="0" y="433" style="font-family: 'Open Sans', verdana, arial, sans-serif; font-size: 12px; fill: rgb(42, 63, 95); fill-opacity: 1; white-space: pre; opacity: 1;" transform="translate(414.51,0)">2500</text></g><g class="xtick"><text text-anchor="middle" x="0" y="433" style="font-family: 'Open Sans', verdana, arial, sans-serif; font-size: 12px; fill: rgb(42, 63, 95); fill-opacity: 1; white-space: pre; opacity: 1;" transform="translate(498.11,0)">3000</text></g></g><g class="yaxislayer-above"><g class="ytick"><text text-anchor="end" x="79" y="4.199999999999999" transform="translate(0,420)" style="font-family: 'Open Sans', verdana, arial, sans-serif; font-size: 12px; fill: rgb(42, 63, 95); fill-opacity: 1; white-space: pre; opacity: 1;">0</text></g><g class="ytick"><text text-anchor="end" x="79" y="4.199999999999999" style="font-family: 'Open Sans', verdana, arial, sans-serif; font-size: 12px; fill: rgb(42, 63, 95); fill-opacity: 1; white-space: pre; opacity: 1;" transform="translate(0,354.01)">1</text></g><g class="ytick"><text text-anchor="end" x="79" y="4.199999999999999" style="font-family: 'Open Sans', verdana, arial, sans-serif; font-size: 12px; fill: rgb(42, 63, 95); fill-opacity: 1; white-space: pre; opacity: 1;" transform="translate(0,288.03)">2</text></g><g class="ytick"><text text-anchor="end" x="79" y="4.199999999999999" style="font-family: 'Open Sans', verdana, arial, sans-serif; font-size: 12px; fill: rgb(42, 63, 95); fill-opacity: 1; white-space: pre; opacity: 1;" transform="translate(0,222.04000000000002)">3</text></g><g class="ytick"><text text-anchor="end" x="79" y="4.199999999999999" style="font-family: 'Open Sans', verdana, arial, sans-serif; font-size: 12px; fill: rgb(42, 63, 95); fill-opacity: 1; white-space: pre; opacity: 1;" transform="translate(0,156.05)">4</text></g></g><g class="overaxes-above"/></g></g><g class="polarlayer"/><g class="smithlayer"/><g class="ternarylayer"/><g class="geolayer"/><g class="funnelarealayer"/><g class="pielayer"/><g class="iciclelayer"/><g class="treemaplayer"/><g class="sunburstlayer"/><g class="glimages"/><defs id="topdefs-eb5777"><g class="clips"/><clipPath id="legendeb5777"><rect width="113" height="86" x="0" y="0"/></clipPath></defs><g class="layer-above"><g class="imagelayer"/><g class="shapelayer"/></g><g class="infolayer"><g class="legend" pointer-events="all" transform="translate(574.7,100)"><rect class="bg" shape-rendering="crispEdges" width="113" height="86" x="0" y="0" style="stroke: rgb(68, 68, 68); stroke-opacity: 1; fill: rgb(255, 255, 255); fill-opacity: 1; stroke-width: 0px;"/><g class="scrollbox" transform="" clip-path="url(#legendeb5777)"><g class="groups"><g class="traces" transform="translate(0,14.5)" style="opacity: 1;"><text class="legendtext" text-anchor="start" x="40" y="4.680000000000001" style="font-family: 'Open Sans', verdana, arial, sans-serif; font-size: 12px; fill: rgb(42, 63, 95); fill-opacity: 1; white-space: pre;">Real</text><g class="layers" style="opacity: 1;"><g class="legendfill"/><g class="legendlines"/><g class="legendsymbols"><g class="legendpoints"><path class="legendundefined" d="M6,6H-6V-6H6Z" transform="translate(20,0)" style="stroke-width: 0px; fill: rgb(0, 75, 147); fill-opacity: 0.5;"/></g></g></g><rect class="legendtoggle" x="0" y="-9.5" width="107.890625" height="19" style="fill: rgb(0, 0, 0); fill-opacity: 0;"/></g><g class="traces" transform="translate(0,33.5)" style="opacity: 1;"><text class="legendtext" text-anchor="start" x="40" y="4.680000000000001" style="font-family: 'Open Sans', verdana, arial, sans-serif; font-size: 12px; fill: rgb(42, 63, 95); fill-opacity: 1; white-space: pre;">tddpm_mlp</text><g class="layers" style="opacity: 1;"><g class="legendfill"/><g class="legendlines"/><g class="legendsymbols"><g class="legendpoints"><path class="legendundefined" d="M6,6H-6V-6H6Z" transform="translate(20,0)" style="stroke-width: 0px; fill: rgb(230, 51, 41); fill-opacity: 0.5;"/></g></g></g><rect class="legendtoggle" x="0" y="-9.5" width="107.890625" height="19" style="fill: rgb(0, 0, 0); fill-opacity: 0;"/></g><g class="traces" transform="translate(0,52.5)" style="opacity: 1;"><text class="legendtext" text-anchor="start" x="40" y="4.680000000000001" style="font-family: 'Open Sans', verdana, arial, sans-serif; font-size: 12px; fill: rgb(42, 63, 95); fill-opacity: 1; white-space: pre;">smote-enc</text><g class="layers" style="opacity: 1;"><g class="legendfill"/><g class="legendlines"/><g class="legendsymbols"><g class="legendpoints"><path class="legendundefined" d="M6,6H-6V-6H6Z" transform="translate(20,0)" style="stroke-width: 0px; fill: rgb(254, 207, 68); fill-opacity: 0.5;"/></g></g></g><rect class="legendtoggle" x="0" y="-9.5" width="107.890625" height="19" style="fill: rgb(0, 0, 0); fill-opacity: 0;"/></g><g class="traces" transform="translate(0,71.5)" style="opacity: 1;"><text class="legendtext" text-anchor="start" x="40" y="4.680000000000001" style="font-family: 'Open Sans', verdana, arial, sans-serif; font-size: 12px; fill: rgb(42, 63, 95); fill-opacity: 1; white-space: pre;">copulagan</text><g class="layers" style="opacity: 1;"><g class="legendfill"/><g class="legendlines"/><g class="legendsymbols"><g class="legendpoints"><path class="legendundefined" d="M6,6H-6V-6H6Z" transform="translate(20,0)" style="stroke-width: 0px; fill: rgb(0, 126, 72); fill-opacity: 0.5;"/></g></g></g><rect class="legendtoggle" x="0" y="-9.5" width="107.890625" height="19" style="fill: rgb(0, 0, 0); fill-opacity: 0;"/></g></g></g><rect class="scrollbar" rx="20" ry="3" width="0" height="0" x="0" y="0" style="fill: rgb(128, 139, 164); fill-opacity: 1;"/></g><g class="g-gtitle"><text class="gtitle" x="35" y="50" text-anchor="start" dy="0em" style="font-family: 'Open Sans', verdana, arial, sans-serif; font-size: 17px; fill: rgb(42, 63, 95); opacity: 1; font-weight: normal; white-space: pre;">sqft_above</text></g><g class="g-xtitle"/><g class="g-ytitle"/></g></svg>