<svg class="main-svg" xmlns="http://www.w3.org/2000/svg" xmlns:xlink="http://www.w3.org/1999/xlink" width="700" height="500" style="" viewBox="0 0 700 500"><rect x="0" y="0" width="700" height="500" style="fill: rgb(255, 255, 255); fill-opacity: 1;"/><defs id="defs-c51788"><g class="clips"><clipPath id="clipc51788xyplot" class="plotclip"><rect width="540" height="320"/></clipPath><clipPath class="axesclip" id="clipc51788x"><rect x="80" y="0" width="540" height="500"/></clipPath><clipPath class="axesclip" id="clipc51788y"><rect x="0" y="100" width="700" height="320"/></clipPath><clipPath class="axesclip" id="clipc51788xy"><rect x="80" y="100" width="540" height="320"/></clipPath></g><g class="gradients"/><g class="patterns"/></defs><g class="bglayer"><rect class="bg" x="80" y="100" width="540" height="320" style="fill: rgb(229, 236, 246); fill-opacity: 1; stroke-width: 0;"/></g><g class="layer-below"><g class="imagelayer"/><g class="shapelayer"/></g><g class="cartesianlayer"><g class="subplot xy"><g class="layer-subplot"><g class="shapelayer"/><g class="imagelayer"/></g><g class="minor-gridlayer"><g class="x"/><g class="y"/></g><g class="gridlayer"><g class="x"/><g class="y"><path class="ygrid crisp" transform="translate(0,361.6)" d="M80,0h540" style="stroke: rgb(255, 255, 255); stroke-opacity: 1; stroke-width: 1px;"/><path class="ygrid crisp" transform="translate(0,303.2)" d="M80,0h540" style="stroke: rgb(255, 255, 255); stroke-opacity: 1; stroke-width: 1px;"/><path class="ygrid crisp" transform="translate(0,244.8)" d="M80,0h540" style="stroke: rgb(255, 255, 255); stroke-opacity: 1; stroke-width: 1px;"/><path class="ygrid crisp" transform="translate(0,186.4)" d="M80,0h540" style="stroke: rgb(255, 255, 255); stroke-opacity: 1; stroke-width: 1px;"/><path class="ygrid crisp" transform="translate(0,128)" d="M80,0h540" style="stroke: rgb(255, 255, 255); stroke-opacity: 1; stroke-width: 1px;"/></g></g><g class="zerolinelayer"><path class="yzl zl crisp" transform="translate(0,420)" d="M80,0h540" style="stroke: rgb(255, 255, 255); stroke-opacity: 1; stroke-width: 2px;"/></g><path class="xlines-below"/><path class="ylines-below"/><g class="overlines-below"/><g class="xaxislayer-below"/><g class="yaxislayer-below"/><g class="overaxes-below"/><g class="plot" transform="translate(80,100)" clip-path="url(#clipc51788xyplot)"><g class="barlayer mlayer"><g class="trace bars" shape-rendering="crispEdges" style="opacity: 1;"><g class="points"><g class="point"><path d="M0,320V315.73H5.05V320Z" style="vector-effect: none; opacity: 1; stroke-width: 0px; fill: rgb(0, 75, 147); fill-opacity: 0.5;"/></g><g class="point"><path d="M5.05,320V311.46H10.09V320Z" style="vector-effect: none; opacity: 1; stroke-width: 0px; fill: rgb(0, 75, 147); fill-opacity: 0.5;"/></g><g class="point"><path d="M10.09,320V307.91H15.14V320Z" style="vector-effect: none; opacity: 1; stroke-width: 0px; fill: rgb(0, 75, 147); fill-opacity: 0.5;"/></g><g class="point"><path d="M15.14,320V302.92H20.19V320Z" style="vector-effect: none; opacity: 1; stroke-width: 0px; fill: rgb(0, 75, 147); fill-opacity: 0.5;"/></g><g class="point"><path d="M20.19,320V301.5H25.23V320Z" style="vector-effect: none; opacity: 1; stroke-width: 0px; fill: rgb(0, 75, 147); fill-opacity: 0.5;"/></g><g class="point"><path d="M25.23,320V296.52H30.28V320Z" style="vector-effect: none; opacity: 1; stroke-width: 0px; fill: rgb(0, 75, 147); fill-opacity: 0.5;"/></g><g class="point"><path d="M30.28,320V270.2H35.33V320Z" style="vector-effect: none; opacity: 1; stroke-width: 0px; fill: rgb(0, 75, 147); fill-opacity: 0.5;"/></g><g class="point"><path d="M35.33,320V260.24H40.37V320Z" style="vector-effect: none; opacity: 1; stroke-width: 0px; fill: rgb(0, 75, 147); fill-opacity: 0.5;"/></g><g class="point"><path d="M40.37,320V250.28H45.42V320Z" style="vector-effect: none; opacity: 1; stroke-width: 0px; fill: rgb(0, 75, 147); fill-opacity: 0.5;"/></g><g class="point"><path d="M45.42,320V245.3H50.47V320Z" style="vector-effect: none; opacity: 1; stroke-width: 0px; fill: rgb(0, 75, 147); fill-opacity: 0.5;"/></g><g class="point"><path d="M50.47,320V212.57H55.51V320Z" style="vector-effect: none; opacity: 1; stroke-width: 0px; fill: rgb(0, 75, 147); fill-opacity: 0.5;"/></g><g class="point"><path d="M55.51,320V180.55H60.56V320Z" style="vector-effect: none; opacity: 1; stroke-width: 0px; fill: rgb(0, 75, 147); fill-opacity: 0.5;"/></g><g class="point"><path d="M60.56,320V157.79H65.61V320Z" style="vector-effect: none; opacity: 1; stroke-width: 0px; fill: rgb(0, 75, 147); fill-opacity: 0.5;"/></g><g class="point"><path d="M65.61,320V156.36H70.65V320Z" style="vector-effect: none; opacity: 1; stroke-width: 0px; fill: rgb(0, 75, 147); fill-opacity: 0.5;"/></g><g class="point"><path d="M70.65,320V125.06H75.7V320Z" style="vector-effect: none; opacity: 1; stroke-width: 0px; fill: rgb(0, 75, 147); fill-opacity: 0.5;"/></g><g class="point"><path d="M75.7,320V100.16H80.75V320Z" style="vector-effect: none; opacity: 1; stroke-width: 0px; fill: rgb(0, 75, 147); fill-opacity: 0.5;"/></g><g class="point"><path d="M80.75,320V77.39H85.79V320Z" style="vector-effect: none; opacity: 1; stroke-width: 0px; fill: rgb(0, 75, 147); fill-opacity: 0.5;"/></g><g class="point"><path d="M85.79,320V84.51H90.84V320Z" style="vector-effect: none; opacity: 1; stroke-width: 0px; fill: rgb(0, 75, 147); fill-opacity: 0.5;"/></g><g class="point"><path d="M90.84,320V68.14H95.89V320Z" style="vector-effect: none; opacity: 1; stroke-width: 0px; fill: rgb(0, 75, 147); fill-opacity: 0.5;"/></g><g class="point"><path d="M95.89,320V90.2H100.93V320Z" style="vector-effect: none; opacity: 1; stroke-width: 0px; fill: rgb(0, 75, 147); fill-opacity: 0.5;"/></g><g class="point"><path d="M100.93,320V90.91H105.98V320Z" style="vector-effect: none; opacity: 1; stroke-width: 0px; fill: rgb(0, 75, 147); fill-opacity: 0.5;"/></g><g class="point"><path d="M105.98,320V79.53H111.03V320Z" style="vector-effect: none; opacity: 1; stroke-width: 0px; fill: rgb(0, 75, 147); fill-opacity: 0.5;"/></g><g class="point"><path d="M111.03,320V73.12H116.07V320Z" style="vector-effect: none; opacity: 1; stroke-width: 0px; fill: rgb(0, 75, 147); fill-opacity: 0.5;"/></g><g class="point"><path d="M116.07,320V41.11H121.12V320Z" style="vector-effect: none; opacity: 1; stroke-width: 0px; fill: rgb(0, 75, 147); fill-opacity: 0.5;"/></g><g class="point"><path d="M121.12,320V76.68H126.17V320Z" style="vector-effect: none; opacity: 1; stroke-width: 0px; fill: rgb(0, 75, 147); fill-opacity: 0.5;"/></g><g class="point"><path d="M126.17,320V98.74H131.21V320Z" style="vector-effect: none; opacity: 1; stroke-width: 0px; fill: rgb(0, 75, 147); fill-opacity: 0.5;"/></g><g class="point"><path d="M131.21,320V24.74H136.26V320Z" style="vector-effect: none; opacity: 1; stroke-width: 0px; fill: rgb(0, 75, 147); fill-opacity: 0.5;"/></g><g class="point"><path d="M136.26,320V107.27H141.31V320Z" style="vector-effect: none; opacity: 1; stroke-width: 0px; fill: rgb(0, 75, 147); fill-opacity: 0.5;"/></g><g class="point"><path d="M141.31,320V78.82H146.36V320Z" style="vector-effect: none; opacity: 1; stroke-width: 0px; fill: rgb(0, 75, 147); fill-opacity: 0.5;"/></g><g class="point"><path d="M146.36,320V120.08H151.4V320Z" style="vector-effect: none; opacity: 1; stroke-width: 0px; fill: rgb(0, 75, 147); fill-opacity: 0.5;"/></g><g class="point"><path d="M151.4,320V75.97H156.45V320Z" style="vector-effect: none; opacity: 1; stroke-width: 0px; fill: rgb(0, 75, 147); fill-opacity: 0.5;"/></g><g class="point"><path d="M156.45,320V96.6H161.5V320Z" style="vector-effect: none; opacity: 1; stroke-width: 0px; fill: rgb(0, 75, 147); fill-opacity: 0.5;"/></g><g class="point"><path d="M161.5,320V95.18H166.54V320Z" style="vector-effect: none; opacity: 1; stroke-width: 0px; fill: rgb(0, 75, 147); fill-opacity: 0.5;"/></g><g class="point"><path d="M166.54,320V62.45H171.59V320Z" style="vector-effect: none; opacity: 1; stroke-width: 0px; fill: rgb(0, 75, 147); fill-opacity: 0.5;"/></g><g class="point"><path d="M171.59,320V84.51H176.64V320Z" style="vector-effect: none; opacity: 1; stroke-width: 0px; fill: rgb(0, 75, 147); fill-opacity: 0.5;"/></g><g class="point"><path d="M176.64,320V100.16H181.68V320Z" style="vector-effect: none; opacity: 1; stroke-width: 0px; fill: rgb(0, 75, 147); fill-opacity: 0.5;"/></g><g class="point"><path d="M181.68,320V73.12H186.73V320Z" style="vector-effect: none; opacity: 1; stroke-width: 0px; fill: rgb(0, 75, 147); fill-opacity: 0.5;"/></g><g class="point"><path d="M186.73,320V137.87H191.78V320Z" style="vector-effect: none; opacity: 1; stroke-width: 0px; fill: rgb(0, 75, 147); fill-opacity: 0.5;"/></g><g class="point"><path d="M191.78,320V130.75H196.82V320Z" style="vector-effect: none; opacity: 1; stroke-width: 0px; fill: rgb(0, 75, 147); fill-opacity: 0.5;"/></g><g class="point"><path d="M196.82,320V146.4H201.87V320Z" style="vector-effect: none; opacity: 1; stroke-width: 0px; fill: rgb(0, 75, 147); fill-opacity: 0.5;"/></g><g class="point"><path d="M201.87,320V132.17H206.92V320Z" style="vector-effect: none; opacity: 1; stroke-width: 0px; fill: rgb(0, 75, 147); fill-opacity: 0.5;"/></g><g class="point"><path d="M206.92,320V156.36H211.96V320Z" style="vector-effect: none; opacity: 1; stroke-width: 0px; fill: rgb(0, 75, 147); fill-opacity: 0.5;"/></g><g class="point"><path d="M211.96,320V163.48H217.01V320Z" style="vector-effect: none; opacity: 1; stroke-width: 0px; fill: rgb(0, 75, 147); fill-opacity: 0.5;"/></g><g class="point"><path d="M217.01,320V135.02H222.06V320Z" style="vector-effect: none; opacity: 1; stroke-width: 0px; fill: rgb(0, 75, 147); fill-opacity: 0.5;"/></g><g class="point"><path d="M222.06,320V136.44H227.1V320Z" style="vector-effect: none; opacity: 1; stroke-width: 0px; fill: rgb(0, 75, 147); fill-opacity: 0.5;"/></g><g class="point"><path d="M227.1,320V159.21H232.15V320Z" style="vector-effect: none; opacity: 1; stroke-width: 0px; fill: rgb(0, 75, 147); fill-opacity: 0.5;"/></g><g class="point"><path d="M232.15,320V130.75H237.2V320Z" style="vector-effect: none; opacity: 1; stroke-width: 0px; fill: rgb(0, 75, 147); fill-opacity: 0.5;"/></g><g class="point"><path d="M237.2,320V159.92H242.24V320Z" style="vector-effect: none; opacity: 1; stroke-width: 0px; fill: rgb(0, 75, 147); fill-opacity: 0.5;"/></g><g class="point"><path d="M242.24,320V167.75H247.29V320Z" style="vector-effect: none; opacity: 1; stroke-width: 0px; fill: rgb(0, 75, 147); fill-opacity: 0.5;"/></g><g class="point"><path d="M247.29,320V178.42H252.34V320Z" style="vector-effect: none; opacity: 1; stroke-width: 0px; fill: rgb(0, 75, 147); fill-opacity: 0.5;"/></g><g class="point"><path d="M252.34,320V191.94H257.38V320Z" style="vector-effect: none; opacity: 1; stroke-width: 0px; fill: rgb(0, 75, 147); fill-opacity: 0.5;"/></g><g class="point"><path d="M257.38,320V178.42H262.43V320Z" style="vector-effect: none; opacity: 1; stroke-width: 0px; fill: rgb(0, 75, 147); fill-opacity: 0.5;"/></g><g class="point"><path d="M262.43,320V211.86H267.48V320Z" style="vector-effect: none; opacity: 1; stroke-width: 0px; fill: rgb(0, 75, 147); fill-opacity: 0.5;"/></g><g class="point"><path d="M267.48,320V184.11H272.52V320Z" style="vector-effect: none; opacity: 1; stroke-width: 0px; fill: rgb(0, 75, 147); fill-opacity: 0.5;"/></g><g class="point"><path d="M272.52,320V211.86H277.57V320Z" style="vector-effect: none; opacity: 1; stroke-width: 0px; fill: rgb(0, 75, 147); fill-opacity: 0.5;"/></g><g class="point"><path d="M277.57,320V218.97H282.62V320Z" style="vector-effect: none; opacity: 1; stroke-width: 0px; fill: rgb(0, 75, 147); fill-opacity: 0.5;"/></g><g class="point"><path d="M282.62,320V181.98H287.66V320Z" style="vector-effect: none; opacity: 1; stroke-width: 0px; fill: rgb(0, 75, 147); fill-opacity: 0.5;"/></g><g class="point"><path d="M287.66,320V230.36H292.71V320Z" style="vector-effect: none; opacity: 1; stroke-width: 0px; fill: rgb(0, 75, 147); fill-opacity: 0.5;"/></g><g class="point"><path d="M292.71,320V216.13H297.76V320Z" style="vector-effect: none; opacity: 1; stroke-width: 0px; fill: rgb(0, 75, 147); fill-opacity: 0.5;"/></g><g class="point"><path d="M297.76,320V235.34H302.8V320Z" style="vector-effect: none; opacity: 1; stroke-width: 0px; fill: rgb(0, 75, 147); fill-opacity: 0.5;"/></g><g class="point"><path d="M302.8,320V231.78H307.85V320Z" style="vector-effect: none; opacity: 1; stroke-width: 0px; fill: rgb(0, 75, 147); fill-opacity: 0.5;"/></g><g class="point"><path d="M307.85,320V227.51H312.9V320Z" style="vector-effect: none; opacity: 1; stroke-width: 0px; fill: rgb(0, 75, 147); fill-opacity: 0.5;"/></g><g class="point"><path d="M312.9,320V231.78H317.94V320Z" style="vector-effect: none; opacity: 1; stroke-width: 0px; fill: rgb(0, 75, 147); fill-opacity: 0.5;"/></g><g class="point"><path d="M317.94,320V223.24H322.99V320Z" style="vector-effect: none; opacity: 1; stroke-width: 0px; fill: rgb(0, 75, 147); fill-opacity: 0.5;"/></g><g class="point"><path d="M322.99,320V247.43H328.04V320Z" style="vector-effect: none; opacity: 1; stroke-width: 0px; fill: rgb(0, 75, 147); fill-opacity: 0.5;"/></g><g class="point"><path d="M328.04,320V254.55H333.08V320Z" style="vector-effect: none; opacity: 1; stroke-width: 0px; fill: rgb(0, 75, 147); fill-opacity: 0.5;"/></g><g class="point"><path d="M333.08,320V229.64H338.13V320Z" style="vector-effect: none; opacity: 1; stroke-width: 0px; fill: rgb(0, 75, 147); fill-opacity: 0.5;"/></g><g class="point"><path d="M338.13,320V245.3H343.18V320Z" style="vector-effect: none; opacity: 1; stroke-width: 0px; fill: rgb(0, 75, 147); fill-opacity: 0.5;"/></g><g class="point"><path d="M343.18,320V241.03H348.22V320Z" style="vector-effect: none; opacity: 1; stroke-width: 0px; fill: rgb(0, 75, 147); fill-opacity: 0.5;"/></g><g class="point"><path d="M348.22,320V252.41H353.27V320Z" style="vector-effect: none; opacity: 1; stroke-width: 0px; fill: rgb(0, 75, 147); fill-opacity: 0.5;"/></g><g class="point"><path d="M353.27,320V255.97H358.32V320Z" style="vector-effect: none; opacity: 1; stroke-width: 0px; fill: rgb(0, 75, 147); fill-opacity: 0.5;"/></g><g class="point"><path d="M358.32,320V245.3H363.36V320Z" style="vector-effect: none; opacity: 1; stroke-width: 0px; fill: rgb(0, 75, 147); fill-opacity: 0.5;"/></g><g class="point"><path d="M363.36,320V268.06H368.41V320Z" style="vector-effect: none; opacity: 1; stroke-width: 0px; fill: rgb(0, 75, 147); fill-opacity: 0.5;"/></g><g class="point"><path d="M368.41,320V258.1H373.46V320Z" style="vector-effect: none; opacity: 1; stroke-width: 0px; fill: rgb(0, 75, 147); fill-opacity: 0.5;"/></g><g class="point"><path d="M373.46,320V262.37H378.5V320Z" style="vector-effect: none; opacity: 1; stroke-width: 0px; fill: rgb(0, 75, 147); fill-opacity: 0.5;"/></g><g class="point"><path d="M378.5,320V280.87H383.55V320Z" style="vector-effect: none; opacity: 1; stroke-width: 0px; fill: rgb(0, 75, 147); fill-opacity: 0.5;"/></g><g class="point"><path d="M383.55,320V249.57H388.6V320Z" style="vector-effect: none; opacity: 1; stroke-width: 0px; fill: rgb(0, 75, 147); fill-opacity: 0.5;"/></g><g class="point"><path d="M388.6,320V279.45H393.64V320Z" style="vector-effect: none; opacity: 1; stroke-width: 0px; fill: rgb(0, 75, 147); fill-opacity: 0.5;"/></g><g class="point"><path d="M393.64,320V265.93H398.69V320Z" style="vector-effect: none; opacity: 1; stroke-width: 0px; fill: rgb(0, 75, 147); fill-opacity: 0.5;"/></g><g class="point"><path d="M398.69,320V285.14H403.74V320Z" style="vector-effect: none; opacity: 1; stroke-width: 0px; fill: rgb(0, 75, 147); fill-opacity: 0.5;"/></g><g class="point"><path d="M403.74,320V279.45H408.79V320Z" style="vector-effect: none; opacity: 1; stroke-width: 0px; fill: rgb(0, 75, 147); fill-opacity: 0.5;"/></g><g class="point"><path d="M408.79,320V274.47H413.83V320Z" style="vector-effect: none; opacity: 1; stroke-width: 0px; fill: rgb(0, 75, 147); fill-opacity: 0.5;"/></g><g class="point"><path d="M413.83,320V283.72H418.88V320Z" style="vector-effect: none; opacity: 1; stroke-width: 0px; fill: rgb(0, 75, 147); fill-opacity: 0.5;"/></g><g class="point"><path d="M418.88,320V269.49H423.93V320Z" style="vector-effect: none; opacity: 1; stroke-width: 0px; fill: rgb(0, 75, 147); fill-opacity: 0.5;"/></g><g class="point"><path d="M423.93,320V287.27H428.97V320Z" style="vector-effect: none; opacity: 1; stroke-width: 0px; fill: rgb(0, 75, 147); fill-opacity: 0.5;"/></g><g class="point"><path d="M428.97,320V293.68H434.02V320Z" style="vector-effect: none; opacity: 1; stroke-width: 0px; fill: rgb(0, 75, 147); fill-opacity: 0.5;"/></g><g class="point"><path d="M434.02,320V283H439.07V320Z" style="vector-effect: none; opacity: 1; stroke-width: 0px; fill: rgb(0, 75, 147); fill-opacity: 0.5;"/></g><g class="point"><path d="M439.07,320V292.25H444.11V320Z" style="vector-effect: none; opacity: 1; stroke-width: 0px; fill: rgb(0, 75, 147); fill-opacity: 0.5;"/></g><g class="point"><path d="M444.11,320V286.56H449.16V320Z" style="vector-effect: none; opacity: 1; stroke-width: 0px; fill: rgb(0, 75, 147); fill-opacity: 0.5;"/></g><g class="point"><path d="M449.16,320V295.81H454.21V320Z" style="vector-effect: none; opacity: 1; stroke-width: 0px; fill: rgb(0, 75, 147); fill-opacity: 0.5;"/></g><g class="point"><path d="M454.21,320V288.7H459.25V320Z" style="vector-effect: none; opacity: 1; stroke-width: 0px; fill: rgb(0, 75, 147); fill-opacity: 0.5;"/></g><g class="point"><path d="M459.25,320V299.37H464.3V320Z" style="vector-effect: none; opacity: 1; stroke-width: 0px; fill: rgb(0, 75, 147); fill-opacity: 0.5;"/></g><g class="point"><path d="M464.3,320V301.5H469.35V320Z" style="vector-effect: none; opacity: 1; stroke-width: 0px; fill: rgb(0, 75, 147); fill-opacity: 0.5;"/></g><g class="point"><path d="M469.35,320V307.91H474.39V320Z" style="vector-effect: none; opacity: 1; stroke-width: 0px; fill: rgb(0, 75, 147); fill-opacity: 0.5;"/></g><g class="point"><path d="M474.39,320V306.48H479.44V320Z" style="vector-effect: none; opacity: 1; stroke-width: 0px; fill: rgb(0, 75, 147); fill-opacity: 0.5;"/></g><g class="point"><path d="M479.44,320V310.04H484.49V320Z" style="vector-effect: none; opacity: 1; stroke-width: 0px; fill: rgb(0, 75, 147); fill-opacity: 0.5;"/></g><g class="point"><path d="M484.49,320V291.54H489.53V320Z" style="vector-effect: none; opacity: 1; stroke-width: 0px; fill: rgb(0, 75, 147); fill-opacity: 0.5;"/></g><g class="point"><path d="M489.53,320V307.19H494.58V320Z" style="vector-effect: none; opacity: 1; stroke-width: 0px; fill: rgb(0, 75, 147); fill-opacity: 0.5;"/></g><g class="point"><path d="M494.58,320V306.48H499.63V320Z" style="vector-effect: none; opacity: 1; stroke-width: 0px; fill: rgb(0, 75, 147); fill-opacity: 0.5;"/></g><g class="point"><path d="M499.63,320V306.48H504.67V320Z" style="vector-effect: none; opacity: 1; stroke-width: 0px; fill: rgb(0, 75, 147); fill-opacity: 0.5;"/></g><g class="point"><path d="M504.67,320V312.89H509.72V320Z" style="vector-effect: none; opacity: 1; stroke-width: 0px; fill: rgb(0, 75, 147); fill-opacity: 0.5;"/></g><g class="point"><path d="M509.72,320V299.37H514.77V320Z" style="vector-effect: none; opacity: 1; stroke-width: 0px; fill: rgb(0, 75, 147); fill-opacity: 0.5;"/></g><g class="point"><path d="M514.77,320V310.04H519.81V320Z" style="vector-effect: none; opacity: 1; stroke-width: 0px; fill: rgb(0, 75, 147); fill-opacity: 0.5;"/></g><g class="point"><path d="M519.81,320V310.04H524.86V320Z" style="vector-effect: none; opacity: 1; stroke-width: 0px; fill: rgb(0, 75, 147); fill-opacity: 0.5;"/></g><g class="point"><path d="M524.86,320V310.75H529.91V320Z" style="vector-effect: none; opacity: 1; stroke-width: 0px; fill: rgb(0, 75, 147); fill-opacity: 0.5;"/></g><g class="point"><path d="M529.91,320V314.31H534.95V320Z" style="vector-effect: none; opacity: 1; stroke-width: 0px; fill: rgb(0, 75, 147); fill-opacity: 0.5;"/></g><g class="point"><path d="M534.95,320V306.48H540V320Z" style="vector-effect: none; opacity: 1; stroke-width: 0px; fill: rgb(0, 75, 147); fill-opacity: 0.5;"/></g></g></g><g class="trace bars" shape-rendering="crispEdges" style="opacity: 1;"><g class="points"><g class="point"><path d="M0,320V316.62H5.05V320Z" style="vector-effect: none; opacity: 1; stroke-width: 0px; fill: rgb(230, 51, 41); fill-opacity: 0.5;"/></g><g class="point"><path d="M5.05,320V313.8H10.09V320Z" style="vector-effect: none; opacity: 1; stroke-width: 0px; fill: rgb(230, 51, 41); fill-opacity: 0.5;"/></g><g class="point"><path d="M10.09,320V313.23H15.14V320Z" style="vector-effect: none; opacity: 1; stroke-width: 0px; fill: rgb(230, 51, 41); fill-opacity: 0.5;"/></g><g class="point"><path d="M15.14,320V308.16H20.19V320Z" style="vector-effect: none; opacity: 1; stroke-width: 0px; fill: rgb(230, 51, 41); fill-opacity: 0.5;"/></g><g class="point"><path d="M20.19,320V307.03H25.23V320Z" style="vector-effect: none; opacity: 1; stroke-width: 0px; fill: rgb(230, 51, 41); fill-opacity: 0.5;"/></g><g class="point"><path d="M25.23,320V301.39H30.28V320Z" style="vector-effect: none; opacity: 1; stroke-width: 0px; fill: rgb(230, 51, 41); fill-opacity: 0.5;"/></g><g class="point"><path d="M30.28,320V281.65H35.33V320Z" style="vector-effect: none; opacity: 1; stroke-width: 0px; fill: rgb(230, 51, 41); fill-opacity: 0.5;"/></g><g class="point"><path d="M35.33,320V281.65H40.37V320Z" style="vector-effect: none; opacity: 1; stroke-width: 0px; fill: rgb(230, 51, 41); fill-opacity: 0.5;"/></g><g class="point"><path d="M40.37,320V260.78H45.42V320Z" style="vector-effect: none; opacity: 1; stroke-width: 0px; fill: rgb(230, 51, 41); fill-opacity: 0.5;"/></g><g class="point"><path d="M45.42,320V233.14H50.47V320Z" style="vector-effect: none; opacity: 1; stroke-width: 0px; fill: rgb(230, 51, 41); fill-opacity: 0.5;"/></g><g class="point"><path d="M50.47,320V226.94H55.51V320Z" style="vector-effect: none; opacity: 1; stroke-width: 0px; fill: rgb(230, 51, 41); fill-opacity: 0.5;"/></g><g class="point"><path d="M55.51,320V201.56H60.56V320Z" style="vector-effect: none; opacity: 1; stroke-width: 0px; fill: rgb(230, 51, 41); fill-opacity: 0.5;"/></g><g class="point"><path d="M60.56,320V150.23H65.61V320Z" style="vector-effect: none; opacity: 1; stroke-width: 0px; fill: rgb(230, 51, 41); fill-opacity: 0.5;"/></g><g class="point"><path d="M65.61,320V156.44H70.65V320Z" style="vector-effect: none; opacity: 1; stroke-width: 0px; fill: rgb(230, 51, 41); fill-opacity: 0.5;"/></g><g class="point"><path d="M70.65,320V88.19H75.7V320Z" style="vector-effect: none; opacity: 1; stroke-width: 0px; fill: rgb(230, 51, 41); fill-opacity: 0.5;"/></g><g class="point"><path d="M75.7,320V82.55H80.75V320Z" style="vector-effect: none; opacity: 1; stroke-width: 0px; fill: rgb(230, 51, 41); fill-opacity: 0.5;"/></g><g class="point"><path d="M80.75,320V70.71H85.79V320Z" style="vector-effect: none; opacity: 1; stroke-width: 0px; fill: rgb(230, 51, 41); fill-opacity: 0.5;"/></g><g class="point"><path d="M85.79,320V71.84H90.84V320Z" style="vector-effect: none; opacity: 1; stroke-width: 0px; fill: rgb(230, 51, 41); fill-opacity: 0.5;"/></g><g class="point"><path d="M90.84,320V76.91H95.89V320Z" style="vector-effect: none; opacity: 1; stroke-width: 0px; fill: rgb(230, 51, 41); fill-opacity: 0.5;"/></g><g class="point"><path d="M95.89,320V83.68H100.93V320Z" style="vector-effect: none; opacity: 1; stroke-width: 0px; fill: rgb(230, 51, 41); fill-opacity: 0.5;"/></g><g class="point"><path d="M100.93,320V83.12H105.98V320Z" style="vector-effect: none; opacity: 1; stroke-width: 0px; fill: rgb(230, 51, 41); fill-opacity: 0.5;"/></g><g class="point"><path d="M105.98,320V82.55H111.03V320Z" style="vector-effect: none; opacity: 1; stroke-width: 0px; fill: rgb(230, 51, 41); fill-opacity: 0.5;"/></g><g class="point"><path d="M111.03,320V69.58H116.08V320Z" style="vector-effect: none; opacity: 1; stroke-width: 0px; fill: rgb(230, 51, 41); fill-opacity: 0.5;"/></g><g class="point"><path d="M116.08,320V18.82H121.12V320Z" style="vector-effect: none; opacity: 1; stroke-width: 0px; fill: rgb(230, 51, 41); fill-opacity: 0.5;"/></g><g class="point"><path d="M121.12,320V77.48H126.17V320Z" style="vector-effect: none; opacity: 1; stroke-width: 0px; fill: rgb(230, 51, 41); fill-opacity: 0.5;"/></g><g class="point"><path d="M126.17,320V84.24H131.22V320Z" style="vector-effect: none; opacity: 1; stroke-width: 0px; fill: rgb(230, 51, 41); fill-opacity: 0.5;"/></g><g class="point"><path d="M131.22,320V16H136.26V320Z" style="vector-effect: none; opacity: 1; stroke-width: 0px; fill: rgb(230, 51, 41); fill-opacity: 0.5;"/></g><g class="point"><path d="M136.26,320V118.09H141.31V320Z" style="vector-effect: none; opacity: 1; stroke-width: 0px; fill: rgb(230, 51, 41); fill-opacity: 0.5;"/></g><g class="point"><path d="M141.31,320V87.06H146.36V320Z" style="vector-effect: none; opacity: 1; stroke-width: 0px; fill: rgb(230, 51, 41); fill-opacity: 0.5;"/></g><g class="point"><path d="M146.36,320V97.78H151.4V320Z" style="vector-effect: none; opacity: 1; stroke-width: 0px; fill: rgb(230, 51, 41); fill-opacity: 0.5;"/></g><g class="point"><path d="M151.4,320V69.58H156.45V320Z" style="vector-effect: none; opacity: 1; stroke-width: 0px; fill: rgb(230, 51, 41); fill-opacity: 0.5;"/></g><g class="point"><path d="M156.45,320V92.71H161.5V320Z" style="vector-effect: none; opacity: 1; stroke-width: 0px; fill: rgb(230, 51, 41); fill-opacity: 0.5;"/></g><g class="point"><path d="M161.5,320V92.71H166.54V320Z" style="vector-effect: none; opacity: 1; stroke-width: 0px; fill: rgb(230, 51, 41); fill-opacity: 0.5;"/></g><g class="point"><path d="M166.54,320V68.45H171.59V320Z" style="vector-effect: none; opacity: 1; stroke-width: 0px; fill: rgb(230, 51, 41); fill-opacity: 0.5;"/></g><g class="point"><path d="M171.59,320V74.09H176.64V320Z" style="vector-effect: none; opacity: 1; stroke-width: 0px; fill: rgb(230, 51, 41); fill-opacity: 0.5;"/></g><g class="point"><path d="M176.64,320V154.18H181.68V320Z" style="vector-effect: none; opacity: 1; stroke-width: 0px; fill: rgb(230, 51, 41); fill-opacity: 0.5;"/></g><g class="point"><path d="M181.68,320V93.83H186.73V320Z" style="vector-effect: none; opacity: 1; stroke-width: 0px; fill: rgb(230, 51, 41); fill-opacity: 0.5;"/></g><g class="point"><path d="M186.73,320V88.76H191.78V320Z" style="vector-effect: none; opacity: 1; stroke-width: 0px; fill: rgb(230, 51, 41); fill-opacity: 0.5;"/></g><g class="point"><path d="M191.78,320V122.03H196.82V320Z" style="vector-effect: none; opacity: 1; stroke-width: 0px; fill: rgb(230, 51, 41); fill-opacity: 0.5;"/></g><g class="point"><path d="M196.82,320V147.98H201.87V320Z" style="vector-effect: none; opacity: 1; stroke-width: 0px; fill: rgb(230, 51, 41); fill-opacity: 0.5;"/></g><g class="point"><path d="M201.87,320V117.52H206.92V320Z" style="vector-effect: none; opacity: 1; stroke-width: 0px; fill: rgb(230, 51, 41); fill-opacity: 0.5;"/></g><g class="point"><path d="M206.92,320V154.18H211.96V320Z" style="vector-effect: none; opacity: 1; stroke-width: 0px; fill: rgb(230, 51, 41); fill-opacity: 0.5;"/></g><g class="point"><path d="M211.96,320V142.9H217.01V320Z" style="vector-effect: none; opacity: 1; stroke-width: 0px; fill: rgb(230, 51, 41); fill-opacity: 0.5;"/></g><g class="point"><path d="M217.01,320V129.93H222.06V320Z" style="vector-effect: none; opacity: 1; stroke-width: 0px; fill: rgb(230, 51, 41); fill-opacity: 0.5;"/></g><g class="point"><path d="M222.06,320V141.21H227.1V320Z" style="vector-effect: none; opacity: 1; stroke-width: 0px; fill: rgb(230, 51, 41); fill-opacity: 0.5;"/></g><g class="point"><path d="M227.1,320V133.31H232.15V320Z" style="vector-effect: none; opacity: 1; stroke-width: 0px; fill: rgb(230, 51, 41); fill-opacity: 0.5;"/></g><g class="point"><path d="M232.15,320V118.65H237.2V320Z" style="vector-effect: none; opacity: 1; stroke-width: 0px; fill: rgb(230, 51, 41); fill-opacity: 0.5;"/></g><g class="point"><path d="M237.2,320V166.03H242.24V320Z" style="vector-effect: none; opacity: 1; stroke-width: 0px; fill: rgb(230, 51, 41); fill-opacity: 0.5;"/></g><g class="point"><path d="M242.24,320V143.47H247.29V320Z" style="vector-effect: none; opacity: 1; stroke-width: 0px; fill: rgb(230, 51, 41); fill-opacity: 0.5;"/></g><g class="point"><path d="M247.29,320V176.74H252.34V320Z" style="vector-effect: none; opacity: 1; stroke-width: 0px; fill: rgb(230, 51, 41); fill-opacity: 0.5;"/></g><g class="point"><path d="M252.34,320V188.02H257.38V320Z" style="vector-effect: none; opacity: 1; stroke-width: 0px; fill: rgb(230, 51, 41); fill-opacity: 0.5;"/></g><g class="point"><path d="M257.38,320V189.15H262.43V320Z" style="vector-effect: none; opacity: 1; stroke-width: 0px; fill: rgb(230, 51, 41); fill-opacity: 0.5;"/></g><g class="point"><path d="M262.43,320V191.41H267.48V320Z" style="vector-effect: none; opacity: 1; stroke-width: 0px; fill: rgb(230, 51, 41); fill-opacity: 0.5;"/></g><g class="point"><path d="M267.48,320V191.41H272.52V320Z" style="vector-effect: none; opacity: 1; stroke-width: 0px; fill: rgb(230, 51, 41); fill-opacity: 0.5;"/></g><g class="point"><path d="M272.52,320V187.46H277.57V320Z" style="vector-effect: none; opacity: 1; stroke-width: 0px; fill: rgb(230, 51, 41); fill-opacity: 0.5;"/></g><g class="point"><path d="M277.57,320V230.89H282.62V320Z" style="vector-effect: none; opacity: 1; stroke-width: 0px; fill: rgb(230, 51, 41); fill-opacity: 0.5;"/></g><g class="point"><path d="M282.62,320V151.93H287.66V320Z" style="vector-effect: none; opacity: 1; stroke-width: 0px; fill: rgb(230, 51, 41); fill-opacity: 0.5;"/></g><g class="point"><path d="M287.66,320V237.65H292.71V320Z" style="vector-effect: none; opacity: 1; stroke-width: 0px; fill: rgb(230, 51, 41); fill-opacity: 0.5;"/></g><g class="point"><path d="M292.71,320V212.84H297.76V320Z" style="vector-effect: none; opacity: 1; stroke-width: 0px; fill: rgb(230, 51, 41); fill-opacity: 0.5;"/></g><g class="point"><path d="M297.76,320V221.3H302.8V320Z" style="vector-effect: none; opacity: 1; stroke-width: 0px; fill: rgb(230, 51, 41); fill-opacity: 0.5;"/></g><g class="point"><path d="M302.8,320V244.42H307.85V320Z" style="vector-effect: none; opacity: 1; stroke-width: 0px; fill: rgb(230, 51, 41); fill-opacity: 0.5;"/></g><g class="point"><path d="M307.85,320V242.73H312.9V320Z" style="vector-effect: none; opacity: 1; stroke-width: 0px; fill: rgb(230, 51, 41); fill-opacity: 0.5;"/></g><g class="point"><path d="M312.9,320V232.58H317.94V320Z" style="vector-effect: none; opacity: 1; stroke-width: 0px; fill: rgb(230, 51, 41); fill-opacity: 0.5;"/></g><g class="point"><path d="M317.94,320V225.25H322.99V320Z" style="vector-effect: none; opacity: 1; stroke-width: 0px; fill: rgb(230, 51, 41); fill-opacity: 0.5;"/></g><g class="point"><path d="M322.99,320V251.19H328.04V320Z" style="vector-effect: none; opacity: 1; stroke-width: 0px; fill: rgb(230, 51, 41); fill-opacity: 0.5;"/></g><g class="point"><path d="M328.04,320V225.25H333.08V320Z" style="vector-effect: none; opacity: 1; stroke-width: 0px; fill: rgb(230, 51, 41); fill-opacity: 0.5;"/></g><g class="point"><path d="M333.08,320V238.78H338.13V320Z" style="vector-effect: none; opacity: 1; stroke-width: 0px; fill: rgb(230, 51, 41); fill-opacity: 0.5;"/></g><g class="point"><path d="M338.13,320V259.65H343.18V320Z" style="vector-effect: none; opacity: 1; stroke-width: 0px; fill: rgb(230, 51, 41); fill-opacity: 0.5;"/></g><g class="point"><path d="M343.18,320V256.27H348.22V320Z" style="vector-effect: none; opacity: 1; stroke-width: 0px; fill: rgb(230, 51, 41); fill-opacity: 0.5;"/></g><g class="point"><path d="M348.22,320V254.01H353.27V320Z" style="vector-effect: none; opacity: 1; stroke-width: 0px; fill: rgb(230, 51, 41); fill-opacity: 0.5;"/></g><g class="point"><path d="M353.27,320V252.88H358.32V320Z" style="vector-effect: none; opacity: 1; stroke-width: 0px; fill: rgb(230, 51, 41); fill-opacity: 0.5;"/></g><g class="point"><path d="M358.32,320V247.81H363.36V320Z" style="vector-effect: none; opacity: 1; stroke-width: 0px; fill: rgb(230, 51, 41); fill-opacity: 0.5;"/></g><g class="point"><path d="M363.36,320V273.75H368.41V320Z" style="vector-effect: none; opacity: 1; stroke-width: 0px; fill: rgb(230, 51, 41); fill-opacity: 0.5;"/></g><g class="point"><path d="M368.41,320V258.52H373.46V320Z" style="vector-effect: none; opacity: 1; stroke-width: 0px; fill: rgb(230, 51, 41); fill-opacity: 0.5;"/></g><g class="point"><path d="M373.46,320V277.7H378.5V320Z" style="vector-effect: none; opacity: 1; stroke-width: 0px; fill: rgb(230, 51, 41); fill-opacity: 0.5;"/></g><g class="point"><path d="M378.5,320V293.49H383.55V320Z" style="vector-effect: none; opacity: 1; stroke-width: 0px; fill: rgb(230, 51, 41); fill-opacity: 0.5;"/></g><g class="point"><path d="M383.55,320V246.68H388.6V320Z" style="vector-effect: none; opacity: 1; stroke-width: 0px; fill: rgb(230, 51, 41); fill-opacity: 0.5;"/></g><g class="point"><path d="M388.6,320V266.98H393.65V320Z" style="vector-effect: none; opacity: 1; stroke-width: 0px; fill: rgb(230, 51, 41); fill-opacity: 0.5;"/></g><g class="point"><path d="M393.65,320V281.65H398.69V320Z" style="vector-effect: none; opacity: 1; stroke-width: 0px; fill: rgb(230, 51, 41); fill-opacity: 0.5;"/></g><g class="point"><path d="M398.69,320V287.85H403.74V320Z" style="vector-effect: none; opacity: 1; stroke-width: 0px; fill: rgb(230, 51, 41); fill-opacity: 0.5;"/></g><g class="point"><path d="M403.74,320V276.57H408.79V320Z" style="vector-effect: none; opacity: 1; stroke-width: 0px; fill: rgb(230, 51, 41); fill-opacity: 0.5;"/></g><g class="point"><path d="M408.79,320V297.44H413.83V320Z" style="vector-effect: none; opacity: 1; stroke-width: 0px; fill: rgb(230, 51, 41); fill-opacity: 0.5;"/></g><g class="point"><path d="M413.83,320V288.98H418.88V320Z" style="vector-effect: none; opacity: 1; stroke-width: 0px; fill: rgb(230, 51, 41); fill-opacity: 0.5;"/></g><g class="point"><path d="M418.88,320V287.29H423.93V320Z" style="vector-effect: none; opacity: 1; stroke-width: 0px; fill: rgb(230, 51, 41); fill-opacity: 0.5;"/></g><g class="point"><path d="M423.93,320V294.62H428.97V320Z" style="vector-effect: none; opacity: 1; stroke-width: 0px; fill: rgb(230, 51, 41); fill-opacity: 0.5;"/></g><g class="point"><path d="M428.97,320V293.49H434.02V320Z" style="vector-effect: none; opacity: 1; stroke-width: 0px; fill: rgb(230, 51, 41); fill-opacity: 0.5;"/></g><g class="point"><path d="M434.02,320V289.54H439.07V320Z" style="vector-effect: none; opacity: 1; stroke-width: 0px; fill: rgb(230, 51, 41); fill-opacity: 0.5;"/></g><g class="point"><path d="M439.07,320V301.95H444.11V320Z" style="vector-effect: none; opacity: 1; stroke-width: 0px; fill: rgb(230, 51, 41); fill-opacity: 0.5;"/></g><g class="point"><path d="M444.11,320V294.06H449.16V320Z" style="vector-effect: none; opacity: 1; stroke-width: 0px; fill: rgb(230, 51, 41); fill-opacity: 0.5;"/></g><g class="point"><path d="M449.16,320V298H454.21V320Z" style="vector-effect: none; opacity: 1; stroke-width: 0px; fill: rgb(230, 51, 41); fill-opacity: 0.5;"/></g><g class="point"><path d="M454.21,320V277.7H459.25V320Z" style="vector-effect: none; opacity: 1; stroke-width: 0px; fill: rgb(230, 51, 41); fill-opacity: 0.5;"/></g><g class="point"><path d="M459.25,320V306.46H464.3V320Z" style="vector-effect: none; opacity: 1; stroke-width: 0px; fill: rgb(230, 51, 41); fill-opacity: 0.5;"/></g><g class="point"><path d="M464.3,320V307.03H469.35V320Z" style="vector-effect: none; opacity: 1; stroke-width: 0px; fill: rgb(230, 51, 41); fill-opacity: 0.5;"/></g><g class="point"><path d="M469.35,320V310.98H474.39V320Z" style="vector-effect: none; opacity: 1; stroke-width: 0px; fill: rgb(230, 51, 41); fill-opacity: 0.5;"/></g><g class="point"><path d="M474.39,320V308.16H479.44V320Z" style="vector-effect: none; opacity: 1; stroke-width: 0px; fill: rgb(230, 51, 41); fill-opacity: 0.5;"/></g><g class="point"><path d="M479.44,320V309.28H484.49V320Z" style="vector-effect: none; opacity: 1; stroke-width: 0px; fill: rgb(230, 51, 41); fill-opacity: 0.5;"/></g><g class="point"><path d="M484.49,320V296.88H489.53V320Z" style="vector-effect: none; opacity: 1; stroke-width: 0px; fill: rgb(230, 51, 41); fill-opacity: 0.5;"/></g><g class="point"><path d="M489.53,320V313.23H494.58V320Z" style="vector-effect: none; opacity: 1; stroke-width: 0px; fill: rgb(230, 51, 41); fill-opacity: 0.5;"/></g><g class="point"><path d="M494.58,320V309.28H499.63V320Z" style="vector-effect: none; opacity: 1; stroke-width: 0px; fill: rgb(230, 51, 41); fill-opacity: 0.5;"/></g><g class="point"><path d="M499.63,320V303.08H504.67V320Z" style="vector-effect: none; opacity: 1; stroke-width: 0px; fill: rgb(230, 51, 41); fill-opacity: 0.5;"/></g><g class="point"><path d="M504.67,320V303.08H509.72V320Z" style="vector-effect: none; opacity: 1; stroke-width: 0px; fill: rgb(230, 51, 41); fill-opacity: 0.5;"/></g><g class="point"><path d="M509.72,320V310.98H514.77V320Z" style="vector-effect: none; opacity: 1; stroke-width: 0px; fill: rgb(230, 51, 41); fill-opacity: 0.5;"/></g><g class="point"><path d="M514.77,320V314.92H519.81V320Z" style="vector-effect: none; opacity: 1; stroke-width: 0px; fill: rgb(230, 51, 41); fill-opacity: 0.5;"/></g><g class="point"><path d="M519.81,320V313.8H524.86V320Z" style="vector-effect: none; opacity: 1; stroke-width: 0px; fill: rgb(230, 51, 41); fill-opacity: 0.5;"/></g><g class="point"><path d="M524.86,320V309.85H529.91V320Z" style="vector-effect: none; opacity: 1; stroke-width: 0px; fill: rgb(230, 51, 41); fill-opacity: 0.5;"/></g><g class="point"><path d="M529.91,320V314.36H534.95V320Z" style="vector-effect: none; opacity: 1; stroke-width: 0px; fill: rgb(230, 51, 41); fill-opacity: 0.5;"/></g></g></g></g></g><g class="overplot"/><path class="xlines-above crisp" d="M0,0" style="fill: none;"/><path class="ylines-above crisp" d="M0,0" style="fill: none;"/><g class="overlines-above"/><g class="xaxislayer-above"><g class="xtick"><text text-anchor="middle" x="0" y="433" transform="translate(135.51,0)" style="font-family: 'Open Sans', verdana, arial, sans-serif; font-size: 12px; fill: rgb(42, 63, 95); fill-opacity: 1; white-space: pre; opacity: 1;">0.2M</text></g><g class="xtick"><text text-anchor="middle" x="0" y="433" style="font-family: 'Open Sans', verdana, arial, sans-serif; font-size: 12px; fill: rgb(42, 63, 95); fill-opacity: 1; white-space: pre; opacity: 1;" transform="translate(236.45,0)">0.4M</text></g><g class="xtick"><text text-anchor="middle" x="0" y="433" style="font-family: 'Open Sans', verdana, arial, sans-serif; font-size: 12px; fill: rgb(42, 63, 95); fill-opacity: 1; white-space: pre; opacity: 1;" transform="translate(337.38,0)">0.6M</text></g><g class="xtick"><text text-anchor="middle" x="0" y="433" style="font-family: 'Open Sans', verdana, arial, sans-serif; font-size: 12px; fill: rgb(42, 63, 95); fill-opacity: 1; white-space: pre; opacity: 1;" transform="translate(438.32,0)">0.8M</text></g><g class="xtick"><text text-anchor="middle" x="0" y="433" style="font-family: 'Open Sans', verdana, arial, sans-serif; font-size: 12px; fill: rgb(42, 63, 95); fill-opacity: 1; white-space: pre; opacity: 1;" transform="translate(539.25,0)">1M</text></g></g><g class="yaxislayer-above"><g class="ytick"><text text-anchor="end" x="79" y="4.199999999999999" transform="translate(0,420)" style="font-family: 'Open Sans', verdana, arial, sans-serif; font-size: 12px; fill: rgb(42, 63, 95); fill-opacity: 1; white-space: pre; opacity: 1;">0</text></g><g class="ytick"><text text-anchor="end" x="79" y="4.199999999999999" style="font-family: 'Open Sans', verdana, arial, sans-serif; font-size: 12px; fill: rgb(42, 63, 95); fill-opacity: 1; white-space: pre; opacity: 1;" transform="translate(0,361.6)">0.5</text></g><g class="ytick"><text text-anchor="end" x="79" y="4.199999999999999" style="font-family: 'Open Sans', verdana, arial, sans-serif; font-size: 12px; fill: rgb(42, 63, 95); fill-opacity: 1; white-space: pre; opacity: 1;" transform="translate(0,303.2)">1</text></g><g class="ytick"><text text-anchor="end" x="79" y="4.199999999999999" style="font-family: 'Open Sans', verdana, arial, sans-serif; font-size: 12px; fill: rgb(42, 63, 95); fill-opacity: 1; white-space: pre; opacity: 1;" transform="translate(0,244.8)">1.5</text></g><g class="ytick"><text text-anchor="end" x="79" y="4.199999999999999" style="font-family: 'Open Sans', verdana, arial, sans-serif; font-size: 12px; fill: rgb(42, 63, 95); fill-opacity: 1; white-space: pre; opacity: 1;" transform="translate(0,186.4)">2</text></g><g class="ytick"><text text-anchor="end" x="79" y="4.199999999999999" style="font-family: 'Open Sans', verdana, arial, sans-serif; font-size: 12px; fill: rgb(42, 63, 95); fill-opacity: 1; white-space: pre; opacity: 1;" transform="translate(0,128)">2.5</text></g></g><g class="overaxes-above"/></g></g><g class="polarlayer"/><g class="smithlayer"/><g class="ternarylayer"/><g class="geolayer"/><g class="funnelarealayer"/><g class="pielayer"/><g class="iciclelayer"/><g class="treemaplayer"/><g class="sunburstlayer"/><g class="glimages"/><defs id="topdefs-c51788"><g class="clips"/><clipPath id="legendc51788"><rect width="154" height="29" x="0" y="0"/></clipPath></defs><g class="layer-above"><g class="imagelayer"/><g class="shapelayer"/></g><g class="infolayer"><g class="legend" pointer-events="all" transform="translate(466,64.6)"><rect class="bg" shape-rendering="crispEdges" width="154" height="29" x="0" y="0" style="stroke: rgb(68, 68, 68); stroke-opacity: 1; fill: rgb(255, 255, 255); fill-opacity: 1; stroke-width: 0px;"/><g class="scrollbox" transform="" clip-path="url(#legendc51788)"><g class="groups"><g class="traces" transform="translate(0,14.5)" style="opacity: 1;"><text class="legendtext" text-anchor="start" x="40" y="4.680000000000001" style="font-family: 'Open Sans', verdana, arial, sans-serif; font-size: 12px; fill: rgb(42, 63, 95); fill-opacity: 1; white-space: pre;">Real</text><g class="layers" style="opacity: 1;"><g class="legendfill"/><g class="legendlines"/><g class="legendsymbols"><g class="legendpoints"><path class="legendundefined" d="M6,6H-6V-6H6Z" transform="translate(20,0)" style="stroke-width: 0px; fill: rgb(0, 75, 147); fill-opacity: 0.5;"/></g></g></g><rect class="legendtoggle" x="0" y="-9.5" width="66.359375" height="19" style="fill: rgb(0, 0, 0); fill-opacity: 0;"/></g><g class="traces" transform="translate(68.859375,14.5)" style="opacity: 1;"><text class="legendtext" text-anchor="start" x="40" y="4.680000000000001" style="font-family: 'Open Sans', verdana, arial, sans-serif; font-size: 12px; fill: rgb(42, 63, 95); fill-opacity: 1; white-space: pre;">Tddpm</text><g class="layers" style="opacity: 1;"><g class="legendfill"/><g class="legendlines"/><g class="legendsymbols"><g class="legendpoints"><path class="legendundefined" d="M6,6H-6V-6H6Z" transform="translate(20,0)" style="stroke-width: 0px; fill: rgb(230, 51, 41); fill-opacity: 0.5;"/></g></g></g><rect class="legendtoggle" x="0" y="-9.5" width="82.375" height="19" style="fill: rgb(0, 0, 0); fill-opacity: 0;"/></g></g></g><rect class="scrollbar" rx="20" ry="3" width="0" height="0" x="0" y="0" style="fill: rgb(128, 139, 164); fill-opacity: 1;"/></g><g class="g-gtitle"><text class="gtitle" x="35" y="50" text-anchor="start" dy="0em" style="font-family: 'Open Sans', verdana, arial, sans-serif; font-size: 17px; fill: rgb(42, 63, 95); opacity: 1; font-weight: normal; white-space: pre;">Distribución Variable Price</text></g><g class="g-xtitle"><text class="xtitle" x="350" y="461.3" text-anchor="middle" style="font-family: 'Open Sans', verdana, arial, sans-serif; font-size: 14px; fill: rgb(42, 63, 95); opacity: 1; font-weight: normal; white-space: pre;">Total &#60;Price></text></g><g class="g-ytitle"><text class="ytitle" transform="rotate(-90,37.778125,260)" x="37.778125" y="260" text-anchor="middle" style="font-family: 'Open Sans', verdana, arial, sans-serif; font-size: 14px; fill: rgb(42, 63, 95); opacity: 1; font-weight: normal; white-space: pre;">Frequency Percentage</text></g></g></svg>