<svg class="main-svg" xmlns="http://www.w3.org/2000/svg" xmlns:xlink="http://www.w3.org/1999/xlink" width="700" height="500" style="" viewBox="0 0 700 500"><rect x="0" y="0" width="700" height="500" style="fill: rgb(255, 255, 255); fill-opacity: 1;"/><defs id="defs-46c23d"><g class="clips"><clipPath id="clip46c23dxyplot" class="plotclip"><rect width="540" height="320"/></clipPath><clipPath class="axesclip" id="clip46c23dx"><rect x="80" y="0" width="540" height="500"/></clipPath><clipPath class="axesclip" id="clip46c23dy"><rect x="0" y="100" width="700" height="320"/></clipPath><clipPath class="axesclip" id="clip46c23dxy"><rect x="80" y="100" width="540" height="320"/></clipPath></g><g class="gradients"/><g class="patterns"/></defs><g class="bglayer"><rect class="bg" x="80" y="100" width="540" height="320" style="fill: rgb(229, 236, 246); fill-opacity: 1; stroke-width: 0;"/></g><g class="layer-below"><g class="imagelayer"/><g class="shapelayer"/></g><g class="cartesianlayer"><g class="subplot xy"><g class="layer-subplot"><g class="shapelayer"/><g class="imagelayer"/></g><g class="minor-gridlayer"><g class="x"/><g class="y"/></g><g class="gridlayer"><g class="x"/><g class="y"><path class="ygrid crisp" transform="translate(0,353.19)" d="M80,0h540" style="stroke: rgb(255, 255, 255); stroke-opacity: 1; stroke-width: 1px;"/><path class="ygrid crisp" transform="translate(0,286.37)" d="M80,0h540" style="stroke: rgb(255, 255, 255); stroke-opacity: 1; stroke-width: 1px;"/><path class="ygrid crisp" transform="translate(0,219.56)" d="M80,0h540" style="stroke: rgb(255, 255, 255); stroke-opacity: 1; stroke-width: 1px;"/><path class="ygrid crisp" transform="translate(0,152.75)" d="M80,0h540" style="stroke: rgb(255, 255, 255); stroke-opacity: 1; stroke-width: 1px;"/></g></g><g class="zerolinelayer"><path class="yzl zl crisp" transform="translate(0,420)" d="M80,0h540" style="stroke: rgb(255, 255, 255); stroke-opacity: 1; stroke-width: 2px;"/></g><path class="xlines-below"/><path class="ylines-below"/><g class="overlines-below"/><g class="xaxislayer-below"/><g class="yaxislayer-below"/><g class="overaxes-below"/><g class="plot" transform="translate(80,100)" clip-path="url(#clip46c23dxyplot)"><g class="barlayer mlayer"><g class="trace bars" shape-rendering="crispEdges" style="opacity: 1;"><g class="points"><g class="point"><path d="M0.12,320V16H0.2V320Z" style="vector-effect: none; opacity: 1; stroke-width: 0px; fill: rgb(0, 75, 147); fill-opacity: 0.5;"/></g><g class="point"><path d="M0.2,320V285.26H0.28V320Z" style="vector-effect: none; opacity: 1; stroke-width: 0px; fill: rgb(0, 75, 147); fill-opacity: 0.5;"/></g><g class="point"><path d="M0.28,320V275.24H0.36V320Z" style="vector-effect: none; opacity: 1; stroke-width: 0px; fill: rgb(0, 75, 147); fill-opacity: 0.5;"/></g><g class="point"><path d="M0.36,320V278.58H0.44V320Z" style="vector-effect: none; opacity: 1; stroke-width: 0px; fill: rgb(0, 75, 147); fill-opacity: 0.5;"/></g><g class="point"><path d="M0.44,320V308.64H0.52V320Z" style="vector-effect: none; opacity: 1; stroke-width: 0px; fill: rgb(0, 75, 147); fill-opacity: 0.5;"/></g><g class="point"><path d="M0.52,320V272.56H0.6V320Z" style="vector-effect: none; opacity: 1; stroke-width: 0px; fill: rgb(0, 75, 147); fill-opacity: 0.5;"/></g><g class="point"><path d="M0.6,320V303.96H0.67V320Z" style="vector-effect: none; opacity: 1; stroke-width: 0px; fill: rgb(0, 75, 147); fill-opacity: 0.5;"/></g><g class="point"><path d="M0.67,320V305.97H0.75V320Z" style="vector-effect: none; opacity: 1; stroke-width: 0px; fill: rgb(0, 75, 147); fill-opacity: 0.5;"/></g><g class="point"><path d="M0.75,320V291.94H0.83V320Z" style="vector-effect: none; opacity: 1; stroke-width: 0px; fill: rgb(0, 75, 147); fill-opacity: 0.5;"/></g><g class="point"><path d="M0.83,320V310.65H0.91V320Z" style="vector-effect: none; opacity: 1; stroke-width: 0px; fill: rgb(0, 75, 147); fill-opacity: 0.5;"/></g><g class="point"><path d="M0.91,320V305.97H0.99V320Z" style="vector-effect: none; opacity: 1; stroke-width: 0px; fill: rgb(0, 75, 147); fill-opacity: 0.5;"/></g><g class="point"><path d="M0.99,320V297.28H1.07V320Z" style="vector-effect: none; opacity: 1; stroke-width: 0px; fill: rgb(0, 75, 147); fill-opacity: 0.5;"/></g><g class="point"><path d="M1.07,320V307.97H1.15V320Z" style="vector-effect: none; opacity: 1; stroke-width: 0px; fill: rgb(0, 75, 147); fill-opacity: 0.5;"/></g><g class="point"><path d="M1.15,320V306.64H1.23V320Z" style="vector-effect: none; opacity: 1; stroke-width: 0px; fill: rgb(0, 75, 147); fill-opacity: 0.5;"/></g><g class="point"><path d="M1.23,320V307.97H1.31V320Z" style="vector-effect: none; opacity: 1; stroke-width: 0px; fill: rgb(0, 75, 147); fill-opacity: 0.5;"/></g><g class="point"><path d="M1.31,320V298.62H1.39V320Z" style="vector-effect: none; opacity: 1; stroke-width: 0px; fill: rgb(0, 75, 147); fill-opacity: 0.5;"/></g><g class="point"><path d="M1.39,320V303.3H1.47V320Z" style="vector-effect: none; opacity: 1; stroke-width: 0px; fill: rgb(0, 75, 147); fill-opacity: 0.5;"/></g><g class="point"><path d="M1.47,320V313.32H1.55V320Z" style="vector-effect: none; opacity: 1; stroke-width: 0px; fill: rgb(0, 75, 147); fill-opacity: 0.5;"/></g><g class="point"><path d="M1.55,320V309.98H1.63V320Z" style="vector-effect: none; opacity: 1; stroke-width: 0px; fill: rgb(0, 75, 147); fill-opacity: 0.5;"/></g><g class="point"><path d="M1.63,320V314.65H1.71V320Z" style="vector-effect: none; opacity: 1; stroke-width: 0px; fill: rgb(0, 75, 147); fill-opacity: 0.5;"/></g><g class="point"><path d="M1.71,320V309.31H1.79V320Z" style="vector-effect: none; opacity: 1; stroke-width: 0px; fill: rgb(0, 75, 147); fill-opacity: 0.5;"/></g><g class="point"><path d="M1.79,320V313.99H1.87V320Z" style="vector-effect: none; opacity: 1; stroke-width: 0px; fill: rgb(0, 75, 147); fill-opacity: 0.5;"/></g><g class="point"><path d="M1.87,320V317.33H1.95V320Z" style="vector-effect: none; opacity: 1; stroke-width: 0px; fill: rgb(0, 75, 147); fill-opacity: 0.5;"/></g><g class="point"><path d="M1.95,320V311.31H2.02V320Z" style="vector-effect: none; opacity: 1; stroke-width: 0px; fill: rgb(0, 75, 147); fill-opacity: 0.5;"/></g><g class="point"><path d="M2.02,320V311.98H2.1V320Z" style="vector-effect: none; opacity: 1; stroke-width: 0px; fill: rgb(0, 75, 147); fill-opacity: 0.5;"/></g><g class="point"><path d="M2.1,320V315.99H2.18V320Z" style="vector-effect: none; opacity: 1; stroke-width: 0px; fill: rgb(0, 75, 147); fill-opacity: 0.5;"/></g><g class="point"><path d="M2.18,320V308.64H2.26V320Z" style="vector-effect: none; opacity: 1; stroke-width: 0px; fill: rgb(0, 75, 147); fill-opacity: 0.5;"/></g></g></g><g class="trace bars" shape-rendering="crispEdges" style="opacity: 1;"><g class="points"><g class="point"><path d="M0,320V169.67H0.32V320Z" style="vector-effect: none; opacity: 1; stroke-width: 0px; fill: rgb(230, 51, 41); fill-opacity: 0.5;"/></g><g class="point"><path d="M0.32,320V173.68H0.64V320Z" style="vector-effect: none; opacity: 1; stroke-width: 0px; fill: rgb(230, 51, 41); fill-opacity: 0.5;"/></g><g class="point"><path d="M0.64,320V237.15H0.95V320Z" style="vector-effect: none; opacity: 1; stroke-width: 0px; fill: rgb(230, 51, 41); fill-opacity: 0.5;"/></g><g class="point"><path d="M0.95,320V253.19H1.27V320Z" style="vector-effect: none; opacity: 1; stroke-width: 0px; fill: rgb(230, 51, 41); fill-opacity: 0.5;"/></g><g class="point"><path d="M1.27,320V273.9H1.59V320Z" style="vector-effect: none; opacity: 1; stroke-width: 0px; fill: rgb(230, 51, 41); fill-opacity: 0.5;"/></g><g class="point"><path d="M1.59,320V269.22H1.91V320Z" style="vector-effect: none; opacity: 1; stroke-width: 0px; fill: rgb(230, 51, 41); fill-opacity: 0.5;"/></g><g class="point"><path d="M1.91,320V280.58H2.22V320Z" style="vector-effect: none; opacity: 1; stroke-width: 0px; fill: rgb(230, 51, 41); fill-opacity: 0.5;"/></g><g class="point"><path d="M2.22,320V281.25H2.54V320Z" style="vector-effect: none; opacity: 1; stroke-width: 0px; fill: rgb(230, 51, 41); fill-opacity: 0.5;"/></g><g class="point"><path d="M2.54,320V288.6H2.86V320Z" style="vector-effect: none; opacity: 1; stroke-width: 0px; fill: rgb(230, 51, 41); fill-opacity: 0.5;"/></g><g class="point"><path d="M2.86,320V283.92H3.18V320Z" style="vector-effect: none; opacity: 1; stroke-width: 0px; fill: rgb(230, 51, 41); fill-opacity: 0.5;"/></g><g class="point"><path d="M3.18,320V285.26H3.49V320Z" style="vector-effect: none; opacity: 1; stroke-width: 0px; fill: rgb(230, 51, 41); fill-opacity: 0.5;"/></g><g class="point"><path d="M3.49,320V289.93H3.81V320Z" style="vector-effect: none; opacity: 1; stroke-width: 0px; fill: rgb(230, 51, 41); fill-opacity: 0.5;"/></g><g class="point"><path d="M3.81,320V299.96H4.13V320Z" style="vector-effect: none; opacity: 1; stroke-width: 0px; fill: rgb(230, 51, 41); fill-opacity: 0.5;"/></g><g class="point"><path d="M4.13,320V285.26H4.45V320Z" style="vector-effect: none; opacity: 1; stroke-width: 0px; fill: rgb(230, 51, 41); fill-opacity: 0.5;"/></g><g class="point"><path d="M4.45,320V293.94H4.76V320Z" style="vector-effect: none; opacity: 1; stroke-width: 0px; fill: rgb(230, 51, 41); fill-opacity: 0.5;"/></g><g class="point"><path d="M4.76,320V297.95H5.08V320Z" style="vector-effect: none; opacity: 1; stroke-width: 0px; fill: rgb(230, 51, 41); fill-opacity: 0.5;"/></g><g class="point"><path d="M5.08,320V296.62H5.4V320Z" style="vector-effect: none; opacity: 1; stroke-width: 0px; fill: rgb(230, 51, 41); fill-opacity: 0.5;"/></g><g class="point"><path d="M5.4,320V297.95H5.72V320Z" style="vector-effect: none; opacity: 1; stroke-width: 0px; fill: rgb(230, 51, 41); fill-opacity: 0.5;"/></g><g class="point"><path d="M5.72,320V301.29H6.03V320Z" style="vector-effect: none; opacity: 1; stroke-width: 0px; fill: rgb(230, 51, 41); fill-opacity: 0.5;"/></g><g class="point"><path d="M6.03,320V319.33H6.35V320Z" style="vector-effect: none; opacity: 1; stroke-width: 0px; fill: rgb(230, 51, 41); fill-opacity: 0.5;"/></g></g></g><g class="trace bars" shape-rendering="crispEdges" style="opacity: 1;"><g class="points"><g class="point"><path d="M0,320V148.29H0.32V320Z" style="vector-effect: none; opacity: 1; stroke-width: 0px; fill: rgb(254, 207, 68); fill-opacity: 0.5;"/></g><g class="point"><path d="M0.32,320V269.22H0.64V320Z" style="vector-effect: none; opacity: 1; stroke-width: 0px; fill: rgb(254, 207, 68); fill-opacity: 0.5;"/></g><g class="point"><path d="M0.64,320V282.58H0.95V320Z" style="vector-effect: none; opacity: 1; stroke-width: 0px; fill: rgb(254, 207, 68); fill-opacity: 0.5;"/></g><g class="point"><path d="M0.95,320V279.91H1.27V320Z" style="vector-effect: none; opacity: 1; stroke-width: 0px; fill: rgb(254, 207, 68); fill-opacity: 0.5;"/></g><g class="point"><path d="M1.27,320V285.26H1.59V320Z" style="vector-effect: none; opacity: 1; stroke-width: 0px; fill: rgb(254, 207, 68); fill-opacity: 0.5;"/></g><g class="point"><path d="M1.59,320V293.27H1.91V320Z" style="vector-effect: none; opacity: 1; stroke-width: 0px; fill: rgb(254, 207, 68); fill-opacity: 0.5;"/></g><g class="point"><path d="M1.91,320V283.92H2.22V320Z" style="vector-effect: none; opacity: 1; stroke-width: 0px; fill: rgb(254, 207, 68); fill-opacity: 0.5;"/></g><g class="point"><path d="M2.22,320V296.62H2.54V320Z" style="vector-effect: none; opacity: 1; stroke-width: 0px; fill: rgb(254, 207, 68); fill-opacity: 0.5;"/></g><g class="point"><path d="M2.54,320V294.61H2.86V320Z" style="vector-effect: none; opacity: 1; stroke-width: 0px; fill: rgb(254, 207, 68); fill-opacity: 0.5;"/></g><g class="point"><path d="M2.86,320V293.94H3.18V320Z" style="vector-effect: none; opacity: 1; stroke-width: 0px; fill: rgb(254, 207, 68); fill-opacity: 0.5;"/></g><g class="point"><path d="M3.18,320V281.25H3.49V320Z" style="vector-effect: none; opacity: 1; stroke-width: 0px; fill: rgb(254, 207, 68); fill-opacity: 0.5;"/></g><g class="point"><path d="M3.49,320V291.27H3.81V320Z" style="vector-effect: none; opacity: 1; stroke-width: 0px; fill: rgb(254, 207, 68); fill-opacity: 0.5;"/></g><g class="point"><path d="M3.81,320V283.92H4.13V320Z" style="vector-effect: none; opacity: 1; stroke-width: 0px; fill: rgb(254, 207, 68); fill-opacity: 0.5;"/></g><g class="point"><path d="M4.13,320V266.55H4.45V320Z" style="vector-effect: none; opacity: 1; stroke-width: 0px; fill: rgb(254, 207, 68); fill-opacity: 0.5;"/></g><g class="point"><path d="M4.45,320V271.23H4.76V320Z" style="vector-effect: none; opacity: 1; stroke-width: 0px; fill: rgb(254, 207, 68); fill-opacity: 0.5;"/></g><g class="point"><path d="M4.76,320V281.92H5.08V320Z" style="vector-effect: none; opacity: 1; stroke-width: 0px; fill: rgb(254, 207, 68); fill-opacity: 0.5;"/></g><g class="point"><path d="M5.08,320V280.58H5.4V320Z" style="vector-effect: none; opacity: 1; stroke-width: 0px; fill: rgb(254, 207, 68); fill-opacity: 0.5;"/></g><g class="point"><path d="M5.4,320V291.94H5.72V320Z" style="vector-effect: none; opacity: 1; stroke-width: 0px; fill: rgb(254, 207, 68); fill-opacity: 0.5;"/></g><g class="point"><path d="M5.72,320V287.26H6.03V320Z" style="vector-effect: none; opacity: 1; stroke-width: 0px; fill: rgb(254, 207, 68); fill-opacity: 0.5;"/></g><g class="point"><path d="M6.03,320V286.59H6.35V320Z" style="vector-effect: none; opacity: 1; stroke-width: 0px; fill: rgb(254, 207, 68); fill-opacity: 0.5;"/></g><g class="point"><path d="M6.35,320V287.93H6.67V320Z" style="vector-effect: none; opacity: 1; stroke-width: 0px; fill: rgb(254, 207, 68); fill-opacity: 0.5;"/></g><g class="point"><path d="M6.67,320V285.93H6.99V320Z" style="vector-effect: none; opacity: 1; stroke-width: 0px; fill: rgb(254, 207, 68); fill-opacity: 0.5;"/></g><g class="point"><path d="M6.99,320V314.65H7.3V320Z" style="vector-effect: none; opacity: 1; stroke-width: 0px; fill: rgb(254, 207, 68); fill-opacity: 0.5;"/></g></g></g><g class="trace bars" shape-rendering="crispEdges" style="opacity: 1;"><g class="points"><g class="point"><path d="M0.16,320V253.19H31.91V320Z" style="vector-effect: none; opacity: 1; stroke-width: 0px; fill: rgb(0, 126, 72); fill-opacity: 0.5;"/></g><g class="point"><path d="M31.91,320V243.16H63.67V320Z" style="vector-effect: none; opacity: 1; stroke-width: 0px; fill: rgb(0, 126, 72); fill-opacity: 0.5;"/></g><g class="point"><path d="M63.67,320V257.2H95.42V320Z" style="vector-effect: none; opacity: 1; stroke-width: 0px; fill: rgb(0, 126, 72); fill-opacity: 0.5;"/></g><g class="point"><path d="M95.42,320V256.53H127.18V320Z" style="vector-effect: none; opacity: 1; stroke-width: 0px; fill: rgb(0, 126, 72); fill-opacity: 0.5;"/></g><g class="point"><path d="M127.18,320V260.54H158.94V320Z" style="vector-effect: none; opacity: 1; stroke-width: 0px; fill: rgb(0, 126, 72); fill-opacity: 0.5;"/></g><g class="point"><path d="M158.94,320V265.21H190.69V320Z" style="vector-effect: none; opacity: 1; stroke-width: 0px; fill: rgb(0, 126, 72); fill-opacity: 0.5;"/></g><g class="point"><path d="M190.69,320V259.87H222.45V320Z" style="vector-effect: none; opacity: 1; stroke-width: 0px; fill: rgb(0, 126, 72); fill-opacity: 0.5;"/></g><g class="point"><path d="M222.45,320V246.51H254.2V320Z" style="vector-effect: none; opacity: 1; stroke-width: 0px; fill: rgb(0, 126, 72); fill-opacity: 0.5;"/></g><g class="point"><path d="M254.2,320V265.21H285.96V320Z" style="vector-effect: none; opacity: 1; stroke-width: 0px; fill: rgb(0, 126, 72); fill-opacity: 0.5;"/></g><g class="point"><path d="M285.96,320V272.56H317.71V320Z" style="vector-effect: none; opacity: 1; stroke-width: 0px; fill: rgb(0, 126, 72); fill-opacity: 0.5;"/></g><g class="point"><path d="M317.71,320V271.23H349.47V320Z" style="vector-effect: none; opacity: 1; stroke-width: 0px; fill: rgb(0, 126, 72); fill-opacity: 0.5;"/></g><g class="point"><path d="M349.47,320V278.58H381.22V320Z" style="vector-effect: none; opacity: 1; stroke-width: 0px; fill: rgb(0, 126, 72); fill-opacity: 0.5;"/></g><g class="point"><path d="M381.22,320V271.89H412.98V320Z" style="vector-effect: none; opacity: 1; stroke-width: 0px; fill: rgb(0, 126, 72); fill-opacity: 0.5;"/></g><g class="point"><path d="M412.98,320V274.57H444.73V320Z" style="vector-effect: none; opacity: 1; stroke-width: 0px; fill: rgb(0, 126, 72); fill-opacity: 0.5;"/></g><g class="point"><path d="M444.73,320V268.55H476.49V320Z" style="vector-effect: none; opacity: 1; stroke-width: 0px; fill: rgb(0, 126, 72); fill-opacity: 0.5;"/></g><g class="point"><path d="M476.49,320V272.56H508.24V320Z" style="vector-effect: none; opacity: 1; stroke-width: 0px; fill: rgb(0, 126, 72); fill-opacity: 0.5;"/></g><g class="point"><path d="M508.24,320V301.29H540V320Z" style="vector-effect: none; opacity: 1; stroke-width: 0px; fill: rgb(0, 126, 72); fill-opacity: 0.5;"/></g></g></g></g></g><g class="overplot"/><path class="xlines-above crisp" d="M0,0" style="fill: none;"/><path class="ylines-above crisp" d="M0,0" style="fill: none;"/><g class="overlines-above"/><g class="xaxislayer-above"><g class="xtick"><text text-anchor="middle" x="0" y="433" transform="translate(80.16,0)" style="font-family: 'Open Sans', verdana, arial, sans-serif; font-size: 12px; fill: rgb(42, 63, 95); fill-opacity: 1; white-space: pre; opacity: 1;">0</text></g><g class="xtick"><text text-anchor="middle" x="0" y="433" style="font-family: 'Open Sans', verdana, arial, sans-serif; font-size: 12px; fill: rgb(42, 63, 95); fill-opacity: 1; white-space: pre; opacity: 1;" transform="translate(159.55,0)">0.5μ</text></g><g class="xtick"><text text-anchor="middle" x="0" y="433" style="font-family: 'Open Sans', verdana, arial, sans-serif; font-size: 12px; fill: rgb(42, 63, 95); fill-opacity: 1; white-space: pre; opacity: 1;" transform="translate(238.94,0)">1μ</text></g><g class="xtick"><text text-anchor="middle" x="0" y="433" style="font-family: 'Open Sans', verdana, arial, sans-serif; font-size: 12px; fill: rgb(42, 63, 95); fill-opacity: 1; white-space: pre; opacity: 1;" transform="translate(318.32,0)">1.5μ</text></g><g class="xtick"><text text-anchor="middle" x="0" y="433" style="font-family: 'Open Sans', verdana, arial, sans-serif; font-size: 12px; fill: rgb(42, 63, 95); fill-opacity: 1; white-space: pre; opacity: 1;" transform="translate(397.71,0)">2μ</text></g><g class="xtick"><text text-anchor="middle" x="0" y="433" style="font-family: 'Open Sans', verdana, arial, sans-serif; font-size: 12px; fill: rgb(42, 63, 95); fill-opacity: 1; white-space: pre; opacity: 1;" transform="translate(477.1,0)">2.5μ</text></g><g class="xtick"><text text-anchor="middle" x="0" y="433" style="font-family: 'Open Sans', verdana, arial, sans-serif; font-size: 12px; fill: rgb(42, 63, 95); fill-opacity: 1; white-space: pre; opacity: 1;" transform="translate(556.49,0)">3μ</text></g></g><g class="yaxislayer-above"><g class="ytick"><text text-anchor="end" x="79" y="4.199999999999999" transform="translate(0,420)" style="font-family: 'Open Sans', verdana, arial, sans-serif; font-size: 12px; fill: rgb(42, 63, 95); fill-opacity: 1; white-space: pre; opacity: 1;">0</text></g><g class="ytick"><text text-anchor="end" x="79" y="4.199999999999999" style="font-family: 'Open Sans', verdana, arial, sans-serif; font-size: 12px; fill: rgb(42, 63, 95); fill-opacity: 1; white-space: pre; opacity: 1;" transform="translate(0,353.19)">100</text></g><g class="ytick"><text text-anchor="end" x="79" y="4.199999999999999" style="font-family: 'Open Sans', verdana, arial, sans-serif; font-size: 12px; fill: rgb(42, 63, 95); fill-opacity: 1; white-space: pre; opacity: 1;" transform="translate(0,286.37)">200</text></g><g class="ytick"><text text-anchor="end" x="79" y="4.199999999999999" style="font-family: 'Open Sans', verdana, arial, sans-serif; font-size: 12px; fill: rgb(42, 63, 95); fill-opacity: 1; white-space: pre; opacity: 1;" transform="translate(0,219.56)">300</text></g><g class="ytick"><text text-anchor="end" x="79" y="4.199999999999999" style="font-family: 'Open Sans', verdana, arial, sans-serif; font-size: 12px; fill: rgb(42, 63, 95); fill-opacity: 1; white-space: pre; opacity: 1;" transform="translate(0,152.75)">400</text></g></g><g class="overaxes-above"/></g></g><g class="polarlayer"/><g class="smithlayer"/><g class="ternarylayer"/><g class="geolayer"/><g class="funnelarealayer"/><g class="pielayer"/><g class="iciclelayer"/><g class="treemaplayer"/><g class="sunburstlayer"/><g class="glimages"/><defs id="topdefs-46c23d"><g class="clips"/><clipPath id="legend46c23d"><rect width="400" height="29" x="0" y="0"/></clipPath></defs><g class="layer-above"><g class="imagelayer"/><g class="shapelayer"/></g><g class="infolayer"><g class="legend" pointer-events="all" transform="translate(220,64.6)"><rect class="bg" shape-rendering="crispEdges" style="stroke: rgb(68, 68, 68); stroke-opacity: 1; fill: rgb(255, 255, 255); fill-opacity: 1; stroke-width: 0px;" width="400" height="29" x="0" y="0"/><g class="scrollbox" transform="" clip-path="url(#legend46c23d)"><g class="groups"><g class="traces" transform="translate(0,14.5)" style="opacity: 1;"><text class="legendtext" text-anchor="start" x="40" y="4.680000000000001" style="font-family: 'Open Sans', verdana, arial, sans-serif; font-size: 12px; fill: rgb(42, 63, 95); fill-opacity: 1; white-space: pre;">Real</text><g class="layers" style="opacity: 1;"><g class="legendfill"/><g class="legendlines"/><g class="legendsymbols"><g class="legendpoints"><path class="legendundefined" d="M6,6H-6V-6H6Z" transform="translate(20,0)" style="stroke-width: 0px; fill: rgb(0, 75, 147); fill-opacity: 0.5;"/></g></g></g><rect class="legendtoggle" x="0" y="-9.5" width="68.375" height="19" style="fill: rgb(0, 0, 0); fill-opacity: 0;"/></g><g class="traces" transform="translate(70.875,14.5)" style="opacity: 1;"><text class="legendtext" text-anchor="start" x="40" y="4.680000000000001" style="font-family: 'Open Sans', verdana, arial, sans-serif; font-size: 12px; fill: rgb(42, 63, 95); fill-opacity: 1; white-space: pre;">tddpm_mlp</text><g class="layers" style="opacity: 1;"><g class="legendfill"/><g class="legendlines"/><g class="legendsymbols"><g class="legendpoints"><path class="legendundefined" d="M6,6H-6V-6H6Z" transform="translate(20,0)" style="stroke-width: 0px; fill: rgb(230, 51, 41); fill-opacity: 0.5;"/></g></g></g><rect class="legendtoggle" x="0" y="-9.5" width="110.390625" height="19" style="fill: rgb(0, 0, 0); fill-opacity: 0;"/></g><g class="traces" transform="translate(183.765625,14.5)" style="opacity: 1;"><text class="legendtext" text-anchor="start" x="40" y="4.680000000000001" style="font-family: 'Open Sans', verdana, arial, sans-serif; font-size: 12px; fill: rgb(42, 63, 95); fill-opacity: 1; white-space: pre;">smote-enc</text><g class="layers" style="opacity: 1;"><g class="legendfill"/><g class="legendlines"/><g class="legendsymbols"><g class="legendpoints"><path class="legendundefined" d="M6,6H-6V-6H6Z" transform="translate(20,0)" style="stroke-width: 0px; fill: rgb(254, 207, 68); fill-opacity: 0.5;"/></g></g></g><rect class="legendtoggle" x="0" y="-9.5" width="105.796875" height="19" style="fill: rgb(0, 0, 0); fill-opacity: 0;"/></g><g class="traces" transform="translate(292.0625,14.5)" style="opacity: 1;"><text class="legendtext" text-anchor="start" x="40" y="4.680000000000001" style="font-family: 'Open Sans', verdana, arial, sans-serif; font-size: 12px; fill: rgb(42, 63, 95); fill-opacity: 1; white-space: pre;">copulagan</text><g class="layers" style="opacity: 1;"><g class="legendfill"/><g class="legendlines"/><g class="legendsymbols"><g class="legendpoints"><path class="legendundefined" d="M6,6H-6V-6H6Z" transform="translate(20,0)" style="stroke-width: 0px; fill: rgb(0, 126, 72); fill-opacity: 0.5;"/></g></g></g><rect class="legendtoggle" x="0" y="-9.5" width="104.9375" height="19" style="fill: rgb(0, 0, 0); fill-opacity: 0;"/></g></g></g><rect class="scrollbar" rx="20" ry="3" width="0" height="0" style="fill: rgb(128, 139, 164); fill-opacity: 1;" x="0" y="0"/></g><g class="g-gtitle"><text class="gtitle" x="35" y="50" text-anchor="start" dy="0em" style="font-family: 'Open Sans', verdana, arial, sans-serif; font-size: 17px; fill: rgb(42, 63, 95); opacity: 1; font-weight: normal; white-space: pre;">Field &#60;Privacy> Distribution</text></g><g class="g-xtitle"><text class="xtitle" x="350" y="460.3" text-anchor="middle" style="font-family: 'Open Sans', verdana, arial, sans-serif; font-size: 14px; fill: rgb(42, 63, 95); opacity: 1; font-weight: normal; white-space: pre;">Total &#60;Privacy></text></g><g class="g-ytitle"><text class="ytitle" transform="rotate(-90,31.793750000000003,260)" x="31.793750000000003" y="260" text-anchor="middle" style="font-family: 'Open Sans', verdana, arial, sans-serif; font-size: 14px; fill: rgb(42, 63, 95); opacity: 1; font-weight: normal; white-space: pre;">Frequency</text></g></g></svg>