<?xml version="1.0" encoding="UTF-8" standalone="no"?><svg xmlns="http://www.w3.org/2000/svg" xmlns:xlink="http://www.w3.org/1999/xlink" contentStyleType="text/css" height="2145.8333px" preserveAspectRatio="none" style="width:3058px;height:2145px;background:#00000000;" version="1.1" viewBox="0 0 3058 2145" width="3058.3333px" zoomAndPan="magnify"><defs/><g><!--MD5=[affbe5d60e3d5c0705c39255169bfbf4]
cluster pr--><g id="cluster_pr"><rect fill="#8E8C84" height="600" rx="16.6667" ry="16.6667" style="stroke:#004B93;stroke-width:8.333333333333334;" width="600" x="29.1667" y="250"/><text fill="#FFFFFF" font-family="&quot;Times New Roman&quot;" font-size="83.3333" font-weight="bold" lengthAdjust="spacing" textLength="370.8333" x="143.75" y="352.3519">Process</text></g><!--MD5=[27081f92bbbb32f9ba8a449ff0a4771e]
cluster Documents--><g id="cluster_Documents"><rect fill="#8E8C84" height="1987.5" rx="16.6667" ry="16.6667" style="stroke:#004B93;stroke-width:8.333333333333334;" width="633.3333" x="745.8333" y="95.8333"/><text fill="#FFFFFF" font-family="&quot;Times New Roman&quot;" font-size="83.3333" font-weight="bold" lengthAdjust="spacing" textLength="533.3333" x="795.8333" y="198.1852">Documents</text></g><!--MD5=[a01586d04684a198c6d1df3fec93e6c1]
cluster Synthetic Process--><g id="cluster_Synthetic Process"><rect fill="#8E8C84" height="2091.6667" rx="16.6667" ry="16.6667" style="stroke:#004B93;stroke-width:8.333333333333334;" width="950" x="1495.8333" y="29.1667"/><text fill="#FFFFFF" font-family="&quot;Times New Roman&quot;" font-size="83.3333" font-weight="bold" lengthAdjust="spacing" textLength="850" x="1545.8333" y="131.5186">Synthetic Process</text></g><!--MD5=[6fd4d039b7731a17633766c0228ce63a]
cluster Cache--><g id="cluster_Cache"><rect fill="#8E8C84" height="491.6667" rx="16.6667" ry="16.6667" style="stroke:#004B93;stroke-width:8.333333333333334;" width="470.8333" x="2562.5" y="829.1667"/><text fill="#FFFFFF" font-family="&quot;Times New Roman&quot;" font-size="83.3333" font-weight="bold" lengthAdjust="spacing" textLength="287.5" x="2654.1667" y="931.5186">Cache</text></g><!--MD5=[69aa57ba14ab28edd9b349204e745a26]
entity create_metadata--><g id="elem_create_metadata"><rect fill="#EEEEEE" height="321.7448" rx="16.6667" ry="16.6667" style="stroke:#595959;stroke-width:2.0833333333333335;" width="466.6667" x="95.8333" y="460.4167"/><rect fill="#FFFFFF" height="91.5365" style="stroke:none;stroke-width:2.0833333333333335;" width="83.3333" x="154.1667" y="497.9167"/><text fill="#3E3F3A" font-family="&quot;Times New Roman&quot;" font-size="50" lengthAdjust="spacing" textLength="16.6667" x="170.8333" y="560.9945"> </text><text fill="#E63329" font-family="&quot;Times New Roman&quot;" font-size="50" lengthAdjust="spacing" textLength="33.3333" x="187.5" y="560.9945">1</text><line style="stroke:#E63329;stroke-width:2.0833333333333335;" x1="154.1667" x2="237.5" y1="497.9167" y2="497.9167"/><line style="stroke:#E63329;stroke-width:2.0833333333333335;" x1="154.1667" x2="237.5" y1="589.4531" y2="589.4531"/><line style="stroke:#E63329;stroke-width:2.0833333333333335;" x1="154.1667" x2="154.1667" y1="497.9167" y2="589.4531"/><line style="stroke:#E63329;stroke-width:2.0833333333333335;" x1="237.5" x2="237.5" y1="497.9167" y2="589.4531"/><text fill="#3E3F3A" font-family="&quot;Times New Roman&quot;" font-size="66.6667" font-weight="bold" lengthAdjust="spacing" textLength="250" x="154.1667" y="659.668">Create</text><text fill="#3E3F3A" font-family="&quot;Times New Roman&quot;" font-size="66.6667" font-weight="bold" lengthAdjust="spacing" textLength="350" x="154.1667" y="737.2721">Metadata</text></g><!--MD5=[c12a1600b6b75d8e137ee7341d68ba4c]
entity meta--><g id="elem_meta"><path d="M879.1667,320.8333 L879.1667,520.5729 A16.6667,16.6667 0 0 0 895.8333,537.2396 L1229.1667,537.2396 A16.6667,16.6667 0 0 0 1245.8333,520.5729 L1245.8333,345.8333 L1204.1667,304.1667 L895.8333,304.1667 A16.6667,16.6667 0 0 0 879.1667,320.8333 " fill="#807E77" style="stroke:#F8F5F0;stroke-width:2.0833333333333335;"/><path d="M1204.1667,304.1667 L1204.1667,329.1667 A16.6667,16.6667 0 0 0 1220.8333,345.8333 L1245.8333,345.8333 " fill="#807E77" style="stroke:#F8F5F0;stroke-width:2.0833333333333335;"/><text fill="#F8F5F0" font-family="&quot;Times New Roman&quot;" font-size="50" lengthAdjust="spacing" textLength="141.6667" x="937.5" y="408.9111">Table</text><text fill="#F8F5F0" font-family="&quot;Times New Roman&quot;" font-size="50" lengthAdjust="spacing" textLength="250" x="937.5" y="467.1143">Metadata</text></g><!--MD5=[78922e3f719f32bf869a7a66bdadb0f4]
entity rds--><g id="elem_rds"><path d="M900,727.0833 C900,685.4167 1062.5,685.4167 1062.5,685.4167 C1062.5,685.4167 1225,685.4167 1225,727.0833 L1225,914.3229 C1225,955.9896 1062.5,955.9896 1062.5,955.9896 C1062.5,955.9896 900,955.9896 900,914.3229 L900,727.0833 " fill="#004B93" style="stroke:#004B93;stroke-width:2.0833333333333335;"/><path d="M900,727.0833 C900,768.75 1062.5,768.75 1062.5,768.75 C1062.5,768.75 1225,768.75 1225,727.0833 " fill="none" style="stroke:#004B93;stroke-width:2.0833333333333335;"/><text fill="#FFFFFF" font-family="&quot;Times New Roman&quot;" font-size="50" lengthAdjust="spacing" textLength="112.5" x="958.3333" y="848.4945">Real</text><text fill="#FFFFFF" font-family="&quot;Times New Roman&quot;" font-size="50" lengthAdjust="spacing" textLength="208.3333" x="958.3333" y="906.6976">Dataset</text></g><!--MD5=[edc1f9cb25e6e08ed2994c2734d493b3]
entity sds--><g id="elem_sds"><path d="M883.3333,1143.75 C883.3333,1102.0833 1062.5,1102.0833 1062.5,1102.0833 C1062.5,1102.0833 1241.6667,1102.0833 1241.6667,1143.75 L1241.6667,1330.9896 C1241.6667,1372.6563 1062.5,1372.6563 1062.5,1372.6563 C1062.5,1372.6563 883.3333,1372.6563 883.3333,1330.9896 L883.3333,1143.75 " fill="#004B93" style="stroke:#004B93;stroke-width:2.0833333333333335;"/><path d="M883.3333,1143.75 C883.3333,1185.4167 1062.5,1185.4167 1062.5,1185.4167 C1062.5,1185.4167 1241.6667,1185.4167 1241.6667,1143.75 " fill="none" style="stroke:#004B93;stroke-width:2.0833333333333335;"/><text fill="#FFFFFF" font-family="&quot;Times New Roman&quot;" font-size="50" lengthAdjust="spacing" textLength="241.6667" x="941.6667" y="1265.1611">Synthetic</text><text fill="#FFFFFF" font-family="&quot;Times New Roman&quot;" font-size="50" lengthAdjust="spacing" textLength="208.3333" x="941.6667" y="1323.3643">Dataset</text></g><!--MD5=[a1211cca0be37f777f1fc0a90a624b06]
entity metrics_file--><g id="elem_metrics_file"><path d="M910.4167,1537.5 L910.4167,1679.0365 A16.6667,16.6667 0 0 0 927.0833,1695.7031 L1197.9167,1695.7031 A16.6667,16.6667 0 0 0 1214.5833,1679.0365 L1214.5833,1562.5 L1172.9167,1520.8333 L927.0833,1520.8333 A16.6667,16.6667 0 0 0 910.4167,1537.5 " fill="#807E77" style="stroke:#F8F5F0;stroke-width:2.0833333333333335;"/><path d="M1172.9167,1520.8333 L1172.9167,1545.8333 A16.6667,16.6667 0 0 0 1189.5833,1562.5 L1214.5833,1562.5 " fill="#807E77" style="stroke:#F8F5F0;stroke-width:2.0833333333333335;"/><text fill="#F8F5F0" font-family="&quot;Times New Roman&quot;" font-size="50" lengthAdjust="spacing" textLength="187.5" x="968.75" y="1625.5778">Metrics</text></g><!--MD5=[16dcfe41a28a733e0ab4f59662a9f130]
entity DCR_file--><g id="elem_DCR_file"><path d="M952.0833,1858.3333 L952.0833,1999.8698 A16.6667,16.6667 0 0 0 968.75,2016.5365 L1156.25,2016.5365 A16.6667,16.6667 0 0 0 1172.9167,1999.8698 L1172.9167,1883.3333 L1131.25,1841.6667 L968.75,1841.6667 A16.6667,16.6667 0 0 0 952.0833,1858.3333 " fill="#807E77" style="stroke:#F8F5F0;stroke-width:2.0833333333333335;"/><path d="M1131.25,1841.6667 L1131.25,1866.6667 A16.6667,16.6667 0 0 0 1147.9167,1883.3333 L1172.9167,1883.3333 " fill="#807E77" style="stroke:#F8F5F0;stroke-width:2.0833333333333335;"/><text fill="#F8F5F0" font-family="&quot;Times New Roman&quot;" font-size="50" lengthAdjust="spacing" textLength="104.1667" x="1010.4167" y="1946.4111">DCR</text></g><!--MD5=[6fa1cc94bec0cf5ab264efe33d75d3c3]
entity load--><g id="elem_load"><rect fill="#EEEEEE" height="244.1406" rx="16.6667" ry="16.6667" style="stroke:#595959;stroke-width:2.0833333333333335;" width="337.5" x="1800" y="239.5833"/><rect fill="#FFFFFF" height="91.5365" style="stroke:none;stroke-width:2.0833333333333335;" width="83.3333" x="1858.3333" y="277.0833"/><text fill="#3E3F3A" font-family="&quot;Times New Roman&quot;" font-size="50" lengthAdjust="spacing" textLength="16.6667" x="1875" y="340.1611"> </text><text fill="#E63329" font-family="&quot;Times New Roman&quot;" font-size="50" lengthAdjust="spacing" textLength="33.3333" x="1891.6667" y="340.1611">2</text><line style="stroke:#E63329;stroke-width:2.0833333333333335;" x1="1858.3333" x2="1941.6667" y1="277.0833" y2="277.0833"/><line style="stroke:#E63329;stroke-width:2.0833333333333335;" x1="1858.3333" x2="1941.6667" y1="368.6198" y2="368.6198"/><line style="stroke:#E63329;stroke-width:2.0833333333333335;" x1="1858.3333" x2="1858.3333" y1="277.0833" y2="368.6198"/><line style="stroke:#E63329;stroke-width:2.0833333333333335;" x1="1941.6667" x2="1941.6667" y1="277.0833" y2="368.6198"/><text fill="#3E3F3A" font-family="&quot;Times New Roman&quot;" font-size="66.6667" font-weight="bold" lengthAdjust="spacing" textLength="220.8333" x="1858.3333" y="438.8346">Model</text></g><!--MD5=[d973c2b37ab8419d2069e12cca9a9098]
entity fit--><g id="elem_fit"><rect fill="#EEEEEE" height="244.1406" rx="16.6667" ry="16.6667" style="stroke:#595959;stroke-width:2.0833333333333335;" width="208.3333" x="1864.5833" y="631.25"/><rect fill="#FFFFFF" height="91.5365" style="stroke:none;stroke-width:2.0833333333333335;" width="83.3333" x="1922.9167" y="668.75"/><text fill="#3E3F3A" font-family="&quot;Times New Roman&quot;" font-size="50" lengthAdjust="spacing" textLength="16.6667" x="1939.5833" y="731.8278"> </text><text fill="#E63329" font-family="&quot;Times New Roman&quot;" font-size="50" lengthAdjust="spacing" textLength="33.3333" x="1956.25" y="731.8278">3</text><line style="stroke:#E63329;stroke-width:2.0833333333333335;" x1="1922.9167" x2="2006.25" y1="668.75" y2="668.75"/><line style="stroke:#E63329;stroke-width:2.0833333333333335;" x1="1922.9167" x2="2006.25" y1="760.2865" y2="760.2865"/><line style="stroke:#E63329;stroke-width:2.0833333333333335;" x1="1922.9167" x2="1922.9167" y1="668.75" y2="760.2865"/><line style="stroke:#E63329;stroke-width:2.0833333333333335;" x1="2006.25" x2="2006.25" y1="668.75" y2="760.2865"/><text fill="#3E3F3A" font-family="&quot;Times New Roman&quot;" font-size="66.6667" font-weight="bold" lengthAdjust="spacing" textLength="91.6667" x="1922.9167" y="830.5013">Fit</text></g><!--MD5=[2935e10667aef0675bf227d465d6e5f6]
entity save--><g id="elem_save"><rect fill="#EEEEEE" height="244.1406" rx="16.6667" ry="16.6667" style="stroke:#595959;stroke-width:2.0833333333333335;" width="291.6667" x="1822.9167" y="1022.9167"/><rect fill="#FFFFFF" height="91.5365" style="stroke:none;stroke-width:2.0833333333333335;" width="83.3333" x="1881.25" y="1060.4167"/><text fill="#3E3F3A" font-family="&quot;Times New Roman&quot;" font-size="50" lengthAdjust="spacing" textLength="16.6667" x="1897.9167" y="1123.4945"> </text><text fill="#E63329" font-family="&quot;Times New Roman&quot;" font-size="50" lengthAdjust="spacing" textLength="33.3333" x="1914.5833" y="1123.4945">4</text><line style="stroke:#E63329;stroke-width:2.0833333333333335;" x1="1881.25" x2="1964.5833" y1="1060.4167" y2="1060.4167"/><line style="stroke:#E63329;stroke-width:2.0833333333333335;" x1="1881.25" x2="1964.5833" y1="1151.9531" y2="1151.9531"/><line style="stroke:#E63329;stroke-width:2.0833333333333335;" x1="1881.25" x2="1881.25" y1="1060.4167" y2="1151.9531"/><line style="stroke:#E63329;stroke-width:2.0833333333333335;" x1="1964.5833" x2="1964.5833" y1="1060.4167" y2="1151.9531"/><text fill="#3E3F3A" font-family="&quot;Times New Roman&quot;" font-size="66.6667" font-weight="bold" lengthAdjust="spacing" textLength="175" x="1881.25" y="1222.168">Save</text></g><!--MD5=[23f41345cb16d60b4a42399a1ccee03a]
entity generate--><g id="elem_generate"><rect fill="#EEEEEE" height="244.1406" rx="16.6667" ry="16.6667" style="stroke:#595959;stroke-width:2.0833333333333335;" width="462.5" x="1737.5" y="1414.5833"/><rect fill="#FFFFFF" height="91.5365" style="stroke:none;stroke-width:2.0833333333333335;" width="83.3333" x="1795.8333" y="1452.0833"/><text fill="#3E3F3A" font-family="&quot;Times New Roman&quot;" font-size="50" lengthAdjust="spacing" textLength="16.6667" x="1812.5" y="1515.1611"> </text><text fill="#E63329" font-family="&quot;Times New Roman&quot;" font-size="50" lengthAdjust="spacing" textLength="33.3333" x="1829.1667" y="1515.1611">5</text><line style="stroke:#E63329;stroke-width:2.0833333333333335;" x1="1795.8333" x2="1879.1667" y1="1452.0833" y2="1452.0833"/><line style="stroke:#E63329;stroke-width:2.0833333333333335;" x1="1795.8333" x2="1879.1667" y1="1543.6198" y2="1543.6198"/><line style="stroke:#E63329;stroke-width:2.0833333333333335;" x1="1795.8333" x2="1795.8333" y1="1452.0833" y2="1543.6198"/><line style="stroke:#E63329;stroke-width:2.0833333333333335;" x1="1879.1667" x2="1879.1667" y1="1452.0833" y2="1543.6198"/><text fill="#3E3F3A" font-family="&quot;Times New Roman&quot;" font-size="66.6667" font-weight="bold" lengthAdjust="spacing" textLength="345.8333" x="1795.8333" y="1613.8346">Generate</text></g><!--MD5=[19d3c6b5579e3fd0554ee5b7b1f08606]
entity metrics--><g id="elem_metrics"><rect fill="#EEEEEE" height="244.1406" rx="16.6667" ry="16.6667" style="stroke:#595959;stroke-width:2.0833333333333335;" width="487.5" x="1725" y="1806.25"/><rect fill="#FFFFFF" height="91.5365" style="stroke:none;stroke-width:2.0833333333333335;" width="83.3333" x="1783.3333" y="1843.75"/><text fill="#3E3F3A" font-family="&quot;Times New Roman&quot;" font-size="50" lengthAdjust="spacing" textLength="16.6667" x="1800" y="1906.8278"> </text><text fill="#E63329" font-family="&quot;Times New Roman&quot;" font-size="50" lengthAdjust="spacing" textLength="33.3333" x="1816.6667" y="1906.8278">6</text><line style="stroke:#E63329;stroke-width:2.0833333333333335;" x1="1783.3333" x2="1866.6667" y1="1843.75" y2="1843.75"/><line style="stroke:#E63329;stroke-width:2.0833333333333335;" x1="1783.3333" x2="1866.6667" y1="1935.2865" y2="1935.2865"/><line style="stroke:#E63329;stroke-width:2.0833333333333335;" x1="1783.3333" x2="1783.3333" y1="1843.75" y2="1935.2865"/><line style="stroke:#E63329;stroke-width:2.0833333333333335;" x1="1866.6667" x2="1866.6667" y1="1843.75" y2="1935.2865"/><text fill="#3E3F3A" font-family="&quot;Times New Roman&quot;" font-size="66.6667" font-weight="bold" lengthAdjust="spacing" textLength="370.8333" x="1783.3333" y="2005.5013">Evaluation</text></g><!--MD5=[4d1b173158566f6a338d0db0aceebca7]
entity model_pickle--><g id="elem_model_pickle"><rect fill="#EEEEEE" height="213.5417" rx="16.6667" ry="16.6667" style="stroke:#595959;stroke-width:2.0833333333333335;" width="337.5" x="2629.1667" y="1039.5833"/><text fill="#3E3F3A" font-family="&quot;Times New Roman&quot;" font-size="66.6667" font-weight="bold" lengthAdjust="spacing" textLength="220.8333" x="2687.5" y="1130.6315">Model</text><text fill="#3E3F3A" font-family="&quot;Times New Roman&quot;" font-size="66.6667" font-weight="bold" lengthAdjust="spacing" textLength="216.6667" x="2687.5" y="1208.2357">Pickle</text></g><!--MD5=[7ba3f932355951139fa5bcfc8ee662f5]
link rds to create_metadata--><g id="link_rds_create_metadata"><path codeLine="76" d="M899.2083,776.9583 C806.75,751.4167 688.1667,718.7083 583.4583,689.8333 " fill="none" id="rds-to-create_metadata" style="stroke:#E63329;stroke-width:12.5;stroke-dasharray:7.0,7.0;"/><polygon fill="#E63329" points="562.7083,684.125,594.4234,710.1669,582.791,689.6671,603.2908,678.0347,562.7083,684.125" style="stroke:#E63329;stroke-width:12.5;"/></g><!--MD5=[fd4166892e0026ab1a71bc0e28405331]
link create_metadata to meta--><g id="link_create_metadata_meta"><path codeLine="77" d="M562.7083,557.5417 C657.625,531.375 766.625,501.2917 858.2083,476.0417 " fill="none" id="create_metadata-to-meta" style="stroke:#E63329;stroke-width:12.5;"/><polygon fill="#E63329" points="878.6667,470.4167,838.0842,464.3263,858.584,475.9588,846.9516,496.4586,878.6667,470.4167" style="stroke:#E63329;stroke-width:12.5;"/></g><!--MD5=[1e1222bb08f99958ac66874c069da486]
link meta to load--><g id="link_meta_load"><path codeLine="79" d="M1246.2083,409.1667 C1399.875,399.1667 1620.3333,384.875 1776.4167,374.7083 " fill="none" id="meta-to-load" style="stroke:#E63329;stroke-width:12.5;"/><polygon fill="#E63329" points="1798.9583,373.25,1760.4435,359.0854,1778.1701,374.62,1762.6355,392.3466,1798.9583,373.25" style="stroke:#E63329;stroke-width:12.5;"/></g><!--MD5=[cb8717a11a4ed720dc7db8875660bb9b]
reverse link fit to load--><g id="link_fit_load"><path codeLine="81" d="M1968.75,608.8333 C1968.75,567.8333 1968.75,526.875 1968.75,485.9167 " fill="none" id="fit-backto-load" style="stroke:#E63329;stroke-width:12.5;"/><polygon fill="#E63329" points="1968.75,630.25,1985.4167,592.75,1968.75,609.4167,1952.0833,592.75,1968.75,630.25" style="stroke:#E63329;stroke-width:12.5;"/></g><!--MD5=[745e55d4eabda07c4cebe7ece55ea3e5]
link save to model_pickle--><g id="link_save_model_pickle"><path codeLine="83" d="M2138.25,1145.8333 C2273.625,1145.8333 2465.125,1145.8333 2606.2083,1145.8333 " fill="none" id="save-model_pickle" style="stroke:#E63329;stroke-width:12.5;stroke-dasharray:7.0,7.0;"/><polygon fill="#E63329" points="2628.4167,1145.8333,2590.9167,1129.1667,2607.5833,1145.8333,2590.9167,1162.5,2628.4167,1145.8333" style="stroke:#E63329;stroke-width:12.5;"/><polygon fill="#E63329" points="2115.875,1145.8333,2153.375,1162.5,2136.7083,1145.8333,2153.375,1129.1667,2115.875,1145.8333" style="stroke:#E63329;stroke-width:12.5;"/></g><!--MD5=[1b3e8a3a48387cb7801cc286e068e97c]
link rds to fit--><g id="link_rds_fit"><path codeLine="85" d="M1225.125,809.0833 C1401.5,795.9583 1682.625,775.0833 1842.625,763.2083 " fill="none" id="rds-to-fit" style="stroke:#E63329;stroke-width:12.5;stroke-dasharray:7.0,7.0;"/><polygon fill="#E63329" points="1863.4583,761.6667,1824.8238,747.832,1842.6826,763.2144,1827.3002,781.0733,1863.4583,761.6667" style="stroke:#E63329;stroke-width:12.5;"/></g><!--MD5=[a91b154c7feb811fe7cd7687048c7ee6]
reverse link save to fit--><g id="link_save_fit"><path codeLine="87" d="M1968.75,1000.5 C1968.75,959.5 1968.75,918.5417 1968.75,877.5833 " fill="none" id="save-backto-fit" style="stroke:#E63329;stroke-width:12.5;"/><polygon fill="#E63329" points="1968.75,1021.9167,1985.4167,984.4167,1968.75,1001.0833,1952.0833,984.4167,1968.75,1021.9167" style="stroke:#E63329;stroke-width:12.5;"/></g><!--MD5=[6ce88188a22af4249edafcfa237eec83]
reverse link generate to save--><g id="link_generate_save"><path codeLine="89" d="M1968.75,1392.1667 C1968.75,1351.1667 1968.75,1310.2083 1968.75,1269.25 " fill="none" id="generate-backto-save" style="stroke:#E63329;stroke-width:12.5;"/><polygon fill="#E63329" points="1968.75,1413.5833,1985.4167,1376.0833,1968.75,1392.75,1952.0833,1376.0833,1968.75,1413.5833" style="stroke:#E63329;stroke-width:12.5;"/></g><!--MD5=[a890803cb17c3e4841403dc40ac5c590]
reverse link sds to generate--><g id="link_sds_generate"><path codeLine="91" d="M1262.1667,1302.8333 C1401.9583,1349.5 1590.4167,1412.5 1736.9583,1461.4583 " fill="none" id="sds-backto-generate" style="stroke:#E63329;stroke-width:12.5;"/><polygon fill="#E63329" points="1241.9167,1296.0417,1272.1968,1323.739,1261.6749,1302.6476,1282.7663,1292.1257,1241.9167,1296.0417" style="stroke:#E63329;stroke-width:12.5;"/></g><!--MD5=[629c9ed93cf637493db4a2e5a418ff01]
reverse link metrics to generate--><g id="link_metrics_generate"><path codeLine="93" d="M1968.75,1783.8333 C1968.75,1742.8333 1968.75,1701.875 1968.75,1660.9167 " fill="none" id="metrics-backto-generate" style="stroke:#E63329;stroke-width:12.5;"/><polygon fill="#E63329" points="1968.75,1805.25,1985.4167,1767.75,1968.75,1784.4167,1952.0833,1767.75,1968.75,1805.25" style="stroke:#E63329;stroke-width:12.5;"/></g><!--MD5=[9fef065da9ec536da9061c32327d7c13]
reverse link metrics_file to metrics--><g id="link_metrics_file_metrics"><path codeLine="95" d="M1234.875,1668.4167 C1372.9167,1717.75 1570.125,1788.2083 1724.75,1843.4583 " fill="none" id="metrics_file-backto-metrics" style="stroke:#E63329;stroke-width:12.5;"/><polygon fill="#E63329" points="1214.9583,1661.2917,1244.7332,1689.5314,1234.5941,1668.2534,1255.872,1658.1142,1214.9583,1661.2917" style="stroke:#E63329;stroke-width:12.5;"/></g><!--MD5=[2106c634a556335f9b7bb242e4e2adc2]
reverse link DCR_file to metrics--><g id="link_DCR_file_metrics"><path codeLine="97" d="M1194.5,1929.1667 C1331.75,1929.1667 1553,1929.1667 1723.25,1929.1667 " fill="none" id="DCR_file-backto-metrics" style="stroke:#E63329;stroke-width:12.5;"/><polygon fill="#E63329" points="1173.2083,1929.1667,1210.7083,1945.8333,1194.0417,1929.1667,1210.7083,1912.5,1173.2083,1929.1667" style="stroke:#E63329;stroke-width:12.5;"/></g></g></svg>