<?xml version="1.0" encoding="UTF-8" standalone="no"?><svg xmlns="http://www.w3.org/2000/svg" xmlns:xlink="http://www.w3.org/1999/xlink" contentStyleType="text/css" height="1400px" preserveAspectRatio="none" style="width:2470px;height:1400px;background:#00000000;" version="1.1" viewBox="0 0 2470 1400" width="2470.8333px" zoomAndPan="magnify"><defs/><g><!--MD5=[affbe5d60e3d5c0705c39255169bfbf4]
cluster pr--><g id="cluster_pr"><rect fill="#8E8C84" height="600" rx="16.6667" ry="16.6667" style="stroke:#004B93;stroke-width:8.333333333333334;" width="600" x="29.1667" y="208.3333"/><text fill="#FFFFFF" font-family="&quot;Times New Roman&quot;" font-size="83.3333" font-weight="bold" lengthAdjust="spacing" textLength="370.8333" x="143.75" y="310.6852">Process</text></g><!--MD5=[27081f92bbbb32f9ba8a449ff0a4771e]
cluster Documents--><g id="cluster_Documents"><rect fill="#8E8C84" height="1345.8333" rx="16.6667" ry="16.6667" style="stroke:#004B93;stroke-width:8.333333333333334;" width="633.3333" x="745.8333" y="29.1667"/><text fill="#FFFFFF" font-family="&quot;Times New Roman&quot;" font-size="83.3333" font-weight="bold" lengthAdjust="spacing" textLength="533.3333" x="795.8333" y="131.5186">Documents</text></g><!--MD5=[a01586d04684a198c6d1df3fec93e6c1]
cluster Synthetic Process--><g id="cluster_Synthetic Process"><rect fill="#8E8C84" height="1308.3333" rx="16.6667" ry="16.6667" style="stroke:#004B93;stroke-width:8.333333333333334;" width="950" x="1495.8333" y="29.1667"/><text fill="#FFFFFF" font-family="&quot;Times New Roman&quot;" font-size="83.3333" font-weight="bold" lengthAdjust="spacing" textLength="850" x="1545.8333" y="131.5186">Synthetic Process</text></g><!--MD5=[69aa57ba14ab28edd9b349204e745a26]
entity create_metadata--><g id="elem_create_metadata"><rect fill="#EEEEEE" height="321.7448" rx="16.6667" ry="16.6667" style="stroke:#595959;stroke-width:2.0833333333333335;" width="466.6667" x="95.8333" y="418.75"/><rect fill="#FFFFFF" height="91.5365" style="stroke:none;stroke-width:2.0833333333333335;" width="83.3333" x="154.1667" y="456.25"/><text fill="#3E3F3A" font-family="&quot;Times New Roman&quot;" font-size="50" lengthAdjust="spacing" textLength="16.6667" x="170.8333" y="519.3278"> </text><text fill="#E63329" font-family="&quot;Times New Roman&quot;" font-size="50" lengthAdjust="spacing" textLength="33.3333" x="187.5" y="519.3278">1</text><line style="stroke:#E63329;stroke-width:2.0833333333333335;" x1="154.1667" x2="237.5" y1="456.25" y2="456.25"/><line style="stroke:#E63329;stroke-width:2.0833333333333335;" x1="154.1667" x2="237.5" y1="547.7865" y2="547.7865"/><line style="stroke:#E63329;stroke-width:2.0833333333333335;" x1="154.1667" x2="154.1667" y1="456.25" y2="547.7865"/><line style="stroke:#E63329;stroke-width:2.0833333333333335;" x1="237.5" x2="237.5" y1="456.25" y2="547.7865"/><text fill="#3E3F3A" font-family="&quot;Times New Roman&quot;" font-size="66.6667" font-weight="bold" lengthAdjust="spacing" textLength="250" x="154.1667" y="618.0013">Create</text><text fill="#3E3F3A" font-family="&quot;Times New Roman&quot;" font-size="66.6667" font-weight="bold" lengthAdjust="spacing" textLength="350" x="154.1667" y="695.6055">Metadata</text></g><!--MD5=[78922e3f719f32bf869a7a66bdadb0f4]
entity rds--><g id="elem_rds"><path d="M900,660.4167 C900,618.75 1062.5,618.75 1062.5,618.75 C1062.5,618.75 1225,618.75 1225,660.4167 L1225,847.6563 C1225,889.3229 1062.5,889.3229 1062.5,889.3229 C1062.5,889.3229 900,889.3229 900,847.6563 L900,660.4167 " fill="#004B93" style="stroke:#004B93;stroke-width:2.0833333333333335;"/><path d="M900,660.4167 C900,702.0833 1062.5,702.0833 1062.5,702.0833 C1062.5,702.0833 1225,702.0833 1225,660.4167 " fill="none" style="stroke:#004B93;stroke-width:2.0833333333333335;"/><text fill="#FFFFFF" font-family="&quot;Times New Roman&quot;" font-size="50" lengthAdjust="spacing" textLength="112.5" x="958.3333" y="781.8278">Real</text><text fill="#FFFFFF" font-family="&quot;Times New Roman&quot;" font-size="50" lengthAdjust="spacing" textLength="208.3333" x="958.3333" y="840.0309">Dataset</text></g><!--MD5=[c12a1600b6b75d8e137ee7341d68ba4c]
entity meta--><g id="elem_meta"><path d="M879.1667,254.1667 L879.1667,453.9063 A16.6667,16.6667 0 0 0 895.8333,470.5729 L1229.1667,470.5729 A16.6667,16.6667 0 0 0 1245.8333,453.9063 L1245.8333,279.1667 L1204.1667,237.5 L895.8333,237.5 A16.6667,16.6667 0 0 0 879.1667,254.1667 " fill="#807E77" style="stroke:#F8F5F0;stroke-width:2.0833333333333335;"/><path d="M1204.1667,237.5 L1204.1667,262.5 A16.6667,16.6667 0 0 0 1220.8333,279.1667 L1245.8333,279.1667 " fill="#807E77" style="stroke:#F8F5F0;stroke-width:2.0833333333333335;"/><text fill="#F8F5F0" font-family="&quot;Times New Roman&quot;" font-size="50" lengthAdjust="spacing" textLength="141.6667" x="937.5" y="342.2445">Table</text><text fill="#F8F5F0" font-family="&quot;Times New Roman&quot;" font-size="50" lengthAdjust="spacing" textLength="250" x="937.5" y="400.4476">Metadata</text></g><!--MD5=[edc1f9cb25e6e08ed2994c2734d493b3]
entity sds--><g id="elem_sds"><path d="M883.3333,1077.0833 C883.3333,1035.4167 1062.5,1035.4167 1062.5,1035.4167 C1062.5,1035.4167 1241.6667,1035.4167 1241.6667,1077.0833 L1241.6667,1264.3229 C1241.6667,1305.9896 1062.5,1305.9896 1062.5,1305.9896 C1062.5,1305.9896 883.3333,1305.9896 883.3333,1264.3229 L883.3333,1077.0833 " fill="#004B93" style="stroke:#004B93;stroke-width:2.0833333333333335;"/><path d="M883.3333,1077.0833 C883.3333,1118.75 1062.5,1118.75 1062.5,1118.75 C1062.5,1118.75 1241.6667,1118.75 1241.6667,1077.0833 " fill="none" style="stroke:#004B93;stroke-width:2.0833333333333335;"/><text fill="#FFFFFF" font-family="&quot;Times New Roman&quot;" font-size="50" lengthAdjust="spacing" textLength="241.6667" x="941.6667" y="1198.4945">Synthetic</text><text fill="#FFFFFF" font-family="&quot;Times New Roman&quot;" font-size="50" lengthAdjust="spacing" textLength="208.3333" x="941.6667" y="1256.6976">Dataset</text></g><!--MD5=[d973c2b37ab8419d2069e12cca9a9098]
entity fit--><g id="elem_fit"><rect fill="#EEEEEE" height="244.1406" rx="16.6667" ry="16.6667" style="stroke:#595959;stroke-width:2.0833333333333335;" width="208.3333" x="1864.5833" y="631.25"/><rect fill="#FFFFFF" height="91.5365" style="stroke:none;stroke-width:2.0833333333333335;" width="83.3333" x="1922.9167" y="668.75"/><text fill="#3E3F3A" font-family="&quot;Times New Roman&quot;" font-size="50" lengthAdjust="spacing" textLength="16.6667" x="1939.5833" y="731.8278"> </text><text fill="#E63329" font-family="&quot;Times New Roman&quot;" font-size="50" lengthAdjust="spacing" textLength="33.3333" x="1956.25" y="731.8278">3</text><line style="stroke:#E63329;stroke-width:2.0833333333333335;" x1="1922.9167" x2="2006.25" y1="668.75" y2="668.75"/><line style="stroke:#E63329;stroke-width:2.0833333333333335;" x1="1922.9167" x2="2006.25" y1="760.2865" y2="760.2865"/><line style="stroke:#E63329;stroke-width:2.0833333333333335;" x1="1922.9167" x2="1922.9167" y1="668.75" y2="760.2865"/><line style="stroke:#E63329;stroke-width:2.0833333333333335;" x1="2006.25" x2="2006.25" y1="668.75" y2="760.2865"/><text fill="#3E3F3A" font-family="&quot;Times New Roman&quot;" font-size="66.6667" font-weight="bold" lengthAdjust="spacing" textLength="91.6667" x="1922.9167" y="830.5013">Fit</text></g><!--MD5=[6fa1cc94bec0cf5ab264efe33d75d3c3]
entity load--><g id="elem_load"><rect fill="#EEEEEE" height="244.1406" rx="16.6667" ry="16.6667" style="stroke:#595959;stroke-width:2.0833333333333335;" width="337.5" x="1800" y="239.5833"/><rect fill="#FFFFFF" height="91.5365" style="stroke:none;stroke-width:2.0833333333333335;" width="83.3333" x="1858.3333" y="277.0833"/><text fill="#3E3F3A" font-family="&quot;Times New Roman&quot;" font-size="50" lengthAdjust="spacing" textLength="16.6667" x="1875" y="340.1611"> </text><text fill="#E63329" font-family="&quot;Times New Roman&quot;" font-size="50" lengthAdjust="spacing" textLength="33.3333" x="1891.6667" y="340.1611">2</text><line style="stroke:#E63329;stroke-width:2.0833333333333335;" x1="1858.3333" x2="1941.6667" y1="277.0833" y2="277.0833"/><line style="stroke:#E63329;stroke-width:2.0833333333333335;" x1="1858.3333" x2="1941.6667" y1="368.6198" y2="368.6198"/><line style="stroke:#E63329;stroke-width:2.0833333333333335;" x1="1858.3333" x2="1858.3333" y1="277.0833" y2="368.6198"/><line style="stroke:#E63329;stroke-width:2.0833333333333335;" x1="1941.6667" x2="1941.6667" y1="277.0833" y2="368.6198"/><text fill="#3E3F3A" font-family="&quot;Times New Roman&quot;" font-size="66.6667" font-weight="bold" lengthAdjust="spacing" textLength="220.8333" x="1858.3333" y="438.8346">Model</text></g><!--MD5=[23f41345cb16d60b4a42399a1ccee03a]
entity generate--><g id="elem_generate"><rect fill="#EEEEEE" height="244.1406" rx="16.6667" ry="16.6667" style="stroke:#595959;stroke-width:2.0833333333333335;" width="462.5" x="1737.5" y="1022.9167"/><rect fill="#FFFFFF" height="91.5365" style="stroke:none;stroke-width:2.0833333333333335;" width="83.3333" x="1795.8333" y="1060.4167"/><text fill="#3E3F3A" font-family="&quot;Times New Roman&quot;" font-size="50" lengthAdjust="spacing" textLength="16.6667" x="1812.5" y="1123.4945"> </text><text fill="#E63329" font-family="&quot;Times New Roman&quot;" font-size="50" lengthAdjust="spacing" textLength="33.3333" x="1829.1667" y="1123.4945">4</text><line style="stroke:#E63329;stroke-width:2.0833333333333335;" x1="1795.8333" x2="1879.1667" y1="1060.4167" y2="1060.4167"/><line style="stroke:#E63329;stroke-width:2.0833333333333335;" x1="1795.8333" x2="1879.1667" y1="1151.9531" y2="1151.9531"/><line style="stroke:#E63329;stroke-width:2.0833333333333335;" x1="1795.8333" x2="1795.8333" y1="1060.4167" y2="1151.9531"/><line style="stroke:#E63329;stroke-width:2.0833333333333335;" x1="1879.1667" x2="1879.1667" y1="1060.4167" y2="1151.9531"/><text fill="#3E3F3A" font-family="&quot;Times New Roman&quot;" font-size="66.6667" font-weight="bold" lengthAdjust="spacing" textLength="345.8333" x="1795.8333" y="1222.168">Generate</text></g><!--MD5=[7ba3f932355951139fa5bcfc8ee662f5]
link rds to create_metadata--><g id="link_rds_create_metadata"><path codeLine="48" d="M899.2083,715.75 C806.75,693.4583 688.1667,664.8333 583.4583,639.5417 " fill="none" id="rds-to-create_metadata" style="stroke:#E63329;stroke-width:12.5;stroke-dasharray:7.0,7.0;"/><polygon fill="#E63329" points="562.7083,634.5417,595.186,659.6261,582.9473,639.4824,603.0911,627.2437,562.7083,634.5417" style="stroke:#E63329;stroke-width:12.5;"/></g><!--MD5=[fd4166892e0026ab1a71bc0e28405331]
link create_metadata to meta--><g id="link_create_metadata_meta"><path codeLine="49" d="M562.7083,507.9583 C657.625,478.5417 766.625,444.7083 858.2083,416.2917 " fill="none" id="create_metadata-to-meta" style="stroke:#E63329;stroke-width:12.5;"/><polygon fill="#E63329" points="878.6667,409.9167,837.9113,405.1177,858.7701,416.0935,847.7943,436.9523,878.6667,409.9167" style="stroke:#E63329;stroke-width:12.5;"/></g><!--MD5=[1e1222bb08f99958ac66874c069da486]
link meta to load--><g id="link_meta_load"><path codeLine="51" d="M1246.2083,355.8333 C1399.875,357.25 1620.3333,359.2917 1776.4167,360.75 " fill="none" id="meta-to-load" style="stroke:#E63329;stroke-width:12.5;"/><polygon fill="#E63329" points="1798.9583,360.9583,1761.6026,343.9709,1778.1258,360.7798,1761.3169,377.303,1798.9583,360.9583" style="stroke:#E63329;stroke-width:12.5;"/></g><!--MD5=[cb8717a11a4ed720dc7db8875660bb9b]
reverse link fit to load--><g id="link_fit_load"><path codeLine="53" d="M1968.75,608.8333 C1968.75,567.8333 1968.75,526.875 1968.75,485.9167 " fill="none" id="fit-backto-load" style="stroke:#E63329;stroke-width:12.5;"/><polygon fill="#E63329" points="1968.75,630.25,1985.4167,592.75,1968.75,609.4167,1952.0833,592.75,1968.75,630.25" style="stroke:#E63329;stroke-width:12.5;"/></g><!--MD5=[1b3e8a3a48387cb7801cc286e068e97c]
link rds to fit--><g id="link_rds_fit"><path codeLine="55" d="M1225.125,754.1667 C1400.75,754.1667 1680.3333,754.1667 1840.6667,754.1667 " fill="none" id="rds-to-fit" style="stroke:#E63329;stroke-width:12.5;stroke-dasharray:7.0,7.0;"/><polygon fill="#E63329" points="1863.4583,754.1667,1825.9583,737.5,1842.625,754.1667,1825.9583,770.8333,1863.4583,754.1667" style="stroke:#E63329;stroke-width:12.5;"/></g><!--MD5=[ec6041469668cac95f05f55f7d11669e]
reverse link generate to fit--><g id="link_generate_fit"><path codeLine="57" d="M1968.75,1000.5 C1968.75,959.5 1968.75,918.5417 1968.75,877.5833 " fill="none" id="generate-backto-fit" style="stroke:#E63329;stroke-width:12.5;"/><polygon fill="#E63329" points="1968.75,1021.9167,1985.4167,984.4167,1968.75,1001.0833,1952.0833,984.4167,1968.75,1021.9167" style="stroke:#E63329;stroke-width:12.5;"/></g><!--MD5=[a890803cb17c3e4841403dc40ac5c590]
reverse link sds to generate--><g id="link_sds_generate"><path codeLine="59" d="M1263.9167,1165.3333 C1403.5,1161.4583 1591.0417,1156.25 1736.9583,1152.1667 " fill="none" id="sds-backto-generate" style="stroke:#E63329;stroke-width:12.5;"/><polygon fill="#E63329" points="1241.9167,1165.9583,1279.8774,1181.5472,1262.7415,1165.3633,1278.9254,1148.2275,1241.9167,1165.9583" style="stroke:#E63329;stroke-width:12.5;"/></g></g></svg>