<?xml version="1.0" encoding="UTF-8" standalone="no"?><svg xmlns="http://www.w3.org/2000/svg" xmlns:xlink="http://www.w3.org/1999/xlink" contentStyleType="text/css" height="2104.1667px" preserveAspectRatio="none" style="width:2604px;height:2104px;" version="1.1" viewBox="0 0 2604 2104" width="2604.1667px" zoomAndPan="magnify"><defs/><g><!--cluster pr--><g id="cluster_pr"><rect fill="#8E8C84" height="558.3333" rx="16.6667" ry="16.6667" style="stroke:#004B93;stroke-width:8.333333333333334;" width="600" x="29.1667" y="250"/><text fill="#FFFFFF" font-family="Times New Roman" font-size="50" font-weight="bold" lengthAdjust="spacing" textLength="233.3333" x="212.5" y="321.4111">Process</text></g><!--cluster Documents--><g id="cluster_Documents"><rect fill="#8E8C84" height="1945.8333" rx="16.6667" ry="16.6667" style="stroke:#004B93;stroke-width:8.333333333333334;" width="500" x="745.8333" y="95.8333"/><text fill="#FFFFFF" font-family="Times New Roman" font-size="50" font-weight="bold" lengthAdjust="spacing" textLength="329.1667" x="831.25" y="167.2445">Documents</text></g><!--cluster Synthetic Process--><g id="cluster_Synthetic Process"><rect fill="#8E8C84" height="2050" rx="16.6667" ry="16.6667" style="stroke:#004B93;stroke-width:8.333333333333334;" width="629.1667" x="1362.5" y="29.1667"/><text fill="#FFFFFF" font-family="Times New Roman" font-size="50" font-weight="bold" lengthAdjust="spacing" textLength="529.1667" x="1412.5" y="100.5778">Synthetic Process</text></g><!--cluster Cache--><g id="cluster_Cache"><rect fill="#8E8C84" height="450" rx="16.6667" ry="16.6667" style="stroke:#004B93;stroke-width:8.333333333333334;" width="470.8333" x="2108.3333" y="829.1667"/><text fill="#FFFFFF" font-family="Times New Roman" font-size="50" font-weight="bold" lengthAdjust="spacing" textLength="179.1667" x="2254.1667" y="900.5778">Cache</text></g><!--entity create_metadata--><g id="elem_create_metadata"><rect fill="#EEEEEE" height="321.7448" rx="16.6667" ry="16.6667" style="stroke:#595959;stroke-width:4.166666666666667;" width="466.6667" x="95.8333" y="418.75"/><rect fill="#FFFFFF" height="91.5365" style="stroke:none;stroke-width:4.166666666666667;" width="83.3333" x="154.1667" y="456.25"/><text fill="#3E3F3A" font-family="Times New Roman" font-size="50" lengthAdjust="spacing" textLength="16.6667" x="170.8333" y="519.3278"> </text><text fill="#E63329" font-family="Times New Roman" font-size="50" lengthAdjust="spacing" textLength="33.3333" x="187.5" y="519.3278">1</text><line style="stroke:#E63329;stroke-width:4.166666666666667;" x1="154.1667" x2="237.5" y1="456.25" y2="456.25"/><line style="stroke:#E63329;stroke-width:4.166666666666667;" x1="154.1667" x2="237.5" y1="547.7865" y2="547.7865"/><line style="stroke:#E63329;stroke-width:4.166666666666667;" x1="154.1667" x2="154.1667" y1="456.25" y2="547.7865"/><line style="stroke:#E63329;stroke-width:4.166666666666667;" x1="237.5" x2="237.5" y1="456.25" y2="547.7865"/><text fill="#3E3F3A" font-family="Times New Roman" font-size="66.6667" font-weight="bold" lengthAdjust="spacing" textLength="250" x="154.1667" y="618.0013">Create</text><text fill="#3E3F3A" font-family="Times New Roman" font-size="66.6667" font-weight="bold" lengthAdjust="spacing" textLength="350" x="154.1667" y="695.6055">Metadata</text></g><!--entity meta--><g id="elem_meta"><path d="M812.5,279.1667 L812.5,478.9063 A16.6667,16.6667 0 0 0 829.1667,495.5729 L1162.5,495.5729 A16.6667,16.6667 0 0 0 1179.1667,478.9063 L1179.1667,304.1667 L1137.5,262.5 L829.1667,262.5 A16.6667,16.6667 0 0 0 812.5,279.1667 " fill="#807E77" style="stroke:#F8F5F0;stroke-width:4.166666666666667;"/><path d="M1137.5,262.5 L1137.5,287.5 A16.6667,16.6667 0 0 0 1154.1667,304.1667 L1179.1667,304.1667 " fill="#807E77" style="stroke:#F8F5F0;stroke-width:4.166666666666667;"/><text fill="#F8F5F0" font-family="Times New Roman" font-size="50" lengthAdjust="spacing" textLength="141.6667" x="870.8333" y="367.2445">Table</text><text fill="#F8F5F0" font-family="Times New Roman" font-size="50" lengthAdjust="spacing" textLength="250" x="870.8333" y="425.4476">Metadata</text></g><!--entity rds--><g id="elem_rds"><path d="M833.3333,685.4167 C833.3333,643.75 995.8333,643.75 995.8333,643.75 C995.8333,643.75 1158.3333,643.75 1158.3333,685.4167 L1158.3333,872.6563 C1158.3333,914.3229 995.8333,914.3229 995.8333,914.3229 C995.8333,914.3229 833.3333,914.3229 833.3333,872.6563 L833.3333,685.4167 " fill="#004B93" style="stroke:#004B93;stroke-width:4.166666666666667;"/><path d="M833.3333,685.4167 C833.3333,727.0833 995.8333,727.0833 995.8333,727.0833 C995.8333,727.0833 1158.3333,727.0833 1158.3333,685.4167 " fill="none" style="stroke:#004B93;stroke-width:4.166666666666667;"/><text fill="#FFFFFF" font-family="Times New Roman" font-size="50" lengthAdjust="spacing" textLength="112.5" x="891.6667" y="806.8278">Real</text><text fill="#FFFFFF" font-family="Times New Roman" font-size="50" lengthAdjust="spacing" textLength="208.3333" x="891.6667" y="865.0309">Dataset</text></g><!--entity sds--><g id="elem_sds"><path d="M816.6667,1102.0833 C816.6667,1060.4167 995.8333,1060.4167 995.8333,1060.4167 C995.8333,1060.4167 1175,1060.4167 1175,1102.0833 L1175,1289.3229 C1175,1330.9896 995.8333,1330.9896 995.8333,1330.9896 C995.8333,1330.9896 816.6667,1330.9896 816.6667,1289.3229 L816.6667,1102.0833 " fill="#004B93" style="stroke:#004B93;stroke-width:4.166666666666667;"/><path d="M816.6667,1102.0833 C816.6667,1143.75 995.8333,1143.75 995.8333,1143.75 C995.8333,1143.75 1175,1143.75 1175,1102.0833 " fill="none" style="stroke:#004B93;stroke-width:4.166666666666667;"/><text fill="#FFFFFF" font-family="Times New Roman" font-size="50" lengthAdjust="spacing" textLength="241.6667" x="875" y="1223.4945">Synthetic</text><text fill="#FFFFFF" font-family="Times New Roman" font-size="50" lengthAdjust="spacing" textLength="208.3333" x="875" y="1281.6976">Dataset</text></g><!--entity metrics_file--><g id="elem_metrics_file"><path d="M843.75,1495.8333 L843.75,1637.3698 A16.6667,16.6667 0 0 0 860.4167,1654.0365 L1131.25,1654.0365 A16.6667,16.6667 0 0 0 1147.9167,1637.3698 L1147.9167,1520.8333 L1106.25,1479.1667 L860.4167,1479.1667 A16.6667,16.6667 0 0 0 843.75,1495.8333 " fill="#807E77" style="stroke:#F8F5F0;stroke-width:4.166666666666667;"/><path d="M1106.25,1479.1667 L1106.25,1504.1667 A16.6667,16.6667 0 0 0 1122.9167,1520.8333 L1147.9167,1520.8333 " fill="#807E77" style="stroke:#F8F5F0;stroke-width:4.166666666666667;"/><text fill="#F8F5F0" font-family="Times New Roman" font-size="50" lengthAdjust="spacing" textLength="187.5" x="902.0833" y="1583.9111">Metrics</text></g><!--entity DCR_file--><g id="elem_DCR_file"><path d="M885.4167,1816.6667 L885.4167,1958.2031 A16.6667,16.6667 0 0 0 902.0833,1974.8698 L1089.5833,1974.8698 A16.6667,16.6667 0 0 0 1106.25,1958.2031 L1106.25,1841.6667 L1064.5833,1800 L902.0833,1800 A16.6667,16.6667 0 0 0 885.4167,1816.6667 " fill="#807E77" style="stroke:#F8F5F0;stroke-width:4.166666666666667;"/><path d="M1064.5833,1800 L1064.5833,1825 A16.6667,16.6667 0 0 0 1081.25,1841.6667 L1106.25,1841.6667 " fill="#807E77" style="stroke:#F8F5F0;stroke-width:4.166666666666667;"/><text fill="#F8F5F0" font-family="Times New Roman" font-size="50" lengthAdjust="spacing" textLength="104.1667" x="943.75" y="1904.7445">DCR</text></g><!--entity load--><g id="elem_load"><rect fill="#EEEEEE" height="244.1406" rx="16.6667" ry="16.6667" style="stroke:#595959;stroke-width:4.166666666666667;" width="337.5" x="1508.3333" y="197.9167"/><rect fill="#FFFFFF" height="91.5365" style="stroke:none;stroke-width:4.166666666666667;" width="83.3333" x="1566.6667" y="235.4167"/><text fill="#3E3F3A" font-family="Times New Roman" font-size="50" lengthAdjust="spacing" textLength="16.6667" x="1583.3333" y="298.4945"> </text><text fill="#E63329" font-family="Times New Roman" font-size="50" lengthAdjust="spacing" textLength="33.3333" x="1600" y="298.4945">2</text><line style="stroke:#E63329;stroke-width:4.166666666666667;" x1="1566.6667" x2="1650" y1="235.4167" y2="235.4167"/><line style="stroke:#E63329;stroke-width:4.166666666666667;" x1="1566.6667" x2="1650" y1="326.9531" y2="326.9531"/><line style="stroke:#E63329;stroke-width:4.166666666666667;" x1="1566.6667" x2="1566.6667" y1="235.4167" y2="326.9531"/><line style="stroke:#E63329;stroke-width:4.166666666666667;" x1="1650" x2="1650" y1="235.4167" y2="326.9531"/><text fill="#3E3F3A" font-family="Times New Roman" font-size="66.6667" font-weight="bold" lengthAdjust="spacing" textLength="220.8333" x="1566.6667" y="397.168">Model</text></g><!--entity fit--><g id="elem_fit"><rect fill="#EEEEEE" height="244.1406" rx="16.6667" ry="16.6667" style="stroke:#595959;stroke-width:4.166666666666667;" width="208.3333" x="1572.9167" y="589.5833"/><rect fill="#FFFFFF" height="91.5365" style="stroke:none;stroke-width:4.166666666666667;" width="83.3333" x="1631.25" y="627.0833"/><text fill="#3E3F3A" font-family="Times New Roman" font-size="50" lengthAdjust="spacing" textLength="16.6667" x="1647.9167" y="690.1611"> </text><text fill="#E63329" font-family="Times New Roman" font-size="50" lengthAdjust="spacing" textLength="33.3333" x="1664.5833" y="690.1611">3</text><line style="stroke:#E63329;stroke-width:4.166666666666667;" x1="1631.25" x2="1714.5833" y1="627.0833" y2="627.0833"/><line style="stroke:#E63329;stroke-width:4.166666666666667;" x1="1631.25" x2="1714.5833" y1="718.6198" y2="718.6198"/><line style="stroke:#E63329;stroke-width:4.166666666666667;" x1="1631.25" x2="1631.25" y1="627.0833" y2="718.6198"/><line style="stroke:#E63329;stroke-width:4.166666666666667;" x1="1714.5833" x2="1714.5833" y1="627.0833" y2="718.6198"/><text fill="#3E3F3A" font-family="Times New Roman" font-size="66.6667" font-weight="bold" lengthAdjust="spacing" textLength="91.6667" x="1631.25" y="788.8346">Fit</text></g><!--entity save--><g id="elem_save"><rect fill="#EEEEEE" height="244.1406" rx="16.6667" ry="16.6667" style="stroke:#595959;stroke-width:4.166666666666667;" width="291.6667" x="1531.25" y="981.25"/><rect fill="#FFFFFF" height="91.5365" style="stroke:none;stroke-width:4.166666666666667;" width="83.3333" x="1589.5833" y="1018.75"/><text fill="#3E3F3A" font-family="Times New Roman" font-size="50" lengthAdjust="spacing" textLength="16.6667" x="1606.25" y="1081.8278"> </text><text fill="#E63329" font-family="Times New Roman" font-size="50" lengthAdjust="spacing" textLength="33.3333" x="1622.9167" y="1081.8278">4</text><line style="stroke:#E63329;stroke-width:4.166666666666667;" x1="1589.5833" x2="1672.9167" y1="1018.75" y2="1018.75"/><line style="stroke:#E63329;stroke-width:4.166666666666667;" x1="1589.5833" x2="1672.9167" y1="1110.2865" y2="1110.2865"/><line style="stroke:#E63329;stroke-width:4.166666666666667;" x1="1589.5833" x2="1589.5833" y1="1018.75" y2="1110.2865"/><line style="stroke:#E63329;stroke-width:4.166666666666667;" x1="1672.9167" x2="1672.9167" y1="1018.75" y2="1110.2865"/><text fill="#3E3F3A" font-family="Times New Roman" font-size="66.6667" font-weight="bold" lengthAdjust="spacing" textLength="175" x="1589.5833" y="1180.5013">Save</text></g><!--entity generate--><g id="elem_generate"><rect fill="#EEEEEE" height="244.1406" rx="16.6667" ry="16.6667" style="stroke:#595959;stroke-width:4.166666666666667;" width="462.5" x="1445.8333" y="1372.9167"/><rect fill="#FFFFFF" height="91.5365" style="stroke:none;stroke-width:4.166666666666667;" width="83.3333" x="1504.1667" y="1410.4167"/><text fill="#3E3F3A" font-family="Times New Roman" font-size="50" lengthAdjust="spacing" textLength="16.6667" x="1520.8333" y="1473.4945"> </text><text fill="#E63329" font-family="Times New Roman" font-size="50" lengthAdjust="spacing" textLength="33.3333" x="1537.5" y="1473.4945">5</text><line style="stroke:#E63329;stroke-width:4.166666666666667;" x1="1504.1667" x2="1587.5" y1="1410.4167" y2="1410.4167"/><line style="stroke:#E63329;stroke-width:4.166666666666667;" x1="1504.1667" x2="1587.5" y1="1501.9531" y2="1501.9531"/><line style="stroke:#E63329;stroke-width:4.166666666666667;" x1="1504.1667" x2="1504.1667" y1="1410.4167" y2="1501.9531"/><line style="stroke:#E63329;stroke-width:4.166666666666667;" x1="1587.5" x2="1587.5" y1="1410.4167" y2="1501.9531"/><text fill="#3E3F3A" font-family="Times New Roman" font-size="66.6667" font-weight="bold" lengthAdjust="spacing" textLength="345.8333" x="1504.1667" y="1572.168">Generate</text></g><!--entity metrics--><g id="elem_metrics"><rect fill="#EEEEEE" height="244.1406" rx="16.6667" ry="16.6667" style="stroke:#595959;stroke-width:4.166666666666667;" width="487.5" x="1433.3333" y="1764.5833"/><rect fill="#FFFFFF" height="91.5365" style="stroke:none;stroke-width:4.166666666666667;" width="83.3333" x="1491.6667" y="1802.0833"/><text fill="#3E3F3A" font-family="Times New Roman" font-size="50" lengthAdjust="spacing" textLength="16.6667" x="1508.3333" y="1865.1611"> </text><text fill="#E63329" font-family="Times New Roman" font-size="50" lengthAdjust="spacing" textLength="33.3333" x="1525" y="1865.1611">6</text><line style="stroke:#E63329;stroke-width:4.166666666666667;" x1="1491.6667" x2="1575" y1="1802.0833" y2="1802.0833"/><line style="stroke:#E63329;stroke-width:4.166666666666667;" x1="1491.6667" x2="1575" y1="1893.6198" y2="1893.6198"/><line style="stroke:#E63329;stroke-width:4.166666666666667;" x1="1491.6667" x2="1491.6667" y1="1802.0833" y2="1893.6198"/><line style="stroke:#E63329;stroke-width:4.166666666666667;" x1="1575" x2="1575" y1="1802.0833" y2="1893.6198"/><text fill="#3E3F3A" font-family="Times New Roman" font-size="66.6667" font-weight="bold" lengthAdjust="spacing" textLength="370.8333" x="1491.6667" y="1963.8346">Evaluation</text></g><!--entity model_pickle--><g id="elem_model_pickle"><rect fill="#EEEEEE" height="213.5417" rx="16.6667" ry="16.6667" style="stroke:#595959;stroke-width:4.166666666666667;" width="337.5" x="2175" y="997.9167"/><text fill="#3E3F3A" font-family="Times New Roman" font-size="66.6667" font-weight="bold" lengthAdjust="spacing" textLength="220.8333" x="2233.3333" y="1088.9648">Model</text><text fill="#3E3F3A" font-family="Times New Roman" font-size="66.6667" font-weight="bold" lengthAdjust="spacing" textLength="216.6667" x="2233.3333" y="1166.569">Pickle</text></g><!--link rds to create_metadata--><g id="link_rds_create_metadata"><path codeLine="76" d="M832.9167,730.9583 C758.2083,708.25 667.25,680.625 583.5833,655.1667 " fill="none" id="rds-to-create_metadata" style="stroke:#E63329;stroke-width:12.5;stroke-dasharray:7.0,7.0;"/><polygon fill="#E63329" points="563.5833,649.125,594.6761,675.9069,583.5298,655.1387,604.298,643.9925,563.5833,649.125" style="stroke:#E63329;stroke-width:12.5;"/></g><!--link create_metadata to meta--><g id="link_create_metadata_meta"><path codeLine="77" d="M563.5833,509.2083 C638.1667,486.5833 720.1667,461.625 792.2917,439.75 " fill="none" id="create_metadata-to-meta" style="stroke:#E63329;stroke-width:12.5;"/><polygon fill="#E63329" points="812.375,433.625,771.6603,428.4925,792.4285,439.6387,781.2823,460.4069,812.375,433.625" style="stroke:#E63329;stroke-width:12.5;"/></g><!--link meta to load--><g id="link_meta_load"><path codeLine="79" d="M1180.3333,363.5417 C1275.1667,355.3333 1391.25,345.25 1486.9167,336.9583 " fill="none" id="meta-to-load" style="stroke:#E63329;stroke-width:12.5;"/><polygon fill="#E63329" points="1508.25,335.125,1469.4225,321.8416,1487.4984,336.9683,1472.3717,355.0442,1508.25,335.125" style="stroke:#E63329;stroke-width:12.5;"/></g><!--reverse link fit to load--><g id="link_fit_load"><path codeLine="81" d="M1677.0833,567.1667 C1677.0833,526.1667 1677.0833,485.2083 1677.0833,444.25 " fill="none" id="fit-backto-load" style="stroke:#E63329;stroke-width:12.5;"/><polygon fill="#E63329" points="1677.0833,588.5833,1693.75,551.0833,1677.0833,567.75,1660.4167,551.0833,1677.0833,588.5833" style="stroke:#E63329;stroke-width:12.5;"/></g><!--link save to model_pickle--><g id="link_save_model_pickle"><path codeLine="83" d="M1845.125,1104.1667 C1938.6667,1104.1667 2056.2917,1104.1667 2153.3333,1104.1667 " fill="none" id="save-model_pickle" style="stroke:#E63329;stroke-width:12.5;stroke-dasharray:7.0,7.0;"/><polygon fill="#E63329" points="1824.0833,1104.1667,1861.5833,1120.8333,1844.9167,1104.1667,1861.5833,1087.5,1824.0833,1104.1667" style="stroke:#E63329;stroke-width:12.5;"/><polygon fill="#E63329" points="2174.9583,1104.1667,2137.4583,1087.5,2154.125,1104.1667,2137.4583,1120.8333,2174.9583,1104.1667" style="stroke:#E63329;stroke-width:12.5;"/></g><!--link rds to fit--><g id="link_rds_fit"><path codeLine="85" d="M1159.4583,763.375 C1279,751.5417 1440.125,735.5417 1549.8333,724.7083 " fill="none" id="rds-to-fit" style="stroke:#E63329;stroke-width:12.5;stroke-dasharray:7.0,7.0;"/><polygon fill="#E63329" points="1571.0417,722.5833,1532.0657,709.7418,1550.3123,724.6622,1535.3919,742.9088,1571.0417,722.5833" style="stroke:#E63329;stroke-width:12.5;"/></g><!--reverse link save to fit--><g id="link_save_fit"><path codeLine="87" d="M1677.0833,958.8333 C1677.0833,917.8333 1677.0833,876.875 1677.0833,835.9167 " fill="none" id="save-backto-fit" style="stroke:#E63329;stroke-width:12.5;"/><polygon fill="#E63329" points="1677.0833,980.25,1693.75,942.75,1677.0833,959.4167,1660.4167,942.75,1677.0833,980.25" style="stroke:#E63329;stroke-width:12.5;"/></g><!--reverse link generate to save--><g id="link_generate_save"><path codeLine="89" d="M1677.0833,1350.5 C1677.0833,1309.5 1677.0833,1268.5417 1677.0833,1227.5833 " fill="none" id="generate-backto-save" style="stroke:#E63329;stroke-width:12.5;"/><polygon fill="#E63329" points="1677.0833,1371.9167,1693.75,1334.4167,1677.0833,1351.0833,1660.4167,1334.4167,1677.0833,1371.9167" style="stroke:#E63329;stroke-width:12.5;"/></g><!--reverse link sds to generate--><g id="link_sds_generate"><path codeLine="91" d="M1194.7083,1282.625 C1273.0833,1317.5833 1364.0417,1358.125 1445.4583,1394.4167 " fill="none" id="sds-backto-generate" style="stroke:#E63329;stroke-width:12.5;"/><polygon fill="#E63329" points="1175.0417,1273.875,1202.4432,1304.4231,1194.0523,1282.397,1216.0784,1274.0061,1175.0417,1273.875" style="stroke:#E63329;stroke-width:12.5;"/></g><!--reverse link metrics to generate--><g id="link_metrics_generate"><path codeLine="93" d="M1677.0833,1742.1667 C1677.0833,1701.1667 1677.0833,1660.2083 1677.0833,1619.25 " fill="none" id="metrics-backto-generate" style="stroke:#E63329;stroke-width:12.5;"/><polygon fill="#E63329" points="1677.0833,1763.5833,1693.75,1726.0833,1677.0833,1742.75,1660.4167,1726.0833,1677.0833,1763.5833" style="stroke:#E63329;stroke-width:12.5;"/></g><!--reverse link metrics_file to metrics--><g id="link_metrics_file_metrics"><path codeLine="95" d="M1169.25,1647.375 C1249.0417,1685.4167 1345.625,1731.4583 1432.8333,1773.0417 " fill="none" id="metrics_file-backto-metrics" style="stroke:#E63329;stroke-width:12.5;"/><polygon fill="#E63329" points="1149.3333,1637.875,1175.9829,1669.0812,1168.1308,1646.8573,1190.3547,1639.0052,1149.3333,1637.875" style="stroke:#E63329;stroke-width:12.5;"/></g><!--reverse link DCR_file to metrics--><g id="link_DCR_file_metrics"><path codeLine="97" d="M1127.8333,1887.5 C1213.875,1887.5 1329.9583,1887.5 1432.9167,1887.5 " fill="none" id="DCR_file-backto-metrics" style="stroke:#E63329;stroke-width:12.5;"/><polygon fill="#E63329" points="1106.625,1887.5,1144.125,1904.1667,1127.4583,1887.5,1144.125,1870.8333,1106.625,1887.5" style="stroke:#E63329;stroke-width:12.5;"/></g></g></svg>