<svg class="main-svg" xmlns="http://www.w3.org/2000/svg" xmlns:xlink="http://www.w3.org/1999/xlink" width="700" height="500" style="" viewBox="0 0 700 500"><rect x="0" y="0" width="700" height="500" style="fill: rgb(255, 255, 255); fill-opacity: 1;"/><defs id="defs-3741b0"><g class="clips"><clipPath id="clip3741b0xyplot" class="plotclip"><rect width="540" height="320"/></clipPath><clipPath class="axesclip" id="clip3741b0x"><rect x="80" y="0" width="540" height="500"/></clipPath><clipPath class="axesclip" id="clip3741b0y"><rect x="0" y="100" width="700" height="320"/></clipPath><clipPath class="axesclip" id="clip3741b0xy"><rect x="80" y="100" width="540" height="320"/></clipPath></g><g class="gradients"/><g class="patterns"/></defs><g class="bglayer"><rect class="bg" x="80" y="100" width="540" height="320" style="fill: rgb(229, 236, 246); fill-opacity: 1; stroke-width: 0;"/></g><g class="layer-below"><g class="imagelayer"/><g class="shapelayer"/></g><g class="cartesianlayer"><g class="subplot xy"><g class="layer-subplot"><g class="shapelayer"/><g class="imagelayer"/></g><g class="minor-gridlayer"><g class="x"/><g class="y"/></g><g class="gridlayer"><g class="x"/><g class="y"><path class="ygrid crisp" transform="translate(0,372.87)" d="M80,0h540" style="stroke: rgb(255, 255, 255); stroke-opacity: 1; stroke-width: 1px;"/><path class="ygrid crisp" transform="translate(0,325.74)" d="M80,0h540" style="stroke: rgb(255, 255, 255); stroke-opacity: 1; stroke-width: 1px;"/><path class="ygrid crisp" transform="translate(0,278.6)" d="M80,0h540" style="stroke: rgb(255, 255, 255); stroke-opacity: 1; stroke-width: 1px;"/><path class="ygrid crisp" transform="translate(0,231.47)" d="M80,0h540" style="stroke: rgb(255, 255, 255); stroke-opacity: 1; stroke-width: 1px;"/><path class="ygrid crisp" transform="translate(0,184.34)" d="M80,0h540" style="stroke: rgb(255, 255, 255); stroke-opacity: 1; stroke-width: 1px;"/><path class="ygrid crisp" transform="translate(0,137.21)" d="M80,0h540" style="stroke: rgb(255, 255, 255); stroke-opacity: 1; stroke-width: 1px;"/></g></g><g class="zerolinelayer"><path class="yzl zl crisp" transform="translate(0,420)" d="M80,0h540" style="stroke: rgb(255, 255, 255); stroke-opacity: 1; stroke-width: 2px;"/></g><path class="xlines-below"/><path class="ylines-below"/><g class="overlines-below"/><g class="xaxislayer-below"/><g class="yaxislayer-below"/><g class="overaxes-below"/><g class="plot" transform="translate(80,100)" clip-path="url(#clip3741b0xyplot)"><g class="barlayer mlayer"><g class="trace bars" shape-rendering="crispEdges" style="opacity: 1;"><g class="points"><g class="point"><path d="M0,320V251.66H2.74V320Z" style="vector-effect: none; opacity: 1; stroke-width: 0px; fill: rgb(0, 75, 147); fill-opacity: 0.5;"/></g><g class="point"><path d="M2.74,320V169.18H5.49V320Z" style="vector-effect: none; opacity: 1; stroke-width: 0px; fill: rgb(0, 75, 147); fill-opacity: 0.5;"/></g><g class="point"><path d="M5.49,320V246.95H8.23V320Z" style="vector-effect: none; opacity: 1; stroke-width: 0px; fill: rgb(0, 75, 147); fill-opacity: 0.5;"/></g><g class="point"><path d="M8.23,320V237.52H10.98V320Z" style="vector-effect: none; opacity: 1; stroke-width: 0px; fill: rgb(0, 75, 147); fill-opacity: 0.5;"/></g><g class="point"><path d="M10.98,320V221.02H13.72V320Z" style="vector-effect: none; opacity: 1; stroke-width: 0px; fill: rgb(0, 75, 147); fill-opacity: 0.5;"/></g><g class="point"><path d="M13.72,320V218.67H16.47V320Z" style="vector-effect: none; opacity: 1; stroke-width: 0px; fill: rgb(0, 75, 147); fill-opacity: 0.5;"/></g><g class="point"><path d="M16.47,320V204.53H19.21V320Z" style="vector-effect: none; opacity: 1; stroke-width: 0px; fill: rgb(0, 75, 147); fill-opacity: 0.5;"/></g><g class="point"><path d="M19.21,320V230.45H21.96V320Z" style="vector-effect: none; opacity: 1; stroke-width: 0px; fill: rgb(0, 75, 147); fill-opacity: 0.5;"/></g><g class="point"><path d="M21.96,320V237.52H24.7V320Z" style="vector-effect: none; opacity: 1; stroke-width: 0px; fill: rgb(0, 75, 147); fill-opacity: 0.5;"/></g><g class="point"><path d="M24.7,320V206.88H27.45V320Z" style="vector-effect: none; opacity: 1; stroke-width: 0px; fill: rgb(0, 75, 147); fill-opacity: 0.5;"/></g><g class="point"><path d="M27.45,320V218.67H30.19V320Z" style="vector-effect: none; opacity: 1; stroke-width: 0px; fill: rgb(0, 75, 147); fill-opacity: 0.5;"/></g><g class="point"><path d="M30.19,320V206.88H32.94V320Z" style="vector-effect: none; opacity: 1; stroke-width: 0px; fill: rgb(0, 75, 147); fill-opacity: 0.5;"/></g><g class="point"><path d="M32.94,320V216.31H35.68V320Z" style="vector-effect: none; opacity: 1; stroke-width: 0px; fill: rgb(0, 75, 147); fill-opacity: 0.5;"/></g><g class="point"><path d="M35.68,320V230.45H38.42V320Z" style="vector-effect: none; opacity: 1; stroke-width: 0px; fill: rgb(0, 75, 147); fill-opacity: 0.5;"/></g><g class="point"><path d="M38.42,320V221.02H41.17V320Z" style="vector-effect: none; opacity: 1; stroke-width: 0px; fill: rgb(0, 75, 147); fill-opacity: 0.5;"/></g><g class="point"><path d="M41.17,320V204.53H43.91V320Z" style="vector-effect: none; opacity: 1; stroke-width: 0px; fill: rgb(0, 75, 147); fill-opacity: 0.5;"/></g><g class="point"><path d="M43.91,320V110.26H46.66V320Z" style="vector-effect: none; opacity: 1; stroke-width: 0px; fill: rgb(0, 75, 147); fill-opacity: 0.5;"/></g><g class="point"><path d="M46.66,320V155.04H49.4V320Z" style="vector-effect: none; opacity: 1; stroke-width: 0px; fill: rgb(0, 75, 147); fill-opacity: 0.5;"/></g><g class="point"><path d="M49.4,320V254.02H52.15V320Z" style="vector-effect: none; opacity: 1; stroke-width: 0px; fill: rgb(0, 75, 147); fill-opacity: 0.5;"/></g></g></g><g class="trace bars" shape-rendering="crispEdges" style="opacity: 1;"><g class="points"><g class="point"><path d="M23.33,320V317.64H26.07V320Z" style="vector-effect: none; opacity: 1; stroke-width: 0px; fill: rgb(230, 51, 41); fill-opacity: 0.5;"/></g><g class="point"><path d="M0,0Z" style="vector-effect: none; opacity: 1; stroke-width: 0px; fill: rgb(230, 51, 41); fill-opacity: 0.5;"/></g><g class="point"><path d="M28.82,320V315.29H31.56V320Z" style="vector-effect: none; opacity: 1; stroke-width: 0px; fill: rgb(230, 51, 41); fill-opacity: 0.5;"/></g><g class="point"><path d="M31.56,320V315.29H34.31V320Z" style="vector-effect: none; opacity: 1; stroke-width: 0px; fill: rgb(230, 51, 41); fill-opacity: 0.5;"/></g><g class="point"><path d="M34.31,320V315.29H37.05V320Z" style="vector-effect: none; opacity: 1; stroke-width: 0px; fill: rgb(230, 51, 41); fill-opacity: 0.5;"/></g><g class="point"><path d="M37.05,320V315.29H39.8V320Z" style="vector-effect: none; opacity: 1; stroke-width: 0px; fill: rgb(230, 51, 41); fill-opacity: 0.5;"/></g><g class="point"><path d="M39.8,320V310.57H42.54V320Z" style="vector-effect: none; opacity: 1; stroke-width: 0px; fill: rgb(230, 51, 41); fill-opacity: 0.5;"/></g><g class="point"><path d="M42.54,320V301.15H45.29V320Z" style="vector-effect: none; opacity: 1; stroke-width: 0px; fill: rgb(230, 51, 41); fill-opacity: 0.5;"/></g><g class="point"><path d="M45.29,320V291.72H48.03V320Z" style="vector-effect: none; opacity: 1; stroke-width: 0px; fill: rgb(230, 51, 41); fill-opacity: 0.5;"/></g><g class="point"><path d="M48.03,320V296.43H50.78V320Z" style="vector-effect: none; opacity: 1; stroke-width: 0px; fill: rgb(230, 51, 41); fill-opacity: 0.5;"/></g><g class="point"><path d="M50.78,320V303.5H53.52V320Z" style="vector-effect: none; opacity: 1; stroke-width: 0px; fill: rgb(230, 51, 41); fill-opacity: 0.5;"/></g><g class="point"><path d="M53.52,320V289.36H56.26V320Z" style="vector-effect: none; opacity: 1; stroke-width: 0px; fill: rgb(230, 51, 41); fill-opacity: 0.5;"/></g><g class="point"><path d="M56.26,320V277.58H59.01V320Z" style="vector-effect: none; opacity: 1; stroke-width: 0px; fill: rgb(230, 51, 41); fill-opacity: 0.5;"/></g><g class="point"><path d="M59.01,320V272.87H61.75V320Z" style="vector-effect: none; opacity: 1; stroke-width: 0px; fill: rgb(230, 51, 41); fill-opacity: 0.5;"/></g><g class="point"><path d="M61.75,320V251.66H64.5V320Z" style="vector-effect: none; opacity: 1; stroke-width: 0px; fill: rgb(230, 51, 41); fill-opacity: 0.5;"/></g><g class="point"><path d="M64.5,320V265.8H67.24V320Z" style="vector-effect: none; opacity: 1; stroke-width: 0px; fill: rgb(230, 51, 41); fill-opacity: 0.5;"/></g><g class="point"><path d="M67.24,320V244.59H69.99V320Z" style="vector-effect: none; opacity: 1; stroke-width: 0px; fill: rgb(230, 51, 41); fill-opacity: 0.5;"/></g><g class="point"><path d="M69.99,320V190.39H72.73V320Z" style="vector-effect: none; opacity: 1; stroke-width: 0px; fill: rgb(230, 51, 41); fill-opacity: 0.5;"/></g><g class="point"><path d="M72.73,320V235.16H75.48V320Z" style="vector-effect: none; opacity: 1; stroke-width: 0px; fill: rgb(230, 51, 41); fill-opacity: 0.5;"/></g><g class="point"><path d="M75.48,320V237.52H78.22V320Z" style="vector-effect: none; opacity: 1; stroke-width: 0px; fill: rgb(230, 51, 41); fill-opacity: 0.5;"/></g><g class="point"><path d="M78.22,320V180.96H80.97V320Z" style="vector-effect: none; opacity: 1; stroke-width: 0px; fill: rgb(230, 51, 41); fill-opacity: 0.5;"/></g><g class="point"><path d="M80.97,320V190.39H83.71V320Z" style="vector-effect: none; opacity: 1; stroke-width: 0px; fill: rgb(230, 51, 41); fill-opacity: 0.5;"/></g><g class="point"><path d="M83.71,320V126.76H86.45V320Z" style="vector-effect: none; opacity: 1; stroke-width: 0px; fill: rgb(230, 51, 41); fill-opacity: 0.5;"/></g><g class="point"><path d="M86.45,320V176.25H89.2V320Z" style="vector-effect: none; opacity: 1; stroke-width: 0px; fill: rgb(230, 51, 41); fill-opacity: 0.5;"/></g><g class="point"><path d="M89.2,320V138.54H91.94V320Z" style="vector-effect: none; opacity: 1; stroke-width: 0px; fill: rgb(230, 51, 41); fill-opacity: 0.5;"/></g><g class="point"><path d="M91.94,320V105.55H94.69V320Z" style="vector-effect: none; opacity: 1; stroke-width: 0px; fill: rgb(230, 51, 41); fill-opacity: 0.5;"/></g><g class="point"><path d="M94.69,320V117.33H97.43V320Z" style="vector-effect: none; opacity: 1; stroke-width: 0px; fill: rgb(230, 51, 41); fill-opacity: 0.5;"/></g><g class="point"><path d="M97.43,320V136.19H100.18V320Z" style="vector-effect: none; opacity: 1; stroke-width: 0px; fill: rgb(230, 51, 41); fill-opacity: 0.5;"/></g><g class="point"><path d="M100.18,320V58.42H102.92V320Z" style="vector-effect: none; opacity: 1; stroke-width: 0px; fill: rgb(230, 51, 41); fill-opacity: 0.5;"/></g><g class="point"><path d="M102.92,320V155.04H105.67V320Z" style="vector-effect: none; opacity: 1; stroke-width: 0px; fill: rgb(230, 51, 41); fill-opacity: 0.5;"/></g></g></g><g class="trace bars" shape-rendering="crispEdges" style="opacity: 1;"><g class="points"><g class="point"><path d="M1.37,320V310.57H4.12V320Z" style="vector-effect: none; opacity: 1; stroke-width: 0px; fill: rgb(254, 207, 68); fill-opacity: 0.5;"/></g><g class="point"><path d="M4.12,320V291.72H6.86V320Z" style="vector-effect: none; opacity: 1; stroke-width: 0px; fill: rgb(254, 207, 68); fill-opacity: 0.5;"/></g><g class="point"><path d="M6.86,320V272.87H9.61V320Z" style="vector-effect: none; opacity: 1; stroke-width: 0px; fill: rgb(254, 207, 68); fill-opacity: 0.5;"/></g><g class="point"><path d="M9.61,320V258.73H12.35V320Z" style="vector-effect: none; opacity: 1; stroke-width: 0px; fill: rgb(254, 207, 68); fill-opacity: 0.5;"/></g><g class="point"><path d="M12.35,320V228.09H15.1V320Z" style="vector-effect: none; opacity: 1; stroke-width: 0px; fill: rgb(254, 207, 68); fill-opacity: 0.5;"/></g><g class="point"><path d="M15.1,320V216.31H17.84V320Z" style="vector-effect: none; opacity: 1; stroke-width: 0px; fill: rgb(254, 207, 68); fill-opacity: 0.5;"/></g><g class="point"><path d="M17.84,320V218.67H20.58V320Z" style="vector-effect: none; opacity: 1; stroke-width: 0px; fill: rgb(254, 207, 68); fill-opacity: 0.5;"/></g><g class="point"><path d="M20.58,320V218.67H23.33V320Z" style="vector-effect: none; opacity: 1; stroke-width: 0px; fill: rgb(254, 207, 68); fill-opacity: 0.5;"/></g><g class="point"><path d="M23.33,320V157.4H26.07V320Z" style="vector-effect: none; opacity: 1; stroke-width: 0px; fill: rgb(254, 207, 68); fill-opacity: 0.5;"/></g><g class="point"><path d="M26.07,320V150.33H28.82V320Z" style="vector-effect: none; opacity: 1; stroke-width: 0px; fill: rgb(254, 207, 68); fill-opacity: 0.5;"/></g><g class="point"><path d="M28.82,320V169.18H31.56V320Z" style="vector-effect: none; opacity: 1; stroke-width: 0px; fill: rgb(254, 207, 68); fill-opacity: 0.5;"/></g><g class="point"><path d="M31.56,320V162.11H34.31V320Z" style="vector-effect: none; opacity: 1; stroke-width: 0px; fill: rgb(254, 207, 68); fill-opacity: 0.5;"/></g><g class="point"><path d="M34.31,320V190.39H37.05V320Z" style="vector-effect: none; opacity: 1; stroke-width: 0px; fill: rgb(254, 207, 68); fill-opacity: 0.5;"/></g><g class="point"><path d="M37.05,320V209.24H39.8V320Z" style="vector-effect: none; opacity: 1; stroke-width: 0px; fill: rgb(254, 207, 68); fill-opacity: 0.5;"/></g><g class="point"><path d="M39.8,320V176.25H42.54V320Z" style="vector-effect: none; opacity: 1; stroke-width: 0px; fill: rgb(254, 207, 68); fill-opacity: 0.5;"/></g><g class="point"><path d="M42.54,320V105.55H45.29V320Z" style="vector-effect: none; opacity: 1; stroke-width: 0px; fill: rgb(254, 207, 68); fill-opacity: 0.5;"/></g><g class="point"><path d="M45.29,320V65.49H48.03V320Z" style="vector-effect: none; opacity: 1; stroke-width: 0px; fill: rgb(254, 207, 68); fill-opacity: 0.5;"/></g><g class="point"><path d="M48.03,320V74.91H50.78V320Z" style="vector-effect: none; opacity: 1; stroke-width: 0px; fill: rgb(254, 207, 68); fill-opacity: 0.5;"/></g><g class="point"><path d="M50.78,320V56.06H53.52V320Z" style="vector-effect: none; opacity: 1; stroke-width: 0px; fill: rgb(254, 207, 68); fill-opacity: 0.5;"/></g></g></g><g class="trace bars" shape-rendering="crispEdges" style="opacity: 1;"><g class="points"><g class="point"><path d="M320.43,320V317.64H327.29V320Z" style="vector-effect: none; opacity: 1; stroke-width: 0px; fill: rgb(0, 126, 72); fill-opacity: 0.5;"/></g><g class="point"><path d="M327.29,320V317.64H334.16V320Z" style="vector-effect: none; opacity: 1; stroke-width: 0px; fill: rgb(0, 126, 72); fill-opacity: 0.5;"/></g><g class="point"><path d="M0,0Z" style="vector-effect: none; opacity: 1; stroke-width: 0px; fill: rgb(0, 126, 72); fill-opacity: 0.5;"/></g><g class="point"><path d="M0,0Z" style="vector-effect: none; opacity: 1; stroke-width: 0px; fill: rgb(0, 126, 72); fill-opacity: 0.5;"/></g><g class="point"><path d="M347.88,320V317.64H354.74V320Z" style="vector-effect: none; opacity: 1; stroke-width: 0px; fill: rgb(0, 126, 72); fill-opacity: 0.5;"/></g><g class="point"><path d="M0,0Z" style="vector-effect: none; opacity: 1; stroke-width: 0px; fill: rgb(0, 126, 72); fill-opacity: 0.5;"/></g><g class="point"><path d="M0,0Z" style="vector-effect: none; opacity: 1; stroke-width: 0px; fill: rgb(0, 126, 72); fill-opacity: 0.5;"/></g><g class="point"><path d="M368.46,320V317.64H375.32V320Z" style="vector-effect: none; opacity: 1; stroke-width: 0px; fill: rgb(0, 126, 72); fill-opacity: 0.5;"/></g><g class="point"><path d="M0,0Z" style="vector-effect: none; opacity: 1; stroke-width: 0px; fill: rgb(0, 126, 72); fill-opacity: 0.5;"/></g><g class="point"><path d="M382.19,320V310.57H389.05V320Z" style="vector-effect: none; opacity: 1; stroke-width: 0px; fill: rgb(0, 126, 72); fill-opacity: 0.5;"/></g><g class="point"><path d="M389.05,320V310.57H395.91V320Z" style="vector-effect: none; opacity: 1; stroke-width: 0px; fill: rgb(0, 126, 72); fill-opacity: 0.5;"/></g><g class="point"><path d="M395.91,320V305.86H402.77V320Z" style="vector-effect: none; opacity: 1; stroke-width: 0px; fill: rgb(0, 126, 72); fill-opacity: 0.5;"/></g><g class="point"><path d="M402.77,320V294.08H409.63V320Z" style="vector-effect: none; opacity: 1; stroke-width: 0px; fill: rgb(0, 126, 72); fill-opacity: 0.5;"/></g><g class="point"><path d="M409.63,320V301.15H416.49V320Z" style="vector-effect: none; opacity: 1; stroke-width: 0px; fill: rgb(0, 126, 72); fill-opacity: 0.5;"/></g><g class="point"><path d="M416.49,320V298.79H423.35V320Z" style="vector-effect: none; opacity: 1; stroke-width: 0px; fill: rgb(0, 126, 72); fill-opacity: 0.5;"/></g><g class="point"><path d="M423.35,320V282.29H430.22V320Z" style="vector-effect: none; opacity: 1; stroke-width: 0px; fill: rgb(0, 126, 72); fill-opacity: 0.5;"/></g><g class="point"><path d="M430.22,320V279.94H437.08V320Z" style="vector-effect: none; opacity: 1; stroke-width: 0px; fill: rgb(0, 126, 72); fill-opacity: 0.5;"/></g><g class="point"><path d="M437.08,320V279.94H443.94V320Z" style="vector-effect: none; opacity: 1; stroke-width: 0px; fill: rgb(0, 126, 72); fill-opacity: 0.5;"/></g><g class="point"><path d="M443.94,320V277.58H450.8V320Z" style="vector-effect: none; opacity: 1; stroke-width: 0px; fill: rgb(0, 126, 72); fill-opacity: 0.5;"/></g><g class="point"><path d="M450.8,320V254.02H457.66V320Z" style="vector-effect: none; opacity: 1; stroke-width: 0px; fill: rgb(0, 126, 72); fill-opacity: 0.5;"/></g><g class="point"><path d="M457.66,320V249.3H464.52V320Z" style="vector-effect: none; opacity: 1; stroke-width: 0px; fill: rgb(0, 126, 72); fill-opacity: 0.5;"/></g><g class="point"><path d="M464.52,320V232.81H471.39V320Z" style="vector-effect: none; opacity: 1; stroke-width: 0px; fill: rgb(0, 126, 72); fill-opacity: 0.5;"/></g><g class="point"><path d="M471.39,320V204.53H478.25V320Z" style="vector-effect: none; opacity: 1; stroke-width: 0px; fill: rgb(0, 126, 72); fill-opacity: 0.5;"/></g><g class="point"><path d="M478.25,320V195.1H485.11V320Z" style="vector-effect: none; opacity: 1; stroke-width: 0px; fill: rgb(0, 126, 72); fill-opacity: 0.5;"/></g><g class="point"><path d="M485.11,320V159.75H491.97V320Z" style="vector-effect: none; opacity: 1; stroke-width: 0px; fill: rgb(0, 126, 72); fill-opacity: 0.5;"/></g><g class="point"><path d="M491.97,320V152.68H498.83V320Z" style="vector-effect: none; opacity: 1; stroke-width: 0px; fill: rgb(0, 126, 72); fill-opacity: 0.5;"/></g><g class="point"><path d="M498.83,320V103.19H505.69V320Z" style="vector-effect: none; opacity: 1; stroke-width: 0px; fill: rgb(0, 126, 72); fill-opacity: 0.5;"/></g><g class="point"><path d="M505.69,320V119.69H512.55V320Z" style="vector-effect: none; opacity: 1; stroke-width: 0px; fill: rgb(0, 126, 72); fill-opacity: 0.5;"/></g><g class="point"><path d="M512.55,320V105.55H519.42V320Z" style="vector-effect: none; opacity: 1; stroke-width: 0px; fill: rgb(0, 126, 72); fill-opacity: 0.5;"/></g><g class="point"><path d="M519.42,320V58.42H526.28V320Z" style="vector-effect: none; opacity: 1; stroke-width: 0px; fill: rgb(0, 126, 72); fill-opacity: 0.5;"/></g><g class="point"><path d="M526.28,320V30.14H533.14V320Z" style="vector-effect: none; opacity: 1; stroke-width: 0px; fill: rgb(0, 126, 72); fill-opacity: 0.5;"/></g><g class="point"><path d="M533.14,320V16H540V320Z" style="vector-effect: none; opacity: 1; stroke-width: 0px; fill: rgb(0, 126, 72); fill-opacity: 0.5;"/></g></g></g></g></g><g class="overplot"/><path class="xlines-above crisp" d="M0,0" style="fill: none;"/><path class="ylines-above crisp" d="M0,0" style="fill: none;"/><g class="overlines-above"/><g class="xaxislayer-above"><g class="xtick"><text text-anchor="middle" x="0" y="433" transform="translate(81.37,0)" style="font-family: 'Open Sans', verdana, arial, sans-serif; font-size: 12px; fill: rgb(42, 63, 95); fill-opacity: 1; white-space: pre; opacity: 1;">0</text></g><g class="xtick"><text text-anchor="middle" x="0" y="433" style="font-family: 'Open Sans', verdana, arial, sans-serif; font-size: 12px; fill: rgb(42, 63, 95); fill-opacity: 1; white-space: pre; opacity: 1;" transform="translate(218.6,0)">0.1</text></g><g class="xtick"><text text-anchor="middle" x="0" y="433" style="font-family: 'Open Sans', verdana, arial, sans-serif; font-size: 12px; fill: rgb(42, 63, 95); fill-opacity: 1; white-space: pre; opacity: 1;" transform="translate(355.83,0)">0.2</text></g><g class="xtick"><text text-anchor="middle" x="0" y="433" style="font-family: 'Open Sans', verdana, arial, sans-serif; font-size: 12px; fill: rgb(42, 63, 95); fill-opacity: 1; white-space: pre; opacity: 1;" transform="translate(493.06,0)">0.3</text></g></g><g class="yaxislayer-above"><g class="ytick"><text text-anchor="end" x="79" y="4.199999999999999" transform="translate(0,420)" style="font-family: 'Open Sans', verdana, arial, sans-serif; font-size: 12px; fill: rgb(42, 63, 95); fill-opacity: 1; white-space: pre; opacity: 1;">0</text></g><g class="ytick"><text text-anchor="end" x="79" y="4.199999999999999" style="font-family: 'Open Sans', verdana, arial, sans-serif; font-size: 12px; fill: rgb(42, 63, 95); fill-opacity: 1; white-space: pre; opacity: 1;" transform="translate(0,372.87)">20</text></g><g class="ytick"><text text-anchor="end" x="79" y="4.199999999999999" style="font-family: 'Open Sans', verdana, arial, sans-serif; font-size: 12px; fill: rgb(42, 63, 95); fill-opacity: 1; white-space: pre; opacity: 1;" transform="translate(0,325.74)">40</text></g><g class="ytick"><text text-anchor="end" x="79" y="4.199999999999999" style="font-family: 'Open Sans', verdana, arial, sans-serif; font-size: 12px; fill: rgb(42, 63, 95); fill-opacity: 1; white-space: pre; opacity: 1;" transform="translate(0,278.6)">60</text></g><g class="ytick"><text text-anchor="end" x="79" y="4.199999999999999" style="font-family: 'Open Sans', verdana, arial, sans-serif; font-size: 12px; fill: rgb(42, 63, 95); fill-opacity: 1; white-space: pre; opacity: 1;" transform="translate(0,231.47)">80</text></g><g class="ytick"><text text-anchor="end" x="79" y="4.199999999999999" style="font-family: 'Open Sans', verdana, arial, sans-serif; font-size: 12px; fill: rgb(42, 63, 95); fill-opacity: 1; white-space: pre; opacity: 1;" transform="translate(0,184.34)">100</text></g><g class="ytick"><text text-anchor="end" x="79" y="4.199999999999999" style="font-family: 'Open Sans', verdana, arial, sans-serif; font-size: 12px; fill: rgb(42, 63, 95); fill-opacity: 1; white-space: pre; opacity: 1;" transform="translate(0,137.21)">120</text></g></g><g class="overaxes-above"/></g></g><g class="polarlayer"/><g class="smithlayer"/><g class="ternarylayer"/><g class="geolayer"/><g class="funnelarealayer"/><g class="pielayer"/><g class="iciclelayer"/><g class="treemaplayer"/><g class="sunburstlayer"/><g class="glimages"/><defs id="topdefs-3741b0"><g class="clips"/><clipPath id="legend3741b0"><rect width="340" height="29" x="0" y="0"/></clipPath></defs><g class="layer-above"><g class="imagelayer"/><g class="shapelayer"/></g><g class="infolayer"><g class="legend" pointer-events="all" transform="translate(280,64.6)"><rect class="bg" shape-rendering="crispEdges" style="stroke: rgb(68, 68, 68); stroke-opacity: 1; fill: rgb(255, 255, 255); fill-opacity: 1; stroke-width: 0px;" width="340" height="29" x="0" y="0"/><g class="scrollbox" transform="" clip-path="url(#legend3741b0)"><g class="groups"><g class="traces" transform="translate(0,14.5)" style="opacity: 1;"><text class="legendtext" text-anchor="start" x="40" y="4.680000000000001" style="font-family: 'Open Sans', verdana, arial, sans-serif; font-size: 12px; fill: rgb(42, 63, 95); fill-opacity: 1; white-space: pre;">Real</text><g class="layers" style="opacity: 1;"><g class="legendfill"/><g class="legendlines"/><g class="legendsymbols"><g class="legendpoints"><path class="legendundefined" d="M6,6H-6V-6H6Z" transform="translate(20,0)" style="stroke-width: 0px; fill: rgb(0, 75, 147); fill-opacity: 0.5;"/></g></g></g><rect class="legendtoggle" x="0" y="-9.5" width="66.359375" height="19" style="fill: rgb(0, 0, 0); fill-opacity: 0;"/></g><g class="traces" transform="translate(68.859375,14.5)" style="opacity: 1;"><text class="legendtext" text-anchor="start" x="40" y="4.680000000000001" style="font-family: 'Open Sans', verdana, arial, sans-serif; font-size: 12px; fill: rgb(42, 63, 95); fill-opacity: 1; white-space: pre;">Tddpm</text><g class="layers" style="opacity: 1;"><g class="legendfill"/><g class="legendlines"/><g class="legendsymbols"><g class="legendpoints"><path class="legendundefined" d="M6,6H-6V-6H6Z" transform="translate(20,0)" style="stroke-width: 0px; fill: rgb(230, 51, 41); fill-opacity: 0.5;"/></g></g></g><rect class="legendtoggle" x="0" y="-9.5" width="82.375" height="19" style="fill: rgb(0, 0, 0); fill-opacity: 0;"/></g><g class="traces" transform="translate(153.734375,14.5)" style="opacity: 1;"><text class="legendtext" text-anchor="start" x="40" y="4.680000000000001" style="font-family: 'Open Sans', verdana, arial, sans-serif; font-size: 12px; fill: rgb(42, 63, 95); fill-opacity: 1; white-space: pre;">Smote</text><g class="layers" style="opacity: 1;"><g class="legendfill"/><g class="legendlines"/><g class="legendsymbols"><g class="legendpoints"><path class="legendundefined" d="M6,6H-6V-6H6Z" transform="translate(20,0)" style="stroke-width: 0px; fill: rgb(254, 207, 68); fill-opacity: 0.5;"/></g></g></g><rect class="legendtoggle" x="0" y="-9.5" width="78.734375" height="19" style="fill: rgb(0, 0, 0); fill-opacity: 0;"/></g><g class="traces" transform="translate(234.96875,14.5)" style="opacity: 1;"><text class="legendtext" text-anchor="start" x="40" y="4.680000000000001" style="font-family: 'Open Sans', verdana, arial, sans-serif; font-size: 12px; fill: rgb(42, 63, 95); fill-opacity: 1; white-space: pre;">Copulagan</text><g class="layers" style="opacity: 1;"><g class="legendfill"/><g class="legendlines"/><g class="legendsymbols"><g class="legendpoints"><path class="legendundefined" d="M6,6H-6V-6H6Z" transform="translate(20,0)" style="stroke-width: 0px; fill: rgb(0, 126, 72); fill-opacity: 0.5;"/></g></g></g><rect class="legendtoggle" x="0" y="-9.5" width="102.359375" height="19" style="fill: rgb(0, 0, 0); fill-opacity: 0;"/></g></g></g><rect class="scrollbar" rx="20" ry="3" width="0" height="0" style="fill: rgb(128, 139, 164); fill-opacity: 1;" x="0" y="0"/></g><g class="g-gtitle"><text class="gtitle" x="35" y="50" text-anchor="start" dy="0em" style="font-family: 'Open Sans', verdana, arial, sans-serif; font-size: 17px; fill: rgb(42, 63, 95); opacity: 1; font-weight: normal; white-space: pre;">Distribución Variable Privacy</text></g><g class="g-xtitle"><text class="xtitle" x="350" y="461.3" text-anchor="middle" style="font-family: 'Open Sans', verdana, arial, sans-serif; font-size: 14px; fill: rgb(42, 63, 95); opacity: 1; font-weight: normal; white-space: pre;">Total &#60;Privacy></text></g><g class="g-ytitle"><text class="ytitle" transform="rotate(-90,34.10625,260)" x="34.10625" y="260" text-anchor="middle" style="font-family: 'Open Sans', verdana, arial, sans-serif; font-size: 14px; fill: rgb(42, 63, 95); opacity: 1; font-weight: normal; white-space: pre;">Frequency Percentage</text></g></g></svg>