<?xml version="1.0" encoding="UTF-8" standalone="no"?><svg xmlns="http://www.w3.org/2000/svg" xmlns:xlink="http://www.w3.org/1999/xlink" contentStyleType="text/css" height="937.5px" preserveAspectRatio="none" style="width:3537px;height:937px;" version="1.1" viewBox="0 0 3537 937" width="3537.5px" zoomAndPan="magnify"><defs/><g><!--entity tabular--><g id="elem_tabular"><rect fill="#EEEEEE" height="884.8958" rx="16.6667" ry="16.6667" style="stroke:#595959;stroke-width:4.166666666666667;" width="1075" x="29.1667" y="29.1667"/><text fill="#3E3F3A" font-family="Times New Roman" font-size="66.6667" font-weight="bold" lengthAdjust="spacing" textLength="270.8333" x="87.5" y="120.2148">Tabular</text><rect fill="#595959" height="91.5365" style="stroke:none;stroke-width:4.166666666666667;" width="958.3333" x="87.5" y="144.2708"/><text fill="#FFFFFF" font-family="Times New Roman" font-size="50" lengthAdjust="spacing" textLength="154.1667" x="104.1667" y="207.3486">Paper</text><text fill="#FFFFFF" font-family="Times New Roman" font-size="50" lengthAdjust="spacing" textLength="158.3333" x="466.6667" y="207.3486">Fecha</text><path d="M654.1667,173.3073 L654.1667,194.1406 L645.8333,194.1406 L656.375,206.6406 L666.6667,194.1406 L658.3333,194.1406 L658.3333,173.3073 L654.1667,173.3073 " fill="#FFFFFF" style="stroke:;stroke-width:0.0;stroke-dasharray:;"/><text fill="#FFFFFF" font-family="Times New Roman" font-size="50" lengthAdjust="spacing" textLength="16.6667" x="683.3333" y="207.3486"> </text><text fill="#FFFFFF" font-family="Times New Roman" font-size="50" lengthAdjust="spacing" textLength="179.1667" x="833.3333" y="207.3486">Codigo</text><rect fill="#FFFFFF" height="91.5365" style="stroke:none;stroke-width:4.166666666666667;" width="958.3333" x="87.5" y="235.8073"/><text fill="#3E3F3A" font-family="Times New Roman" font-size="50" lengthAdjust="spacing" textLength="183.3333" x="120.8333" y="298.8851">PreFair</text><text fill="#3E3F3A" font-family="Times New Roman" font-size="50" lengthAdjust="spacing" textLength="300" x="466.6667" y="298.8851">2022-12-20</text><text fill="#E63329" font-family="Times New Roman" font-size="50" lengthAdjust="spacing" textLength="16.6667" x="816.6667" y="298.8851"> </text><path d="M843.375,264.8438 L837.5,270.7188 L840.5,273.7188 L847.9167,281.2604 L840.5,288.6771 L837.5,291.5521 L843.375,297.5521 L846.375,294.5521 L853.9167,287.0104 L861.3333,294.5521 L864.2083,297.5521 L870.2083,291.5521 L867.2083,288.6771 L859.6667,281.2604 L867.2083,273.7188 L870.2083,270.7188 L864.2083,264.8438 L861.3333,267.8438 L853.9167,275.2604 L846.375,267.8438 L843.375,264.8438 " fill="#E63329" style="stroke:;stroke-width:0.0;stroke-dasharray:;"/><text fill="#E63329" font-family="Times New Roman" font-size="50" lengthAdjust="spacing" textLength="16.6667" x="875" y="298.8851"> </text><rect fill="#FFFFFF" height="91.5365" style="stroke:none;stroke-width:4.166666666666667;" width="958.3333" x="87.5" y="327.3438"/><text fill="#3E3F3A" font-family="Times New Roman" font-size="50" lengthAdjust="spacing" textLength="195.8333" x="120.8333" y="390.4215">GenSyn</text><text fill="#3E3F3A" font-family="Times New Roman" font-size="50" lengthAdjust="spacing" textLength="300" x="466.6667" y="390.4215">2022-12-08</text><text fill="#007E48" font-family="Times New Roman" font-size="50" lengthAdjust="spacing" textLength="16.6667" x="816.6667" y="390.4215"> </text><path d="M864.2083,356.3802 L861.3333,359.3802 L849.75,370.9635 L846.375,367.7135 L843.375,364.7135 L837.5,370.5885 L840.5,373.5885 L846.75,379.8385 L849.625,382.8385 L852.625,379.8385 L867.2083,365.2552 L870.2083,362.2552 L864.2083,356.3802 " fill="#007E48" style="stroke:;stroke-width:0.0;stroke-dasharray:;"/><text fill="#007E48" font-family="Times New Roman" font-size="50" lengthAdjust="spacing" textLength="16.6667" x="875" y="390.4215"> </text><rect fill="#FFFFFF" height="91.5365" style="stroke:none;stroke-width:4.166666666666667;" width="958.3333" x="87.5" y="418.8802"/><text fill="#3E3F3A" font-family="Times New Roman" font-size="50" lengthAdjust="spacing" textLength="245.8333" x="120.8333" y="481.958">TABDDPM</text><text fill="#3E3F3A" font-family="Times New Roman" font-size="50" lengthAdjust="spacing" textLength="300" x="466.6667" y="481.958">2022-10-30</text><text fill="#007E48" font-family="Times New Roman" font-size="50" lengthAdjust="spacing" textLength="16.6667" x="816.6667" y="481.958"> </text><path d="M864.2083,447.9167 L861.3333,450.9167 L849.75,462.5 L846.375,459.25 L843.375,456.25 L837.5,462.125 L840.5,465.125 L846.75,471.375 L849.625,474.375 L852.625,471.375 L867.2083,456.7917 L870.2083,453.7917 L864.2083,447.9167 " fill="#007E48" style="stroke:;stroke-width:0.0;stroke-dasharray:;"/><text fill="#007E48" font-family="Times New Roman" font-size="50" lengthAdjust="spacing" textLength="16.6667" x="875" y="481.958"> </text><rect fill="#FFFFFF" height="91.5365" style="stroke:none;stroke-width:4.166666666666667;" width="958.3333" x="87.5" y="510.4167"/><text fill="#3E3F3A" font-family="Times New Roman" font-size="50" lengthAdjust="spacing" textLength="279.1667" x="120.8333" y="573.4945">CTABGAN+</text><text fill="#3E3F3A" font-family="Times New Roman" font-size="50" lengthAdjust="spacing" textLength="300" x="466.6667" y="573.4945">2022-04-01</text><text fill="#007E48" font-family="Times New Roman" font-size="50" lengthAdjust="spacing" textLength="16.6667" x="816.6667" y="573.4945"> </text><path d="M864.2083,539.4531 L861.3333,542.4531 L849.75,554.0365 L846.375,550.7865 L843.375,547.7865 L837.5,553.6615 L840.5,556.6615 L846.75,562.9115 L849.625,565.9115 L852.625,562.9115 L867.2083,548.3281 L870.2083,545.3281 L864.2083,539.4531 " fill="#007E48" style="stroke:;stroke-width:0.0;stroke-dasharray:;"/><text fill="#007E48" font-family="Times New Roman" font-size="50" lengthAdjust="spacing" textLength="16.6667" x="875" y="573.4945"> </text><rect fill="#FFFFFF" height="91.5365" style="stroke:none;stroke-width:4.166666666666667;" width="958.3333" x="87.5" y="601.9531"/><text fill="#3E3F3A" font-family="Times New Roman" font-size="50" lengthAdjust="spacing" textLength="237.5" x="120.8333" y="665.0309">CTABGAN</text><text fill="#3E3F3A" font-family="Times New Roman" font-size="50" lengthAdjust="spacing" textLength="300" x="466.6667" y="665.0309">2021-05-31</text><text fill="#007E48" font-family="Times New Roman" font-size="50" lengthAdjust="spacing" textLength="16.6667" x="816.6667" y="665.0309"> </text><path d="M864.2083,630.9896 L861.3333,633.9896 L849.75,645.5729 L846.375,642.3229 L843.375,639.3229 L837.5,645.1979 L840.5,648.1979 L846.75,654.4479 L849.625,657.4479 L852.625,654.4479 L867.2083,639.8646 L870.2083,636.8646 L864.2083,630.9896 " fill="#007E48" style="stroke:;stroke-width:0.0;stroke-dasharray:;"/><text fill="#007E48" font-family="Times New Roman" font-size="50" lengthAdjust="spacing" textLength="16.6667" x="875" y="665.0309"> </text><rect fill="#FFFFFF" height="91.5365" style="stroke:none;stroke-width:4.166666666666667;" width="958.3333" x="87.5" y="693.4896"/><text fill="#3E3F3A" font-family="Times New Roman" font-size="50" lengthAdjust="spacing" textLength="129.1667" x="120.8333" y="756.5674">TVAE</text><text fill="#3E3F3A" font-family="Times New Roman" font-size="50" lengthAdjust="spacing" textLength="300" x="466.6667" y="756.5674">2019-10-28</text><text fill="#007E48" font-family="Times New Roman" font-size="50" lengthAdjust="spacing" textLength="16.6667" x="816.6667" y="756.5674"> </text><path d="M864.2083,722.526 L861.3333,725.526 L849.75,737.1094 L846.375,733.8594 L843.375,730.8594 L837.5,736.7344 L840.5,739.7344 L846.75,745.9844 L849.625,748.9844 L852.625,745.9844 L867.2083,731.401 L870.2083,728.401 L864.2083,722.526 " fill="#007E48" style="stroke:;stroke-width:0.0;stroke-dasharray:;"/><text fill="#007E48" font-family="Times New Roman" font-size="50" lengthAdjust="spacing" textLength="16.6667" x="875" y="756.5674"> </text><rect fill="#FFFFFF" height="91.5365" style="stroke:none;stroke-width:4.166666666666667;" width="958.3333" x="87.5" y="785.026"/><text fill="#3E3F3A" font-family="Times New Roman" font-size="50" lengthAdjust="spacing" textLength="175" x="120.8333" y="848.1038">SMOTE</text><text fill="#3E3F3A" font-family="Times New Roman" font-size="50" lengthAdjust="spacing" textLength="300" x="466.6667" y="848.1038">2002-06-02</text><text fill="#007E48" font-family="Times New Roman" font-size="50" lengthAdjust="spacing" textLength="16.6667" x="816.6667" y="848.1038"> </text><path d="M864.2083,814.0625 L861.3333,817.0625 L849.75,828.6458 L846.375,825.3958 L843.375,822.3958 L837.5,828.2708 L840.5,831.2708 L846.75,837.5208 L849.625,840.5208 L852.625,837.5208 L867.2083,822.9375 L870.2083,819.9375 L864.2083,814.0625 " fill="#007E48" style="stroke:;stroke-width:0.0;stroke-dasharray:;"/><text fill="#007E48" font-family="Times New Roman" font-size="50" lengthAdjust="spacing" textLength="16.6667" x="875" y="848.1038"> </text><line style="stroke:#595959;stroke-width:4.166666666666667;" x1="87.5" x2="1045.8333" y1="144.2708" y2="144.2708"/><line style="stroke:#595959;stroke-width:4.166666666666667;" x1="87.5" x2="1045.8333" y1="235.8073" y2="235.8073"/><line style="stroke:#595959;stroke-width:4.166666666666667;" x1="87.5" x2="1045.8333" y1="327.3438" y2="327.3438"/><line style="stroke:#595959;stroke-width:4.166666666666667;" x1="87.5" x2="1045.8333" y1="418.8802" y2="418.8802"/><line style="stroke:#595959;stroke-width:4.166666666666667;" x1="87.5" x2="1045.8333" y1="510.4167" y2="510.4167"/><line style="stroke:#595959;stroke-width:4.166666666666667;" x1="87.5" x2="1045.8333" y1="601.9531" y2="601.9531"/><line style="stroke:#595959;stroke-width:4.166666666666667;" x1="87.5" x2="1045.8333" y1="693.4896" y2="693.4896"/><line style="stroke:#595959;stroke-width:4.166666666666667;" x1="87.5" x2="1045.8333" y1="785.026" y2="785.026"/><line style="stroke:#595959;stroke-width:4.166666666666667;" x1="87.5" x2="1045.8333" y1="876.5625" y2="876.5625"/><line style="stroke:#595959;stroke-width:4.166666666666667;" x1="87.5" x2="87.5" y1="144.2708" y2="876.5625"/><line style="stroke:#595959;stroke-width:4.166666666666667;" x1="433.3333" x2="433.3333" y1="144.2708" y2="876.5625"/><line style="stroke:#595959;stroke-width:4.166666666666667;" x1="800" x2="800" y1="144.2708" y2="876.5625"/><line style="stroke:#595959;stroke-width:4.166666666666667;" x1="1045.8333" x2="1045.8333" y1="144.2708" y2="876.5625"/></g><!--entity fecha--><g id="elem_fecha"><rect fill="#EEEEEE" height="701.8229" rx="16.6667" ry="16.6667" style="stroke:#595959;stroke-width:4.166666666666667;" width="1075" x="1250" y="120.8333"/><text fill="#3E3F3A" font-family="Times New Roman" font-size="66.6667" font-weight="bold" lengthAdjust="spacing" textLength="545.8333" x="1308.3333" y="211.8815">Fecha 2022-10</text><rect fill="#595959" height="91.5365" style="stroke:none;stroke-width:4.166666666666667;" width="958.3333" x="1308.3333" y="235.9375"/><text fill="#FFFFFF" font-family="Times New Roman" font-size="50" lengthAdjust="spacing" textLength="154.1667" x="1325" y="299.0153">Paper</text><text fill="#FFFFFF" font-family="Times New Roman" font-size="50" lengthAdjust="spacing" textLength="158.3333" x="1687.5" y="299.0153">Fecha</text><path d="M1875,264.974 L1875,285.8073 L1866.6667,285.8073 L1877.2083,298.3073 L1887.5,285.8073 L1879.1667,285.8073 L1879.1667,264.974 L1875,264.974 " fill="#FFFFFF" style="stroke:;stroke-width:0.0;stroke-dasharray:;"/><text fill="#FFFFFF" font-family="Times New Roman" font-size="50" lengthAdjust="spacing" textLength="16.6667" x="1904.1667" y="299.0153"> </text><text fill="#FFFFFF" font-family="Times New Roman" font-size="50" lengthAdjust="spacing" textLength="179.1667" x="2054.1667" y="299.0153">Codigo</text><rect fill="#FFFFFF" height="91.5365" style="stroke:none;stroke-width:4.166666666666667;" width="958.3333" x="1308.3333" y="327.474"/><text fill="#3E3F3A" font-family="Times New Roman" font-size="50" lengthAdjust="spacing" textLength="245.8333" x="1341.6667" y="390.5518">TABDDPM</text><text fill="#3E3F3A" font-family="Times New Roman" font-size="50" lengthAdjust="spacing" textLength="300" x="1687.5" y="390.5518">2022-10-30</text><text fill="#007E48" font-family="Times New Roman" font-size="50" lengthAdjust="spacing" textLength="16.6667" x="2037.5" y="390.5518"> </text><path d="M2085.0417,356.5104 L2082.1667,359.5104 L2070.5833,371.0938 L2067.2083,367.8438 L2064.2083,364.8438 L2058.3333,370.7188 L2061.3333,373.7188 L2067.5833,379.9688 L2070.4583,382.9688 L2073.4583,379.9688 L2088.0417,365.3854 L2091.0417,362.3854 L2085.0417,356.5104 " fill="#007E48" style="stroke:;stroke-width:0.0;stroke-dasharray:;"/><text fill="#007E48" font-family="Times New Roman" font-size="50" lengthAdjust="spacing" textLength="16.6667" x="2095.8333" y="390.5518"> </text><rect fill="#FFFFFF" height="91.5365" style="stroke:none;stroke-width:4.166666666666667;" width="958.3333" x="1308.3333" y="419.0104"/><text fill="#3E3F3A" font-family="Times New Roman" font-size="50" lengthAdjust="spacing" textLength="279.1667" x="1341.6667" y="482.0882">CTABGAN+</text><text fill="#3E3F3A" font-family="Times New Roman" font-size="50" lengthAdjust="spacing" textLength="300" x="1687.5" y="482.0882">2022-04-01</text><text fill="#007E48" font-family="Times New Roman" font-size="50" lengthAdjust="spacing" textLength="16.6667" x="2037.5" y="482.0882"> </text><path d="M2085.0417,448.0469 L2082.1667,451.0469 L2070.5833,462.6302 L2067.2083,459.3802 L2064.2083,456.3802 L2058.3333,462.2552 L2061.3333,465.2552 L2067.5833,471.5052 L2070.4583,474.5052 L2073.4583,471.5052 L2088.0417,456.9219 L2091.0417,453.9219 L2085.0417,448.0469 " fill="#007E48" style="stroke:;stroke-width:0.0;stroke-dasharray:;"/><text fill="#007E48" font-family="Times New Roman" font-size="50" lengthAdjust="spacing" textLength="16.6667" x="2095.8333" y="482.0882"> </text><rect fill="#FFFFFF" height="91.5365" style="stroke:none;stroke-width:4.166666666666667;" width="958.3333" x="1308.3333" y="510.5469"/><text fill="#3E3F3A" font-family="Times New Roman" font-size="50" lengthAdjust="spacing" textLength="237.5" x="1341.6667" y="573.6247">CTABGAN</text><text fill="#3E3F3A" font-family="Times New Roman" font-size="50" lengthAdjust="spacing" textLength="300" x="1687.5" y="573.6247">2021-05-31</text><text fill="#007E48" font-family="Times New Roman" font-size="50" lengthAdjust="spacing" textLength="16.6667" x="2037.5" y="573.6247"> </text><path d="M2085.0417,539.5833 L2082.1667,542.5833 L2070.5833,554.1667 L2067.2083,550.9167 L2064.2083,547.9167 L2058.3333,553.7917 L2061.3333,556.7917 L2067.5833,563.0417 L2070.4583,566.0417 L2073.4583,563.0417 L2088.0417,548.4583 L2091.0417,545.4583 L2085.0417,539.5833 " fill="#007E48" style="stroke:;stroke-width:0.0;stroke-dasharray:;"/><text fill="#007E48" font-family="Times New Roman" font-size="50" lengthAdjust="spacing" textLength="16.6667" x="2095.8333" y="573.6247"> </text><rect fill="#FFFFFF" height="91.5365" style="stroke:none;stroke-width:4.166666666666667;" width="958.3333" x="1308.3333" y="602.0833"/><text fill="#3E3F3A" font-family="Times New Roman" font-size="50" lengthAdjust="spacing" textLength="129.1667" x="1341.6667" y="665.1611">TVAE</text><text fill="#3E3F3A" font-family="Times New Roman" font-size="50" lengthAdjust="spacing" textLength="300" x="1687.5" y="665.1611">2019-10-28</text><text fill="#007E48" font-family="Times New Roman" font-size="50" lengthAdjust="spacing" textLength="16.6667" x="2037.5" y="665.1611"> </text><path d="M2085.0417,631.1198 L2082.1667,634.1198 L2070.5833,645.7031 L2067.2083,642.4531 L2064.2083,639.4531 L2058.3333,645.3281 L2061.3333,648.3281 L2067.5833,654.5781 L2070.4583,657.5781 L2073.4583,654.5781 L2088.0417,639.9948 L2091.0417,636.9948 L2085.0417,631.1198 " fill="#007E48" style="stroke:;stroke-width:0.0;stroke-dasharray:;"/><text fill="#007E48" font-family="Times New Roman" font-size="50" lengthAdjust="spacing" textLength="16.6667" x="2095.8333" y="665.1611"> </text><rect fill="#FFFFFF" height="91.5365" style="stroke:none;stroke-width:4.166666666666667;" width="958.3333" x="1308.3333" y="693.6198"/><text fill="#3E3F3A" font-family="Times New Roman" font-size="50" lengthAdjust="spacing" textLength="175" x="1341.6667" y="756.6976">SMOTE</text><text fill="#3E3F3A" font-family="Times New Roman" font-size="50" lengthAdjust="spacing" textLength="300" x="1687.5" y="756.6976">2002-06-02</text><text fill="#007E48" font-family="Times New Roman" font-size="50" lengthAdjust="spacing" textLength="16.6667" x="2037.5" y="756.6976"> </text><path d="M2085.0417,722.6563 L2082.1667,725.6563 L2070.5833,737.2396 L2067.2083,733.9896 L2064.2083,730.9896 L2058.3333,736.8646 L2061.3333,739.8646 L2067.5833,746.1146 L2070.4583,749.1146 L2073.4583,746.1146 L2088.0417,731.5313 L2091.0417,728.5313 L2085.0417,722.6563 " fill="#007E48" style="stroke:;stroke-width:0.0;stroke-dasharray:;"/><text fill="#007E48" font-family="Times New Roman" font-size="50" lengthAdjust="spacing" textLength="16.6667" x="2095.8333" y="756.6976"> </text><line style="stroke:#595959;stroke-width:4.166666666666667;" x1="1308.3333" x2="2266.6667" y1="235.9375" y2="235.9375"/><line style="stroke:#595959;stroke-width:4.166666666666667;" x1="1308.3333" x2="2266.6667" y1="327.474" y2="327.474"/><line style="stroke:#595959;stroke-width:4.166666666666667;" x1="1308.3333" x2="2266.6667" y1="419.0104" y2="419.0104"/><line style="stroke:#595959;stroke-width:4.166666666666667;" x1="1308.3333" x2="2266.6667" y1="510.5469" y2="510.5469"/><line style="stroke:#595959;stroke-width:4.166666666666667;" x1="1308.3333" x2="2266.6667" y1="602.0833" y2="602.0833"/><line style="stroke:#595959;stroke-width:4.166666666666667;" x1="1308.3333" x2="2266.6667" y1="693.6198" y2="693.6198"/><line style="stroke:#595959;stroke-width:4.166666666666667;" x1="1308.3333" x2="2266.6667" y1="785.1563" y2="785.1563"/><line style="stroke:#595959;stroke-width:4.166666666666667;" x1="1308.3333" x2="1308.3333" y1="235.9375" y2="785.1563"/><line style="stroke:#595959;stroke-width:4.166666666666667;" x1="1654.1667" x2="1654.1667" y1="235.9375" y2="785.1563"/><line style="stroke:#595959;stroke-width:4.166666666666667;" x1="2020.8333" x2="2020.8333" y1="235.9375" y2="785.1563"/><line style="stroke:#595959;stroke-width:4.166666666666667;" x1="2266.6667" x2="2266.6667" y1="235.9375" y2="785.1563"/></g><!--entity best--><g id="elem_best"><rect fill="#EEEEEE" height="427.2135" rx="16.6667" ry="16.6667" style="stroke:#595959;stroke-width:4.166666666666667;" width="1041.6667" x="2470.8333" y="256.25"/><text fill="#3E3F3A" font-family="Times New Roman" font-size="66.6667" font-weight="bold" lengthAdjust="spacing" textLength="729.1667" x="2529.1667" y="347.2982">Mejores Resultados</text><rect fill="#595959" height="91.5365" style="stroke:none;stroke-width:4.166666666666667;" width="925" x="2529.1667" y="371.3542"/><text fill="#FFFFFF" font-family="Times New Roman" font-size="50" lengthAdjust="spacing" textLength="154.1667" x="2545.8333" y="434.432">Paper</text><text fill="#FFFFFF" font-family="Times New Roman" font-size="50" lengthAdjust="spacing" textLength="158.3333" x="2875" y="434.432">Fecha</text><path d="M3062.5,400.3906 L3062.5,421.224 L3054.1667,421.224 L3064.7083,433.724 L3075,421.224 L3066.6667,421.224 L3066.6667,400.3906 L3062.5,400.3906 " fill="#FFFFFF" style="stroke:;stroke-width:0.0;stroke-dasharray:;"/><text fill="#FFFFFF" font-family="Times New Roman" font-size="50" lengthAdjust="spacing" textLength="16.6667" x="3091.6667" y="434.432"> </text><text fill="#FFFFFF" font-family="Times New Roman" font-size="50" lengthAdjust="spacing" textLength="179.1667" x="3241.6667" y="434.432">Codigo</text><rect fill="#FFFFFF" height="91.5365" style="stroke:none;stroke-width:4.166666666666667;" width="925" x="2529.1667" y="462.8906"/><text fill="#3E3F3A" font-family="Times New Roman" font-size="50" lengthAdjust="spacing" textLength="245.8333" x="2562.5" y="525.9684">TABDDPM</text><text fill="#3E3F3A" font-family="Times New Roman" font-size="50" lengthAdjust="spacing" textLength="300" x="2875" y="525.9684">2022-10-30</text><text fill="#007E48" font-family="Times New Roman" font-size="50" lengthAdjust="spacing" textLength="16.6667" x="3225" y="525.9684"> </text><path d="M3272.5417,491.9271 L3269.6667,494.9271 L3258.0833,506.5104 L3254.7083,503.2604 L3251.7083,500.2604 L3245.8333,506.1354 L3248.8333,509.1354 L3255.0833,515.3854 L3257.9583,518.3854 L3260.9583,515.3854 L3275.5417,500.8021 L3278.5417,497.8021 L3272.5417,491.9271 " fill="#007E48" style="stroke:;stroke-width:0.0;stroke-dasharray:;"/><text fill="#007E48" font-family="Times New Roman" font-size="50" lengthAdjust="spacing" textLength="16.6667" x="3283.3333" y="525.9684"> </text><rect fill="#FFFFFF" height="91.5365" style="stroke:none;stroke-width:4.166666666666667;" width="925" x="2529.1667" y="554.4271"/><text fill="#3E3F3A" font-family="Times New Roman" font-size="50" lengthAdjust="spacing" textLength="175" x="2562.5" y="617.5049">SMOTE</text><text fill="#3E3F3A" font-family="Times New Roman" font-size="50" lengthAdjust="spacing" textLength="300" x="2875" y="617.5049">2002-06-02</text><text fill="#007E48" font-family="Times New Roman" font-size="50" lengthAdjust="spacing" textLength="16.6667" x="3225" y="617.5049"> </text><path d="M3272.5417,583.4635 L3269.6667,586.4635 L3258.0833,598.0469 L3254.7083,594.7969 L3251.7083,591.7969 L3245.8333,597.6719 L3248.8333,600.6719 L3255.0833,606.9219 L3257.9583,609.9219 L3260.9583,606.9219 L3275.5417,592.3385 L3278.5417,589.3385 L3272.5417,583.4635 " fill="#007E48" style="stroke:;stroke-width:0.0;stroke-dasharray:;"/><text fill="#007E48" font-family="Times New Roman" font-size="50" lengthAdjust="spacing" textLength="16.6667" x="3283.3333" y="617.5049"> </text><line style="stroke:#595959;stroke-width:4.166666666666667;" x1="2529.1667" x2="3454.1667" y1="371.3542" y2="371.3542"/><line style="stroke:#595959;stroke-width:4.166666666666667;" x1="2529.1667" x2="3454.1667" y1="462.8906" y2="462.8906"/><line style="stroke:#595959;stroke-width:4.166666666666667;" x1="2529.1667" x2="3454.1667" y1="554.4271" y2="554.4271"/><line style="stroke:#595959;stroke-width:4.166666666666667;" x1="2529.1667" x2="3454.1667" y1="645.9635" y2="645.9635"/><line style="stroke:#595959;stroke-width:4.166666666666667;" x1="2529.1667" x2="2529.1667" y1="371.3542" y2="645.9635"/><line style="stroke:#595959;stroke-width:4.166666666666667;" x1="2841.6667" x2="2841.6667" y1="371.3542" y2="645.9635"/><line style="stroke:#595959;stroke-width:4.166666666666667;" x1="3208.3333" x2="3208.3333" y1="371.3542" y2="645.9635"/><line style="stroke:#595959;stroke-width:4.166666666666667;" x1="3454.1667" x2="3454.1667" y1="371.3542" y2="645.9635"/></g><!--link tabular to fecha--><g id="link_tabular_fecha"><path codeLine="37" d="M1104.375,470.8333 C1145.625,470.8333 1186.9167,470.8333 1228.2083,470.8333 " fill="none" id="tabular-to-fecha" style="stroke:#E63329;stroke-width:12.5;"/><polygon fill="#E63329" points="1249.7917,470.8333,1212.2917,454.1667,1228.9583,470.8333,1212.2917,487.5,1249.7917,470.8333" style="stroke:#E63329;stroke-width:12.5;"/></g><!--link fecha to best--><g id="link_fecha_best"><path codeLine="38" d="M2326.0833,470.8333 C2367.0417,470.8333 2408,470.8333 2448.9583,470.8333 " fill="none" id="fecha-to-best" style="stroke:#E63329;stroke-width:12.5;"/><polygon fill="#E63329" points="2470.375,470.8333,2432.875,454.1667,2449.5417,470.8333,2432.875,487.5,2470.375,470.8333" style="stroke:#E63329;stroke-width:12.5;"/></g></g></svg>