<svg class="main-svg" xmlns="http://www.w3.org/2000/svg" xmlns:xlink="http://www.w3.org/1999/xlink" width="700" height="500" style="" viewBox="0 0 700 500"><rect x="0" y="0" width="700" height="500" style="fill: rgb(255, 255, 255); fill-opacity: 1;"/><defs id="defs-339541"><g class="clips"><clipPath id="clip339541xyplot" class="plotclip"><rect width="540" height="320"/></clipPath><clipPath class="axesclip" id="clip339541x"><rect x="80" y="0" width="540" height="500"/></clipPath><clipPath class="axesclip" id="clip339541y"><rect x="0" y="100" width="700" height="320"/></clipPath><clipPath class="axesclip" id="clip339541xy"><rect x="80" y="100" width="540" height="320"/></clipPath></g><g class="gradients"/><g class="patterns"/></defs><g class="bglayer"><rect class="bg" x="80" y="100" width="540" height="320" style="fill: rgb(229, 236, 246); fill-opacity: 1; stroke-width: 0;"/></g><g class="layer-below"><g class="imagelayer"/><g class="shapelayer"/></g><g class="cartesianlayer"><g class="subplot xy"><g class="layer-subplot"><g class="shapelayer"/><g class="imagelayer"/></g><g class="minor-gridlayer"><g class="x"/><g class="y"/></g><g class="gridlayer"><g class="x"/><g class="y"><path class="ygrid crisp" transform="translate(0,379.64)" d="M80,0h540" style="stroke: rgb(255, 255, 255); stroke-opacity: 1; stroke-width: 1px;"/><path class="ygrid crisp" transform="translate(0,339.28)" d="M80,0h540" style="stroke: rgb(255, 255, 255); stroke-opacity: 1; stroke-width: 1px;"/><path class="ygrid crisp" transform="translate(0,298.91999999999996)" d="M80,0h540" style="stroke: rgb(255, 255, 255); stroke-opacity: 1; stroke-width: 1px;"/><path class="ygrid crisp" transform="translate(0,258.56)" d="M80,0h540" style="stroke: rgb(255, 255, 255); stroke-opacity: 1; stroke-width: 1px;"/><path class="ygrid crisp" transform="translate(0,218.19)" d="M80,0h540" style="stroke: rgb(255, 255, 255); stroke-opacity: 1; stroke-width: 1px;"/><path class="ygrid crisp" transform="translate(0,177.82999999999998)" d="M80,0h540" style="stroke: rgb(255, 255, 255); stroke-opacity: 1; stroke-width: 1px;"/><path class="ygrid crisp" transform="translate(0,137.47)" d="M80,0h540" style="stroke: rgb(255, 255, 255); stroke-opacity: 1; stroke-width: 1px;"/></g></g><g class="zerolinelayer"><path class="yzl zl crisp" transform="translate(0,420)" d="M80,0h540" style="stroke: rgb(255, 255, 255); stroke-opacity: 1; stroke-width: 2px;"/></g><path class="xlines-below"/><path class="ylines-below"/><g class="overlines-below"/><g class="xaxislayer-below"/><g class="yaxislayer-below"/><g class="overaxes-below"/><g class="plot" transform="translate(80,100)" clip-path="url(#clip339541xyplot)"><g class="barlayer mlayer"><g class="trace bars" shape-rendering="crispEdges" style="opacity: 1;"><g class="points"><g class="point"><path d="M0,320V308.82H5.35V320Z" style="vector-effect: none; opacity: 1; stroke-width: 0px; fill: rgb(0, 75, 147); fill-opacity: 0.5;"/></g><g class="point"><path d="M5.35,320V75.25H10.69V320Z" style="vector-effect: none; opacity: 1; stroke-width: 0px; fill: rgb(0, 75, 147); fill-opacity: 0.5;"/></g><g class="point"><path d="M10.69,320V172.56H16.04V320Z" style="vector-effect: none; opacity: 1; stroke-width: 0px; fill: rgb(0, 75, 147); fill-opacity: 0.5;"/></g><g class="point"><path d="M16.04,320V226.2H21.39V320Z" style="vector-effect: none; opacity: 1; stroke-width: 0px; fill: rgb(0, 75, 147); fill-opacity: 0.5;"/></g><g class="point"><path d="M21.39,320V260.83H26.73V320Z" style="vector-effect: none; opacity: 1; stroke-width: 0px; fill: rgb(0, 75, 147); fill-opacity: 0.5;"/></g><g class="point"><path d="M26.73,320V280.81H32.08V320Z" style="vector-effect: none; opacity: 1; stroke-width: 0px; fill: rgb(0, 75, 147); fill-opacity: 0.5;"/></g><g class="point"><path d="M32.08,320V287.59H37.43V320Z" style="vector-effect: none; opacity: 1; stroke-width: 0px; fill: rgb(0, 75, 147); fill-opacity: 0.5;"/></g><g class="point"><path d="M37.43,320V297.2H42.77V320Z" style="vector-effect: none; opacity: 1; stroke-width: 0px; fill: rgb(0, 75, 147); fill-opacity: 0.5;"/></g><g class="point"><path d="M42.77,320V298.61H48.12V320Z" style="vector-effect: none; opacity: 1; stroke-width: 0px; fill: rgb(0, 75, 147); fill-opacity: 0.5;"/></g><g class="point"><path d="M48.12,320V305.91H53.47V320Z" style="vector-effect: none; opacity: 1; stroke-width: 0px; fill: rgb(0, 75, 147); fill-opacity: 0.5;"/></g><g class="point"><path d="M53.47,320V302.73H58.81V320Z" style="vector-effect: none; opacity: 1; stroke-width: 0px; fill: rgb(0, 75, 147); fill-opacity: 0.5;"/></g><g class="point"><path d="M58.81,320V310.19H64.16V320Z" style="vector-effect: none; opacity: 1; stroke-width: 0px; fill: rgb(0, 75, 147); fill-opacity: 0.5;"/></g><g class="point"><path d="M64.16,320V309.51H69.5V320Z" style="vector-effect: none; opacity: 1; stroke-width: 0px; fill: rgb(0, 75, 147); fill-opacity: 0.5;"/></g><g class="point"><path d="M69.5,320V313.5H74.85V320Z" style="vector-effect: none; opacity: 1; stroke-width: 0px; fill: rgb(0, 75, 147); fill-opacity: 0.5;"/></g><g class="point"><path d="M74.85,320V313.18H80.2V320Z" style="vector-effect: none; opacity: 1; stroke-width: 0px; fill: rgb(0, 75, 147); fill-opacity: 0.5;"/></g><g class="point"><path d="M80.2,320V315.32H85.54V320Z" style="vector-effect: none; opacity: 1; stroke-width: 0px; fill: rgb(0, 75, 147); fill-opacity: 0.5;"/></g><g class="point"><path d="M85.54,320V312.57H90.89V320Z" style="vector-effect: none; opacity: 1; stroke-width: 0px; fill: rgb(0, 75, 147); fill-opacity: 0.5;"/></g><g class="point"><path d="M90.89,320V315.52H96.24V320Z" style="vector-effect: none; opacity: 1; stroke-width: 0px; fill: rgb(0, 75, 147); fill-opacity: 0.5;"/></g><g class="point"><path d="M96.24,320V316.13H101.58V320Z" style="vector-effect: none; opacity: 1; stroke-width: 0px; fill: rgb(0, 75, 147); fill-opacity: 0.5;"/></g><g class="point"><path d="M101.58,320V316.93H106.93V320Z" style="vector-effect: none; opacity: 1; stroke-width: 0px; fill: rgb(0, 75, 147); fill-opacity: 0.5;"/></g><g class="point"><path d="M106.93,320V308.7H112.28V320Z" style="vector-effect: none; opacity: 1; stroke-width: 0px; fill: rgb(0, 75, 147); fill-opacity: 0.5;"/></g><g class="point"><path d="M112.28,320V316.17H117.62V320Z" style="vector-effect: none; opacity: 1; stroke-width: 0px; fill: rgb(0, 75, 147); fill-opacity: 0.5;"/></g><g class="point"><path d="M117.62,320V316.65H122.97V320Z" style="vector-effect: none; opacity: 1; stroke-width: 0px; fill: rgb(0, 75, 147); fill-opacity: 0.5;"/></g><g class="point"><path d="M122.97,320V317.7H128.32V320Z" style="vector-effect: none; opacity: 1; stroke-width: 0px; fill: rgb(0, 75, 147); fill-opacity: 0.5;"/></g><g class="point"><path d="M128.32,320V316H133.66V320Z" style="vector-effect: none; opacity: 1; stroke-width: 0px; fill: rgb(0, 75, 147); fill-opacity: 0.5;"/></g><g class="point"><path d="M133.66,320V317.5H139.01V320Z" style="vector-effect: none; opacity: 1; stroke-width: 0px; fill: rgb(0, 75, 147); fill-opacity: 0.5;"/></g><g class="point"><path d="M139.01,320V317.17H144.36V320Z" style="vector-effect: none; opacity: 1; stroke-width: 0px; fill: rgb(0, 75, 147); fill-opacity: 0.5;"/></g><g class="point"><path d="M144.36,320V318.95H149.7V320Z" style="vector-effect: none; opacity: 1; stroke-width: 0px; fill: rgb(0, 75, 147); fill-opacity: 0.5;"/></g><g class="point"><path d="M149.7,320V317.9H155.05V320Z" style="vector-effect: none; opacity: 1; stroke-width: 0px; fill: rgb(0, 75, 147); fill-opacity: 0.5;"/></g><g class="point"><path d="M155.05,320V318.67H160.4V320Z" style="vector-effect: none; opacity: 1; stroke-width: 0px; fill: rgb(0, 75, 147); fill-opacity: 0.5;"/></g><g class="point"><path d="M160.4,320V317.38H165.74V320Z" style="vector-effect: none; opacity: 1; stroke-width: 0px; fill: rgb(0, 75, 147); fill-opacity: 0.5;"/></g><g class="point"><path d="M165.74,320V318.59H171.09V320Z" style="vector-effect: none; opacity: 1; stroke-width: 0px; fill: rgb(0, 75, 147); fill-opacity: 0.5;"/></g><g class="point"><path d="M171.09,320V318.67H176.44V320Z" style="vector-effect: none; opacity: 1; stroke-width: 0px; fill: rgb(0, 75, 147); fill-opacity: 0.5;"/></g><g class="point"><path d="M176.44,320V319.23H181.78V320Z" style="vector-effect: none; opacity: 1; stroke-width: 0px; fill: rgb(0, 75, 147); fill-opacity: 0.5;"/></g><g class="point"><path d="M181.78,320V318.59H187.13V320Z" style="vector-effect: none; opacity: 1; stroke-width: 0px; fill: rgb(0, 75, 147); fill-opacity: 0.5;"/></g><g class="point"><path d="M187.13,320V319.43H192.48V320Z" style="vector-effect: none; opacity: 1; stroke-width: 0px; fill: rgb(0, 75, 147); fill-opacity: 0.5;"/></g><g class="point"><path d="M192.48,320V318.26H197.82V320Z" style="vector-effect: none; opacity: 1; stroke-width: 0px; fill: rgb(0, 75, 147); fill-opacity: 0.5;"/></g><g class="point"><path d="M197.82,320V319.31H203.17V320Z" style="vector-effect: none; opacity: 1; stroke-width: 0px; fill: rgb(0, 75, 147); fill-opacity: 0.5;"/></g><g class="point"><path d="M203.17,320V319.27H208.51V320Z" style="vector-effect: none; opacity: 1; stroke-width: 0px; fill: rgb(0, 75, 147); fill-opacity: 0.5;"/></g><g class="point"><path d="M208.51,320V319.6H213.86V320Z" style="vector-effect: none; opacity: 1; stroke-width: 0px; fill: rgb(0, 75, 147); fill-opacity: 0.5;"/></g><g class="point"><path d="M213.86,320V316.17H219.21V320Z" style="vector-effect: none; opacity: 1; stroke-width: 0px; fill: rgb(0, 75, 147); fill-opacity: 0.5;"/></g><g class="point"><path d="M219.21,320V319.48H224.55V320Z" style="vector-effect: none; opacity: 1; stroke-width: 0px; fill: rgb(0, 75, 147); fill-opacity: 0.5;"/></g><g class="point"><path d="M224.55,320V319.72H229.9V320Z" style="vector-effect: none; opacity: 1; stroke-width: 0px; fill: rgb(0, 75, 147); fill-opacity: 0.5;"/></g><g class="point"><path d="M229.9,320V319.23H235.25V320Z" style="vector-effect: none; opacity: 1; stroke-width: 0px; fill: rgb(0, 75, 147); fill-opacity: 0.5;"/></g><g class="point"><path d="M235.25,320V319.27H240.59V320Z" style="vector-effect: none; opacity: 1; stroke-width: 0px; fill: rgb(0, 75, 147); fill-opacity: 0.5;"/></g><g class="point"><path d="M240.59,320V319.68H245.94V320Z" style="vector-effect: none; opacity: 1; stroke-width: 0px; fill: rgb(0, 75, 147); fill-opacity: 0.5;"/></g><g class="point"><path d="M245.94,320V319.19H251.29V320Z" style="vector-effect: none; opacity: 1; stroke-width: 0px; fill: rgb(0, 75, 147); fill-opacity: 0.5;"/></g><g class="point"><path d="M251.29,320V319.72H256.63V320Z" style="vector-effect: none; opacity: 1; stroke-width: 0px; fill: rgb(0, 75, 147); fill-opacity: 0.5;"/></g><g class="point"><path d="M256.63,320V319.39H261.98V320Z" style="vector-effect: none; opacity: 1; stroke-width: 0px; fill: rgb(0, 75, 147); fill-opacity: 0.5;"/></g><g class="point"><path d="M261.98,320V319.8H267.33V320Z" style="vector-effect: none; opacity: 1; stroke-width: 0px; fill: rgb(0, 75, 147); fill-opacity: 0.5;"/></g><g class="point"><path d="M267.33,320V316.81H272.67V320Z" style="vector-effect: none; opacity: 1; stroke-width: 0px; fill: rgb(0, 75, 147); fill-opacity: 0.5;"/></g><g class="point"><path d="M272.67,320V319.43H278.02V320Z" style="vector-effect: none; opacity: 1; stroke-width: 0px; fill: rgb(0, 75, 147); fill-opacity: 0.5;"/></g><g class="point"><path d="M278.02,320V319.35H283.37V320Z" style="vector-effect: none; opacity: 1; stroke-width: 0px; fill: rgb(0, 75, 147); fill-opacity: 0.5;"/></g><g class="point"><path d="M283.37,320V319.72H288.71V320Z" style="vector-effect: none; opacity: 1; stroke-width: 0px; fill: rgb(0, 75, 147); fill-opacity: 0.5;"/></g><g class="point"><path d="M288.71,320V319.31H294.06V320Z" style="vector-effect: none; opacity: 1; stroke-width: 0px; fill: rgb(0, 75, 147); fill-opacity: 0.5;"/></g><g class="point"><path d="M294.06,320V319.76H299.41V320Z" style="vector-effect: none; opacity: 1; stroke-width: 0px; fill: rgb(0, 75, 147); fill-opacity: 0.5;"/></g><g class="point"><path d="M299.41,320V319.39H304.75V320Z" style="vector-effect: none; opacity: 1; stroke-width: 0px; fill: rgb(0, 75, 147); fill-opacity: 0.5;"/></g><g class="point"><path d="M304.75,320V319.76H310.1V320Z" style="vector-effect: none; opacity: 1; stroke-width: 0px; fill: rgb(0, 75, 147); fill-opacity: 0.5;"/></g><g class="point"><path d="M310.1,320V319.64H315.45V320Z" style="vector-effect: none; opacity: 1; stroke-width: 0px; fill: rgb(0, 75, 147); fill-opacity: 0.5;"/></g><g class="point"><path d="M315.45,320V319.88H320.79V320Z" style="vector-effect: none; opacity: 1; stroke-width: 0px; fill: rgb(0, 75, 147); fill-opacity: 0.5;"/></g><g class="point"><path d="M320.79,320V318.59H326.14V320Z" style="vector-effect: none; opacity: 1; stroke-width: 0px; fill: rgb(0, 75, 147); fill-opacity: 0.5;"/></g><g class="point"><path d="M326.14,320V319.68H331.49V320Z" style="vector-effect: none; opacity: 1; stroke-width: 0px; fill: rgb(0, 75, 147); fill-opacity: 0.5;"/></g><g class="point"><path d="M331.49,320V319.88H336.83V320Z" style="vector-effect: none; opacity: 1; stroke-width: 0px; fill: rgb(0, 75, 147); fill-opacity: 0.5;"/></g><g class="point"><path d="M336.83,320V319.76H342.18V320Z" style="vector-effect: none; opacity: 1; stroke-width: 0px; fill: rgb(0, 75, 147); fill-opacity: 0.5;"/></g><g class="point"><path d="M342.18,320V319.52H347.52V320Z" style="vector-effect: none; opacity: 1; stroke-width: 0px; fill: rgb(0, 75, 147); fill-opacity: 0.5;"/></g><g class="point"><path d="M347.52,320V319.92H352.87V320Z" style="vector-effect: none; opacity: 1; stroke-width: 0px; fill: rgb(0, 75, 147); fill-opacity: 0.5;"/></g><g class="point"><path d="M352.87,320V319.92H358.22V320Z" style="vector-effect: none; opacity: 1; stroke-width: 0px; fill: rgb(0, 75, 147); fill-opacity: 0.5;"/></g><g class="point"><path d="M358.22,320V319.8H363.56V320Z" style="vector-effect: none; opacity: 1; stroke-width: 0px; fill: rgb(0, 75, 147); fill-opacity: 0.5;"/></g><g class="point"><path d="M363.56,320V319.84H368.91V320Z" style="vector-effect: none; opacity: 1; stroke-width: 0px; fill: rgb(0, 75, 147); fill-opacity: 0.5;"/></g><g class="point"><path d="M368.91,320V319.76H374.26V320Z" style="vector-effect: none; opacity: 1; stroke-width: 0px; fill: rgb(0, 75, 147); fill-opacity: 0.5;"/></g><g class="point"><path d="M374.26,320V319.56H379.6V320Z" style="vector-effect: none; opacity: 1; stroke-width: 0px; fill: rgb(0, 75, 147); fill-opacity: 0.5;"/></g><g class="point"><path d="M0,0Z" style="vector-effect: none; opacity: 1; stroke-width: 0px; fill: rgb(0, 75, 147); fill-opacity: 0.5;"/></g><g class="point"><path d="M384.95,320V319.84H390.3V320Z" style="vector-effect: none; opacity: 1; stroke-width: 0px; fill: rgb(0, 75, 147); fill-opacity: 0.5;"/></g><g class="point"><path d="M390.3,320V319.84H395.64V320Z" style="vector-effect: none; opacity: 1; stroke-width: 0px; fill: rgb(0, 75, 147); fill-opacity: 0.5;"/></g><g class="point"><path d="M395.64,320V319.76H400.99V320Z" style="vector-effect: none; opacity: 1; stroke-width: 0px; fill: rgb(0, 75, 147); fill-opacity: 0.5;"/></g><g class="point"><path d="M400.99,320V319.92H406.34V320Z" style="vector-effect: none; opacity: 1; stroke-width: 0px; fill: rgb(0, 75, 147); fill-opacity: 0.5;"/></g><g class="point"><path d="M406.34,320V319.68H411.68V320Z" style="vector-effect: none; opacity: 1; stroke-width: 0px; fill: rgb(0, 75, 147); fill-opacity: 0.5;"/></g><g class="point"><path d="M0,0Z" style="vector-effect: none; opacity: 1; stroke-width: 0px; fill: rgb(0, 75, 147); fill-opacity: 0.5;"/></g><g class="point"><path d="M417.03,320V319.88H422.38V320Z" style="vector-effect: none; opacity: 1; stroke-width: 0px; fill: rgb(0, 75, 147); fill-opacity: 0.5;"/></g><g class="point"><path d="M422.38,320V319.8H427.72V320Z" style="vector-effect: none; opacity: 1; stroke-width: 0px; fill: rgb(0, 75, 147); fill-opacity: 0.5;"/></g><g class="point"><path d="M427.72,320V319.31H433.07V320Z" style="vector-effect: none; opacity: 1; stroke-width: 0px; fill: rgb(0, 75, 147); fill-opacity: 0.5;"/></g><g class="point"><path d="M433.07,320V319.88H438.42V320Z" style="vector-effect: none; opacity: 1; stroke-width: 0px; fill: rgb(0, 75, 147); fill-opacity: 0.5;"/></g><g class="point"><path d="M438.42,320V319.84H443.76V320Z" style="vector-effect: none; opacity: 1; stroke-width: 0px; fill: rgb(0, 75, 147); fill-opacity: 0.5;"/></g><g class="point"><path d="M443.76,320V319.88H449.11V320Z" style="vector-effect: none; opacity: 1; stroke-width: 0px; fill: rgb(0, 75, 147); fill-opacity: 0.5;"/></g><g class="point"><path d="M449.11,320V319.6H454.46V320Z" style="vector-effect: none; opacity: 1; stroke-width: 0px; fill: rgb(0, 75, 147); fill-opacity: 0.5;"/></g><g class="point"><path d="M454.46,320V319.96H459.8V320Z" style="vector-effect: none; opacity: 1; stroke-width: 0px; fill: rgb(0, 75, 147); fill-opacity: 0.5;"/></g><g class="point"><path d="M459.8,320V319.68H465.15V320Z" style="vector-effect: none; opacity: 1; stroke-width: 0px; fill: rgb(0, 75, 147); fill-opacity: 0.5;"/></g><g class="point"><path d="M465.15,320V319.96H470.5V320Z" style="vector-effect: none; opacity: 1; stroke-width: 0px; fill: rgb(0, 75, 147); fill-opacity: 0.5;"/></g><g class="point"><path d="M470.5,320V319.72H475.84V320Z" style="vector-effect: none; opacity: 1; stroke-width: 0px; fill: rgb(0, 75, 147); fill-opacity: 0.5;"/></g><g class="point"><path d="M475.84,320V319.92H481.19V320Z" style="vector-effect: none; opacity: 1; stroke-width: 0px; fill: rgb(0, 75, 147); fill-opacity: 0.5;"/></g><g class="point"><path d="M481.19,320V319.56H486.53V320Z" style="vector-effect: none; opacity: 1; stroke-width: 0px; fill: rgb(0, 75, 147); fill-opacity: 0.5;"/></g><g class="point"><path d="M486.53,320V319.88H491.88V320Z" style="vector-effect: none; opacity: 1; stroke-width: 0px; fill: rgb(0, 75, 147); fill-opacity: 0.5;"/></g><g class="point"><path d="M491.88,320V319.72H497.23V320Z" style="vector-effect: none; opacity: 1; stroke-width: 0px; fill: rgb(0, 75, 147); fill-opacity: 0.5;"/></g><g class="point"><path d="M497.23,320V319.92H502.57V320Z" style="vector-effect: none; opacity: 1; stroke-width: 0px; fill: rgb(0, 75, 147); fill-opacity: 0.5;"/></g><g class="point"><path d="M502.57,320V319.76H507.92V320Z" style="vector-effect: none; opacity: 1; stroke-width: 0px; fill: rgb(0, 75, 147); fill-opacity: 0.5;"/></g><g class="point"><path d="M507.92,320V319.88H513.27V320Z" style="vector-effect: none; opacity: 1; stroke-width: 0px; fill: rgb(0, 75, 147); fill-opacity: 0.5;"/></g><g class="point"><path d="M513.27,320V319.68H518.61V320Z" style="vector-effect: none; opacity: 1; stroke-width: 0px; fill: rgb(0, 75, 147); fill-opacity: 0.5;"/></g><g class="point"><path d="M518.61,320V319.68H523.96V320Z" style="vector-effect: none; opacity: 1; stroke-width: 0px; fill: rgb(0, 75, 147); fill-opacity: 0.5;"/></g><g class="point"><path d="M523.96,320V319.92H529.31V320Z" style="vector-effect: none; opacity: 1; stroke-width: 0px; fill: rgb(0, 75, 147); fill-opacity: 0.5;"/></g><g class="point"><path d="M529.31,320V319.88H534.65V320Z" style="vector-effect: none; opacity: 1; stroke-width: 0px; fill: rgb(0, 75, 147); fill-opacity: 0.5;"/></g><g class="point"><path d="M534.65,320V295.7H540V320Z" style="vector-effect: none; opacity: 1; stroke-width: 0px; fill: rgb(0, 75, 147); fill-opacity: 0.5;"/></g></g></g><g class="trace bars" shape-rendering="crispEdges" style="opacity: 1;"><g class="points"><g class="point"><path d="M0,320V307.17H5.35V320Z" style="vector-effect: none; opacity: 1; stroke-width: 0px; fill: rgb(230, 51, 41); fill-opacity: 0.5;"/></g><g class="point"><path d="M5.35,320V16H10.69V320Z" style="vector-effect: none; opacity: 1; stroke-width: 0px; fill: rgb(230, 51, 41); fill-opacity: 0.5;"/></g><g class="point"><path d="M10.69,320V132.24H16.04V320Z" style="vector-effect: none; opacity: 1; stroke-width: 0px; fill: rgb(230, 51, 41); fill-opacity: 0.5;"/></g><g class="point"><path d="M16.04,320V197.1H21.39V320Z" style="vector-effect: none; opacity: 1; stroke-width: 0px; fill: rgb(230, 51, 41); fill-opacity: 0.5;"/></g><g class="point"><path d="M21.39,320V243.11H26.73V320Z" style="vector-effect: none; opacity: 1; stroke-width: 0px; fill: rgb(230, 51, 41); fill-opacity: 0.5;"/></g><g class="point"><path d="M26.73,320V269.59H32.08V320Z" style="vector-effect: none; opacity: 1; stroke-width: 0px; fill: rgb(230, 51, 41); fill-opacity: 0.5;"/></g><g class="point"><path d="M32.08,320V279.4H37.43V320Z" style="vector-effect: none; opacity: 1; stroke-width: 0px; fill: rgb(230, 51, 41); fill-opacity: 0.5;"/></g><g class="point"><path d="M37.43,320V289.65H42.77V320Z" style="vector-effect: none; opacity: 1; stroke-width: 0px; fill: rgb(230, 51, 41); fill-opacity: 0.5;"/></g><g class="point"><path d="M42.77,320V292.19H48.12V320Z" style="vector-effect: none; opacity: 1; stroke-width: 0px; fill: rgb(230, 51, 41); fill-opacity: 0.5;"/></g><g class="point"><path d="M48.12,320V302.69H53.47V320Z" style="vector-effect: none; opacity: 1; stroke-width: 0px; fill: rgb(230, 51, 41); fill-opacity: 0.5;"/></g><g class="point"><path d="M53.47,320V300.1H58.81V320Z" style="vector-effect: none; opacity: 1; stroke-width: 0px; fill: rgb(230, 51, 41); fill-opacity: 0.5;"/></g><g class="point"><path d="M58.81,320V309.18H64.16V320Z" style="vector-effect: none; opacity: 1; stroke-width: 0px; fill: rgb(230, 51, 41); fill-opacity: 0.5;"/></g><g class="point"><path d="M64.16,320V307.33H69.5V320Z" style="vector-effect: none; opacity: 1; stroke-width: 0px; fill: rgb(230, 51, 41); fill-opacity: 0.5;"/></g><g class="point"><path d="M69.5,320V312.09H74.85V320Z" style="vector-effect: none; opacity: 1; stroke-width: 0px; fill: rgb(230, 51, 41); fill-opacity: 0.5;"/></g><g class="point"><path d="M74.85,320V312.86H80.2V320Z" style="vector-effect: none; opacity: 1; stroke-width: 0px; fill: rgb(230, 51, 41); fill-opacity: 0.5;"/></g><g class="point"><path d="M80.2,320V313.91H85.54V320Z" style="vector-effect: none; opacity: 1; stroke-width: 0px; fill: rgb(230, 51, 41); fill-opacity: 0.5;"/></g><g class="point"><path d="M85.54,320V311.44H90.89V320Z" style="vector-effect: none; opacity: 1; stroke-width: 0px; fill: rgb(230, 51, 41); fill-opacity: 0.5;"/></g><g class="point"><path d="M90.89,320V313.78H96.24V320Z" style="vector-effect: none; opacity: 1; stroke-width: 0px; fill: rgb(230, 51, 41); fill-opacity: 0.5;"/></g><g class="point"><path d="M96.24,320V315.44H101.58V320Z" style="vector-effect: none; opacity: 1; stroke-width: 0px; fill: rgb(230, 51, 41); fill-opacity: 0.5;"/></g><g class="point"><path d="M101.58,320V316.41H106.93V320Z" style="vector-effect: none; opacity: 1; stroke-width: 0px; fill: rgb(230, 51, 41); fill-opacity: 0.5;"/></g><g class="point"><path d="M106.93,320V304.42H112.28V320Z" style="vector-effect: none; opacity: 1; stroke-width: 0px; fill: rgb(230, 51, 41); fill-opacity: 0.5;"/></g><g class="point"><path d="M112.28,320V313.3H117.62V320Z" style="vector-effect: none; opacity: 1; stroke-width: 0px; fill: rgb(230, 51, 41); fill-opacity: 0.5;"/></g><g class="point"><path d="M117.62,320V315.44H122.97V320Z" style="vector-effect: none; opacity: 1; stroke-width: 0px; fill: rgb(230, 51, 41); fill-opacity: 0.5;"/></g><g class="point"><path d="M122.97,320V317.46H128.32V320Z" style="vector-effect: none; opacity: 1; stroke-width: 0px; fill: rgb(230, 51, 41); fill-opacity: 0.5;"/></g><g class="point"><path d="M128.32,320V315.08H133.66V320Z" style="vector-effect: none; opacity: 1; stroke-width: 0px; fill: rgb(230, 51, 41); fill-opacity: 0.5;"/></g><g class="point"><path d="M133.66,320V316.73H139.01V320Z" style="vector-effect: none; opacity: 1; stroke-width: 0px; fill: rgb(230, 51, 41); fill-opacity: 0.5;"/></g><g class="point"><path d="M139.01,320V316.04H144.36V320Z" style="vector-effect: none; opacity: 1; stroke-width: 0px; fill: rgb(230, 51, 41); fill-opacity: 0.5;"/></g><g class="point"><path d="M144.36,320V318.43H149.7V320Z" style="vector-effect: none; opacity: 1; stroke-width: 0px; fill: rgb(230, 51, 41); fill-opacity: 0.5;"/></g><g class="point"><path d="M149.7,320V316.21H155.05V320Z" style="vector-effect: none; opacity: 1; stroke-width: 0px; fill: rgb(230, 51, 41); fill-opacity: 0.5;"/></g><g class="point"><path d="M155.05,320V318.47H160.4V320Z" style="vector-effect: none; opacity: 1; stroke-width: 0px; fill: rgb(230, 51, 41); fill-opacity: 0.5;"/></g><g class="point"><path d="M160.4,320V316.41H165.74V320Z" style="vector-effect: none; opacity: 1; stroke-width: 0px; fill: rgb(230, 51, 41); fill-opacity: 0.5;"/></g><g class="point"><path d="M165.74,320V318.3H171.09V320Z" style="vector-effect: none; opacity: 1; stroke-width: 0px; fill: rgb(230, 51, 41); fill-opacity: 0.5;"/></g><g class="point"><path d="M171.09,320V318.35H176.44V320Z" style="vector-effect: none; opacity: 1; stroke-width: 0px; fill: rgb(230, 51, 41); fill-opacity: 0.5;"/></g><g class="point"><path d="M176.44,320V318.79H181.78V320Z" style="vector-effect: none; opacity: 1; stroke-width: 0px; fill: rgb(230, 51, 41); fill-opacity: 0.5;"/></g><g class="point"><path d="M181.78,320V318.63H187.13V320Z" style="vector-effect: none; opacity: 1; stroke-width: 0px; fill: rgb(230, 51, 41); fill-opacity: 0.5;"/></g><g class="point"><path d="M187.13,320V318.75H192.48V320Z" style="vector-effect: none; opacity: 1; stroke-width: 0px; fill: rgb(230, 51, 41); fill-opacity: 0.5;"/></g><g class="point"><path d="M192.48,320V317.74H197.82V320Z" style="vector-effect: none; opacity: 1; stroke-width: 0px; fill: rgb(230, 51, 41); fill-opacity: 0.5;"/></g><g class="point"><path d="M197.82,320V319.43H203.17V320Z" style="vector-effect: none; opacity: 1; stroke-width: 0px; fill: rgb(230, 51, 41); fill-opacity: 0.5;"/></g><g class="point"><path d="M203.17,320V319.39H208.51V320Z" style="vector-effect: none; opacity: 1; stroke-width: 0px; fill: rgb(230, 51, 41); fill-opacity: 0.5;"/></g><g class="point"><path d="M208.51,320V319.15H213.86V320Z" style="vector-effect: none; opacity: 1; stroke-width: 0px; fill: rgb(230, 51, 41); fill-opacity: 0.5;"/></g><g class="point"><path d="M213.86,320V315.36H219.21V320Z" style="vector-effect: none; opacity: 1; stroke-width: 0px; fill: rgb(230, 51, 41); fill-opacity: 0.5;"/></g><g class="point"><path d="M219.21,320V319.43H224.55V320Z" style="vector-effect: none; opacity: 1; stroke-width: 0px; fill: rgb(230, 51, 41); fill-opacity: 0.5;"/></g><g class="point"><path d="M224.55,320V319.43H229.9V320Z" style="vector-effect: none; opacity: 1; stroke-width: 0px; fill: rgb(230, 51, 41); fill-opacity: 0.5;"/></g><g class="point"><path d="M229.9,320V319.11H235.25V320Z" style="vector-effect: none; opacity: 1; stroke-width: 0px; fill: rgb(230, 51, 41); fill-opacity: 0.5;"/></g><g class="point"><path d="M235.25,320V319.27H240.59V320Z" style="vector-effect: none; opacity: 1; stroke-width: 0px; fill: rgb(230, 51, 41); fill-opacity: 0.5;"/></g><g class="point"><path d="M240.59,320V319.35H245.94V320Z" style="vector-effect: none; opacity: 1; stroke-width: 0px; fill: rgb(230, 51, 41); fill-opacity: 0.5;"/></g><g class="point"><path d="M245.94,320V319.39H251.29V320Z" style="vector-effect: none; opacity: 1; stroke-width: 0px; fill: rgb(230, 51, 41); fill-opacity: 0.5;"/></g><g class="point"><path d="M251.29,320V319.39H256.63V320Z" style="vector-effect: none; opacity: 1; stroke-width: 0px; fill: rgb(230, 51, 41); fill-opacity: 0.5;"/></g><g class="point"><path d="M256.63,320V319.6H261.98V320Z" style="vector-effect: none; opacity: 1; stroke-width: 0px; fill: rgb(230, 51, 41); fill-opacity: 0.5;"/></g><g class="point"><path d="M261.98,320V319.48H267.33V320Z" style="vector-effect: none; opacity: 1; stroke-width: 0px; fill: rgb(230, 51, 41); fill-opacity: 0.5;"/></g><g class="point"><path d="M267.33,320V318.18H272.67V320Z" style="vector-effect: none; opacity: 1; stroke-width: 0px; fill: rgb(230, 51, 41); fill-opacity: 0.5;"/></g><g class="point"><path d="M272.67,320V318.79H278.02V320Z" style="vector-effect: none; opacity: 1; stroke-width: 0px; fill: rgb(230, 51, 41); fill-opacity: 0.5;"/></g><g class="point"><path d="M278.02,320V319.03H283.37V320Z" style="vector-effect: none; opacity: 1; stroke-width: 0px; fill: rgb(230, 51, 41); fill-opacity: 0.5;"/></g><g class="point"><path d="M283.37,320V319.6H288.71V320Z" style="vector-effect: none; opacity: 1; stroke-width: 0px; fill: rgb(230, 51, 41); fill-opacity: 0.5;"/></g><g class="point"><path d="M288.71,320V319.8H294.06V320Z" style="vector-effect: none; opacity: 1; stroke-width: 0px; fill: rgb(230, 51, 41); fill-opacity: 0.5;"/></g><g class="point"><path d="M294.06,320V319.64H299.41V320Z" style="vector-effect: none; opacity: 1; stroke-width: 0px; fill: rgb(230, 51, 41); fill-opacity: 0.5;"/></g><g class="point"><path d="M299.41,320V319.68H304.75V320Z" style="vector-effect: none; opacity: 1; stroke-width: 0px; fill: rgb(230, 51, 41); fill-opacity: 0.5;"/></g><g class="point"><path d="M304.75,320V319.48H310.1V320Z" style="vector-effect: none; opacity: 1; stroke-width: 0px; fill: rgb(230, 51, 41); fill-opacity: 0.5;"/></g><g class="point"><path d="M310.1,320V319.52H315.45V320Z" style="vector-effect: none; opacity: 1; stroke-width: 0px; fill: rgb(230, 51, 41); fill-opacity: 0.5;"/></g><g class="point"><path d="M315.45,320V319.84H320.79V320Z" style="vector-effect: none; opacity: 1; stroke-width: 0px; fill: rgb(230, 51, 41); fill-opacity: 0.5;"/></g><g class="point"><path d="M320.79,320V318.99H326.14V320Z" style="vector-effect: none; opacity: 1; stroke-width: 0px; fill: rgb(230, 51, 41); fill-opacity: 0.5;"/></g><g class="point"><path d="M326.14,320V319.88H331.49V320Z" style="vector-effect: none; opacity: 1; stroke-width: 0px; fill: rgb(230, 51, 41); fill-opacity: 0.5;"/></g><g class="point"><path d="M331.49,320V319.88H336.83V320Z" style="vector-effect: none; opacity: 1; stroke-width: 0px; fill: rgb(230, 51, 41); fill-opacity: 0.5;"/></g><g class="point"><path d="M336.83,320V319.52H342.18V320Z" style="vector-effect: none; opacity: 1; stroke-width: 0px; fill: rgb(230, 51, 41); fill-opacity: 0.5;"/></g><g class="point"><path d="M342.18,320V319.88H347.52V320Z" style="vector-effect: none; opacity: 1; stroke-width: 0px; fill: rgb(230, 51, 41); fill-opacity: 0.5;"/></g><g class="point"><path d="M347.52,320V319.8H352.87V320Z" style="vector-effect: none; opacity: 1; stroke-width: 0px; fill: rgb(230, 51, 41); fill-opacity: 0.5;"/></g><g class="point"><path d="M352.87,320V319.92H358.22V320Z" style="vector-effect: none; opacity: 1; stroke-width: 0px; fill: rgb(230, 51, 41); fill-opacity: 0.5;"/></g><g class="point"><path d="M358.22,320V319.88H363.56V320Z" style="vector-effect: none; opacity: 1; stroke-width: 0px; fill: rgb(230, 51, 41); fill-opacity: 0.5;"/></g><g class="point"><path d="M363.56,320V319.84H368.91V320Z" style="vector-effect: none; opacity: 1; stroke-width: 0px; fill: rgb(230, 51, 41); fill-opacity: 0.5;"/></g><g class="point"><path d="M368.91,320V319.72H374.26V320Z" style="vector-effect: none; opacity: 1; stroke-width: 0px; fill: rgb(230, 51, 41); fill-opacity: 0.5;"/></g><g class="point"><path d="M374.26,320V319.72H379.6V320Z" style="vector-effect: none; opacity: 1; stroke-width: 0px; fill: rgb(230, 51, 41); fill-opacity: 0.5;"/></g><g class="point"><path d="M379.6,320V319.84H384.95V320Z" style="vector-effect: none; opacity: 1; stroke-width: 0px; fill: rgb(230, 51, 41); fill-opacity: 0.5;"/></g><g class="point"><path d="M384.95,320V319.84H390.3V320Z" style="vector-effect: none; opacity: 1; stroke-width: 0px; fill: rgb(230, 51, 41); fill-opacity: 0.5;"/></g><g class="point"><path d="M390.3,320V319.92H395.64V320Z" style="vector-effect: none; opacity: 1; stroke-width: 0px; fill: rgb(230, 51, 41); fill-opacity: 0.5;"/></g><g class="point"><path d="M395.64,320V319.8H400.99V320Z" style="vector-effect: none; opacity: 1; stroke-width: 0px; fill: rgb(230, 51, 41); fill-opacity: 0.5;"/></g><g class="point"><path d="M400.99,320V319.88H406.34V320Z" style="vector-effect: none; opacity: 1; stroke-width: 0px; fill: rgb(230, 51, 41); fill-opacity: 0.5;"/></g><g class="point"><path d="M406.34,320V319.88H411.68V320Z" style="vector-effect: none; opacity: 1; stroke-width: 0px; fill: rgb(230, 51, 41); fill-opacity: 0.5;"/></g><g class="point"><path d="M411.68,320V319.64H417.03V320Z" style="vector-effect: none; opacity: 1; stroke-width: 0px; fill: rgb(230, 51, 41); fill-opacity: 0.5;"/></g><g class="point"><path d="M417.03,320V319.68H422.38V320Z" style="vector-effect: none; opacity: 1; stroke-width: 0px; fill: rgb(230, 51, 41); fill-opacity: 0.5;"/></g><g class="point"><path d="M422.38,320V319.6H427.72V320Z" style="vector-effect: none; opacity: 1; stroke-width: 0px; fill: rgb(230, 51, 41); fill-opacity: 0.5;"/></g><g class="point"><path d="M427.72,320V319.48H433.07V320Z" style="vector-effect: none; opacity: 1; stroke-width: 0px; fill: rgb(230, 51, 41); fill-opacity: 0.5;"/></g><g class="point"><path d="M433.07,320V319.76H438.42V320Z" style="vector-effect: none; opacity: 1; stroke-width: 0px; fill: rgb(230, 51, 41); fill-opacity: 0.5;"/></g><g class="point"><path d="M438.42,320V319.88H443.76V320Z" style="vector-effect: none; opacity: 1; stroke-width: 0px; fill: rgb(230, 51, 41); fill-opacity: 0.5;"/></g><g class="point"><path d="M443.76,320V319.88H449.11V320Z" style="vector-effect: none; opacity: 1; stroke-width: 0px; fill: rgb(230, 51, 41); fill-opacity: 0.5;"/></g><g class="point"><path d="M449.11,320V319.84H454.46V320Z" style="vector-effect: none; opacity: 1; stroke-width: 0px; fill: rgb(230, 51, 41); fill-opacity: 0.5;"/></g><g class="point"><path d="M454.46,320V319.88H459.8V320Z" style="vector-effect: none; opacity: 1; stroke-width: 0px; fill: rgb(230, 51, 41); fill-opacity: 0.5;"/></g><g class="point"><path d="M459.8,320V319.72H465.15V320Z" style="vector-effect: none; opacity: 1; stroke-width: 0px; fill: rgb(230, 51, 41); fill-opacity: 0.5;"/></g><g class="point"><path d="M465.15,320V319.8H470.5V320Z" style="vector-effect: none; opacity: 1; stroke-width: 0px; fill: rgb(230, 51, 41); fill-opacity: 0.5;"/></g><g class="point"><path d="M470.5,320V319.84H475.84V320Z" style="vector-effect: none; opacity: 1; stroke-width: 0px; fill: rgb(230, 51, 41); fill-opacity: 0.5;"/></g><g class="point"><path d="M475.84,320V319.72H481.19V320Z" style="vector-effect: none; opacity: 1; stroke-width: 0px; fill: rgb(230, 51, 41); fill-opacity: 0.5;"/></g><g class="point"><path d="M481.19,320V319.8H486.53V320Z" style="vector-effect: none; opacity: 1; stroke-width: 0px; fill: rgb(230, 51, 41); fill-opacity: 0.5;"/></g><g class="point"><path d="M486.53,320V319.68H491.88V320Z" style="vector-effect: none; opacity: 1; stroke-width: 0px; fill: rgb(230, 51, 41); fill-opacity: 0.5;"/></g><g class="point"><path d="M491.88,320V319.88H497.23V320Z" style="vector-effect: none; opacity: 1; stroke-width: 0px; fill: rgb(230, 51, 41); fill-opacity: 0.5;"/></g><g class="point"><path d="M497.23,320V319.76H502.57V320Z" style="vector-effect: none; opacity: 1; stroke-width: 0px; fill: rgb(230, 51, 41); fill-opacity: 0.5;"/></g><g class="point"><path d="M502.57,320V319.92H507.92V320Z" style="vector-effect: none; opacity: 1; stroke-width: 0px; fill: rgb(230, 51, 41); fill-opacity: 0.5;"/></g><g class="point"><path d="M507.92,320V319.84H513.27V320Z" style="vector-effect: none; opacity: 1; stroke-width: 0px; fill: rgb(230, 51, 41); fill-opacity: 0.5;"/></g><g class="point"><path d="M513.27,320V319.76H518.61V320Z" style="vector-effect: none; opacity: 1; stroke-width: 0px; fill: rgb(230, 51, 41); fill-opacity: 0.5;"/></g><g class="point"><path d="M518.61,320V319.64H523.96V320Z" style="vector-effect: none; opacity: 1; stroke-width: 0px; fill: rgb(230, 51, 41); fill-opacity: 0.5;"/></g><g class="point"><path d="M523.96,320V319.8H529.31V320Z" style="vector-effect: none; opacity: 1; stroke-width: 0px; fill: rgb(230, 51, 41); fill-opacity: 0.5;"/></g><g class="point"><path d="M529.31,320V319.84H534.65V320Z" style="vector-effect: none; opacity: 1; stroke-width: 0px; fill: rgb(230, 51, 41); fill-opacity: 0.5;"/></g><g class="point"><path d="M534.65,320V288.84H540V320Z" style="vector-effect: none; opacity: 1; stroke-width: 0px; fill: rgb(230, 51, 41); fill-opacity: 0.5;"/></g></g></g></g></g><g class="overplot"/><path class="xlines-above crisp" d="M0,0" style="fill: none;"/><path class="ylines-above crisp" d="M0,0" style="fill: none;"/><g class="overlines-above"/><g class="xaxislayer-above"><g class="xtick"><text text-anchor="middle" x="0" y="433" transform="translate(82.67,0)" style="font-family: 'Open Sans', verdana, arial, sans-serif; font-size: 12px; fill: rgb(42, 63, 95); fill-opacity: 1; white-space: pre; opacity: 1;">0</text></g><g class="xtick"><text text-anchor="middle" x="0" y="433" style="font-family: 'Open Sans', verdana, arial, sans-serif; font-size: 12px; fill: rgb(42, 63, 95); fill-opacity: 1; white-space: pre; opacity: 1;" transform="translate(189.6,0)">1000</text></g><g class="xtick"><text text-anchor="middle" x="0" y="433" style="font-family: 'Open Sans', verdana, arial, sans-serif; font-size: 12px; fill: rgb(42, 63, 95); fill-opacity: 1; white-space: pre; opacity: 1;" transform="translate(296.53,0)">2000</text></g><g class="xtick"><text text-anchor="middle" x="0" y="433" style="font-family: 'Open Sans', verdana, arial, sans-serif; font-size: 12px; fill: rgb(42, 63, 95); fill-opacity: 1; white-space: pre; opacity: 1;" transform="translate(403.47,0)">3000</text></g><g class="xtick"><text text-anchor="middle" x="0" y="433" style="font-family: 'Open Sans', verdana, arial, sans-serif; font-size: 12px; fill: rgb(42, 63, 95); fill-opacity: 1; white-space: pre; opacity: 1;" transform="translate(510.4,0)">4000</text></g><g class="xtick"><text text-anchor="middle" x="0" y="433" style="font-family: 'Open Sans', verdana, arial, sans-serif; font-size: 12px; fill: rgb(42, 63, 95); fill-opacity: 1; white-space: pre; opacity: 1;" transform="translate(617.33,0)">5000</text></g></g><g class="yaxislayer-above"><g class="ytick"><text text-anchor="end" x="79" y="4.199999999999999" transform="translate(0,420)" style="font-family: 'Open Sans', verdana, arial, sans-serif; font-size: 12px; fill: rgb(42, 63, 95); fill-opacity: 1; white-space: pre; opacity: 1;">0</text></g><g class="ytick"><text text-anchor="end" x="79" y="4.199999999999999" style="font-family: 'Open Sans', verdana, arial, sans-serif; font-size: 12px; fill: rgb(42, 63, 95); fill-opacity: 1; white-space: pre; opacity: 1;" transform="translate(0,379.64)">1000</text></g><g class="ytick"><text text-anchor="end" x="79" y="4.199999999999999" style="font-family: 'Open Sans', verdana, arial, sans-serif; font-size: 12px; fill: rgb(42, 63, 95); fill-opacity: 1; white-space: pre; opacity: 1;" transform="translate(0,339.28)">2000</text></g><g class="ytick"><text text-anchor="end" x="79" y="4.199999999999999" style="font-family: 'Open Sans', verdana, arial, sans-serif; font-size: 12px; fill: rgb(42, 63, 95); fill-opacity: 1; white-space: pre; opacity: 1;" transform="translate(0,298.91999999999996)">3000</text></g><g class="ytick"><text text-anchor="end" x="79" y="4.199999999999999" style="font-family: 'Open Sans', verdana, arial, sans-serif; font-size: 12px; fill: rgb(42, 63, 95); fill-opacity: 1; white-space: pre; opacity: 1;" transform="translate(0,258.56)">4000</text></g><g class="ytick"><text text-anchor="end" x="79" y="4.199999999999999" style="font-family: 'Open Sans', verdana, arial, sans-serif; font-size: 12px; fill: rgb(42, 63, 95); fill-opacity: 1; white-space: pre; opacity: 1;" transform="translate(0,218.19)">5000</text></g><g class="ytick"><text text-anchor="end" x="79" y="4.199999999999999" style="font-family: 'Open Sans', verdana, arial, sans-serif; font-size: 12px; fill: rgb(42, 63, 95); fill-opacity: 1; white-space: pre; opacity: 1;" transform="translate(0,177.82999999999998)">6000</text></g><g class="ytick"><text text-anchor="end" x="79" y="4.199999999999999" style="font-family: 'Open Sans', verdana, arial, sans-serif; font-size: 12px; fill: rgb(42, 63, 95); fill-opacity: 1; white-space: pre; opacity: 1;" transform="translate(0,137.47)">7000</text></g></g><g class="overaxes-above"/></g></g><g class="polarlayer"/><g class="smithlayer"/><g class="ternarylayer"/><g class="geolayer"/><g class="funnelarealayer"/><g class="pielayer"/><g class="iciclelayer"/><g class="treemaplayer"/><g class="sunburstlayer"/><g class="glimages"/><defs id="topdefs-339541"><g class="clips"/><clipPath id="legend339541"><rect width="184" height="29" x="0" y="0"/></clipPath></defs><g class="layer-above"><g class="imagelayer"/><g class="shapelayer"/></g><g class="infolayer"><g class="legend" pointer-events="all" transform="translate(436,64.6)"><rect class="bg" shape-rendering="crispEdges" width="184" height="29" x="0" y="0" style="stroke: rgb(68, 68, 68); stroke-opacity: 1; fill: rgb(255, 255, 255); fill-opacity: 1; stroke-width: 0px;"/><g class="scrollbox" transform="" clip-path="url(#legend339541)"><g class="groups"><g class="traces" transform="translate(0,14.5)" style="opacity: 1;"><text class="legendtext" text-anchor="start" x="40" y="4.680000000000001" style="font-family: 'Open Sans', verdana, arial, sans-serif; font-size: 12px; fill: rgb(42, 63, 95); fill-opacity: 1; white-space: pre;">Real</text><g class="layers" style="opacity: 1;"><g class="legendfill"/><g class="legendlines"/><g class="legendsymbols"><g class="legendpoints"><path class="legendundefined" d="M6,6H-6V-6H6Z" transform="translate(20,0)" style="stroke-width: 0px; fill: rgb(0, 75, 147); fill-opacity: 0.5;"/></g></g></g><rect class="legendtoggle" x="0" y="-9.5" width="68.375" height="19" style="fill: rgb(0, 0, 0); fill-opacity: 0;"/></g><g class="traces" transform="translate(70.875,14.5)" style="opacity: 1;"><text class="legendtext" text-anchor="start" x="40" y="4.680000000000001" style="font-family: 'Open Sans', verdana, arial, sans-serif; font-size: 12px; fill: rgb(42, 63, 95); fill-opacity: 1; white-space: pre;">tddpm_mlp</text><g class="layers" style="opacity: 1;"><g class="legendfill"/><g class="legendlines"/><g class="legendsymbols"><g class="legendpoints"><path class="legendundefined" d="M6,6H-6V-6H6Z" transform="translate(20,0)" style="stroke-width: 0px; fill: rgb(230, 51, 41); fill-opacity: 0.5;"/></g></g></g><rect class="legendtoggle" x="0" y="-9.5" width="110.390625" height="19" style="fill: rgb(0, 0, 0); fill-opacity: 0;"/></g></g></g><rect class="scrollbar" rx="20" ry="3" width="0" height="0" x="0" y="0" style="fill: rgb(128, 139, 164); fill-opacity: 1;"/></g><g class="g-gtitle"><text class="gtitle" x="35" y="50" text-anchor="start" dy="0em" style="font-family: 'Open Sans', verdana, arial, sans-serif; font-size: 17px; fill: rgb(42, 63, 95); opacity: 1; font-weight: normal; white-space: pre;">Field &#60;M Size> Distribution</text></g><g class="g-xtitle"><text class="xtitle" x="350" y="460.3" text-anchor="middle" style="font-family: 'Open Sans', verdana, arial, sans-serif; font-size: 14px; fill: rgb(42, 63, 95); opacity: 1; font-weight: normal; white-space: pre;">Total &#60;M Size></text></g><g class="g-ytitle"><text class="ytitle" transform="rotate(-90,24.153125000000003,260)" x="24.153125000000003" y="260" text-anchor="middle" style="font-family: 'Open Sans', verdana, arial, sans-serif; font-size: 14px; fill: rgb(42, 63, 95); opacity: 1; font-weight: normal; white-space: pre;">Frequency</text></g></g></svg>