<svg class="main-svg" xmlns="http://www.w3.org/2000/svg" xmlns:xlink="http://www.w3.org/1999/xlink" width="700" height="500" style="" viewBox="0 0 700 500"><rect x="0" y="0" width="700" height="500" style="fill: rgb(255, 255, 255); fill-opacity: 1;"/><defs id="defs-91fc24"><g class="clips"><clipPath id="clip91fc24xyplot" class="plotclip"><rect width="540" height="320"/></clipPath><clipPath class="axesclip" id="clip91fc24x"><rect x="80" y="0" width="540" height="500"/></clipPath><clipPath class="axesclip" id="clip91fc24y"><rect x="0" y="100" width="700" height="320"/></clipPath><clipPath class="axesclip" id="clip91fc24xy"><rect x="80" y="100" width="540" height="320"/></clipPath></g><g class="gradients"/><g class="patterns"/></defs><g class="bglayer"><rect class="bg" x="80" y="100" width="540" height="320" style="fill: rgb(229, 236, 246); fill-opacity: 1; stroke-width: 0;"/></g><g class="layer-below"><g class="imagelayer"/><g class="shapelayer"/></g><g class="cartesianlayer"><g class="subplot xy"><g class="layer-subplot"><g class="shapelayer"/><g class="imagelayer"/></g><g class="minor-gridlayer"><g class="x"/><g class="y"/></g><g class="gridlayer"><g class="x"/><g class="y"><path class="ygrid crisp" transform="translate(0,357.47)" d="M80,0h540" style="stroke: rgb(255, 255, 255); stroke-opacity: 1; stroke-width: 1px;"/><path class="ygrid crisp" transform="translate(0,294.94)" d="M80,0h540" style="stroke: rgb(255, 255, 255); stroke-opacity: 1; stroke-width: 1px;"/><path class="ygrid crisp" transform="translate(0,232.41)" d="M80,0h540" style="stroke: rgb(255, 255, 255); stroke-opacity: 1; stroke-width: 1px;"/><path class="ygrid crisp" transform="translate(0,169.89)" d="M80,0h540" style="stroke: rgb(255, 255, 255); stroke-opacity: 1; stroke-width: 1px;"/><path class="ygrid crisp" transform="translate(0,107.36)" d="M80,0h540" style="stroke: rgb(255, 255, 255); stroke-opacity: 1; stroke-width: 1px;"/></g></g><g class="zerolinelayer"><path class="yzl zl crisp" transform="translate(0,420)" d="M80,0h540" style="stroke: rgb(255, 255, 255); stroke-opacity: 1; stroke-width: 2px;"/></g><path class="xlines-below"/><path class="ylines-below"/><g class="overlines-below"/><g class="xaxislayer-below"/><g class="yaxislayer-below"/><g class="overaxes-below"/><g class="plot" transform="translate(80,100)" clip-path="url(#clip91fc24xyplot)"><g class="barlayer mlayer"><g class="trace bars" shape-rendering="crispEdges" style="opacity: 1;"><g class="points"><g class="point"><path d="M0,320V287.43H9.6V320Z" style="vector-effect: none; opacity: 1; stroke-width: 0px; fill: rgb(0, 75, 147); fill-opacity: 0.5;"/></g><g class="point"><path d="M9.6,320V298.04H19.2V320Z" style="vector-effect: none; opacity: 1; stroke-width: 0px; fill: rgb(0, 75, 147); fill-opacity: 0.5;"/></g><g class="point"><path d="M19.2,320V284.4H28.8V320Z" style="vector-effect: none; opacity: 1; stroke-width: 0px; fill: rgb(0, 75, 147); fill-opacity: 0.5;"/></g><g class="point"><path d="M28.8,320V270.39H38.4V320Z" style="vector-effect: none; opacity: 1; stroke-width: 0px; fill: rgb(0, 75, 147); fill-opacity: 0.5;"/></g><g class="point"><path d="M38.4,320V264.33H48V320Z" style="vector-effect: none; opacity: 1; stroke-width: 0px; fill: rgb(0, 75, 147); fill-opacity: 0.5;"/></g><g class="point"><path d="M48,320V254.49H57.6V320Z" style="vector-effect: none; opacity: 1; stroke-width: 0px; fill: rgb(0, 75, 147); fill-opacity: 0.5;"/></g><g class="point"><path d="M57.6,320V277.21H67.2V320Z" style="vector-effect: none; opacity: 1; stroke-width: 0px; fill: rgb(0, 75, 147); fill-opacity: 0.5;"/></g><g class="point"><path d="M67.2,320V284.78H76.8V320Z" style="vector-effect: none; opacity: 1; stroke-width: 0px; fill: rgb(0, 75, 147); fill-opacity: 0.5;"/></g><g class="point"><path d="M76.8,320V279.48H86.4V320Z" style="vector-effect: none; opacity: 1; stroke-width: 0px; fill: rgb(0, 75, 147); fill-opacity: 0.5;"/></g><g class="point"><path d="M86.4,320V257.14H96V320Z" style="vector-effect: none; opacity: 1; stroke-width: 0px; fill: rgb(0, 75, 147); fill-opacity: 0.5;"/></g><g class="point"><path d="M96,320V265.47H105.6V320Z" style="vector-effect: none; opacity: 1; stroke-width: 0px; fill: rgb(0, 75, 147); fill-opacity: 0.5;"/></g><g class="point"><path d="M105.6,320V263.95H115.2V320Z" style="vector-effect: none; opacity: 1; stroke-width: 0px; fill: rgb(0, 75, 147); fill-opacity: 0.5;"/></g><g class="point"><path d="M115.2,320V231.01H124.8V320Z" style="vector-effect: none; opacity: 1; stroke-width: 0px; fill: rgb(0, 75, 147); fill-opacity: 0.5;"/></g><g class="point"><path d="M124.8,320V234.04H134.4V320Z" style="vector-effect: none; opacity: 1; stroke-width: 0px; fill: rgb(0, 75, 147); fill-opacity: 0.5;"/></g><g class="point"><path d="M134.4,320V248.81H144V320Z" style="vector-effect: none; opacity: 1; stroke-width: 0px; fill: rgb(0, 75, 147); fill-opacity: 0.5;"/></g><g class="point"><path d="M144,320V274.94H153.6V320Z" style="vector-effect: none; opacity: 1; stroke-width: 0px; fill: rgb(0, 75, 147); fill-opacity: 0.5;"/></g><g class="point"><path d="M153.6,320V298.79H163.2V320Z" style="vector-effect: none; opacity: 1; stroke-width: 0px; fill: rgb(0, 75, 147); fill-opacity: 0.5;"/></g><g class="point"><path d="M163.2,320V307.5H172.8V320Z" style="vector-effect: none; opacity: 1; stroke-width: 0px; fill: rgb(0, 75, 147); fill-opacity: 0.5;"/></g><g class="point"><path d="M172.8,320V288.57H182.4V320Z" style="vector-effect: none; opacity: 1; stroke-width: 0px; fill: rgb(0, 75, 147); fill-opacity: 0.5;"/></g><g class="point"><path d="M182.4,320V269.26H192V320Z" style="vector-effect: none; opacity: 1; stroke-width: 0px; fill: rgb(0, 75, 147); fill-opacity: 0.5;"/></g><g class="point"><path d="M192,320V224.57H201.6V320Z" style="vector-effect: none; opacity: 1; stroke-width: 0px; fill: rgb(0, 75, 147); fill-opacity: 0.5;"/></g><g class="point"><path d="M201.6,320V200.71H211.2V320Z" style="vector-effect: none; opacity: 1; stroke-width: 0px; fill: rgb(0, 75, 147); fill-opacity: 0.5;"/></g><g class="point"><path d="M211.2,320V246.91H220.8V320Z" style="vector-effect: none; opacity: 1; stroke-width: 0px; fill: rgb(0, 75, 147); fill-opacity: 0.5;"/></g><g class="point"><path d="M220.8,320V204.5H230.4V320Z" style="vector-effect: none; opacity: 1; stroke-width: 0px; fill: rgb(0, 75, 147); fill-opacity: 0.5;"/></g><g class="point"><path d="M230.4,320V192H240V320Z" style="vector-effect: none; opacity: 1; stroke-width: 0px; fill: rgb(0, 75, 147); fill-opacity: 0.5;"/></g><g class="point"><path d="M240,320V172.31H249.6V320Z" style="vector-effect: none; opacity: 1; stroke-width: 0px; fill: rgb(0, 75, 147); fill-opacity: 0.5;"/></g><g class="point"><path d="M249.6,320V184.43H259.2V320Z" style="vector-effect: none; opacity: 1; stroke-width: 0px; fill: rgb(0, 75, 147); fill-opacity: 0.5;"/></g><g class="point"><path d="M259.2,320V148.46H268.8V320Z" style="vector-effect: none; opacity: 1; stroke-width: 0px; fill: rgb(0, 75, 147); fill-opacity: 0.5;"/></g><g class="point"><path d="M268.8,320V202.61H278.4V320Z" style="vector-effect: none; opacity: 1; stroke-width: 0px; fill: rgb(0, 75, 147); fill-opacity: 0.5;"/></g><g class="point"><path d="M278.4,320V150.73H288V320Z" style="vector-effect: none; opacity: 1; stroke-width: 0px; fill: rgb(0, 75, 147); fill-opacity: 0.5;"/></g><g class="point"><path d="M288,320V175.72H297.6V320Z" style="vector-effect: none; opacity: 1; stroke-width: 0px; fill: rgb(0, 75, 147); fill-opacity: 0.5;"/></g><g class="point"><path d="M297.6,320V150.73H307.2V320Z" style="vector-effect: none; opacity: 1; stroke-width: 0px; fill: rgb(0, 75, 147); fill-opacity: 0.5;"/></g><g class="point"><path d="M307.2,320V209.8H316.8V320Z" style="vector-effect: none; opacity: 1; stroke-width: 0px; fill: rgb(0, 75, 147); fill-opacity: 0.5;"/></g><g class="point"><path d="M316.8,320V134.07H326.4V320Z" style="vector-effect: none; opacity: 1; stroke-width: 0px; fill: rgb(0, 75, 147); fill-opacity: 0.5;"/></g><g class="point"><path d="M326.4,320V126.87H336V320Z" style="vector-effect: none; opacity: 1; stroke-width: 0px; fill: rgb(0, 75, 147); fill-opacity: 0.5;"/></g><g class="point"><path d="M336,320V244.64H345.6V320Z" style="vector-effect: none; opacity: 1; stroke-width: 0px; fill: rgb(0, 75, 147); fill-opacity: 0.5;"/></g><g class="point"><path d="M345.6,320V233.28H355.2V320Z" style="vector-effect: none; opacity: 1; stroke-width: 0px; fill: rgb(0, 75, 147); fill-opacity: 0.5;"/></g><g class="point"><path d="M355.2,320V210.18H364.8V320Z" style="vector-effect: none; opacity: 1; stroke-width: 0px; fill: rgb(0, 75, 147); fill-opacity: 0.5;"/></g><g class="point"><path d="M364.8,320V118.16H374.4V320Z" style="vector-effect: none; opacity: 1; stroke-width: 0px; fill: rgb(0, 75, 147); fill-opacity: 0.5;"/></g><g class="point"><path d="M374.4,320V104.15H384V320Z" style="vector-effect: none; opacity: 1; stroke-width: 0px; fill: rgb(0, 75, 147); fill-opacity: 0.5;"/></g><g class="point"><path d="M384,320V187.08H393.6V320Z" style="vector-effect: none; opacity: 1; stroke-width: 0px; fill: rgb(0, 75, 147); fill-opacity: 0.5;"/></g><g class="point"><path d="M393.6,320V224.19H403.2V320Z" style="vector-effect: none; opacity: 1; stroke-width: 0px; fill: rgb(0, 75, 147); fill-opacity: 0.5;"/></g><g class="point"><path d="M403.2,320V190.49H412.8V320Z" style="vector-effect: none; opacity: 1; stroke-width: 0px; fill: rgb(0, 75, 147); fill-opacity: 0.5;"/></g><g class="point"><path d="M412.8,320V166.63H422.4V320Z" style="vector-effect: none; opacity: 1; stroke-width: 0px; fill: rgb(0, 75, 147); fill-opacity: 0.5;"/></g><g class="point"><path d="M422.4,320V148.46H432V320Z" style="vector-effect: none; opacity: 1; stroke-width: 0px; fill: rgb(0, 75, 147); fill-opacity: 0.5;"/></g><g class="point"><path d="M432,320V153H441.6V320Z" style="vector-effect: none; opacity: 1; stroke-width: 0px; fill: rgb(0, 75, 147); fill-opacity: 0.5;"/></g><g class="point"><path d="M441.6,320V198.06H451.2V320Z" style="vector-effect: none; opacity: 1; stroke-width: 0px; fill: rgb(0, 75, 147); fill-opacity: 0.5;"/></g><g class="point"><path d="M451.2,320V196.17H460.8V320Z" style="vector-effect: none; opacity: 1; stroke-width: 0px; fill: rgb(0, 75, 147); fill-opacity: 0.5;"/></g><g class="point"><path d="M460.8,320V208.29H470.4V320Z" style="vector-effect: none; opacity: 1; stroke-width: 0px; fill: rgb(0, 75, 147); fill-opacity: 0.5;"/></g><g class="point"><path d="M470.4,320V168.9H480V320Z" style="vector-effect: none; opacity: 1; stroke-width: 0px; fill: rgb(0, 75, 147); fill-opacity: 0.5;"/></g><g class="point"><path d="M480,320V163.6H489.6V320Z" style="vector-effect: none; opacity: 1; stroke-width: 0px; fill: rgb(0, 75, 147); fill-opacity: 0.5;"/></g><g class="point"><path d="M489.6,320V121.57H499.2V320Z" style="vector-effect: none; opacity: 1; stroke-width: 0px; fill: rgb(0, 75, 147); fill-opacity: 0.5;"/></g><g class="point"><path d="M499.2,320V46.97H508.8V320Z" style="vector-effect: none; opacity: 1; stroke-width: 0px; fill: rgb(0, 75, 147); fill-opacity: 0.5;"/></g><g class="point"><path d="M508.8,320V50H518.4V320Z" style="vector-effect: none; opacity: 1; stroke-width: 0px; fill: rgb(0, 75, 147); fill-opacity: 0.5;"/></g><g class="point"><path d="M518.4,320V134.44H528V320Z" style="vector-effect: none; opacity: 1; stroke-width: 0px; fill: rgb(0, 75, 147); fill-opacity: 0.5;"/></g><g class="point"><path d="M528,320V234.42H537.6V320Z" style="vector-effect: none; opacity: 1; stroke-width: 0px; fill: rgb(0, 75, 147); fill-opacity: 0.5;"/></g></g></g><g class="trace bars" shape-rendering="crispEdges" style="opacity: 1;"><g class="points"><g class="point"><path d="M2.4,320V294.67H12V320Z" style="vector-effect: none; opacity: 1; stroke-width: 0px; fill: rgb(230, 51, 41); fill-opacity: 0.5;"/></g><g class="point"><path d="M12,320V311.65H21.6V320Z" style="vector-effect: none; opacity: 1; stroke-width: 0px; fill: rgb(230, 51, 41); fill-opacity: 0.5;"/></g><g class="point"><path d="M21.6,320V296.45H31.2V320Z" style="vector-effect: none; opacity: 1; stroke-width: 0px; fill: rgb(230, 51, 41); fill-opacity: 0.5;"/></g><g class="point"><path d="M31.2,320V290.79H40.8V320Z" style="vector-effect: none; opacity: 1; stroke-width: 0px; fill: rgb(230, 51, 41); fill-opacity: 0.5;"/></g><g class="point"><path d="M40.8,320V279.47H50.4V320Z" style="vector-effect: none; opacity: 1; stroke-width: 0px; fill: rgb(230, 51, 41); fill-opacity: 0.5;"/></g><g class="point"><path d="M50.4,320V269.93H60V320Z" style="vector-effect: none; opacity: 1; stroke-width: 0px; fill: rgb(230, 51, 41); fill-opacity: 0.5;"/></g><g class="point"><path d="M60,320V292.88H69.6V320Z" style="vector-effect: none; opacity: 1; stroke-width: 0px; fill: rgb(230, 51, 41); fill-opacity: 0.5;"/></g><g class="point"><path d="M69.6,320V291.39H79.2V320Z" style="vector-effect: none; opacity: 1; stroke-width: 0px; fill: rgb(230, 51, 41); fill-opacity: 0.5;"/></g><g class="point"><path d="M79.2,320V281.55H88.8V320Z" style="vector-effect: none; opacity: 1; stroke-width: 0px; fill: rgb(230, 51, 41); fill-opacity: 0.5;"/></g><g class="point"><path d="M88.8,320V265.76H98.4V320Z" style="vector-effect: none; opacity: 1; stroke-width: 0px; fill: rgb(230, 51, 41); fill-opacity: 0.5;"/></g><g class="point"><path d="M98.4,320V268.14H108V320Z" style="vector-effect: none; opacity: 1; stroke-width: 0px; fill: rgb(230, 51, 41); fill-opacity: 0.5;"/></g><g class="point"><path d="M108,320V277.38H117.6V320Z" style="vector-effect: none; opacity: 1; stroke-width: 0px; fill: rgb(230, 51, 41); fill-opacity: 0.5;"/></g><g class="point"><path d="M117.6,320V231.48H127.2V320Z" style="vector-effect: none; opacity: 1; stroke-width: 0px; fill: rgb(230, 51, 41); fill-opacity: 0.5;"/></g><g class="point"><path d="M127.2,320V236.55H136.8V320Z" style="vector-effect: none; opacity: 1; stroke-width: 0px; fill: rgb(230, 51, 41); fill-opacity: 0.5;"/></g><g class="point"><path d="M136.8,320V246.38H146.4V320Z" style="vector-effect: none; opacity: 1; stroke-width: 0px; fill: rgb(230, 51, 41); fill-opacity: 0.5;"/></g><g class="point"><path d="M146.4,320V273.51H156V320Z" style="vector-effect: none; opacity: 1; stroke-width: 0px; fill: rgb(230, 51, 41); fill-opacity: 0.5;"/></g><g class="point"><path d="M156,320V296.75H165.6V320Z" style="vector-effect: none; opacity: 1; stroke-width: 0px; fill: rgb(230, 51, 41); fill-opacity: 0.5;"/></g><g class="point"><path d="M165.6,320V305.69H175.2V320Z" style="vector-effect: none; opacity: 1; stroke-width: 0px; fill: rgb(230, 51, 41); fill-opacity: 0.5;"/></g><g class="point"><path d="M175.2,320V291.98H184.8V320Z" style="vector-effect: none; opacity: 1; stroke-width: 0px; fill: rgb(230, 51, 41); fill-opacity: 0.5;"/></g><g class="point"><path d="M184.8,320V279.17H194.4V320Z" style="vector-effect: none; opacity: 1; stroke-width: 0px; fill: rgb(230, 51, 41); fill-opacity: 0.5;"/></g><g class="point"><path d="M194.4,320V228.5H204V320Z" style="vector-effect: none; opacity: 1; stroke-width: 0px; fill: rgb(230, 51, 41); fill-opacity: 0.5;"/></g><g class="point"><path d="M204,320V205.25H213.6V320Z" style="vector-effect: none; opacity: 1; stroke-width: 0px; fill: rgb(230, 51, 41); fill-opacity: 0.5;"/></g><g class="point"><path d="M213.6,320V260.99H223.2V320Z" style="vector-effect: none; opacity: 1; stroke-width: 0px; fill: rgb(230, 51, 41); fill-opacity: 0.5;"/></g><g class="point"><path d="M223.2,320V211.51H232.8V320Z" style="vector-effect: none; opacity: 1; stroke-width: 0px; fill: rgb(230, 51, 41); fill-opacity: 0.5;"/></g><g class="point"><path d="M232.8,320V190.35H242.4V320Z" style="vector-effect: none; opacity: 1; stroke-width: 0px; fill: rgb(230, 51, 41); fill-opacity: 0.5;"/></g><g class="point"><path d="M242.4,320V182.9H252V320Z" style="vector-effect: none; opacity: 1; stroke-width: 0px; fill: rgb(230, 51, 41); fill-opacity: 0.5;"/></g><g class="point"><path d="M252,320V190.35H261.6V320Z" style="vector-effect: none; opacity: 1; stroke-width: 0px; fill: rgb(230, 51, 41); fill-opacity: 0.5;"/></g><g class="point"><path d="M261.6,320V134.32H271.2V320Z" style="vector-effect: none; opacity: 1; stroke-width: 0px; fill: rgb(230, 51, 41); fill-opacity: 0.5;"/></g><g class="point"><path d="M271.2,320V202.27H280.8V320Z" style="vector-effect: none; opacity: 1; stroke-width: 0px; fill: rgb(230, 51, 41); fill-opacity: 0.5;"/></g><g class="point"><path d="M280.8,320V149.82H290.4V320Z" style="vector-effect: none; opacity: 1; stroke-width: 0px; fill: rgb(230, 51, 41); fill-opacity: 0.5;"/></g><g class="point"><path d="M290.4,320V155.18H300V320Z" style="vector-effect: none; opacity: 1; stroke-width: 0px; fill: rgb(230, 51, 41); fill-opacity: 0.5;"/></g><g class="point"><path d="M300,320V122.7H309.6V320Z" style="vector-effect: none; opacity: 1; stroke-width: 0px; fill: rgb(230, 51, 41); fill-opacity: 0.5;"/></g><g class="point"><path d="M309.6,320V193.63H319.2V320Z" style="vector-effect: none; opacity: 1; stroke-width: 0px; fill: rgb(230, 51, 41); fill-opacity: 0.5;"/></g><g class="point"><path d="M319.2,320V91.11H328.8V320Z" style="vector-effect: none; opacity: 1; stroke-width: 0px; fill: rgb(230, 51, 41); fill-opacity: 0.5;"/></g><g class="point"><path d="M328.8,320V66.37H338.4V320Z" style="vector-effect: none; opacity: 1; stroke-width: 0px; fill: rgb(230, 51, 41); fill-opacity: 0.5;"/></g><g class="point"><path d="M338.4,320V230.59H348V320Z" style="vector-effect: none; opacity: 1; stroke-width: 0px; fill: rgb(230, 51, 41); fill-opacity: 0.5;"/></g><g class="point"><path d="M348,320V206.15H357.6V320Z" style="vector-effect: none; opacity: 1; stroke-width: 0px; fill: rgb(230, 51, 41); fill-opacity: 0.5;"/></g><g class="point"><path d="M357.6,320V209.43H367.2V320Z" style="vector-effect: none; opacity: 1; stroke-width: 0px; fill: rgb(230, 51, 41); fill-opacity: 0.5;"/></g><g class="point"><path d="M367.2,320V102.43H376.8V320Z" style="vector-effect: none; opacity: 1; stroke-width: 0px; fill: rgb(230, 51, 41); fill-opacity: 0.5;"/></g><g class="point"><path d="M376.8,320V100.05H386.4V320Z" style="vector-effect: none; opacity: 1; stroke-width: 0px; fill: rgb(230, 51, 41); fill-opacity: 0.5;"/></g><g class="point"><path d="M386.4,320V205.25H396V320Z" style="vector-effect: none; opacity: 1; stroke-width: 0px; fill: rgb(230, 51, 41); fill-opacity: 0.5;"/></g><g class="point"><path d="M396,320V236.25H405.6V320Z" style="vector-effect: none; opacity: 1; stroke-width: 0px; fill: rgb(230, 51, 41); fill-opacity: 0.5;"/></g><g class="point"><path d="M405.6,320V204.66H415.2V320Z" style="vector-effect: none; opacity: 1; stroke-width: 0px; fill: rgb(230, 51, 41); fill-opacity: 0.5;"/></g><g class="point"><path d="M415.2,320V177.54H424.8V320Z" style="vector-effect: none; opacity: 1; stroke-width: 0px; fill: rgb(230, 51, 41); fill-opacity: 0.5;"/></g><g class="point"><path d="M424.8,320V156.67H434.4V320Z" style="vector-effect: none; opacity: 1; stroke-width: 0px; fill: rgb(230, 51, 41); fill-opacity: 0.5;"/></g><g class="point"><path d="M434.4,320V171.28H444V320Z" style="vector-effect: none; opacity: 1; stroke-width: 0px; fill: rgb(230, 51, 41); fill-opacity: 0.5;"/></g><g class="point"><path d="M444,320V203.47H453.6V320Z" style="vector-effect: none; opacity: 1; stroke-width: 0px; fill: rgb(230, 51, 41); fill-opacity: 0.5;"/></g><g class="point"><path d="M453.6,320V193.33H463.2V320Z" style="vector-effect: none; opacity: 1; stroke-width: 0px; fill: rgb(230, 51, 41); fill-opacity: 0.5;"/></g><g class="point"><path d="M463.2,320V210.62H472.8V320Z" style="vector-effect: none; opacity: 1; stroke-width: 0px; fill: rgb(230, 51, 41); fill-opacity: 0.5;"/></g><g class="point"><path d="M472.8,320V161.74H482.4V320Z" style="vector-effect: none; opacity: 1; stroke-width: 0px; fill: rgb(230, 51, 41); fill-opacity: 0.5;"/></g><g class="point"><path d="M482.4,320V157.87H492V320Z" style="vector-effect: none; opacity: 1; stroke-width: 0px; fill: rgb(230, 51, 41); fill-opacity: 0.5;"/></g><g class="point"><path d="M492,320V123.89H501.6V320Z" style="vector-effect: none; opacity: 1; stroke-width: 0px; fill: rgb(230, 51, 41); fill-opacity: 0.5;"/></g><g class="point"><path d="M501.6,320V38.65H511.2V320Z" style="vector-effect: none; opacity: 1; stroke-width: 0px; fill: rgb(230, 51, 41); fill-opacity: 0.5;"/></g><g class="point"><path d="M511.2,320V16H520.8V320Z" style="vector-effect: none; opacity: 1; stroke-width: 0px; fill: rgb(230, 51, 41); fill-opacity: 0.5;"/></g><g class="point"><path d="M520.8,320V139.98H530.4V320Z" style="vector-effect: none; opacity: 1; stroke-width: 0px; fill: rgb(230, 51, 41); fill-opacity: 0.5;"/></g><g class="point"><path d="M530.4,320V254.43H540V320Z" style="vector-effect: none; opacity: 1; stroke-width: 0px; fill: rgb(230, 51, 41); fill-opacity: 0.5;"/></g></g></g><g class="trace bars" shape-rendering="crispEdges" style="opacity: 1;"><g class="points"><g class="point"><path d="M2.4,320V301.36H12V320Z" style="vector-effect: none; opacity: 1; stroke-width: 0px; fill: rgb(254, 207, 68); fill-opacity: 0.5;"/></g><g class="point"><path d="M12,320V294.44H21.6V320Z" style="vector-effect: none; opacity: 1; stroke-width: 0px; fill: rgb(254, 207, 68); fill-opacity: 0.5;"/></g><g class="point"><path d="M21.6,320V286.93H31.2V320Z" style="vector-effect: none; opacity: 1; stroke-width: 0px; fill: rgb(254, 207, 68); fill-opacity: 0.5;"/></g><g class="point"><path d="M31.2,320V274H40.8V320Z" style="vector-effect: none; opacity: 1; stroke-width: 0px; fill: rgb(254, 207, 68); fill-opacity: 0.5;"/></g><g class="point"><path d="M40.8,320V270.09H50.4V320Z" style="vector-effect: none; opacity: 1; stroke-width: 0px; fill: rgb(254, 207, 68); fill-opacity: 0.5;"/></g><g class="point"><path d="M50.4,320V268.58H60V320Z" style="vector-effect: none; opacity: 1; stroke-width: 0px; fill: rgb(254, 207, 68); fill-opacity: 0.5;"/></g><g class="point"><path d="M60,320V268.58H69.6V320Z" style="vector-effect: none; opacity: 1; stroke-width: 0px; fill: rgb(254, 207, 68); fill-opacity: 0.5;"/></g><g class="point"><path d="M69.6,320V269.19H79.2V320Z" style="vector-effect: none; opacity: 1; stroke-width: 0px; fill: rgb(254, 207, 68); fill-opacity: 0.5;"/></g><g class="point"><path d="M79.2,320V268.58H88.8V320Z" style="vector-effect: none; opacity: 1; stroke-width: 0px; fill: rgb(254, 207, 68); fill-opacity: 0.5;"/></g><g class="point"><path d="M88.8,320V258.66H98.4V320Z" style="vector-effect: none; opacity: 1; stroke-width: 0px; fill: rgb(254, 207, 68); fill-opacity: 0.5;"/></g><g class="point"><path d="M98.4,320V255.96H108V320Z" style="vector-effect: none; opacity: 1; stroke-width: 0px; fill: rgb(254, 207, 68); fill-opacity: 0.5;"/></g><g class="point"><path d="M108,320V254.75H117.6V320Z" style="vector-effect: none; opacity: 1; stroke-width: 0px; fill: rgb(254, 207, 68); fill-opacity: 0.5;"/></g><g class="point"><path d="M117.6,320V246.33H127.2V320Z" style="vector-effect: none; opacity: 1; stroke-width: 0px; fill: rgb(254, 207, 68); fill-opacity: 0.5;"/></g><g class="point"><path d="M127.2,320V232.5H136.8V320Z" style="vector-effect: none; opacity: 1; stroke-width: 0px; fill: rgb(254, 207, 68); fill-opacity: 0.5;"/></g><g class="point"><path d="M136.8,320V267.68H146.4V320Z" style="vector-effect: none; opacity: 1; stroke-width: 0px; fill: rgb(254, 207, 68); fill-opacity: 0.5;"/></g><g class="point"><path d="M146.4,320V281.81H156V320Z" style="vector-effect: none; opacity: 1; stroke-width: 0px; fill: rgb(254, 207, 68); fill-opacity: 0.5;"/></g><g class="point"><path d="M156,320V290.23H165.6V320Z" style="vector-effect: none; opacity: 1; stroke-width: 0px; fill: rgb(254, 207, 68); fill-opacity: 0.5;"/></g><g class="point"><path d="M165.6,320V292.64H175.2V320Z" style="vector-effect: none; opacity: 1; stroke-width: 0px; fill: rgb(254, 207, 68); fill-opacity: 0.5;"/></g><g class="point"><path d="M175.2,320V287.53H184.8V320Z" style="vector-effect: none; opacity: 1; stroke-width: 0px; fill: rgb(254, 207, 68); fill-opacity: 0.5;"/></g><g class="point"><path d="M184.8,320V271.89H194.4V320Z" style="vector-effect: none; opacity: 1; stroke-width: 0px; fill: rgb(254, 207, 68); fill-opacity: 0.5;"/></g><g class="point"><path d="M194.4,320V243.33H204V320Z" style="vector-effect: none; opacity: 1; stroke-width: 0px; fill: rgb(254, 207, 68); fill-opacity: 0.5;"/></g><g class="point"><path d="M204,320V198.53H213.6V320Z" style="vector-effect: none; opacity: 1; stroke-width: 0px; fill: rgb(254, 207, 68); fill-opacity: 0.5;"/></g><g class="point"><path d="M213.6,320V229.8H223.2V320Z" style="vector-effect: none; opacity: 1; stroke-width: 0px; fill: rgb(254, 207, 68); fill-opacity: 0.5;"/></g><g class="point"><path d="M223.2,320V202.44H232.8V320Z" style="vector-effect: none; opacity: 1; stroke-width: 0px; fill: rgb(254, 207, 68); fill-opacity: 0.5;"/></g><g class="point"><path d="M232.8,320V192.51H242.4V320Z" style="vector-effect: none; opacity: 1; stroke-width: 0px; fill: rgb(254, 207, 68); fill-opacity: 0.5;"/></g><g class="point"><path d="M242.4,320V173.27H252V320Z" style="vector-effect: none; opacity: 1; stroke-width: 0px; fill: rgb(254, 207, 68); fill-opacity: 0.5;"/></g><g class="point"><path d="M252,320V168.76H261.6V320Z" style="vector-effect: none; opacity: 1; stroke-width: 0px; fill: rgb(254, 207, 68); fill-opacity: 0.5;"/></g><g class="point"><path d="M261.6,320V151.62H271.2V320Z" style="vector-effect: none; opacity: 1; stroke-width: 0px; fill: rgb(254, 207, 68); fill-opacity: 0.5;"/></g><g class="point"><path d="M271.2,320V183.79H280.8V320Z" style="vector-effect: none; opacity: 1; stroke-width: 0px; fill: rgb(254, 207, 68); fill-opacity: 0.5;"/></g><g class="point"><path d="M280.8,320V139.29H290.4V320Z" style="vector-effect: none; opacity: 1; stroke-width: 0px; fill: rgb(254, 207, 68); fill-opacity: 0.5;"/></g><g class="point"><path d="M290.4,320V177.78H300V320Z" style="vector-effect: none; opacity: 1; stroke-width: 0px; fill: rgb(254, 207, 68); fill-opacity: 0.5;"/></g><g class="point"><path d="M300,320V166.66H309.6V320Z" style="vector-effect: none; opacity: 1; stroke-width: 0px; fill: rgb(254, 207, 68); fill-opacity: 0.5;"/></g><g class="point"><path d="M309.6,320V187.1H319.2V320Z" style="vector-effect: none; opacity: 1; stroke-width: 0px; fill: rgb(254, 207, 68); fill-opacity: 0.5;"/></g><g class="point"><path d="M319.2,320V142.9H328.8V320Z" style="vector-effect: none; opacity: 1; stroke-width: 0px; fill: rgb(254, 207, 68); fill-opacity: 0.5;"/></g><g class="point"><path d="M328.8,320V149.82H338.4V320Z" style="vector-effect: none; opacity: 1; stroke-width: 0px; fill: rgb(254, 207, 68); fill-opacity: 0.5;"/></g><g class="point"><path d="M338.4,320V228.9H348V320Z" style="vector-effect: none; opacity: 1; stroke-width: 0px; fill: rgb(254, 207, 68); fill-opacity: 0.5;"/></g><g class="point"><path d="M348,320V212.96H357.6V320Z" style="vector-effect: none; opacity: 1; stroke-width: 0px; fill: rgb(254, 207, 68); fill-opacity: 0.5;"/></g><g class="point"><path d="M357.6,320V185.9H367.2V320Z" style="vector-effect: none; opacity: 1; stroke-width: 0px; fill: rgb(254, 207, 68); fill-opacity: 0.5;"/></g><g class="point"><path d="M367.2,320V129.07H376.8V320Z" style="vector-effect: none; opacity: 1; stroke-width: 0px; fill: rgb(254, 207, 68); fill-opacity: 0.5;"/></g><g class="point"><path d="M376.8,320V142H386.4V320Z" style="vector-effect: none; opacity: 1; stroke-width: 0px; fill: rgb(254, 207, 68); fill-opacity: 0.5;"/></g><g class="point"><path d="M386.4,320V196.12H396V320Z" style="vector-effect: none; opacity: 1; stroke-width: 0px; fill: rgb(254, 207, 68); fill-opacity: 0.5;"/></g><g class="point"><path d="M396,320V213.86H405.6V320Z" style="vector-effect: none; opacity: 1; stroke-width: 0px; fill: rgb(254, 207, 68); fill-opacity: 0.5;"/></g><g class="point"><path d="M405.6,320V190.71H415.2V320Z" style="vector-effect: none; opacity: 1; stroke-width: 0px; fill: rgb(254, 207, 68); fill-opacity: 0.5;"/></g><g class="point"><path d="M415.2,320V172.67H424.8V320Z" style="vector-effect: none; opacity: 1; stroke-width: 0px; fill: rgb(254, 207, 68); fill-opacity: 0.5;"/></g><g class="point"><path d="M424.8,320V161.84H434.4V320Z" style="vector-effect: none; opacity: 1; stroke-width: 0px; fill: rgb(254, 207, 68); fill-opacity: 0.5;"/></g><g class="point"><path d="M434.4,320V165.45H444V320Z" style="vector-effect: none; opacity: 1; stroke-width: 0px; fill: rgb(254, 207, 68); fill-opacity: 0.5;"/></g><g class="point"><path d="M444,320V179.88H453.6V320Z" style="vector-effect: none; opacity: 1; stroke-width: 0px; fill: rgb(254, 207, 68); fill-opacity: 0.5;"/></g><g class="point"><path d="M453.6,320V184.4H463.2V320Z" style="vector-effect: none; opacity: 1; stroke-width: 0px; fill: rgb(254, 207, 68); fill-opacity: 0.5;"/></g><g class="point"><path d="M463.2,320V203.04H472.8V320Z" style="vector-effect: none; opacity: 1; stroke-width: 0px; fill: rgb(254, 207, 68); fill-opacity: 0.5;"/></g><g class="point"><path d="M472.8,320V183.19H482.4V320Z" style="vector-effect: none; opacity: 1; stroke-width: 0px; fill: rgb(254, 207, 68); fill-opacity: 0.5;"/></g><g class="point"><path d="M482.4,320V165.45H492V320Z" style="vector-effect: none; opacity: 1; stroke-width: 0px; fill: rgb(254, 207, 68); fill-opacity: 0.5;"/></g><g class="point"><path d="M492,320V102.61H501.6V320Z" style="vector-effect: none; opacity: 1; stroke-width: 0px; fill: rgb(254, 207, 68); fill-opacity: 0.5;"/></g><g class="point"><path d="M501.6,320V31.95H511.2V320Z" style="vector-effect: none; opacity: 1; stroke-width: 0px; fill: rgb(254, 207, 68); fill-opacity: 0.5;"/></g><g class="point"><path d="M511.2,320V47.89H520.8V320Z" style="vector-effect: none; opacity: 1; stroke-width: 0px; fill: rgb(254, 207, 68); fill-opacity: 0.5;"/></g><g class="point"><path d="M520.8,320V159.44H530.4V320Z" style="vector-effect: none; opacity: 1; stroke-width: 0px; fill: rgb(254, 207, 68); fill-opacity: 0.5;"/></g><g class="point"><path d="M530.4,320V260.47H540V320Z" style="vector-effect: none; opacity: 1; stroke-width: 0px; fill: rgb(254, 207, 68); fill-opacity: 0.5;"/></g></g></g></g></g><g class="overplot"/><path class="xlines-above crisp" d="M0,0" style="fill: none;"/><path class="ylines-above crisp" d="M0,0" style="fill: none;"/><g class="overlines-above"/><g class="xaxislayer-above"><g class="xtick"><text text-anchor="middle" x="0" y="433" transform="translate(82.4,0)" style="font-family: 'Open Sans', verdana, arial, sans-serif; font-size: 12px; fill: rgb(42, 63, 95); fill-opacity: 1; white-space: pre; opacity: 1;">1900</text></g><g class="xtick"><text text-anchor="middle" x="0" y="433" style="font-family: 'Open Sans', verdana, arial, sans-serif; font-size: 12px; fill: rgb(42, 63, 95); fill-opacity: 1; white-space: pre; opacity: 1;" transform="translate(178.4,0)">1920</text></g><g class="xtick"><text text-anchor="middle" x="0" y="433" style="font-family: 'Open Sans', verdana, arial, sans-serif; font-size: 12px; fill: rgb(42, 63, 95); fill-opacity: 1; white-space: pre; opacity: 1;" transform="translate(274.4,0)">1940</text></g><g class="xtick"><text text-anchor="middle" x="0" y="433" style="font-family: 'Open Sans', verdana, arial, sans-serif; font-size: 12px; fill: rgb(42, 63, 95); fill-opacity: 1; white-space: pre; opacity: 1;" transform="translate(370.4,0)">1960</text></g><g class="xtick"><text text-anchor="middle" x="0" y="433" style="font-family: 'Open Sans', verdana, arial, sans-serif; font-size: 12px; fill: rgb(42, 63, 95); fill-opacity: 1; white-space: pre; opacity: 1;" transform="translate(466.4,0)">1980</text></g><g class="xtick"><text text-anchor="middle" x="0" y="433" style="font-family: 'Open Sans', verdana, arial, sans-serif; font-size: 12px; fill: rgb(42, 63, 95); fill-opacity: 1; white-space: pre; opacity: 1;" transform="translate(562.4,0)">2000</text></g></g><g class="yaxislayer-above"><g class="ytick"><text text-anchor="end" x="79" y="4.199999999999999" transform="translate(0,420)" style="font-family: 'Open Sans', verdana, arial, sans-serif; font-size: 12px; fill: rgb(42, 63, 95); fill-opacity: 1; white-space: pre; opacity: 1;">0</text></g><g class="ytick"><text text-anchor="end" x="79" y="4.199999999999999" style="font-family: 'Open Sans', verdana, arial, sans-serif; font-size: 12px; fill: rgb(42, 63, 95); fill-opacity: 1; white-space: pre; opacity: 1;" transform="translate(0,357.47)">1</text></g><g class="ytick"><text text-anchor="end" x="79" y="4.199999999999999" style="font-family: 'Open Sans', verdana, arial, sans-serif; font-size: 12px; fill: rgb(42, 63, 95); fill-opacity: 1; white-space: pre; opacity: 1;" transform="translate(0,294.94)">2</text></g><g class="ytick"><text text-anchor="end" x="79" y="4.199999999999999" style="font-family: 'Open Sans', verdana, arial, sans-serif; font-size: 12px; fill: rgb(42, 63, 95); fill-opacity: 1; white-space: pre; opacity: 1;" transform="translate(0,232.41)">3</text></g><g class="ytick"><text text-anchor="end" x="79" y="4.199999999999999" style="font-family: 'Open Sans', verdana, arial, sans-serif; font-size: 12px; fill: rgb(42, 63, 95); fill-opacity: 1; white-space: pre; opacity: 1;" transform="translate(0,169.89)">4</text></g><g class="ytick"><text text-anchor="end" x="79" y="4.199999999999999" style="font-family: 'Open Sans', verdana, arial, sans-serif; font-size: 12px; fill: rgb(42, 63, 95); fill-opacity: 1; white-space: pre; opacity: 1;" transform="translate(0,107.36)">5</text></g></g><g class="overaxes-above"/></g></g><g class="polarlayer"/><g class="smithlayer"/><g class="ternarylayer"/><g class="geolayer"/><g class="funnelarealayer"/><g class="pielayer"/><g class="iciclelayer"/><g class="treemaplayer"/><g class="sunburstlayer"/><g class="glimages"/><defs id="topdefs-91fc24"><g class="clips"/><clipPath id="legend91fc24"><rect width="235" height="29" x="0" y="0"/></clipPath></defs><g class="layer-above"><g class="imagelayer"/><g class="shapelayer"/></g><g class="infolayer"><g class="legend" pointer-events="all" transform="translate(385,64.6)"><rect class="bg" shape-rendering="crispEdges" width="235" height="29" x="0" y="0" style="stroke: rgb(68, 68, 68); stroke-opacity: 1; fill: rgb(255, 255, 255); fill-opacity: 1; stroke-width: 0px;"/><g class="scrollbox" transform="" clip-path="url(#legend91fc24)"><g class="groups"><g class="traces" transform="translate(0,14.5)" style="opacity: 1;"><text class="legendtext" text-anchor="start" x="40" y="4.680000000000001" style="font-family: 'Open Sans', verdana, arial, sans-serif; font-size: 12px; fill: rgb(42, 63, 95); fill-opacity: 1; white-space: pre;">Real</text><g class="layers" style="opacity: 1;"><g class="legendfill"/><g class="legendlines"/><g class="legendsymbols"><g class="legendpoints"><path class="legendundefined" d="M6,6H-6V-6H6Z" transform="translate(20,0)" style="stroke-width: 0px; fill: rgb(0, 75, 147); fill-opacity: 0.5;"/></g></g></g><rect class="legendtoggle" x="0" y="-9.5" width="66.359375" height="19" style="fill: rgb(0, 0, 0); fill-opacity: 0;"/></g><g class="traces" transform="translate(68.859375,14.5)" style="opacity: 1;"><text class="legendtext" text-anchor="start" x="40" y="4.680000000000001" style="font-family: 'Open Sans', verdana, arial, sans-serif; font-size: 12px; fill: rgb(42, 63, 95); fill-opacity: 1; white-space: pre;">Tddpm</text><g class="layers" style="opacity: 1;"><g class="legendfill"/><g class="legendlines"/><g class="legendsymbols"><g class="legendpoints"><path class="legendundefined" d="M6,6H-6V-6H6Z" transform="translate(20,0)" style="stroke-width: 0px; fill: rgb(230, 51, 41); fill-opacity: 0.5;"/></g></g></g><rect class="legendtoggle" x="0" y="-9.5" width="82.375" height="19" style="fill: rgb(0, 0, 0); fill-opacity: 0;"/></g><g class="traces" transform="translate(153.734375,14.5)" style="opacity: 1;"><text class="legendtext" text-anchor="start" x="40" y="4.680000000000001" style="font-family: 'Open Sans', verdana, arial, sans-serif; font-size: 12px; fill: rgb(42, 63, 95); fill-opacity: 1; white-space: pre;">Smote</text><g class="layers" style="opacity: 1;"><g class="legendfill"/><g class="legendlines"/><g class="legendsymbols"><g class="legendpoints"><path class="legendundefined" d="M6,6H-6V-6H6Z" transform="translate(20,0)" style="stroke-width: 0px; fill: rgb(254, 207, 68); fill-opacity: 0.5;"/></g></g></g><rect class="legendtoggle" x="0" y="-9.5" width="78.734375" height="19" style="fill: rgb(0, 0, 0); fill-opacity: 0;"/></g></g></g><rect class="scrollbar" rx="20" ry="3" width="0" height="0" x="0" y="0" style="fill: rgb(128, 139, 164); fill-opacity: 1;"/></g><g class="g-gtitle"><text class="gtitle" x="35" y="50" text-anchor="start" dy="0em" style="font-family: 'Open Sans', verdana, arial, sans-serif; font-size: 17px; fill: rgb(42, 63, 95); opacity: 1; font-weight: normal; white-space: pre;">Distribución Variable Yr Built</text></g><g class="g-xtitle"><text class="xtitle" x="350" y="461.3" text-anchor="middle" style="font-family: 'Open Sans', verdana, arial, sans-serif; font-size: 14px; fill: rgb(42, 63, 95); opacity: 1; font-weight: normal; white-space: pre;">Total &#60;Yr Built></text></g><g class="g-ytitle"><text class="ytitle" transform="rotate(-90,47.825,260)" x="47.825" y="260" text-anchor="middle" style="font-family: 'Open Sans', verdana, arial, sans-serif; font-size: 14px; fill: rgb(42, 63, 95); opacity: 1; font-weight: normal; white-space: pre;">Frequency Percentage</text></g></g></svg>